<?plantuml 1.2026.2beta3?><svg xmlns="http://www.w3.org/2000/svg" xmlns:xlink="http://www.w3.org/1999/xlink" contentStyleType="text/css" data-diagram-type="CLASS" height="118px" preserveAspectRatio="none" style="width:255px;height:118px;" version="1.1" viewBox="0 0 255 118" width="255px" zoomAndPan="magnify"><defs/><g><!--class Tier--><g class="entity" data-qualified-name="Tier" data-source-line="5" id="ent0002"><rect fill="#262626" height="92.8906" rx="2.5" ry="2.5" style="stroke:#D4D4D4;stroke-width:1;" width="229.6631" x="12" y="12"/><ellipse cx="109.6763" cy="26" fill="#262626" rx="9" ry="9" style="stroke:#D4D4D4;stroke-width:1;"/><path d="M112.645,31.6406 Q112.0669,31.9375 111.4263,32.0781 Q110.7856,32.2344 110.0825,32.2344 Q107.5825,32.2344 106.2544,30.5938 Q104.9419,28.9375 104.9419,25.8125 Q104.9419,22.6875 106.2544,21.0313 Q107.5825,19.375 110.0825,19.375 Q110.7856,19.375 111.4263,19.5313 Q112.0825,19.6875 112.645,19.9844 L112.645,22.7031 Q112.02,22.125 111.4263,21.8594 Q110.8325,21.5781 110.2075,21.5781 Q108.8638,21.5781 108.1763,22.6563 Q107.4888,23.7188 107.4888,25.8125 Q107.4888,27.9063 108.1763,28.9844 Q108.8638,30.0469 110.2075,30.0469 Q110.8325,30.0469 111.4263,29.7813 Q112.02,29.5 112.645,28.9219 L112.645,31.6406 Z " fill="#D4D4D4"/><text fill="#D4D4D4" font-family="Verdana" font-size="14" lengthAdjust="spacing" textLength="26.8105" x="127.1763" y="30.8467">Tier</text><line style="stroke:#D4D4D4;stroke-width:1;" x1="13" x2="240.6631" y1="40" y2="40"/><text fill="#D4D4D4" font-family="Verdana" font-size="14" lengthAdjust="spacing" textLength="100.1533" x="18" y="56.9951">-name : String</text><text fill="#D4D4D4" font-family="Verdana" font-size="14" lengthAdjust="spacing" textLength="69.248" x="18" y="73.292">-alter : int</text><line style="stroke:#D4D4D4;stroke-width:1;" x1="13" x2="240.6631" y1="80.5938" y2="80.5938"/><text fill="#D4D4D4" font-family="Verdana" font-size="14" lengthAdjust="spacing" textLength="217.6631" x="18" y="97.5889">+Tier(name : String, alter : int)</text></g><?plantuml-src LOun3i8m34NtdC9i841YxiR8N2xW1AkDcjYLuomWxax8rAx_FVl_WysK2Nogj6faSsM9lA9Y1ezXcLGglu8aKJ15BWtHpWe9IxcRQVJLw164n_Wck6sKB2nXLcazffLSFu5d98MF0xW2OqC3ZEq9Jz0ZJDRm06tIFpXt_RWJBrlf1Exx0m00?></g></svg>