<?plantuml 1.2026.2beta3?><svg xmlns="http://www.w3.org/2000/svg" xmlns:xlink="http://www.w3.org/1999/xlink" contentStyleType="text/css" data-diagram-type="CLASS" height="117px" preserveAspectRatio="none" style="width:250px;height:117px;" version="1.1" viewBox="0 0 250 117" width="250px" zoomAndPan="magnify"><defs/><g><!--class Tier--><g class="entity" data-qualified-name="Tier" data-source-line="3" id="ent0002"><rect fill="#313139" height="96.8906" rx="2.5" ry="2.5" style="stroke:#E7E7E7;stroke-width:0.5;" width="229.6631" x="7" y="7"/><ellipse cx="104.1763" cy="23" fill="#2E5233" rx="11" ry="11" style="stroke:#E7E7E7;stroke-width:1;"/><path d="M107.145,28.6406 Q106.5669,28.9375 105.9263,29.0781 Q105.2856,29.2344 104.5825,29.2344 Q102.0825,29.2344 100.7544,27.5938 Q99.4419,25.9375 99.4419,22.8125 Q99.4419,19.6875 100.7544,18.0313 Q102.0825,16.375 104.5825,16.375 Q105.2856,16.375 105.9263,16.5313 Q106.5825,16.6875 107.145,16.9844 L107.145,19.7031 Q106.52,19.125 105.9263,18.8594 Q105.3325,18.5781 104.7075,18.5781 Q103.3638,18.5781 102.6763,19.6563 Q101.9888,20.7188 101.9888,22.8125 Q101.9888,24.9063 102.6763,25.9844 Q103.3638,27.0469 104.7075,27.0469 Q105.3325,27.0469 105.9263,26.7813 Q106.52,26.5 107.145,25.9219 L107.145,28.6406 Z " fill="#FFFFFF"/><text fill="#FFFFFF" font-family="sans-serif" font-size="14" lengthAdjust="spacing" textLength="26.8105" x="124.6763" y="27.8467">Tier</text><line style="stroke:#E7E7E7;stroke-width:0.5;" x1="8" x2="235.6631" y1="39" y2="39"/><text fill="#FFFFFF" font-family="sans-serif" font-size="14" lengthAdjust="spacing" textLength="100.1533" x="13" y="55.9951">-name : String</text><text fill="#FFFFFF" font-family="sans-serif" font-size="14" lengthAdjust="spacing" textLength="69.248" x="13" y="72.292">-alter : int</text><line style="stroke:#E7E7E7;stroke-width:0.5;" x1="8" x2="235.6631" y1="79.5938" y2="79.5938"/><text fill="#FFFFFF" font-family="sans-serif" font-size="14" lengthAdjust="spacing" textLength="217.6631" x="13" y="96.5889">+Tier(name : String, alter : int)</text></g><?plantuml-src LSen3i8m34RXFQVuHn0WCNTZP2uNS8DLMKqTvBWB5NSdpL31-jvN9j4N6SqOA4wZvKMVCQTiS2CjTR5wABkAYKgvkPiCY_CzPktbpRY6Dl0GDgm1k41fPdJeAzKHBL7okZk8-XPEZH_-uFaN7H4-Nm00?></g></svg>