<?plantuml 1.2026.2beta3?><svg xmlns="http://www.w3.org/2000/svg" xmlns:xlink="http://www.w3.org/1999/xlink" contentStyleType="text/css" data-diagram-type="CLASS" height="118px" preserveAspectRatio="none" style="width:222px;height:118px;" version="1.1" viewBox="0 0 222 118" width="222px" zoomAndPan="magnify"><defs/><g><!--class Tier--><g class="entity" data-qualified-name="Tier" data-source-line="5" id="ent0002"><rect fill="#262626" height="92.8906" rx="2.5" ry="2.5" style="stroke:#D4D4D4;stroke-width:1;" width="196.8369" x="12" y="12"/><ellipse cx="93.2632" cy="26" fill="#262626" rx="9" ry="9" style="stroke:#D4D4D4;stroke-width:1;"/><path d="M96.2319,31.6406 Q95.6538,31.9375 95.0132,32.0781 Q94.3726,32.2344 93.6694,32.2344 Q91.1694,32.2344 89.8413,30.5938 Q88.5288,28.9375 88.5288,25.8125 Q88.5288,22.6875 89.8413,21.0313 Q91.1694,19.375 93.6694,19.375 Q94.3726,19.375 95.0132,19.5313 Q95.6694,19.6875 96.2319,19.9844 L96.2319,22.7031 Q95.6069,22.125 95.0132,21.8594 Q94.4194,21.5781 93.7944,21.5781 Q92.4507,21.5781 91.7632,22.6563 Q91.0757,23.7188 91.0757,25.8125 Q91.0757,27.9063 91.7632,28.9844 Q92.4507,30.0469 93.7944,30.0469 Q94.4194,30.0469 95.0132,29.7813 Q95.6069,29.5 96.2319,28.9219 L96.2319,31.6406 Z " fill="#D4D4D4"/><text fill="#D4D4D4" font-family="Verdana" font-size="14" lengthAdjust="spacing" textLength="26.8105" x="110.7632" y="30.8467">Tier</text><line style="stroke:#D4D4D4;stroke-width:1;" x1="13" x2="207.8369" y1="40" y2="40"/><text fill="#D4D4D4" font-family="Verdana" font-size="14" lengthAdjust="spacing" textLength="69.248" x="18" y="56.9951">-alter : int</text><line style="stroke:#D4D4D4;stroke-width:1;" x1="13" x2="207.8369" y1="64.2969" y2="64.2969"/><text fill="#D4D4D4" font-family="Verdana" font-size="14" lengthAdjust="spacing" textLength="184.8369" x="18" y="81.292">+setAlter(neuesAlter : int)</text><text fill="#D4D4D4" font-family="Verdana" font-size="14" lengthAdjust="spacing" textLength="110.8379" x="18" y="97.5889">+getAlter() : int</text></g><?plantuml-src LOsn3i8m34JtV8NPg10ICrj6PlY195XjrCIkR6S1yUy4K0LiftllT1kRi2B4qd2HJEPqphG42HLYIFCetEYQkB20II3j2F-iL8AgDvCSc-4fCPtp3U7merGcJfDm_p5fwDuJk6GKk3k0FOHYFH-X_qClTg1e_jLj2Hkg_-BXmyUL3-lgyGG0?></g></svg>