<?plantuml 1.2026.2beta3?><svg xmlns="http://www.w3.org/2000/svg" xmlns:xlink="http://www.w3.org/1999/xlink" contentStyleType="text/css" data-diagram-type="CLASS" height="117px" preserveAspectRatio="none" style="width:217px;height:117px;" version="1.1" viewBox="0 0 217 117" width="217px" zoomAndPan="magnify"><defs/><g><!--class Tier--><g class="entity" data-qualified-name="Tier" data-source-line="3" id="ent0002"><rect fill="#313139" height="96.8906" rx="2.5" ry="2.5" style="stroke:#E7E7E7;stroke-width:0.5;" width="196.8369" x="7" y="7"/><ellipse cx="87.7632" cy="23" fill="#2E5233" rx="11" ry="11" style="stroke:#E7E7E7;stroke-width:1;"/><path d="M90.7319,28.6406 Q90.1538,28.9375 89.5132,29.0781 Q88.8726,29.2344 88.1694,29.2344 Q85.6694,29.2344 84.3413,27.5938 Q83.0288,25.9375 83.0288,22.8125 Q83.0288,19.6875 84.3413,18.0313 Q85.6694,16.375 88.1694,16.375 Q88.8726,16.375 89.5132,16.5313 Q90.1694,16.6875 90.7319,16.9844 L90.7319,19.7031 Q90.1069,19.125 89.5132,18.8594 Q88.9194,18.5781 88.2944,18.5781 Q86.9507,18.5781 86.2632,19.6563 Q85.5757,20.7188 85.5757,22.8125 Q85.5757,24.9063 86.2632,25.9844 Q86.9507,27.0469 88.2944,27.0469 Q88.9194,27.0469 89.5132,26.7813 Q90.1069,26.5 90.7319,25.9219 L90.7319,28.6406 Z " fill="#FFFFFF"/><text fill="#FFFFFF" font-family="sans-serif" font-size="14" lengthAdjust="spacing" textLength="26.8105" x="108.2632" y="27.8467">Tier</text><line style="stroke:#E7E7E7;stroke-width:0.5;" x1="8" x2="202.8369" y1="39" y2="39"/><text fill="#FFFFFF" font-family="sans-serif" font-size="14" lengthAdjust="spacing" textLength="69.248" x="13" y="55.9951">-alter : int</text><line style="stroke:#E7E7E7;stroke-width:0.5;" x1="8" x2="202.8369" y1="63.2969" y2="63.2969"/><text fill="#FFFFFF" font-family="sans-serif" font-size="14" lengthAdjust="spacing" textLength="184.8369" x="13" y="80.292">+setAlter(neuesAlter : int)</text><text fill="#FFFFFF" font-family="sans-serif" font-size="14" lengthAdjust="spacing" textLength="110.8379" x="13" y="96.5889">+getAlter() : int</text></g><?plantuml-src HSkn3i8m30JGFLzn8nL2OkwMaHb-m0rM5JKuo7OM4FzEA2fiftjtjcIvaz8D4wLbrjhaccgf2bSIwyJYmNwhLCWikckUclCfLJdd1-COLi0bi-8PW0EeUCyZiZXwiOUnnq-t4sviyS_3r-VDX-trUWC0?></g></svg>