<svg xmlns="http://www.w3.org/2000/svg" xmlns:xlink="http://www.w3.org/1999/xlink" contentStyleType="text/css" data-diagram-type="SEQUENCE" height="681px" preserveAspectRatio="none" style="width:822px;height:681px;" version="1.1" viewBox="0 0 822 681" width="822px" zoomAndPan="magnify"><?plantuml 1.2026.3beta4?><defs/><g><g><title>. ScannerController</title><rect fill="#FFFFFF" height="602.9922" style="stroke:#E7E7E7;stroke-width:1;" width="10" x="119.8091" y="67.4297"/></g><g><title>. ScannerController</title><rect fill="#FFFFFF" height="25" style="stroke:#E7E7E7;stroke-width:1;" width="10" x="124.8091" y="293.4922"/></g><g><title>. ScannerController</title><rect fill="#FFFFFF" height="25" style="stroke:#E7E7E7;stroke-width:1;" width="10" x="124.8091" y="488.1563"/></g><g><title>. ScannerController</title><rect fill="#FFFFFF" height="25" style="stroke:#E7E7E7;stroke-width:1;" width="10" x="124.8091" y="602.4219"/></g><g><title>. BarcodeScanner</title><rect fill="#FFFFFF" height="29.1328" style="stroke:#E7E7E7;stroke-width:1;" width="10" x="352.8145" y="120.6953"/></g><g><title>. BarcodeScanner</title><rect fill="#FFFFFF" height="29.1328" style="stroke:#E7E7E7;stroke-width:1;" width="10" x="352.8145" y="203.0938"/></g><g><title>. FlughafenVerwaltung</title><rect fill="#FFFFFF" height="29.1328" style="stroke:#E7E7E7;stroke-width:1;" width="10" x="518.25" y="354.625"/></g><g><title>. GepaeckSchleuse</title><rect fill="#FFFFFF" height="14" style="stroke:#E7E7E7;stroke-width:1;" width="10" x="688.2383" y="437.0234"/></g><g><title>. GepaeckSchleuse</title><rect fill="#FFFFFF" height="14" style="stroke:#E7E7E7;stroke-width:1;" width="10" x="688.2383" y="549.2891"/></g><rect fill="none" height="580.9922" style="stroke:#888888;stroke-width:1.5;" width="796.8647" x="10" y="82.4297"/><rect fill="none" height="491.5938" style="stroke:#888888;stroke-width:1.5;" width="776.8647" x="20" y="164.8281"/><rect fill="none" height="402.1953" style="stroke:#888888;stroke-width:1.5;" width="756.8647" x="30" y="247.2266"/><rect fill="none" height="243.6641" style="stroke:#888888;stroke-width:1.5;" width="736.8647" x="40" y="398.7578"/><g class="participant-lifeline" data-entity-uid="part1" data-qualified-name="C" id="part1-lifeline"><g><title>. ScannerController</title><rect fill="#000000" fill-opacity="0.00000" height="644.125" width="8" x="120.8091" y="36.2969"/><line style="stroke:#E7E7E7;stroke-width:0.5;stroke-dasharray:5,5;" x1="124" x2="124" y1="36.2969" y2="680.4219"/></g></g><g class="participant-lifeline" data-entity-uid="part2" data-qualified-name="S" id="part2-lifeline"><g><title>. BarcodeScanner</title><rect fill="#000000" fill-opacity="0.00000" height="644.125" width="8" x="353.8145" y="36.2969"/><line style="stroke:#E7E7E7;stroke-width:0.5;stroke-dasharray:5,5;" x1="357.7407" x2="357.7407" y1="36.2969" y2="680.4219"/></g></g><g class="participant-lifeline" data-entity-uid="part3" data-qualified-name="V" id="part3-lifeline"><g><title>. FlughafenVerwaltung</title><rect fill="#000000" fill-opacity="0.00000" height="644.125" width="8" x="519.25" y="36.2969"/><line style="stroke:#E7E7E7;stroke-width:0.5;stroke-dasharray:5,5;" x1="522.8882" x2="522.8882" y1="36.2969" y2="680.4219"/></g></g><g class="participant-lifeline" data-entity-uid="part4" data-qualified-name="G" id="part4-lifeline"><g><title>. GepaeckSchleuse</title><rect fill="#000000" fill-opacity="0.00000" height="644.125" width="8" x="689.2383" y="36.2969"/><line style="stroke:#E7E7E7;stroke-width:0.5;stroke-dasharray:5,5;" x1="692.6118" x2="692.6118" y1="36.2969" y2="680.4219"/></g></g><g class="participant participant-head" data-entity-uid="part1" data-qualified-name="C" id="part1-head"><rect fill="#222222" height="30.2969" rx="2.5" ry="2.5" style="stroke:#E7E7E7;stroke-width:0.5;" width="149.6182" x="50" y="5"/><text fill="#FFFFFF" font-family="sans-serif" font-size="14" lengthAdjust="spacing" textLength="135.6182" x="57" y="24.9951">: ScannerController</text></g><g class="participant participant-head" data-entity-uid="part2" data-qualified-name="S" id="part2-head"><rect fill="#222222" height="30.2969" rx="2.5" ry="2.5" style="stroke:#E7E7E7;stroke-width:0.5;" width="138.1475" x="288.7407" y="5"/><text fill="#FFFFFF" font-family="sans-serif" font-size="14" lengthAdjust="spacing" textLength="124.1475" x="295.7407" y="24.9951">: BarcodeScanner</text></g><g class="participant participant-head" data-entity-uid="part3" data-qualified-name="V" id="part3-head"><rect fill="#222222" height="30.2969" rx="2.5" ry="2.5" style="stroke:#E7E7E7;stroke-width:0.5;" width="172.7236" x="436.8882" y="5"/><text fill="#FFFFFF" font-family="sans-serif" font-size="14" lengthAdjust="spacing" textLength="158.7236" x="443.8882" y="24.9951">: FlughafenVerwaltung</text></g><g class="participant participant-head" data-entity-uid="part4" data-qualified-name="G" id="part4-head"><rect fill="#222222" height="30.2969" rx="2.5" ry="2.5" style="stroke:#E7E7E7;stroke-width:0.5;" width="147.2529" x="619.6118" y="5"/><text fill="#FFFFFF" font-family="sans-serif" font-size="14" lengthAdjust="spacing" textLength="133.2529" x="626.6118" y="24.9951">: GepaeckSchleuse</text></g><g><title>. ScannerController</title><rect fill="#FFFFFF" height="602.9922" style="stroke:#E7E7E7;stroke-width:1;" width="10" x="119.8091" y="67.4297"/></g><g><title>. ScannerController</title><rect fill="#FFFFFF" height="25" style="stroke:#E7E7E7;stroke-width:1;" width="10" x="124.8091" y="293.4922"/></g><g><title>. ScannerController</title><rect fill="#FFFFFF" height="25" style="stroke:#E7E7E7;stroke-width:1;" width="10" x="124.8091" y="488.1563"/></g><g><title>. ScannerController</title><rect fill="#FFFFFF" height="25" style="stroke:#E7E7E7;stroke-width:1;" width="10" x="124.8091" y="602.4219"/></g><g><title>. BarcodeScanner</title><rect fill="#FFFFFF" height="29.1328" style="stroke:#E7E7E7;stroke-width:1;" width="10" x="352.8145" y="120.6953"/></g><g><title>. BarcodeScanner</title><rect fill="#FFFFFF" height="29.1328" style="stroke:#E7E7E7;stroke-width:1;" width="10" x="352.8145" y="203.0938"/></g><g><title>. FlughafenVerwaltung</title><rect fill="#FFFFFF" height="29.1328" style="stroke:#E7E7E7;stroke-width:1;" width="10" x="518.25" y="354.625"/></g><g><title>. GepaeckSchleuse</title><rect fill="#FFFFFF" height="14" style="stroke:#E7E7E7;stroke-width:1;" width="10" x="688.2383" y="437.0234"/></g><g><title>. GepaeckSchleuse</title><rect fill="#FFFFFF" height="14" style="stroke:#E7E7E7;stroke-width:1;" width="10" x="688.2383" y="549.2891"/></g><g class="message" data-entity-1="part1" data-entity-2="part1" id="msg1"><ellipse cx="7.5" cy="66.6797" fill="#000000" rx="4" ry="4" style="stroke:#E7E7E7;stroke-width:1.5;"/><polygon fill="#E7E7E7" points="107.8091,63.4297,117.8091,67.4297,107.8091,71.4297,111.8091,67.4297" style="stroke:#E7E7E7;stroke-width:1;"/><line style="stroke:#E7E7E7;stroke-width:1;" x1="12" x2="113.8091" y1="67.4297" y2="67.4297"/><text fill="#FFFFFF" font-family="sans-serif" font-size="13" lengthAdjust="spacing" textLength="31.9668" x="15" y="62.3638">run()</text></g><path d="M10,82.4297 L86.624,82.4297 L86.624,89.5625 L76.624,99.5625 L10,99.5625 L10,82.4297" fill="#222222" style="stroke:#888888;stroke-width:1.5;"/><rect fill="none" height="580.9922" style="stroke:#888888;stroke-width:1.5;" width="796.8647" x="10" y="82.4297"/><text fill="#FFFFFF" font-family="sans-serif" font-size="13" font-weight="700" lengthAdjust="spacing" textLength="31.624" x="25" y="95.4966">loop</text><text fill="#888888" font-family="sans-serif" font-size="11" font-weight="700" lengthAdjust="spacing" textLength="99.2954" x="101.624" y="94.6401">[Endlosschleife]</text><g class="message" data-entity-1="part1" data-entity-2="part2" id="msg2"><polygon fill="#E7E7E7" points="340.8145,116.6953,350.8145,120.6953,340.8145,124.6953,344.8145,120.6953" style="stroke:#E7E7E7;stroke-width:1;"/><line style="stroke:#E7E7E7;stroke-width:1;" x1="129.8091" x2="346.8145" y1="120.6953" y2="120.6953"/><text fill="#FFFFFF" font-family="sans-serif" font-size="13" lengthAdjust="spacing" textLength="61.4707" x="136.8091" y="115.6294">isReady()</text></g><g class="message" data-entity-1="part2" data-entity-2="part1" id="msg3"><polygon fill="#E7E7E7" points="140.8091,145.8281,130.8091,149.8281,140.8091,153.8281,136.8091,149.8281" style="stroke:#E7E7E7;stroke-width:1;"/><line style="stroke:#E7E7E7;stroke-width:1;stroke-dasharray:2,2;" x1="134.8091" x2="356.8145" y1="149.8281" y2="149.8281"/><text fill="#FFFFFF" font-family="sans-serif" font-size="13" lengthAdjust="spacing" textLength="37.2544" x="146.8091" y="144.7622">ready</text></g><path d="M20,164.8281 L89.4512,164.8281 L89.4512,171.9609 L79.4512,181.9609 L20,181.9609 L20,164.8281" fill="#222222" style="stroke:#888888;stroke-width:1.5;"/><rect fill="none" height="491.5938" style="stroke:#888888;stroke-width:1.5;" width="776.8647" x="20" y="164.8281"/><text fill="#FFFFFF" font-family="sans-serif" font-size="13" font-weight="700" lengthAdjust="spacing" textLength="24.4512" x="35" y="177.895">opt</text><text fill="#888888" font-family="sans-serif" font-size="11" font-weight="700" lengthAdjust="spacing" textLength="97.4746" x="104.4512" y="177.0386">[ready == true]</text><g class="message" data-entity-1="part1" data-entity-2="part2" id="msg4"><polygon fill="#E7E7E7" points="340.8145,199.0938,350.8145,203.0938,340.8145,207.0938,344.8145,203.0938" style="stroke:#E7E7E7;stroke-width:1;"/><line style="stroke:#E7E7E7;stroke-width:1;" x1="129.8091" x2="346.8145" y1="203.0938" y2="203.0938"/><text fill="#FFFFFF" font-family="sans-serif" font-size="13" lengthAdjust="spacing" textLength="93.2852" x="136.8091" y="198.0278">readBarcode()</text></g><g class="message" data-entity-1="part2" data-entity-2="part1" id="msg5"><polygon fill="#E7E7E7" points="140.8091,228.2266,130.8091,232.2266,140.8091,236.2266,136.8091,232.2266" style="stroke:#E7E7E7;stroke-width:1;"/><line style="stroke:#E7E7E7;stroke-width:1;stroke-dasharray:2,2;" x1="134.8091" x2="356.8145" y1="232.2266" y2="232.2266"/><text fill="#FFFFFF" font-family="sans-serif" font-size="13" lengthAdjust="spacing" textLength="52.9141" x="146.8091" y="227.1606">barcode</text></g><path d="M30,247.2266 L99.4512,247.2266 L99.4512,254.3594 L89.4512,264.3594 L30,264.3594 L30,247.2266" fill="#222222" style="stroke:#888888;stroke-width:1.5;"/><rect fill="none" height="402.1953" style="stroke:#888888;stroke-width:1.5;" width="756.8647" x="30" y="247.2266"/><text fill="#FFFFFF" font-family="sans-serif" font-size="13" font-weight="700" lengthAdjust="spacing" textLength="24.4512" x="45" y="260.2935">opt</text><text fill="#888888" font-family="sans-serif" font-size="11" font-weight="700" lengthAdjust="spacing" textLength="93.543" x="114.4512" y="259.437">[barcode != ""]</text><g class="message" data-entity-1="part1" data-entity-2="part1" id="msg6"><line style="stroke:#E7E7E7;stroke-width:1;" x1="129.8091" x2="176.8091" y1="280.4922" y2="280.4922"/><line style="stroke:#E7E7E7;stroke-width:1;" x1="176.8091" x2="176.8091" y1="280.4922" y2="293.4922"/><line style="stroke:#E7E7E7;stroke-width:1;" x1="135.8091" x2="176.8091" y1="293.4922" y2="293.4922"/><polygon fill="#E7E7E7" points="145.8091,289.4922,135.8091,293.4922,145.8091,297.4922,141.8091,293.4922" style="stroke:#E7E7E7;stroke-width:1;"/><text fill="#FFFFFF" font-family="sans-serif" font-size="13" lengthAdjust="spacing" textLength="199.0054" x="141.8091" y="275.4263">extrahiere passID und gewicht</text></g><g class="message" data-entity-1="part1" data-entity-2="part1" id="msg7"><line style="stroke:#E7E7E7;stroke-width:1;stroke-dasharray:2,2;" x1="134.8091" x2="176.8091" y1="317.4922" y2="317.4922"/><line style="stroke:#E7E7E7;stroke-width:1;stroke-dasharray:2,2;" x1="176.8091" x2="176.8091" y1="317.4922" y2="330.4922"/><line style="stroke:#E7E7E7;stroke-width:1;stroke-dasharray:2,2;" x1="129.8091" x2="176.8091" y1="330.4922" y2="330.4922"/><polygon fill="#E7E7E7" points="139.8091,326.4922,129.8091,330.4922,139.8091,334.4922,135.8091,330.4922" style="stroke:#E7E7E7;stroke-width:1;"/></g><g class="message" data-entity-1="part1" data-entity-2="part3" id="msg8"><polygon fill="#E7E7E7" points="506.25,350.625,516.25,354.625,506.25,358.625,510.25,354.625" style="stroke:#E7E7E7;stroke-width:1;"/><line style="stroke:#E7E7E7;stroke-width:1;" x1="129.8091" x2="512.25" y1="354.625" y2="354.625"/><text fill="#FFFFFF" font-family="sans-serif" font-size="13" lengthAdjust="spacing" textLength="209.5933" x="136.8091" y="349.5591">checkBoarding(passID, gewicht)</text></g><g class="message" data-entity-1="part3" data-entity-2="part1" id="msg9"><polygon fill="#E7E7E7" points="140.8091,379.7578,130.8091,383.7578,140.8091,387.7578,136.8091,383.7578" style="stroke:#E7E7E7;stroke-width:1;"/><line style="stroke:#E7E7E7;stroke-width:1;stroke-dasharray:2,2;" x1="134.8091" x2="522.25" y1="383.7578" y2="383.7578"/><text fill="#FFFFFF" font-family="sans-serif" font-size="13" lengthAdjust="spacing" textLength="37.064" x="146.8091" y="378.6919">result</text></g><path d="M40,398.7578 L104.4429,398.7578 L104.4429,405.8906 L94.4429,415.8906 L40,415.8906 L40,398.7578" fill="#222222" style="stroke:#888888;stroke-width:1.5;"/><rect fill="none" height="243.6641" style="stroke:#888888;stroke-width:1.5;" width="736.8647" x="40" y="398.7578"/><text fill="#FFFFFF" font-family="sans-serif" font-size="13" font-weight="700" lengthAdjust="spacing" textLength="19.4429" x="55" y="411.8247">alt</text><text fill="#888888" font-family="sans-serif" font-size="11" font-weight="700" lengthAdjust="spacing" textLength="98.4146" x="119.4429" y="410.9683">[result == true]</text><g class="message" data-entity-1="part1" data-entity-2="part4" id="msg10"><polygon fill="#E7E7E7" points="676.2383,433.0234,686.2383,437.0234,676.2383,441.0234,680.2383,437.0234" style="stroke:#E7E7E7;stroke-width:1;"/><line style="stroke:#E7E7E7;stroke-width:1;" x1="129.8091" x2="682.2383" y1="437.0234" y2="437.0234"/><text fill="#FFFFFF" font-family="sans-serif" font-size="13" lengthAdjust="spacing" textLength="52.8633" x="136.8091" y="431.9575">unlock()</text></g><g class="message" data-entity-1="part4" data-entity-2="part1" id="msg11"><polygon fill="#E7E7E7" points="140.8091,447.0234,130.8091,451.0234,140.8091,455.0234,136.8091,451.0234" style="stroke:#E7E7E7;stroke-width:1;"/><line style="stroke:#E7E7E7;stroke-width:1;stroke-dasharray:2,2;" x1="134.8091" x2="692.2383" y1="451.0234" y2="451.0234"/></g><g class="message" data-entity-1="part1" data-entity-2="part1" id="msg12"><line style="stroke:#E7E7E7;stroke-width:1;" x1="129.8091" x2="176.8091" y1="475.1563" y2="475.1563"/><line style="stroke:#E7E7E7;stroke-width:1;" x1="176.8091" x2="176.8091" y1="475.1563" y2="488.1563"/><line style="stroke:#E7E7E7;stroke-width:1;" x1="135.8091" x2="176.8091" y1="488.1563" y2="488.1563"/><polygon fill="#E7E7E7" points="145.8091,484.1563,135.8091,488.1563,145.8091,492.1563,141.8091,488.1563" style="stroke:#E7E7E7;stroke-width:1;"/><text fill="#FFFFFF" font-family="sans-serif" font-size="13" lengthAdjust="spacing" textLength="118.3203" x="141.8091" y="470.0903">warte 5 Sekunden</text></g><g class="message" data-entity-1="part1" data-entity-2="part1" id="msg13"><line style="stroke:#E7E7E7;stroke-width:1;stroke-dasharray:2,2;" x1="134.8091" x2="176.8091" y1="512.1563" y2="512.1563"/><line style="stroke:#E7E7E7;stroke-width:1;stroke-dasharray:2,2;" x1="176.8091" x2="176.8091" y1="512.1563" y2="525.1563"/><line style="stroke:#E7E7E7;stroke-width:1;stroke-dasharray:2,2;" x1="129.8091" x2="176.8091" y1="525.1563" y2="525.1563"/><polygon fill="#E7E7E7" points="139.8091,521.1563,129.8091,525.1563,139.8091,529.1563,135.8091,525.1563" style="stroke:#E7E7E7;stroke-width:1;"/></g><g class="message" data-entity-1="part1" data-entity-2="part4" id="msg14"><polygon fill="#E7E7E7" points="676.2383,545.2891,686.2383,549.2891,676.2383,553.2891,680.2383,549.2891" style="stroke:#E7E7E7;stroke-width:1;"/><line style="stroke:#E7E7E7;stroke-width:1;" x1="129.8091" x2="682.2383" y1="549.2891" y2="549.2891"/><text fill="#FFFFFF" font-family="sans-serif" font-size="13" lengthAdjust="spacing" textLength="36.3848" x="136.8091" y="544.2231">lock()</text></g><g class="message" data-entity-1="part4" data-entity-2="part1" id="msg15"><polygon fill="#E7E7E7" points="140.8091,559.2891,130.8091,563.2891,140.8091,567.2891,136.8091,563.2891" style="stroke:#E7E7E7;stroke-width:1;"/><line style="stroke:#E7E7E7;stroke-width:1;stroke-dasharray:2,2;" x1="134.8091" x2="692.2383" y1="563.2891" y2="563.2891"/></g><line style="stroke:#888888;stroke-width:1;stroke-dasharray:2,2;" x1="40" x2="776.8647" y1="572.2891" y2="572.2891"/><g class="message" data-entity-1="part1" data-entity-2="part1" id="msg16"><line style="stroke:#E7E7E7;stroke-width:1;" x1="129.8091" x2="176.8091" y1="589.4219" y2="589.4219"/><line style="stroke:#E7E7E7;stroke-width:1;" x1="176.8091" x2="176.8091" y1="589.4219" y2="602.4219"/><line style="stroke:#E7E7E7;stroke-width:1;" x1="135.8091" x2="176.8091" y1="602.4219" y2="602.4219"/><polygon fill="#E7E7E7" points="145.8091,598.4219,135.8091,602.4219,145.8091,606.4219,141.8091,602.4219" style="stroke:#E7E7E7;stroke-width:1;"/><text fill="#FFFFFF" font-family="sans-serif" font-size="13" lengthAdjust="spacing" textLength="120.5674" x="141.8091" y="584.356">log("Abgewiesen")</text></g><g class="message" data-entity-1="part1" data-entity-2="part1" id="msg17"><line style="stroke:#E7E7E7;stroke-width:1;stroke-dasharray:2,2;" x1="134.8091" x2="176.8091" y1="626.4219" y2="626.4219"/><line style="stroke:#E7E7E7;stroke-width:1;stroke-dasharray:2,2;" x1="176.8091" x2="176.8091" y1="626.4219" y2="639.4219"/><line style="stroke:#E7E7E7;stroke-width:1;stroke-dasharray:2,2;" x1="129.8091" x2="176.8091" y1="639.4219" y2="639.4219"/><polygon fill="#E7E7E7" points="139.8091,635.4219,129.8091,639.4219,139.8091,643.4219,135.8091,639.4219" style="stroke:#E7E7E7;stroke-width:1;"/></g><?plantuml-src hPDTgzGm48Rl-ol6UhCB7X11a0ChdAsUScujzCQhD9rjG-EaviCz-kkTPBkrxN90qD8FCddcVIUJr0sAHc75DsY473fh0hNIQ6F1Mq6Efv1yvcPAQk7SW_TMDS7ZapHKgLy8RnT8XTy3aiIInSP7Gxv8Ugy_fEiby6XiY_RlqBdI2N-NhgnNBSB96D-OvopZHA-a6WLvoE-Xae8e6f2tHckqEGW7nHOx2YjDYnETc6hBFEhGzUA4LACz2-q3TGcijs29eq0vLBBN61mcgCooh-Rk8nHm3pRGRfy9wTKFuP6BqSQCy9bQRPoBIUg46J3AVCMySbzGj3yv1s3EgdXGmTrLCW8SQN45y6r6Vvc5mu4tDqJbXNQScXQVz3SEIu_cWgNenYSvNRmc2buT8CzJT7AB4lZCnwjNQ156Fb1Fdu1t4peyAzdx2LxqPSwEwTDeuNmDBLrgTf4zT_zeX6qLTRkBqPkhotvhKq-1Uj5C5xI_zQlNVdm49dJLshcKagK2QIE7tNwUcSNAELIkrhToBDUAiRWpdpM4z_nh3Dmxf5lbOfdqad9nM-j_gHIrmzkYjUbs-KCJjm0TKhx_nwgHskpFDxxZimH_0m00?></g></svg>