<svg xmlns="http://www.w3.org/2000/svg" xmlns:xlink="http://www.w3.org/1999/xlink" contentStyleType="text/css" data-diagram-type="CLASS" height="928px" preserveAspectRatio="none" style="width:1672px;height:928px;" version="1.1" viewBox="0 0 1672 928" width="1672px" zoomAndPan="magnify"><?plantuml 1.2026.3beta4?><defs/><g><!--class FlughafenVerwaltung--><g class="entity" data-qualified-name="FlughafenVerwaltung" data-source-line="3" id="ent0002"><rect fill="#313139" height="96.8906" rx="2.5" ry="2.5" style="stroke:#E7E7E7;stroke-width:0.5;" width="473.583" x="534.65" y="189.04"/><ellipse cx="692.4132" cy="205.04" fill="#2E5233" rx="11" ry="11" style="stroke:#E7E7E7;stroke-width:1;"/><path d="M695.3819,210.6806 Q694.8038,210.9775 694.1632,211.1181 Q693.5226,211.2744 692.8194,211.2744 Q690.3194,211.2744 688.9913,209.6338 Q687.6788,207.9775 687.6788,204.8525 Q687.6788,201.7275 688.9913,200.0713 Q690.3194,198.415 692.8194,198.415 Q693.5226,198.415 694.1632,198.5713 Q694.8194,198.7275 695.3819,199.0244 L695.3819,201.7431 Q694.7569,201.165 694.1632,200.8994 Q693.5694,200.6181 692.9444,200.6181 Q691.6007,200.6181 690.9132,201.6963 Q690.2257,202.7588 690.2257,204.8525 Q690.2257,206.9463 690.9132,208.0244 Q691.6007,209.0869 692.9444,209.0869 Q693.5694,209.0869 694.1632,208.8213 Q694.7569,208.54 695.3819,207.9619 L695.3819,210.6806 Z " fill="#FFFFFF"/><text fill="#FFFFFF" font-family="sans-serif" font-size="14" lengthAdjust="spacing" textLength="149.5566" x="712.9132" y="209.8867">FlughafenVerwaltung</text><line style="stroke:#E7E7E7;stroke-width:0.5;" x1="535.65" x2="1007.233" y1="221.04" y2="221.04"/><line style="stroke:#E7E7E7;stroke-width:0.5;" x1="535.65" x2="1007.233" y1="229.04" y2="229.04"/><text fill="#FFFFFF" font-family="sans-serif" font-size="14" lengthAdjust="spacing" textLength="172.2109" x="540.65" y="246.0351">+FlughafenVerwaltung()</text><text fill="#FFFFFF" font-family="sans-serif" font-size="14" lengthAdjust="spacing" textLength="461.583" x="540.65" y="262.332">+checkBoarding(passID : int, gepaeckGewicht : double) : boolean</text><text fill="#FFFFFF" font-family="sans-serif" font-size="14" lengthAdjust="spacing" textLength="325.9717" x="540.65" y="278.6289">+verarbeiteGepaeckString(daten : String) : int</text></g><!--class Gepaeckstueck--><g class="entity" data-qualified-name="Gepaeckstueck" data-source-line="9" id="ent0003"><rect fill="#313139" height="113.1875" rx="2.5" ry="2.5" style="stroke:#E7E7E7;stroke-width:0.5;" width="335.3809" x="768.75" y="618.31"/><ellipse cx="878.4805" cy="634.31" fill="#2A5D60" rx="11" ry="11" style="stroke:#E7E7E7;stroke-width:1;"/><path d="M878.5898,629.6538 L877.4336,634.7319 L879.7617,634.7319 L878.5898,629.6538 Z M877.1055,627.4194 L880.0898,627.4194 L883.4492,639.81 L880.9961,639.81 L880.2305,636.7475 L876.9492,636.7475 L876.1992,639.81 L873.7617,639.81 L877.1055,627.4194 Z " fill="#FFFFFF"/><text fill="#FFFFFF" font-family="sans-serif" font-size="14" font-style="italic" lengthAdjust="spacing" textLength="107.4199" x="898.9805" y="639.1567">Gepaeckstueck</text><line style="stroke:#E7E7E7;stroke-width:0.5;" x1="769.75" x2="1103.1309" y1="650.31" y2="650.31"/><text fill="#FFFFFF" font-family="sans-serif" font-size="14" lengthAdjust="spacing" textLength="79.9053" x="774.75" y="667.3051">#id : String</text><text fill="#FFFFFF" font-family="sans-serif" font-size="14" lengthAdjust="spacing" textLength="127.9619" x="774.75" y="683.602">#gewicht : double</text><line style="stroke:#E7E7E7;stroke-width:0.5;" x1="769.75" x2="1103.1309" y1="690.9038" y2="690.9038"/><text fill="#FFFFFF" font-family="sans-serif" font-size="14" lengthAdjust="spacing" textLength="323.3809" x="774.75" y="707.8989">+Gepaeckstueck(id : String, gewicht : double)</text><text fill="#FFFFFF" font-family="sans-serif" font-size="14" font-style="italic" lengthAdjust="spacing" textLength="213.5957" x="774.75" y="724.1957">+berechneZuschlag() : double</text></g><!--class Koffer--><g class="entity" data-qualified-name="Koffer" data-source-line="16" id="ent0004"><rect fill="#313139" height="96.8906" rx="2.5" ry="2.5" style="stroke:#E7E7E7;stroke-width:0.5;" width="422.0674" x="479.41" y="816.94"/><ellipse cx="665.2074" cy="832.94" fill="#2E5233" rx="11" ry="11" style="stroke:#E7E7E7;stroke-width:1;"/><path d="M668.1761,838.5806 Q667.598,838.8775 666.9574,839.0181 Q666.3167,839.1744 665.6136,839.1744 Q663.1136,839.1744 661.7855,837.5338 Q660.473,835.8775 660.473,832.7525 Q660.473,829.6275 661.7855,827.9713 Q663.1136,826.315 665.6136,826.315 Q666.3167,826.315 666.9574,826.4713 Q667.6136,826.6275 668.1761,826.9244 L668.1761,829.6431 Q667.5511,829.065 666.9574,828.7994 Q666.3636,828.5181 665.7386,828.5181 Q664.3949,828.5181 663.7074,829.5963 Q663.0199,830.6588 663.0199,832.7525 Q663.0199,834.8463 663.7074,835.9244 Q664.3949,836.9869 665.7386,836.9869 Q666.3636,836.9869 666.9574,836.7213 Q667.5511,836.44 668.1761,835.8619 L668.1761,838.5806 Z " fill="#FFFFFF"/><text fill="#FFFFFF" font-family="sans-serif" font-size="14" lengthAdjust="spacing" textLength="41.9727" x="685.7074" y="837.7867">Koffer</text><line style="stroke:#E7E7E7;stroke-width:0.5;" x1="480.41" x2="900.4774" y1="848.94" y2="848.94"/><text fill="#FFFFFF" font-family="sans-serif" font-size="14" lengthAdjust="spacing" textLength="148.2852" x="485.41" y="865.9351">-hartschale : boolean</text><line style="stroke:#E7E7E7;stroke-width:0.5;" x1="480.41" x2="900.4774" y1="873.2369" y2="873.2369"/><text fill="#FFFFFF" font-family="sans-serif" font-size="14" lengthAdjust="spacing" textLength="410.0674" x="485.41" y="890.232">+Koffer(id : String, gewicht : double, hartschale : boolean)</text><text fill="#FFFFFF" font-family="sans-serif" font-size="14" lengthAdjust="spacing" textLength="213.5957" x="485.41" y="906.5289">+berechneZuschlag() : double</text></g><!--class Sperrgepaeck--><g class="entity" data-qualified-name="Sperrgepaeck" data-source-line="22" id="ent0005"><rect fill="#313139" height="96.8906" rx="2.5" ry="2.5" style="stroke:#E7E7E7;stroke-width:0.5;" width="489.627" x="936.63" y="816.94"/><ellipse cx="1128.5524" cy="832.94" fill="#2E5233" rx="11" ry="11" style="stroke:#E7E7E7;stroke-width:1;"/><path d="M1131.5211,838.5806 Q1130.943,838.8775 1130.3024,839.0181 Q1129.6617,839.1744 1128.9586,839.1744 Q1126.4586,839.1744 1125.1305,837.5338 Q1123.818,835.8775 1123.818,832.7525 Q1123.818,829.6275 1125.1305,827.9713 Q1126.4586,826.315 1128.9586,826.315 Q1129.6617,826.315 1130.3024,826.4713 Q1130.9586,826.6275 1131.5211,826.9244 L1131.5211,829.6431 Q1130.8961,829.065 1130.3024,828.7994 Q1129.7086,828.5181 1129.0836,828.5181 Q1127.7399,828.5181 1127.0524,829.5963 Q1126.3649,830.6588 1126.3649,832.7525 Q1126.3649,834.8463 1127.0524,835.9244 Q1127.7399,836.9869 1129.0836,836.9869 Q1129.7086,836.9869 1130.3024,836.7213 Q1130.8961,836.44 1131.5211,835.8619 L1131.5211,838.5806 Z " fill="#FFFFFF"/><text fill="#FFFFFF" font-family="sans-serif" font-size="14" lengthAdjust="spacing" textLength="97.2822" x="1149.0524" y="837.7867">Sperrgepaeck</text><line style="stroke:#E7E7E7;stroke-width:0.5;" x1="937.63" x2="1425.257" y1="848.94" y2="848.94"/><text fill="#FFFFFF" font-family="sans-serif" font-size="14" lengthAdjust="spacing" textLength="160.5352" x="942.63" y="865.9351">-zerbrechlich : boolean</text><line style="stroke:#E7E7E7;stroke-width:0.5;" x1="937.63" x2="1425.257" y1="873.2369" y2="873.2369"/><text fill="#FFFFFF" font-family="sans-serif" font-size="14" lengthAdjust="spacing" textLength="477.627" x="942.63" y="890.232">+Sperrgepaeck(id : String, gewicht : double, zerbrechlich : boolean)</text><text fill="#FFFFFF" font-family="sans-serif" font-size="14" lengthAdjust="spacing" textLength="213.5957" x="942.63" y="906.5289">+berechneZuschlag() : double</text></g><!--class Flug--><g class="entity" data-qualified-name="Flug" data-source-line="28" id="ent0006"><rect fill="#313139" height="162.0781" rx="2.5" ry="2.5" style="stroke:#E7E7E7;stroke-width:0.5;" width="694.8896" x="7" y="593.86"/><ellipse cx="335.3438" cy="609.86" fill="#2E5233" rx="11" ry="11" style="stroke:#E7E7E7;stroke-width:1;"/><path d="M338.3125,615.5006 Q337.7344,615.7975 337.0938,615.9381 Q336.4531,616.0944 335.75,616.0944 Q333.25,616.0944 331.9219,614.4538 Q330.6094,612.7975 330.6094,609.6725 Q330.6094,606.5475 331.9219,604.8913 Q333.25,603.235 335.75,603.235 Q336.4531,603.235 337.0938,603.3913 Q337.75,603.5475 338.3125,603.8444 L338.3125,606.5631 Q337.6875,605.985 337.0938,605.7194 Q336.5,605.4381 335.875,605.4381 Q334.5313,605.4381 333.8438,606.5163 Q333.1563,607.5788 333.1563,609.6725 Q333.1563,611.7663 333.8438,612.8444 Q334.5313,613.9069 335.875,613.9069 Q336.5,613.9069 337.0938,613.6413 Q337.6875,613.36 338.3125,612.7819 L338.3125,615.5006 Z " fill="#FFFFFF"/><text fill="#FFFFFF" font-family="sans-serif" font-size="14" lengthAdjust="spacing" textLength="29.7021" x="355.8438" y="614.7067">Flug</text><line style="stroke:#E7E7E7;stroke-width:0.5;" x1="8" x2="700.8896" y1="625.86" y2="625.86"/><text fill="#FFFFFF" font-family="sans-serif" font-size="14" lengthAdjust="spacing" textLength="103.2568" x="13" y="642.8551">-flugNr : String</text><text fill="#FFFFFF" font-family="sans-serif" font-size="14" lengthAdjust="spacing" textLength="84.1914" x="13" y="659.152">-ziel : String</text><text fill="#FFFFFF" font-family="sans-serif" font-size="14" lengthAdjust="spacing" textLength="168.6289" x="13" y="675.4489">-startDatum : LocalDate</text><text fill="#FFFFFF" font-family="sans-serif" font-size="14" lengthAdjust="spacing" textLength="92.0186" x="13" y="691.7457">-gate : String</text><text fill="#FFFFFF" font-family="sans-serif" font-size="14" lengthAdjust="spacing" textLength="143.3701" x="13" y="708.0426">-maxPassagiere : int</text><text fill="#FFFFFF" font-family="sans-serif" font-size="14" lengthAdjust="spacing" textLength="136.3223" x="13" y="724.3395">-basisPreis : double</text><line style="stroke:#E7E7E7;stroke-width:0.5;" x1="8" x2="700.8896" y1="731.6413" y2="731.6413"/><text fill="#FFFFFF" font-family="sans-serif" font-size="14" lengthAdjust="spacing" textLength="682.8896" x="13" y="748.6364">+Flug(flugNr : String, ziel : String, startDatum : LocalDate, gate : String, max : int, preis : double)</text></g><!--class Passagier--><g class="entity" data-qualified-name="Passagier" data-source-line="38" id="ent0007"><rect fill="#313139" height="129.4844" rx="2.5" ry="2.5" style="stroke:#E7E7E7;stroke-width:0.5;" width="418.8135" x="373.04" y="387.38"/><ellipse cx="544.5297" cy="403.38" fill="#2E5233" rx="11" ry="11" style="stroke:#E7E7E7;stroke-width:1;"/><path d="M547.4985,409.0206 Q546.9204,409.3175 546.2797,409.4581 Q545.6391,409.6144 544.936,409.6144 Q542.436,409.6144 541.1079,407.9738 Q539.7954,406.3175 539.7954,403.1925 Q539.7954,400.0675 541.1079,398.4113 Q542.436,396.755 544.936,396.755 Q545.6391,396.755 546.2797,396.9113 Q546.936,397.0675 547.4985,397.3644 L547.4985,400.0831 Q546.8735,399.505 546.2797,399.2394 Q545.686,398.9581 545.061,398.9581 Q543.7172,398.9581 543.0297,400.0363 Q542.3422,401.0988 542.3422,403.1925 Q542.3422,405.2863 543.0297,406.3644 Q543.7172,407.4269 545.061,407.4269 Q545.686,407.4269 546.2797,407.1613 Q546.8735,406.88 547.4985,406.3019 L547.4985,409.0206 Z " fill="#FFFFFF"/><text fill="#FFFFFF" font-family="sans-serif" font-size="14" lengthAdjust="spacing" textLength="67.334" x="565.0297" y="408.2267">Passagier</text><line style="stroke:#E7E7E7;stroke-width:0.5;" x1="374.04" x2="790.8535" y1="419.38" y2="419.38"/><text fill="#FFFFFF" font-family="sans-serif" font-size="14" lengthAdjust="spacing" textLength="119.6084" x="379.04" y="436.3751">-passagierID : int</text><text fill="#FFFFFF" font-family="sans-serif" font-size="14" lengthAdjust="spacing" textLength="100.1533" x="379.04" y="452.672">-name : String</text><text fill="#FFFFFF" font-family="sans-serif" font-size="14" lengthAdjust="spacing" textLength="160.7266" x="379.04" y="468.9689">-ticketNummer : String</text><text fill="#FFFFFF" font-family="sans-serif" font-size="14" lengthAdjust="spacing" textLength="133.7246" x="379.04" y="485.2657">-a&#818;u&#818;t&#818;o&#818;w&#818;e&#818;r&#818;t&#818; &#818;:&#818; &#818;i&#818;n&#818;t&#818; &#818;=&#818; &#818;0&#818; &#818;</text><line style="stroke:#E7E7E7;stroke-width:0.5;" x1="374.04" x2="790.8535" y1="492.5675" y2="492.5675"/><text fill="#FFFFFF" font-family="sans-serif" font-size="14" lengthAdjust="spacing" textLength="406.8135" x="379.04" y="509.5626">+Passagier(name : String, ticketNummer : String, f : Flug)</text></g><!--class GepaeckWagen--><g class="entity" data-qualified-name="GepaeckWagen" data-source-line="46" id="ent0008"><rect fill="#313139" height="80.5938" rx="2.5" ry="2.5" style="stroke:#E7E7E7;stroke-width:0.5;" width="283.5781" x="826.66" y="411.82"/><ellipse cx="909.1288" cy="427.82" fill="#2E5233" rx="11" ry="11" style="stroke:#E7E7E7;stroke-width:1;"/><path d="M912.0975,433.4606 Q911.5194,433.7575 910.8788,433.8981 Q910.2381,434.0544 909.535,434.0544 Q907.035,434.0544 905.7069,432.4138 Q904.3944,430.7575 904.3944,427.6325 Q904.3944,424.5075 905.7069,422.8513 Q907.035,421.195 909.535,421.195 Q910.2381,421.195 910.8788,421.3513 Q911.535,421.5075 912.0975,421.8044 L912.0975,424.5231 Q911.4725,423.945 910.8788,423.6794 Q910.285,423.3981 909.66,423.3981 Q908.3163,423.3981 907.6288,424.4763 Q906.9413,425.5388 906.9413,427.6325 Q906.9413,429.7263 907.6288,430.8044 Q908.3163,431.8669 909.66,431.8669 Q910.285,431.8669 910.8788,431.6013 Q911.4725,431.32 912.0975,430.7419 L912.0975,433.4606 Z " fill="#FFFFFF"/><text fill="#FFFFFF" font-family="sans-serif" font-size="14" lengthAdjust="spacing" textLength="110.1406" x="929.6288" y="432.6667">GepaeckWagen</text><line style="stroke:#E7E7E7;stroke-width:0.5;" x1="827.66" x2="1109.2381" y1="443.82" y2="443.82"/><line style="stroke:#E7E7E7;stroke-width:0.5;" x1="827.66" x2="1109.2381" y1="451.82" y2="451.82"/><text fill="#FFFFFF" font-family="sans-serif" font-size="14" lengthAdjust="spacing" textLength="262.7188" x="832.66" y="468.8151">+GepaeckWagen(g : Gepaeckstueck)</text><text fill="#FFFFFF" font-family="sans-serif" font-size="14" lengthAdjust="spacing" textLength="271.5781" x="832.66" y="485.112">+anhaengen(wagen : GepaeckWagen)</text></g><!--class BarcodeScanner--><g class="entity" data-qualified-name="BarcodeScanner" data-source-line="51" id="ent0009"><rect fill="#313139" height="113.1875" rx="2.5" ry="2.5" style="stroke:#E7E7E7;stroke-width:0.5;" width="260.2129" x="1156.34" y="180.89"/><ellipse cx="1224.7062" cy="196.89" fill="#2E5233" rx="11" ry="11" style="stroke:#E7E7E7;stroke-width:1;"/><path d="M1227.675,202.5306 Q1227.0968,202.8275 1226.4562,202.9681 Q1225.8156,203.1244 1225.1125,203.1244 Q1222.6125,203.1244 1221.2843,201.4838 Q1219.9718,199.8275 1219.9718,196.7025 Q1219.9718,193.5775 1221.2843,191.9213 Q1222.6125,190.265 1225.1125,190.265 Q1225.8156,190.265 1226.4562,190.4213 Q1227.1125,190.5775 1227.675,190.8744 L1227.675,193.5931 Q1227.05,193.015 1226.4562,192.7494 Q1225.8625,192.4681 1225.2375,192.4681 Q1223.8937,192.4681 1223.2062,193.5463 Q1222.5187,194.6088 1222.5187,196.7025 Q1222.5187,198.7963 1223.2062,199.8744 Q1223.8937,200.9369 1225.2375,200.9369 Q1225.8625,200.9369 1226.4562,200.6713 Q1227.05,200.39 1227.675,199.8119 L1227.675,202.5306 Z " fill="#FFFFFF"/><text fill="#FFFFFF" font-family="sans-serif" font-size="14" lengthAdjust="spacing" textLength="114.9805" x="1245.2062" y="201.7367">BarcodeScanner</text><line style="stroke:#E7E7E7;stroke-width:0.5;" x1="1157.34" x2="1415.5529" y1="212.89" y2="212.89"/><line style="stroke:#E7E7E7;stroke-width:0.5;" x1="1157.34" x2="1415.5529" y1="220.89" y2="220.89"/><text fill="#FFFFFF" font-family="sans-serif" font-size="14" lengthAdjust="spacing" textLength="228.8877" x="1162.34" y="237.8851">+BarcodeScanner(serial : Serial)</text><text fill="#FFFFFF" font-family="sans-serif" font-size="14" lengthAdjust="spacing" textLength="147.5195" x="1162.34" y="254.182">+isReady() : boolean</text><text fill="#FFFFFF" font-family="sans-serif" font-size="14" lengthAdjust="spacing" textLength="167.5898" x="1162.34" y="270.4789">+readBarcode() : String</text><text fill="#FFFFFF" font-family="sans-serif" font-size="14" lengthAdjust="spacing" textLength="248.2129" x="1162.34" y="286.7757">-calcChecksum(data : char[]) : char</text></g><!--class ScannerController--><g class="entity" data-qualified-name="ScannerController" data-source-line="58" id="ent0010"><rect fill="#313139" height="80.5938" rx="2.5" ry="2.5" style="stroke:#E7E7E7;stroke-width:0.5;" width="733.1777" x="919.86" y="7"/><ellipse cx="1218.9733" cy="23" fill="#2E5233" rx="11" ry="11" style="stroke:#E7E7E7;stroke-width:1;"/><path d="M1221.942,28.6406 Q1221.3639,28.9375 1220.7233,29.0781 Q1220.0827,29.2344 1219.3795,29.2344 Q1216.8795,29.2344 1215.5514,27.5938 Q1214.2389,25.9375 1214.2389,22.8125 Q1214.2389,19.6875 1215.5514,18.0313 Q1216.8795,16.375 1219.3795,16.375 Q1220.0827,16.375 1220.7233,16.5313 Q1221.3795,16.6875 1221.942,16.9844 L1221.942,19.7031 Q1221.317,19.125 1220.7233,18.8594 Q1220.1295,18.5781 1219.5045,18.5781 Q1218.1608,18.5781 1217.4733,19.6563 Q1216.7858,20.7188 1216.7858,22.8125 Q1216.7858,24.9063 1217.4733,25.9844 Q1218.1608,27.0469 1219.5045,27.0469 Q1220.1295,27.0469 1220.7233,26.7813 Q1221.317,26.5 1221.942,25.9219 L1221.942,28.6406 Z " fill="#FFFFFF"/><text fill="#FFFFFF" font-family="sans-serif" font-size="14" lengthAdjust="spacing" textLength="126.4512" x="1239.4733" y="27.8467">ScannerController</text><line style="stroke:#E7E7E7;stroke-width:0.5;" x1="920.86" x2="1652.0377" y1="39" y2="39"/><line style="stroke:#E7E7E7;stroke-width:0.5;" x1="920.86" x2="1652.0377" y1="47" y2="47"/><text fill="#FFFFFF" font-family="sans-serif" font-size="14" lengthAdjust="spacing" textLength="721.1777" x="925.86" y="63.9951">+ScannerController(comPort : String, verwaltung : FlughafenVerwaltung, schleuse : GepaeckSchleuse)</text><text fill="#FFFFFF" font-family="sans-serif" font-size="14" lengthAdjust="spacing" textLength="46.1563" x="925.86" y="80.292">+run()</text></g><!--class GepaeckSchleuse--><g class="entity" data-qualified-name="GepaeckSchleuse" data-source-line="63" id="ent0011"><rect fill="#313139" height="145.7813" rx="2.5" ry="2.5" style="stroke:#E7E7E7;stroke-width:0.5;" width="205.2383" x="1451.83" y="164.6"/><ellipse cx="1488.9486" cy="180.6" fill="#2E5233" rx="11" ry="11" style="stroke:#E7E7E7;stroke-width:1;"/><path d="M1491.9173,186.2406 Q1491.3392,186.5375 1490.6986,186.6781 Q1490.0579,186.8344 1489.3548,186.8344 Q1486.8548,186.8344 1485.5267,185.1938 Q1484.2142,183.5375 1484.2142,180.4125 Q1484.2142,177.2875 1485.5267,175.6313 Q1486.8548,173.975 1489.3548,173.975 Q1490.0579,173.975 1490.6986,174.1313 Q1491.3548,174.2875 1491.9173,174.5844 L1491.9173,177.3031 Q1491.2923,176.725 1490.6986,176.4594 Q1490.1048,176.1781 1489.4798,176.1781 Q1488.1361,176.1781 1487.4486,177.2563 Q1486.7611,178.3188 1486.7611,180.4125 Q1486.7611,182.5063 1487.4486,183.5844 Q1488.1361,184.6469 1489.4798,184.6469 Q1490.1048,184.6469 1490.6986,184.3813 Q1491.2923,184.1 1491.9173,183.5219 L1491.9173,186.2406 Z " fill="#FFFFFF"/><text fill="#FFFFFF" font-family="sans-serif" font-size="14" lengthAdjust="spacing" textLength="124.0859" x="1507.8638" y="185.4467">GepaeckSchleuse</text><line style="stroke:#E7E7E7;stroke-width:0.5;" x1="1452.83" x2="1656.0683" y1="196.6" y2="196.6"/><text fill="#FFFFFF" font-family="sans-serif" font-size="14" lengthAdjust="spacing" textLength="123.1699" x="1457.83" y="213.5951">-schleusenNr : int</text><text fill="#FFFFFF" font-family="sans-serif" font-size="14" lengthAdjust="spacing" textLength="120.4014" x="1457.83" y="229.892">-locked : boolean</text><line style="stroke:#E7E7E7;stroke-width:0.5;" x1="1452.83" x2="1656.0683" y1="237.1938" y2="237.1938"/><text fill="#FFFFFF" font-family="sans-serif" font-size="14" lengthAdjust="spacing" textLength="193.2383" x="1457.83" y="254.1889">+GepaeckSchleuse(nr : int)</text><text fill="#FFFFFF" font-family="sans-serif" font-size="14" lengthAdjust="spacing" textLength="50.9141" x="1457.83" y="270.4857">+lock()</text><text fill="#FFFFFF" font-family="sans-serif" font-size="14" lengthAdjust="spacing" textLength="68.6602" x="1457.83" y="286.7826">+unlock()</text><text fill="#FFFFFF" font-family="sans-serif" font-size="14" lengthAdjust="spacing" textLength="140.8203" x="1457.83" y="303.0795">+isOpen() : boolean</text></g><!--class Serial--><g class="entity" data-qualified-name="Serial" data-source-line="72" id="ent0012"><rect fill="#313139" height="48" rx="2.5" ry="2.5" style="stroke:#E7E7E7;stroke-width:0.5;" width="71.6143" x="1289.64" y="428.12"/><ellipse cx="1304.64" cy="444.12" fill="#2E5233" rx="11" ry="11" style="stroke:#E7E7E7;stroke-width:1;"/><path d="M1307.6088,449.7606 Q1307.0306,450.0575 1306.39,450.1981 Q1305.7494,450.3544 1305.0463,450.3544 Q1302.5463,450.3544 1301.2181,448.7138 Q1299.9056,447.0575 1299.9056,443.9325 Q1299.9056,440.8075 1301.2181,439.1513 Q1302.5463,437.495 1305.0463,437.495 Q1305.7494,437.495 1306.39,437.6513 Q1307.0463,437.8075 1307.6088,438.1044 L1307.6088,440.8231 Q1306.9838,440.245 1306.39,439.9794 Q1305.7963,439.6981 1305.1713,439.6981 Q1303.8275,439.6981 1303.14,440.7763 Q1302.4525,441.8388 1302.4525,443.9325 Q1302.4525,446.0263 1303.14,447.1044 Q1303.8275,448.1669 1305.1713,448.1669 Q1305.7963,448.1669 1306.39,447.9013 Q1306.9838,447.62 1307.6088,447.0419 L1307.6088,449.7606 Z " fill="#FFFFFF"/><text fill="#FFFFFF" font-family="sans-serif" font-size="14" lengthAdjust="spacing" textLength="39.6143" x="1318.64" y="448.9667">Serial</text><line style="stroke:#E7E7E7;stroke-width:0.5;" x1="1290.64" x2="1360.2543" y1="460.12" y2="460.12"/><line style="stroke:#E7E7E7;stroke-width:0.5;" x1="1290.64" x2="1360.2543" y1="468.12" y2="468.12"/></g><!--class Log--><g class="entity" data-qualified-name="Log" data-source-line="74" id="ent0013"><rect fill="#313139" height="80.5938" rx="2.5" ry="2.5" style="stroke:#E7E7E7;stroke-width:0.5;" width="146.1279" x="698.38" y="7"/><ellipse cx="754.568" cy="23" fill="#2E5233" rx="11" ry="11" style="stroke:#E7E7E7;stroke-width:1;"/><path d="M757.5367,28.6406 Q756.9586,28.9375 756.318,29.0781 Q755.6774,29.2344 754.9742,29.2344 Q752.4742,29.2344 751.1461,27.5938 Q749.8336,25.9375 749.8336,22.8125 Q749.8336,19.6875 751.1461,18.0313 Q752.4742,16.375 754.9742,16.375 Q755.6774,16.375 756.318,16.5313 Q756.9742,16.6875 757.5367,16.9844 L757.5367,19.7031 Q756.9117,19.125 756.318,18.8594 Q755.7242,18.5781 755.0992,18.5781 Q753.7555,18.5781 753.068,19.6563 Q752.3805,20.7188 752.3805,22.8125 Q752.3805,24.9063 753.068,25.9844 Q753.7555,27.0469 755.0992,27.0469 Q755.7242,27.0469 756.318,26.7813 Q756.9117,26.5 757.5367,25.9219 L757.5367,28.6406 Z " fill="#FFFFFF"/><text fill="#FFFFFF" font-family="sans-serif" font-size="14" lengthAdjust="spacing" textLength="25.252" x="775.068" y="27.8467">Log</text><line style="stroke:#E7E7E7;stroke-width:0.5;" x1="699.38" x2="843.5079" y1="39" y2="39"/><text fill="#FFFFFF" font-family="sans-serif" font-size="14" lengthAdjust="spacing" textLength="110.5371" x="704.38" y="55.9951">-eintrag : String</text><text fill="#FFFFFF" font-family="sans-serif" font-size="14" lengthAdjust="spacing" textLength="134.1279" x="704.38" y="72.292">-datum : LocalDate</text><line style="stroke:#E7E7E7;stroke-width:0.5;" x1="699.38" x2="843.5079" y1="79.5938" y2="79.5938"/></g><!--reverse link Gepaeckstueck to Koffer--><g class="link" data-entity-1="ent0003" data-entity-2="ent0004" data-link-type="extension" data-source-line="79" id="lnk14"><path codeLine="79" d="M849.0121,742.8878 C813.8921,769.7978 786.53,790.77 752.91,816.53" fill="none" id="Gepaeckstueck-backto-Koffer" style="stroke:#E7E7E7;stroke-width:1;"/><polygon fill="none" points="863.3,731.94,845.3628,738.1252,852.6614,747.6505,863.3,731.94" style="stroke:#E7E7E7;stroke-width:1;"/></g><!--reverse link Gepaeckstueck to Sperrgepaeck--><g class="link" data-entity-1="ent0003" data-entity-2="ent0005" data-link-type="extension" data-source-line="80" id="lnk15"><path codeLine="80" d="M1023.5568,742.9154 C1058.5368,769.8254 1085.75,790.77 1119.23,816.53" fill="none" id="Gepaeckstueck-backto-Sperrgepaeck" style="stroke:#E7E7E7;stroke-width:1;"/><polygon fill="none" points="1009.29,731.94,1019.8983,747.671,1027.2152,738.1598,1009.29,731.94" style="stroke:#E7E7E7;stroke-width:1;"/></g><!--link FlughafenVerwaltung to Flug--><g class="link" data-entity-1="ent0002" data-entity-2="ent0006" data-link-type="dependency" data-source-line="82" id="lnk16"><path codeLine="82" d="M531.3428,288.3754 C431.1328,314.1854 337.85,347.03 308.44,387.38 C265.12,446.82 283.8398,526.121 309.9398,588.051" fill="none" id="FlughafenVerwaltung-Flug" style="stroke:#E7E7E7;stroke-width:1;"/><path d="M533.2503,283.7535 L527.4985,293.496 M535.2457,291.5007 L525.5032,285.7489" fill="none" style="stroke:#E7E7E7;stroke-width:1;"/><polygon fill="#E7E7E7" points="312.27,593.58,312.4608,583.733,310.3282,588.9725,305.0887,586.8399,312.27,593.58" style="stroke:#E7E7E7;stroke-width:1;"/><text fill="#FFFFFF" font-family="sans-serif" font-size="13" lengthAdjust="spacing" textLength="45.3667" x="309.44" y="456.6869">-fluege</text><text fill="#FFFFFF" font-family="sans-serif" font-size="13" lengthAdjust="spacing" textLength="6.5" x="302.2689" y="582.7424">*</text></g><!--link FlughafenVerwaltung to Passagier--><g class="link" data-entity-1="ent0002" data-entity-2="ent0007" data-link-type="dependency" data-source-line="83" id="lnk17"><path codeLine="83" d="M723.7145,292.1887 C697.2645,321.9387 672.2063,350.1356 643.3963,382.5456" fill="none" id="FlughafenVerwaltung-Passagier" style="stroke:#E7E7E7;stroke-width:1;"/><path d="M722.7184,287.2889 L723.3816,298.5832 M728.6972,292.6045 L717.4029,293.2677" fill="none" style="stroke:#E7E7E7;stroke-width:1;"/><polygon fill="#E7E7E7" points="639.41,387.03,648.379,382.9609,642.7319,383.293,642.3998,377.6459,639.41,387.03" style="stroke:#E7E7E7;stroke-width:1;"/><text fill="#FFFFFF" font-family="sans-serif" font-size="13" lengthAdjust="spacing" textLength="75.626" x="678.44" y="353.4469">-passagiere</text><text fill="#FFFFFF" font-family="sans-serif" font-size="13" lengthAdjust="spacing" textLength="6.5" x="639.3396" y="376.1644">*</text></g><!--link FlughafenVerwaltung to GepaeckWagen--><g class="link" data-entity-1="ent0002" data-entity-2="ent0008" data-link-type="dependency" data-source-line="84" id="lnk18"><path codeLine="84" d="M821.0972,292.0783 C856.0372,329.7883 894.7118,371.5391 927.5718,406.9991" fill="none" id="FlughafenVerwaltung-GepaeckWagen" style="stroke:#E7E7E7;stroke-width:1;"/><path d="M816.1241,292.5963 L827.4296,293.0273 M821.9924,287.1591 L821.5613,298.4646" fill="none" style="stroke:#E7E7E7;stroke-width:1;"/><polygon fill="#E7E7E7" points="931.65,411.4,928.4666,402.0798,928.2515,407.7326,922.5987,407.5174,931.65,411.4" style="stroke:#E7E7E7;stroke-width:1;"/><text fill="#FFFFFF" font-family="sans-serif" font-size="13" lengthAdjust="spacing" textLength="89.1401" x="877.44" y="353.4469">-gepaeckKopf</text><text fill="#FFFFFF" font-family="sans-serif" font-size="13" lengthAdjust="spacing" textLength="24.8066" x="899.9369" y="400.7929">0..1</text></g><!--link Passagier to Flug--><g class="link" data-entity-1="ent0007" data-entity-2="ent0006" data-link-type="dependency" data-source-line="86" id="lnk19"><path codeLine="86" d="M510.4427,522.835 C485.8527,546.645 467.7103,564.2161 441.8103,589.2961" fill="none" id="Passagier-Flug" style="stroke:#E7E7E7;stroke-width:1;"/><path d="M509.8155,517.8745 L509.6332,529.1867 M515.3804,523.6217 L504.0682,523.4394" fill="none" style="stroke:#E7E7E7;stroke-width:1;"/><polygon fill="#E7E7E7" points="437.5,593.47,446.7481,590.0828,441.0919,589.9918,441.1829,584.3357,437.5,593.47" style="stroke:#E7E7E7;stroke-width:1;"/><text fill="#FFFFFF" font-family="sans-serif" font-size="13" lengthAdjust="spacing" textLength="29.3706" x="483.44" y="559.9269">-flug</text><text fill="#FFFFFF" font-family="sans-serif" font-size="13" lengthAdjust="spacing" textLength="8.271" x="436.3054" y="582.9003">1</text></g><!--link Passagier to Gepaeckstueck--><g class="link" data-entity-1="ent0007" data-entity-2="ent0003" data-link-type="dependency" data-source-line="87" id="lnk20"><path codeLine="87" d="M692.0982,521.5033 C743.1382,553.3333 792.3291,584.0147 841.4691,614.6647" fill="none" id="Passagier-Gepaeckstueck" style="stroke:#E7E7E7;stroke-width:1;"/><path d="M687.436,523.3099 L698.4574,520.755 M691.6693,516.5217 L694.2241,527.5432" fill="none" style="stroke:#E7E7E7;stroke-width:1;"/><polygon fill="#E7E7E7" points="846.56,617.84,841.0405,609.6831,842.3176,615.1939,836.8068,616.4709,846.56,617.84" style="stroke:#E7E7E7;stroke-width:1;"/><text fill="#FFFFFF" font-family="sans-serif" font-size="13" lengthAdjust="spacing" textLength="59.833" x="760.44" y="559.9269">-gepaeck</text><text fill="#FFFFFF" font-family="sans-serif" font-size="13" lengthAdjust="spacing" textLength="6.5" x="829.2707" y="607.0463">*</text></g><!--link GepaeckWagen to GepaeckWagen--><g class="link" data-entity-1="ent0008" data-entity-2="ent0008" data-link-type="dependency" data-source-line="89" id="lnk21"><path codeLine="89" d="M1118.5592,435.7121 C1139.2392,438.4821 1145.23,443.25 1145.23,452.12 C1145.23,460.99 1137.2565,466.0106 1116.5765,468.7906" fill="none" id="GepaeckWagen-GepaeckWagen" style="stroke:#E7E7E7;stroke-width:1;"/><path d="M1115.0547,439.2784 L1124.046,432.4113 M1116.1168,431.3492 L1122.9839,440.3405" fill="none" style="stroke:#E7E7E7;stroke-width:1;"/><polygon fill="#E7E7E7" points="1110.63,469.59,1120.0827,472.3553,1115.5854,468.9238,1119.0168,464.4266,1110.63,469.59" style="stroke:#E7E7E7;stroke-width:1;"/><text fill="#FFFFFF" font-family="sans-serif" font-size="13" lengthAdjust="spacing" textLength="114.8037" x="1151.23" y="456.6869">-naechsterWagen</text><text fill="#FFFFFF" font-family="sans-serif" font-size="13" lengthAdjust="spacing" textLength="24.8066" x="1118.1177" y="467.1432">0..1</text></g><!--link GepaeckWagen to Gepaeckstueck--><g class="link" data-entity-1="ent0008" data-entity-2="ent0003" data-link-type="dependency" data-source-line="90" id="lnk22"><path codeLine="90" d="M961.5415,500.7671 C956.4815,535.6471 951.0809,572.9221 945.4209,611.9621" fill="none" id="GepaeckWagen-Gepaeckstueck" style="stroke:#E7E7E7;stroke-width:1;"/><path d="M958.0136,497.2239 L964.7822,506.2896 M965.9307,498.3725 L956.8651,505.1411" fill="none" style="stroke:#E7E7E7;stroke-width:1;"/><polygon fill="#E7E7E7" points="944.56,617.9,949.8099,609.567,945.2774,612.9517,941.8927,608.4192,944.56,617.9" style="stroke:#E7E7E7;stroke-width:1;"/><text fill="#FFFFFF" font-family="sans-serif" font-size="13" lengthAdjust="spacing" textLength="49.2515" x="955.44" y="559.9269">-ladung</text><text fill="#FFFFFF" font-family="sans-serif" font-size="13" lengthAdjust="spacing" textLength="8.271" x="937.0786" y="607.1136">1</text></g><!--link ScannerController to BarcodeScanner--><g class="link" data-entity-1="ent0010" data-entity-2="ent0009" data-link-type="dependency" data-source-line="92" id="lnk23"><path codeLine="92" d="M1286.44,95.75 C1286.44,122.69 1286.44,144.79 1286.44,174.67" fill="none" id="ScannerController-BarcodeScanner" style="stroke:#E7E7E7;stroke-width:1;"/><path d="M1282.44,92.75 L1290.44,100.75 M1290.44,92.75 L1282.44,100.75" fill="none" style="stroke:#E7E7E7;stroke-width:1;"/><polygon fill="#E7E7E7" points="1286.44,180.67,1290.44,171.67,1286.44,175.67,1282.44,171.67,1286.44,180.67" style="stroke:#E7E7E7;stroke-width:1;"/><text fill="#FFFFFF" font-family="sans-serif" font-size="13" lengthAdjust="spacing" textLength="56.3989" x="1287.44" y="130.6669">-scanner</text><text fill="#FFFFFF" font-family="sans-serif" font-size="13" lengthAdjust="spacing" textLength="8.271" x="1277.9682" y="169.9067">1</text></g><!--link ScannerController to FlughafenVerwaltung--><g class="link" data-entity-1="ent0010" data-entity-2="ent0002" data-link-type="dependency" data-source-line="93" id="lnk24"><path codeLine="93" d="M1170.026,90.8358 C1089.736,120.1758 993.2955,155.4205 908.1955,186.5205" fill="none" id="ScannerController-FlughafenVerwaltung" style="stroke:#E7E7E7;stroke-width:1;"/><path d="M1171.4708,86.0491 L1166.7026,96.309 M1174.2166,93.5631 L1163.9568,88.7949" fill="none" style="stroke:#E7E7E7;stroke-width:1;"/><polygon fill="#E7E7E7" points="902.56,188.58,912.3862,189.2477,907.2562,186.8638,909.6402,181.7338,902.56,188.58" style="stroke:#E7E7E7;stroke-width:1;"/><text fill="#FFFFFF" font-family="sans-serif" font-size="13" lengthAdjust="spacing" textLength="77.7651" x="1091.44" y="130.6669">-verwaltung</text><text fill="#FFFFFF" font-family="sans-serif" font-size="13" lengthAdjust="spacing" textLength="8.271" x="911.6598" y="178.0764">1</text></g><!--link ScannerController to GepaeckSchleuse--><g class="link" data-entity-1="ent0010" data-entity-2="ent0011" data-link-type="dependency" data-source-line="94" id="lnk25"><path codeLine="94" d="M1349.4983,92.5757 C1380.9883,114.6757 1409.6995,134.8523 1446.5595,160.7323" fill="none" id="ScannerController-GepaeckSchleuse" style="stroke:#E7E7E7;stroke-width:1;"/><path d="M1344.7449,94.1264 L1355.8888,92.1738 M1349.3405,87.5781 L1351.2931,98.7221" fill="none" style="stroke:#E7E7E7;stroke-width:1;"/><polygon fill="#E7E7E7" points="1451.47,164.18,1446.4027,155.7347,1447.3779,161.3069,1441.8057,162.2821,1451.47,164.18" style="stroke:#E7E7E7;stroke-width:1;"/><text fill="#FFFFFF" font-family="sans-serif" font-size="13" lengthAdjust="spacing" textLength="61.4707" x="1405.44" y="130.6669">-schleuse</text><text fill="#FFFFFF" font-family="sans-serif" font-size="13" lengthAdjust="spacing" textLength="8.271" x="1435.6237" y="155.3172">1</text></g><!--link BarcodeScanner to Serial--><g class="link" data-entity-1="ent0009" data-entity-2="ent0012" data-link-type="dependency" data-source-line="96" id="lnk26"><path codeLine="96" d="M1298.1337,302.2187 C1306.1037,345.6587 1314.2285,389.9483 1320.0685,421.8183" fill="none" id="BarcodeScanner-Serial" style="stroke:#E7E7E7;stroke-width:1;"/><path d="M1293.658,299.9897 L1302.9703,306.4147 M1301.5266,298.5461 L1295.1016,307.8584" fill="none" style="stroke:#E7E7E7;stroke-width:1;"/><polygon fill="#E7E7E7" points="1321.15,427.72,1323.4623,418.1464,1320.2488,422.8019,1315.5933,419.5884,1321.15,427.72" style="stroke:#E7E7E7;stroke-width:1;"/><text fill="#FFFFFF" font-family="sans-serif" font-size="13" lengthAdjust="spacing" textLength="39.9966" x="1308.44" y="353.4469">-serial</text><text fill="#FFFFFF" font-family="sans-serif" font-size="13" lengthAdjust="spacing" textLength="8.271" x="1311.1606" y="417.0275">1</text></g><!--link Log to FlughafenVerwaltung--><g class="link" data-entity-1="ent0013" data-entity-2="ent0002" data-link-type="dependency" data-source-line="98" id="lnk28"><path codeLine="98" d="M771.44,93.75 C771.44,123.17 771.44,149.51 771.44,180.75" fill="none" id="Log-FlughafenVerwaltung" style="stroke:#E7E7E7;stroke-width:1;"/><polygon fill="#E7E7E7" points="771.44,87.75,767.44,96.75,771.44,92.75,775.44,96.75,771.44,87.75" style="stroke:#E7E7E7;stroke-width:1;"/><path d="M775.44,183.75 L767.44,175.75 M767.44,183.75 L775.44,175.75" fill="none" style="stroke:#E7E7E7;stroke-width:1;"/><text fill="#FFFFFF" font-family="sans-serif" font-size="13" lengthAdjust="spacing" textLength="31.2813" x="772.44" y="130.6669">-logs</text><text fill="#FFFFFF" font-family="sans-serif" font-size="13" lengthAdjust="spacing" textLength="6.5" x="764.9839" y="107.7701">*</text></g><?plantuml-src bLNDRfmm4Bxp5DRsmZPib5nNRQKcKQCeKHfrfLPgrSC0is0jsCWssJHfNehds8VgO0mBBDsg5sJFp3VpUVxG6ouAK92p4A9DecGfuaXcKZ6ZG6XIeJ2UxgoY3BJ-Q8pYOMdm9f9YnP-HdNbMmJvbPPB26iLNL5l8J2aIzk8nTZAbyUVCgg8Keys511Lp4XRav-QABHaN9c095a3QQzpoA3KaZMKPPZYdKoXbXY0Q7u-eG8N83LutY1LH96yn61Hat5pdZLlclNeUX9gU69dcISp1j2dfQpc_OJpkaCmAaX6D9lO0wlT0mG70llYb3VrAu10LHgd0xwMEqWpgfBJ6DSk6tArShr5PLWkMWZ9a2nH-b8J6x3Y3O1BlAd643DkpMHMeb2kCu_ICAgoX6SKQi-gR_ulRj9__ObStccErfkEz6jIGg7BCHY9jA2LNOCgS57SoWemksEYI-ZGqp-7fWI91mebGsr6r8WJDzOD2haSTKdFoHso28PFWBoo28OEWZjuEHp48DUybeUFdCb6qztQo6i82yl7Z38ysQExBFCTnvc1NbRlAx2gvgxQx2dULibUsgvRsotULQ2NlxVVCVcqEEah-86em7J5WQphNUUi_oqtQDqXeg5_wmsT5VaAOmJIwpW6H0ehQOckXom6i7-42L2HZN4KWXClUoKZeQrGSRENimSNW-Wj2_Ci_M4sAnCw3LVPJIaMEBklrfykytbL0UXfDzUFdt9twSzV4lvJ2A9bb7Rq3kH_9_44gqylcutuVBwTsCRKVpHIM6lV9MJc9Uw0gXJzHZDRATLhhHjXMxpejarJaU9oQaGjVE8oBM8FQdqGf-ZUkFnSeXhdUvycMfRtToNOT87bMa8nA41_EFNaQ_WxU_Luit7QTqlGtdETD_GEV5eiFRFPsrcod9LlGCi04ZzlkXvW0tGGV0vsTdfxFXbD2KCViLXPhpzixRI3d0qx9WVxjRFHht3liijH4EaP1q2tL1fMLJE7E9-9a4DFRFE-myJlCQ5u9f9lZCT1K0Wcvdv5Zu77Rsv3DsVD6T3hGgbqP2-sQSxg8PU5oNdTjdG6Pw3y0?></g></svg>