<svg xmlns="http://www.w3.org/2000/svg" xmlns:xlink="http://www.w3.org/1999/xlink" contentStyleType="text/css" data-diagram-type="CLASS" height="945px" preserveAspectRatio="none" style="width:1687px;height:945px;" version="1.1" viewBox="0 0 1687 945" width="1687px" zoomAndPan="magnify"><?plantuml 1.2026.3beta4?><defs/><g><!--class FlughafenVerwaltung--><g class="entity" data-qualified-name="FlughafenVerwaltung" data-source-line="3" id="ent0002"><rect fill="#313139" height="96.8906" rx="2.5" ry="2.5" style="stroke:#E7E7E7;stroke-width:0.5;" width="473.583" x="416.65" y="205.33"/><ellipse cx="574.4132" cy="221.33" fill="#2E5233" rx="11" ry="11" style="stroke:#E7E7E7;stroke-width:1;"/><path d="M577.3819,226.9706 Q576.8038,227.2675 576.1632,227.4081 Q575.5226,227.5644 574.8194,227.5644 Q572.3194,227.5644 570.9913,225.9238 Q569.6788,224.2675 569.6788,221.1425 Q569.6788,218.0175 570.9913,216.3613 Q572.3194,214.705 574.8194,214.705 Q575.5226,214.705 576.1632,214.8613 Q576.8194,215.0175 577.3819,215.3144 L577.3819,218.0331 Q576.7569,217.455 576.1632,217.1894 Q575.5694,216.9081 574.9444,216.9081 Q573.6007,216.9081 572.9132,217.9863 Q572.2257,219.0488 572.2257,221.1425 Q572.2257,223.2363 572.9132,224.3144 Q573.6007,225.3769 574.9444,225.3769 Q575.5694,225.3769 576.1632,225.1113 Q576.7569,224.83 577.3819,224.2519 L577.3819,226.9706 Z " fill="#FFFFFF"/><text fill="#FFFFFF" font-family="sans-serif" font-size="14" lengthAdjust="spacing" textLength="149.5566" x="594.9132" y="226.1767">FlughafenVerwaltung</text><line style="stroke:#E7E7E7;stroke-width:0.5;" x1="417.65" x2="889.233" y1="237.33" y2="237.33"/><line style="stroke:#E7E7E7;stroke-width:0.5;" x1="417.65" x2="889.233" y1="245.33" y2="245.33"/><text fill="#FFFFFF" font-family="sans-serif" font-size="14" lengthAdjust="spacing" textLength="172.2109" x="422.65" y="262.3251">+FlughafenVerwaltung()</text><text fill="#FFFFFF" font-family="sans-serif" font-size="14" lengthAdjust="spacing" textLength="461.583" x="422.65" y="278.622">+checkBoarding(passID : int, gepaeckGewicht : double) : boolean</text><text fill="#FFFFFF" font-family="sans-serif" font-size="14" lengthAdjust="spacing" textLength="325.9717" x="422.65" y="294.9189">+verarbeiteGepaeckString(daten : String) : int</text></g><!--class Gepaeckstueck--><g class="entity" data-qualified-name="Gepaeckstueck" data-source-line="9" id="ent0003"><rect fill="#313139" height="113.1875" rx="2.5" ry="2.5" style="stroke:#E7E7E7;stroke-width:0.5;" width="335.3809" x="768.75" y="634.6"/><ellipse cx="878.4805" cy="650.6" fill="#2A5D60" rx="11" ry="11" style="stroke:#E7E7E7;stroke-width:1;"/><path d="M878.5898,645.9438 L877.4336,651.0219 L879.7617,651.0219 L878.5898,645.9438 Z M877.1055,643.7094 L880.0898,643.7094 L883.4492,656.1 L880.9961,656.1 L880.2305,653.0375 L876.9492,653.0375 L876.1992,656.1 L873.7617,656.1 L877.1055,643.7094 Z " fill="#FFFFFF"/><text fill="#FFFFFF" font-family="sans-serif" font-size="14" font-style="italic" lengthAdjust="spacing" textLength="107.4199" x="898.9805" y="655.4467">Gepaeckstueck</text><line style="stroke:#E7E7E7;stroke-width:0.5;" x1="769.75" x2="1103.1309" y1="666.6" y2="666.6"/><text fill="#FFFFFF" font-family="sans-serif" font-size="14" lengthAdjust="spacing" textLength="79.9053" x="774.75" y="683.5951">#id : String</text><text fill="#FFFFFF" font-family="sans-serif" font-size="14" lengthAdjust="spacing" textLength="127.9619" x="774.75" y="699.892">#gewicht : double</text><line style="stroke:#E7E7E7;stroke-width:0.5;" x1="769.75" x2="1103.1309" y1="707.1938" y2="707.1938"/><text fill="#FFFFFF" font-family="sans-serif" font-size="14" lengthAdjust="spacing" textLength="323.3809" x="774.75" y="724.1889">+Gepaeckstueck(id : String, gewicht : double)</text><text fill="#FFFFFF" font-family="sans-serif" font-size="14" font-style="italic" lengthAdjust="spacing" textLength="213.5957" x="774.75" y="740.4857">+berechneZuschlag() : double</text></g><!--class Koffer--><g class="entity" data-qualified-name="Koffer" data-source-line="16" id="ent0004"><rect fill="#313139" height="96.8906" rx="2.5" ry="2.5" style="stroke:#E7E7E7;stroke-width:0.5;" width="422.0674" x="479.41" y="833.23"/><ellipse cx="665.2074" cy="849.23" fill="#2E5233" rx="11" ry="11" style="stroke:#E7E7E7;stroke-width:1;"/><path d="M668.1761,854.8706 Q667.598,855.1675 666.9574,855.3081 Q666.3167,855.4644 665.6136,855.4644 Q663.1136,855.4644 661.7855,853.8238 Q660.473,852.1675 660.473,849.0425 Q660.473,845.9175 661.7855,844.2613 Q663.1136,842.605 665.6136,842.605 Q666.3167,842.605 666.9574,842.7613 Q667.6136,842.9175 668.1761,843.2144 L668.1761,845.9331 Q667.5511,845.355 666.9574,845.0894 Q666.3636,844.8081 665.7386,844.8081 Q664.3949,844.8081 663.7074,845.8863 Q663.0199,846.9488 663.0199,849.0425 Q663.0199,851.1363 663.7074,852.2144 Q664.3949,853.2769 665.7386,853.2769 Q666.3636,853.2769 666.9574,853.0113 Q667.5511,852.73 668.1761,852.1519 L668.1761,854.8706 Z " fill="#FFFFFF"/><text fill="#FFFFFF" font-family="sans-serif" font-size="14" lengthAdjust="spacing" textLength="41.9727" x="685.7074" y="854.0767">Koffer</text><line style="stroke:#E7E7E7;stroke-width:0.5;" x1="480.41" x2="900.4774" y1="865.23" y2="865.23"/><text fill="#FFFFFF" font-family="sans-serif" font-size="14" lengthAdjust="spacing" textLength="148.2852" x="485.41" y="882.2251">-hartschale : boolean</text><line style="stroke:#E7E7E7;stroke-width:0.5;" x1="480.41" x2="900.4774" y1="889.5269" y2="889.5269"/><text fill="#FFFFFF" font-family="sans-serif" font-size="14" lengthAdjust="spacing" textLength="410.0674" x="485.41" y="906.522">+Koffer(id : String, gewicht : double, hartschale : boolean)</text><text fill="#FFFFFF" font-family="sans-serif" font-size="14" lengthAdjust="spacing" textLength="213.5957" x="485.41" y="922.8189">+berechneZuschlag() : double</text></g><!--class Sperrgepaeck--><g class="entity" data-qualified-name="Sperrgepaeck" data-source-line="22" id="ent0005"><rect fill="#313139" height="96.8906" rx="2.5" ry="2.5" style="stroke:#E7E7E7;stroke-width:0.5;" width="489.627" x="936.63" y="833.23"/><ellipse cx="1128.5524" cy="849.23" fill="#2E5233" rx="11" ry="11" style="stroke:#E7E7E7;stroke-width:1;"/><path d="M1131.5211,854.8706 Q1130.943,855.1675 1130.3024,855.3081 Q1129.6617,855.4644 1128.9586,855.4644 Q1126.4586,855.4644 1125.1305,853.8238 Q1123.818,852.1675 1123.818,849.0425 Q1123.818,845.9175 1125.1305,844.2613 Q1126.4586,842.605 1128.9586,842.605 Q1129.6617,842.605 1130.3024,842.7613 Q1130.9586,842.9175 1131.5211,843.2144 L1131.5211,845.9331 Q1130.8961,845.355 1130.3024,845.0894 Q1129.7086,844.8081 1129.0836,844.8081 Q1127.7399,844.8081 1127.0524,845.8863 Q1126.3649,846.9488 1126.3649,849.0425 Q1126.3649,851.1363 1127.0524,852.2144 Q1127.7399,853.2769 1129.0836,853.2769 Q1129.7086,853.2769 1130.3024,853.0113 Q1130.8961,852.73 1131.5211,852.1519 L1131.5211,854.8706 Z " fill="#FFFFFF"/><text fill="#FFFFFF" font-family="sans-serif" font-size="14" lengthAdjust="spacing" textLength="97.2822" x="1149.0524" y="854.0767">Sperrgepaeck</text><line style="stroke:#E7E7E7;stroke-width:0.5;" x1="937.63" x2="1425.257" y1="865.23" y2="865.23"/><text fill="#FFFFFF" font-family="sans-serif" font-size="14" lengthAdjust="spacing" textLength="160.5352" x="942.63" y="882.2251">-zerbrechlich : boolean</text><line style="stroke:#E7E7E7;stroke-width:0.5;" x1="937.63" x2="1425.257" y1="889.5269" y2="889.5269"/><text fill="#FFFFFF" font-family="sans-serif" font-size="14" lengthAdjust="spacing" textLength="477.627" x="942.63" y="906.522">+Sperrgepaeck(id : String, gewicht : double, zerbrechlich : boolean)</text><text fill="#FFFFFF" font-family="sans-serif" font-size="14" lengthAdjust="spacing" textLength="213.5957" x="942.63" y="922.8189">+berechneZuschlag() : double</text></g><!--class Flug--><g class="entity" data-qualified-name="Flug" data-source-line="28" id="ent0006"><rect fill="#313139" height="162.0781" rx="2.5" ry="2.5" style="stroke:#E7E7E7;stroke-width:0.5;" width="694.8896" x="7" y="610.15"/><ellipse cx="335.3438" cy="626.15" fill="#2E5233" rx="11" ry="11" style="stroke:#E7E7E7;stroke-width:1;"/><path d="M338.3125,631.7906 Q337.7344,632.0875 337.0938,632.2281 Q336.4531,632.3844 335.75,632.3844 Q333.25,632.3844 331.9219,630.7438 Q330.6094,629.0875 330.6094,625.9625 Q330.6094,622.8375 331.9219,621.1813 Q333.25,619.525 335.75,619.525 Q336.4531,619.525 337.0938,619.6813 Q337.75,619.8375 338.3125,620.1344 L338.3125,622.8531 Q337.6875,622.275 337.0938,622.0094 Q336.5,621.7281 335.875,621.7281 Q334.5313,621.7281 333.8438,622.8063 Q333.1563,623.8688 333.1563,625.9625 Q333.1563,628.0563 333.8438,629.1344 Q334.5313,630.1969 335.875,630.1969 Q336.5,630.1969 337.0938,629.9313 Q337.6875,629.65 338.3125,629.0719 L338.3125,631.7906 Z " fill="#FFFFFF"/><text fill="#FFFFFF" font-family="sans-serif" font-size="14" lengthAdjust="spacing" textLength="29.7021" x="355.8438" y="630.9967">Flug</text><line style="stroke:#E7E7E7;stroke-width:0.5;" x1="8" x2="700.8896" y1="642.15" y2="642.15"/><text fill="#FFFFFF" font-family="sans-serif" font-size="14" lengthAdjust="spacing" textLength="103.2568" x="13" y="659.1451">-flugNr : String</text><text fill="#FFFFFF" font-family="sans-serif" font-size="14" lengthAdjust="spacing" textLength="84.1914" x="13" y="675.442">-ziel : String</text><text fill="#FFFFFF" font-family="sans-serif" font-size="14" lengthAdjust="spacing" textLength="168.6289" x="13" y="691.7389">-startDatum : LocalDate</text><text fill="#FFFFFF" font-family="sans-serif" font-size="14" lengthAdjust="spacing" textLength="92.0186" x="13" y="708.0357">-gate : String</text><text fill="#FFFFFF" font-family="sans-serif" font-size="14" lengthAdjust="spacing" textLength="143.3701" x="13" y="724.3326">-maxPassagiere : int</text><text fill="#FFFFFF" font-family="sans-serif" font-size="14" lengthAdjust="spacing" textLength="136.3223" x="13" y="740.6295">-basisPreis : double</text><line style="stroke:#E7E7E7;stroke-width:0.5;" x1="8" x2="700.8896" y1="747.9313" y2="747.9313"/><text fill="#FFFFFF" font-family="sans-serif" font-size="14" lengthAdjust="spacing" textLength="682.8896" x="13" y="764.9264">+Flug(flugNr : String, ziel : String, startDatum : LocalDate, gate : String, max : int, preis : double)</text></g><!--class Passagier--><g class="entity" data-qualified-name="Passagier" data-source-line="38" id="ent0007"><rect fill="#313139" height="129.4844" rx="2.5" ry="2.5" style="stroke:#E7E7E7;stroke-width:0.5;" width="418.8135" x="373.04" y="403.67"/><ellipse cx="544.5297" cy="419.67" fill="#2E5233" rx="11" ry="11" style="stroke:#E7E7E7;stroke-width:1;"/><path d="M547.4985,425.3106 Q546.9204,425.6075 546.2797,425.7481 Q545.6391,425.9044 544.936,425.9044 Q542.436,425.9044 541.1079,424.2637 Q539.7954,422.6075 539.7954,419.4825 Q539.7954,416.3575 541.1079,414.7012 Q542.436,413.045 544.936,413.045 Q545.6391,413.045 546.2797,413.2012 Q546.936,413.3575 547.4985,413.6544 L547.4985,416.3731 Q546.8735,415.795 546.2797,415.5294 Q545.686,415.2481 545.061,415.2481 Q543.7172,415.2481 543.0297,416.3262 Q542.3422,417.3887 542.3422,419.4825 Q542.3422,421.5762 543.0297,422.6544 Q543.7172,423.7169 545.061,423.7169 Q545.686,423.7169 546.2797,423.4512 Q546.8735,423.17 547.4985,422.5919 L547.4985,425.3106 Z " fill="#FFFFFF"/><text fill="#FFFFFF" font-family="sans-serif" font-size="14" lengthAdjust="spacing" textLength="67.334" x="565.0297" y="424.5167">Passagier</text><line style="stroke:#E7E7E7;stroke-width:0.5;" x1="374.04" x2="790.8535" y1="435.67" y2="435.67"/><text fill="#FFFFFF" font-family="sans-serif" font-size="14" lengthAdjust="spacing" textLength="119.6084" x="379.04" y="452.6651">-passagierID : int</text><text fill="#FFFFFF" font-family="sans-serif" font-size="14" lengthAdjust="spacing" textLength="100.1533" x="379.04" y="468.962">-name : String</text><text fill="#FFFFFF" font-family="sans-serif" font-size="14" lengthAdjust="spacing" textLength="160.7266" x="379.04" y="485.2589">-ticketNummer : String</text><text fill="#FFFFFF" font-family="sans-serif" font-size="14" lengthAdjust="spacing" textLength="133.7246" x="379.04" y="501.5557">-a&#818;u&#818;t&#818;o&#818;w&#818;e&#818;r&#818;t&#818; &#818;:&#818; &#818;i&#818;n&#818;t&#818; &#818;=&#818; &#818;0&#818; &#818;</text><line style="stroke:#E7E7E7;stroke-width:0.5;" x1="374.04" x2="790.8535" y1="508.8575" y2="508.8575"/><text fill="#FFFFFF" font-family="sans-serif" font-size="14" lengthAdjust="spacing" textLength="406.8135" x="379.04" y="525.8526">+Passagier(name : String, ticketNummer : String, f : Flug)</text></g><!--class GepaeckWagen--><g class="entity" data-qualified-name="GepaeckWagen" data-source-line="46" id="ent0008"><rect fill="#313139" height="80.5938" rx="2.5" ry="2.5" style="stroke:#E7E7E7;stroke-width:0.5;" width="283.5781" x="826.66" y="428.11"/><ellipse cx="909.1288" cy="444.11" fill="#2E5233" rx="11" ry="11" style="stroke:#E7E7E7;stroke-width:1;"/><path d="M912.0975,449.7506 Q911.5194,450.0475 910.8788,450.1881 Q910.2381,450.3444 909.535,450.3444 Q907.035,450.3444 905.7069,448.7038 Q904.3944,447.0475 904.3944,443.9225 Q904.3944,440.7975 905.7069,439.1413 Q907.035,437.485 909.535,437.485 Q910.2381,437.485 910.8788,437.6413 Q911.535,437.7975 912.0975,438.0944 L912.0975,440.8131 Q911.4725,440.235 910.8788,439.9694 Q910.285,439.6881 909.66,439.6881 Q908.3163,439.6881 907.6288,440.7663 Q906.9413,441.8288 906.9413,443.9225 Q906.9413,446.0163 907.6288,447.0944 Q908.3163,448.1569 909.66,448.1569 Q910.285,448.1569 910.8788,447.8913 Q911.4725,447.61 912.0975,447.0319 L912.0975,449.7506 Z " fill="#FFFFFF"/><text fill="#FFFFFF" font-family="sans-serif" font-size="14" lengthAdjust="spacing" textLength="110.1406" x="929.6288" y="448.9567">GepaeckWagen</text><line style="stroke:#E7E7E7;stroke-width:0.5;" x1="827.66" x2="1109.2381" y1="460.11" y2="460.11"/><line style="stroke:#E7E7E7;stroke-width:0.5;" x1="827.66" x2="1109.2381" y1="468.11" y2="468.11"/><text fill="#FFFFFF" font-family="sans-serif" font-size="14" lengthAdjust="spacing" textLength="262.7188" x="832.66" y="485.1051">+GepaeckWagen(g : Gepaeckstueck)</text><text fill="#FFFFFF" font-family="sans-serif" font-size="14" lengthAdjust="spacing" textLength="271.5781" x="832.66" y="501.402">+anhaengen(wagen : GepaeckWagen)</text></g><!--class BarcodeScanner--><g class="entity" data-qualified-name="BarcodeScanner" data-source-line="51" id="ent0009"><rect fill="#313139" height="113.1875" rx="2.5" ry="2.5" style="stroke:#E7E7E7;stroke-width:0.5;" width="260.2129" x="1171.34" y="197.18"/><ellipse cx="1239.7062" cy="213.18" fill="#2E5233" rx="11" ry="11" style="stroke:#E7E7E7;stroke-width:1;"/><path d="M1242.675,218.8206 Q1242.0968,219.1175 1241.4562,219.2581 Q1240.8156,219.4144 1240.1125,219.4144 Q1237.6125,219.4144 1236.2843,217.7737 Q1234.9718,216.1175 1234.9718,212.9925 Q1234.9718,209.8675 1236.2843,208.2112 Q1237.6125,206.555 1240.1125,206.555 Q1240.8156,206.555 1241.4562,206.7112 Q1242.1125,206.8675 1242.675,207.1644 L1242.675,209.8831 Q1242.05,209.305 1241.4562,209.0394 Q1240.8625,208.7581 1240.2375,208.7581 Q1238.8937,208.7581 1238.2062,209.8362 Q1237.5187,210.8987 1237.5187,212.9925 Q1237.5187,215.0862 1238.2062,216.1644 Q1238.8937,217.2269 1240.2375,217.2269 Q1240.8625,217.2269 1241.4562,216.9612 Q1242.05,216.68 1242.675,216.1019 L1242.675,218.8206 Z " fill="#FFFFFF"/><text fill="#FFFFFF" font-family="sans-serif" font-size="14" lengthAdjust="spacing" textLength="114.9805" x="1260.2062" y="218.0267">BarcodeScanner</text><line style="stroke:#E7E7E7;stroke-width:0.5;" x1="1172.34" x2="1430.5529" y1="229.18" y2="229.18"/><line style="stroke:#E7E7E7;stroke-width:0.5;" x1="1172.34" x2="1430.5529" y1="237.18" y2="237.18"/><text fill="#FFFFFF" font-family="sans-serif" font-size="14" lengthAdjust="spacing" textLength="228.8877" x="1177.34" y="254.1751">+BarcodeScanner(serial : Serial)</text><text fill="#FFFFFF" font-family="sans-serif" font-size="14" lengthAdjust="spacing" textLength="147.5195" x="1177.34" y="270.472">+isReady() : boolean</text><text fill="#FFFFFF" font-family="sans-serif" font-size="14" lengthAdjust="spacing" textLength="167.5898" x="1177.34" y="286.7689">+readBarcode() : String</text><text fill="#FFFFFF" font-family="sans-serif" font-size="14" lengthAdjust="spacing" textLength="248.2129" x="1177.34" y="303.0657">-calcChecksum(data : char[]) : char</text></g><!--class ScannerController--><g class="entity" data-qualified-name="ScannerController" data-source-line="58" id="ent0010"><rect fill="#313139" height="80.5938" rx="2.5" ry="2.5" style="stroke:#E7E7E7;stroke-width:0.5;" width="733.1777" x="934.86" y="15.14"/><ellipse cx="1233.9733" cy="31.14" fill="#2E5233" rx="11" ry="11" style="stroke:#E7E7E7;stroke-width:1;"/><path d="M1236.942,36.7806 Q1236.3639,37.0775 1235.7233,37.2181 Q1235.0827,37.3744 1234.3795,37.3744 Q1231.8795,37.3744 1230.5514,35.7337 Q1229.2389,34.0775 1229.2389,30.9525 Q1229.2389,27.8275 1230.5514,26.1712 Q1231.8795,24.515 1234.3795,24.515 Q1235.0827,24.515 1235.7233,24.6712 Q1236.3795,24.8275 1236.942,25.1244 L1236.942,27.8431 Q1236.317,27.265 1235.7233,26.9994 Q1235.1295,26.7181 1234.5045,26.7181 Q1233.1608,26.7181 1232.4733,27.7962 Q1231.7858,28.8587 1231.7858,30.9525 Q1231.7858,33.0462 1232.4733,34.1244 Q1233.1608,35.1869 1234.5045,35.1869 Q1235.1295,35.1869 1235.7233,34.9212 Q1236.317,34.64 1236.942,34.0619 L1236.942,36.7806 Z " fill="#FFFFFF"/><text fill="#FFFFFF" font-family="sans-serif" font-size="14" lengthAdjust="spacing" textLength="126.4512" x="1254.4733" y="35.9867">ScannerController</text><line style="stroke:#E7E7E7;stroke-width:0.5;" x1="935.86" x2="1667.0377" y1="47.14" y2="47.14"/><line style="stroke:#E7E7E7;stroke-width:0.5;" x1="935.86" x2="1667.0377" y1="55.14" y2="55.14"/><text fill="#FFFFFF" font-family="sans-serif" font-size="14" lengthAdjust="spacing" textLength="721.1777" x="940.86" y="72.1351">+ScannerController(comPort : String, verwaltung : FlughafenVerwaltung, schleuse : GepaeckSchleuse)</text><text fill="#FFFFFF" font-family="sans-serif" font-size="14" lengthAdjust="spacing" textLength="46.1563" x="940.86" y="88.432">+run()</text></g><!--class GepaeckSchleuse--><g class="entity" data-qualified-name="GepaeckSchleuse" data-source-line="63" id="ent0011"><rect fill="#313139" height="145.7813" rx="2.5" ry="2.5" style="stroke:#E7E7E7;stroke-width:0.5;" width="205.2383" x="1466.83" y="180.89"/><ellipse cx="1503.9486" cy="196.89" fill="#2E5233" rx="11" ry="11" style="stroke:#E7E7E7;stroke-width:1;"/><path d="M1506.9173,202.5306 Q1506.3392,202.8275 1505.6986,202.9681 Q1505.0579,203.1244 1504.3548,203.1244 Q1501.8548,203.1244 1500.5267,201.4838 Q1499.2142,199.8275 1499.2142,196.7025 Q1499.2142,193.5775 1500.5267,191.9213 Q1501.8548,190.265 1504.3548,190.265 Q1505.0579,190.265 1505.6986,190.4213 Q1506.3548,190.5775 1506.9173,190.8744 L1506.9173,193.5931 Q1506.2923,193.015 1505.6986,192.7494 Q1505.1048,192.4681 1504.4798,192.4681 Q1503.1361,192.4681 1502.4486,193.5463 Q1501.7611,194.6088 1501.7611,196.7025 Q1501.7611,198.7963 1502.4486,199.8744 Q1503.1361,200.9369 1504.4798,200.9369 Q1505.1048,200.9369 1505.6986,200.6713 Q1506.2923,200.39 1506.9173,199.8119 L1506.9173,202.5306 Z " fill="#FFFFFF"/><text fill="#FFFFFF" font-family="sans-serif" font-size="14" lengthAdjust="spacing" textLength="124.0859" x="1522.8638" y="201.7367">GepaeckSchleuse</text><line style="stroke:#E7E7E7;stroke-width:0.5;" x1="1467.83" x2="1671.0683" y1="212.89" y2="212.89"/><text fill="#FFFFFF" font-family="sans-serif" font-size="14" lengthAdjust="spacing" textLength="123.1699" x="1472.83" y="229.8851">-schleusenNr : int</text><text fill="#FFFFFF" font-family="sans-serif" font-size="14" lengthAdjust="spacing" textLength="120.4014" x="1472.83" y="246.182">-locked : boolean</text><line style="stroke:#E7E7E7;stroke-width:0.5;" x1="1467.83" x2="1671.0683" y1="253.4838" y2="253.4838"/><text fill="#FFFFFF" font-family="sans-serif" font-size="14" lengthAdjust="spacing" textLength="193.2383" x="1472.83" y="270.4789">+GepaeckSchleuse(nr : int)</text><text fill="#FFFFFF" font-family="sans-serif" font-size="14" lengthAdjust="spacing" textLength="50.9141" x="1472.83" y="286.7757">+lock()</text><text fill="#FFFFFF" font-family="sans-serif" font-size="14" lengthAdjust="spacing" textLength="68.6602" x="1472.83" y="303.0726">+unlock()</text><text fill="#FFFFFF" font-family="sans-serif" font-size="14" lengthAdjust="spacing" textLength="140.8203" x="1472.83" y="319.3695">+isOpen() : boolean</text></g><!--class Serial--><g class="entity" data-qualified-name="Serial" data-source-line="72" id="ent0012"><rect fill="#313139" height="48" rx="2.5" ry="2.5" style="stroke:#E7E7E7;stroke-width:0.5;" width="71.6143" x="1289.64" y="444.41"/><ellipse cx="1304.64" cy="460.41" fill="#2E5233" rx="11" ry="11" style="stroke:#E7E7E7;stroke-width:1;"/><path d="M1307.6088,466.0506 Q1307.0306,466.3475 1306.39,466.4881 Q1305.7494,466.6444 1305.0463,466.6444 Q1302.5463,466.6444 1301.2181,465.0038 Q1299.9056,463.3475 1299.9056,460.2225 Q1299.9056,457.0975 1301.2181,455.4413 Q1302.5463,453.785 1305.0463,453.785 Q1305.7494,453.785 1306.39,453.9413 Q1307.0463,454.0975 1307.6088,454.3944 L1307.6088,457.1131 Q1306.9838,456.535 1306.39,456.2694 Q1305.7963,455.9881 1305.1713,455.9881 Q1303.8275,455.9881 1303.14,457.0663 Q1302.4525,458.1288 1302.4525,460.2225 Q1302.4525,462.3163 1303.14,463.3944 Q1303.8275,464.4569 1305.1713,464.4569 Q1305.7963,464.4569 1306.39,464.1913 Q1306.9838,463.91 1307.6088,463.3319 L1307.6088,466.0506 Z " fill="#FFFFFF"/><text fill="#FFFFFF" font-family="sans-serif" font-size="14" lengthAdjust="spacing" textLength="39.6143" x="1318.64" y="465.2567">Serial</text><line style="stroke:#E7E7E7;stroke-width:0.5;" x1="1290.64" x2="1360.2543" y1="476.41" y2="476.41"/><line style="stroke:#E7E7E7;stroke-width:0.5;" x1="1290.64" x2="1360.2543" y1="484.41" y2="484.41"/></g><!--class Log--><g class="entity" data-qualified-name="Log" data-source-line="74" id="ent0013"><rect fill="#313139" height="96.8906" rx="2.5" ry="2.5" style="stroke:#E7E7E7;stroke-width:0.5;" width="303.3682" x="501.76" y="7"/><ellipse cx="636.5681" cy="23" fill="#2E5233" rx="11" ry="11" style="stroke:#E7E7E7;stroke-width:1;"/><path d="M639.5369,28.6406 Q638.9587,28.9375 638.3181,29.0781 Q637.6775,29.2344 636.9744,29.2344 Q634.4744,29.2344 633.1462,27.5938 Q631.8337,25.9375 631.8337,22.8125 Q631.8337,19.6875 633.1462,18.0313 Q634.4744,16.375 636.9744,16.375 Q637.6775,16.375 638.3181,16.5313 Q638.9744,16.6875 639.5369,16.9844 L639.5369,19.7031 Q638.9119,19.125 638.3181,18.8594 Q637.7244,18.5781 637.0994,18.5781 Q635.7556,18.5781 635.0681,19.6563 Q634.3806,20.7188 634.3806,22.8125 Q634.3806,24.9063 635.0681,25.9844 Q635.7556,27.0469 637.0994,27.0469 Q637.7244,27.0469 638.3181,26.7813 Q638.9119,26.5 639.5369,25.9219 L639.5369,28.6406 Z " fill="#FFFFFF"/><text fill="#FFFFFF" font-family="sans-serif" font-size="14" lengthAdjust="spacing" textLength="25.252" x="657.0681" y="27.8467">Log</text><line style="stroke:#E7E7E7;stroke-width:0.5;" x1="502.76" x2="804.1282" y1="39" y2="39"/><text fill="#FFFFFF" font-family="sans-serif" font-size="14" lengthAdjust="spacing" textLength="110.5371" x="507.76" y="55.9951">-eintrag : String</text><text fill="#FFFFFF" font-family="sans-serif" font-size="14" lengthAdjust="spacing" textLength="134.1279" x="507.76" y="72.292">-datum : LocalDate</text><line style="stroke:#E7E7E7;stroke-width:0.5;" x1="502.76" x2="804.1282" y1="79.5938" y2="79.5938"/><text fill="#FFFFFF" font-family="sans-serif" font-size="14" lengthAdjust="spacing" textLength="291.3682" x="507.76" y="96.5889">+Log(eintrag : String, datum : LocalDate)</text></g><!--reverse link Gepaeckstueck to Koffer--><g class="link" data-entity-1="ent0003" data-entity-2="ent0004" data-link-type="extension" data-source-line="80" id="lnk14"><path codeLine="80" d="M849.0121,759.1778 C813.8921,786.0878 786.53,807.06 752.91,832.82" fill="none" id="Gepaeckstueck-backto-Koffer" style="stroke:#E7E7E7;stroke-width:1;"/><polygon fill="none" points="863.3,748.23,845.3628,754.4152,852.6614,763.9405,863.3,748.23" style="stroke:#E7E7E7;stroke-width:1;"/></g><!--reverse link Gepaeckstueck to Sperrgepaeck--><g class="link" data-entity-1="ent0003" data-entity-2="ent0005" data-link-type="extension" data-source-line="81" id="lnk15"><path codeLine="81" d="M1023.5568,759.2054 C1058.5368,786.1154 1085.75,807.06 1119.23,832.82" fill="none" id="Gepaeckstueck-backto-Sperrgepaeck" style="stroke:#E7E7E7;stroke-width:1;"/><polygon fill="none" points="1009.29,748.23,1019.8983,763.961,1027.2152,754.4498,1009.29,748.23" style="stroke:#E7E7E7;stroke-width:1;"/></g><!--link FlughafenVerwaltung to Flug--><g class="link" data-entity-1="ent0002" data-entity-2="ent0006" data-link-type="dependency" data-source-line="83" id="lnk16"><path codeLine="83" d="M432.5162,305.6798 C380.9662,327.7598 339.27,356.79 308.44,403.67 C268.31,464.7 286.1345,542.9642 311.0945,604.1742" fill="none" id="FlughafenVerwaltung-Flug" style="stroke:#E7E7E7;stroke-width:1;"/><path d="M433.699,300.8217 L429.4949,311.3253 M436.8488,308.1755 L426.3451,303.9715" fill="none" style="stroke:#E7E7E7;stroke-width:1;"/><polygon fill="#E7E7E7" points="313.36,609.73,313.6656,599.8859,311.4721,605.1001,306.2578,602.9066,313.36,609.73" style="stroke:#E7E7E7;stroke-width:1;"/><text fill="#FFFFFF" font-family="sans-serif" font-size="13" lengthAdjust="spacing" textLength="45.3667" x="309.44" y="472.9769">-fluege</text><text fill="#FFFFFF" font-family="sans-serif" font-size="13" lengthAdjust="spacing" textLength="6.5" x="303.5929" y="599.1577">*</text></g><!--link FlughafenVerwaltung to Passagier--><g class="link" data-entity-1="ent0002" data-entity-2="ent0007" data-link-type="dependency" data-source-line="84" id="lnk17"><path codeLine="84" d="M634.9771,310.0884 C625.0471,339.8384 616.57,365.2188 605.75,397.6288" fill="none" id="FlughafenVerwaltung-Passagier" style="stroke:#E7E7E7;stroke-width:1;"/><path d="M632.1327,305.9763 L637.1883,316.0977 M639.7212,308.5092 L629.5998,313.5648" fill="none" style="stroke:#E7E7E7;stroke-width:1;"/><polygon fill="#E7E7E7" points="603.85,403.32,610.4941,396.0498,605.4333,398.5773,602.9059,393.5165,603.85,403.32" style="stroke:#E7E7E7;stroke-width:1;"/><text fill="#FFFFFF" font-family="sans-serif" font-size="13" lengthAdjust="spacing" textLength="75.626" x="619.44" y="369.7369">-passagiere</text><text fill="#FFFFFF" font-family="sans-serif" font-size="13" lengthAdjust="spacing" textLength="6.5" x="599.8902" y="392.4544">*</text></g><!--link FlughafenVerwaltung to GepaeckWagen--><g class="link" data-entity-1="ent0002" data-entity-2="ent0008" data-link-type="dependency" data-source-line="85" id="lnk18"><path codeLine="85" d="M730.7709,306.9756 C786.6409,344.6856 852.0967,388.8735 904.6367,424.3335" fill="none" id="FlughafenVerwaltung-GepaeckWagen" style="stroke:#E7E7E7;stroke-width:1;"/><path d="M726.0465,308.6127 L737.153,306.4574 M730.5221,301.9818 L732.6774,313.0883" fill="none" style="stroke:#E7E7E7;stroke-width:1;"/><polygon fill="#E7E7E7" points="909.61,427.69,904.3878,419.3397,905.4656,424.8929,899.9124,425.9707,909.61,427.69" style="stroke:#E7E7E7;stroke-width:1;"/><text fill="#FFFFFF" font-family="sans-serif" font-size="13" lengthAdjust="spacing" textLength="89.1401" x="821.44" y="369.7369">-gepaeckKopf</text><text fill="#FFFFFF" font-family="sans-serif" font-size="13" lengthAdjust="spacing" textLength="24.8066" x="874.3843" y="417.0829">0..1</text></g><!--link Passagier to Flug--><g class="link" data-entity-1="ent0007" data-entity-2="ent0006" data-link-type="dependency" data-source-line="87" id="lnk19"><path codeLine="87" d="M510.4427,539.125 C485.8527,562.935 467.7103,580.5061 441.8103,605.5861" fill="none" id="Passagier-Flug" style="stroke:#E7E7E7;stroke-width:1;"/><path d="M509.8155,534.1645 L509.6332,545.4767 M515.3804,539.9117 L504.0682,539.7294" fill="none" style="stroke:#E7E7E7;stroke-width:1;"/><polygon fill="#E7E7E7" points="437.5,609.76,446.7481,606.3728,441.0919,606.2818,441.1829,600.6257,437.5,609.76" style="stroke:#E7E7E7;stroke-width:1;"/><text fill="#FFFFFF" font-family="sans-serif" font-size="13" lengthAdjust="spacing" textLength="29.3706" x="483.44" y="576.2169">-flug</text><text fill="#FFFFFF" font-family="sans-serif" font-size="13" lengthAdjust="spacing" textLength="8.271" x="436.3054" y="599.1903">1</text></g><!--link Passagier to Gepaeckstueck--><g class="link" data-entity-1="ent0007" data-entity-2="ent0003" data-link-type="dependency" data-source-line="88" id="lnk20"><path codeLine="88" d="M692.0982,537.7933 C743.1382,569.6233 792.3291,600.3047 841.4691,630.9547" fill="none" id="Passagier-Gepaeckstueck" style="stroke:#E7E7E7;stroke-width:1;"/><path d="M687.436,539.5999 L698.4574,537.045 M691.6693,532.8117 L694.2241,543.8332" fill="none" style="stroke:#E7E7E7;stroke-width:1;"/><polygon fill="#E7E7E7" points="846.56,634.13,841.0405,625.9731,842.3176,631.4839,836.8068,632.7609,846.56,634.13" style="stroke:#E7E7E7;stroke-width:1;"/><text fill="#FFFFFF" font-family="sans-serif" font-size="13" lengthAdjust="spacing" textLength="59.833" x="760.44" y="576.2169">-gepaeck</text><text fill="#FFFFFF" font-family="sans-serif" font-size="13" lengthAdjust="spacing" textLength="6.5" x="829.2707" y="623.3363">*</text></g><!--link GepaeckWagen to GepaeckWagen--><g class="link" data-entity-1="ent0008" data-entity-2="ent0008" data-link-type="dependency" data-source-line="90" id="lnk21"><path codeLine="90" d="M1118.5592,452.0021 C1139.2392,454.7721 1145.23,459.54 1145.23,468.41 C1145.23,477.28 1137.2565,482.3006 1116.5765,485.0806" fill="none" id="GepaeckWagen-GepaeckWagen" style="stroke:#E7E7E7;stroke-width:1;"/><path d="M1115.0547,455.5684 L1124.046,448.7013 M1116.1168,447.6392 L1122.9839,456.6305" fill="none" style="stroke:#E7E7E7;stroke-width:1;"/><polygon fill="#E7E7E7" points="1110.63,485.88,1120.0827,488.6453,1115.5854,485.2138,1119.0168,480.7166,1110.63,485.88" style="stroke:#E7E7E7;stroke-width:1;"/><text fill="#FFFFFF" font-family="sans-serif" font-size="13" lengthAdjust="spacing" textLength="114.8037" x="1151.23" y="472.9769">-naechsterWagen</text><text fill="#FFFFFF" font-family="sans-serif" font-size="13" lengthAdjust="spacing" textLength="24.8066" x="1118.1177" y="483.4332">0..1</text></g><!--link GepaeckWagen to Gepaeckstueck--><g class="link" data-entity-1="ent0008" data-entity-2="ent0003" data-link-type="dependency" data-source-line="91" id="lnk22"><path codeLine="91" d="M961.5415,517.0571 C956.4815,551.9371 951.0809,589.2121 945.4209,628.2521" fill="none" id="GepaeckWagen-Gepaeckstueck" style="stroke:#E7E7E7;stroke-width:1;"/><path d="M958.0136,513.5139 L964.7822,522.5796 M965.9307,514.6625 L956.8651,521.4311" fill="none" style="stroke:#E7E7E7;stroke-width:1;"/><polygon fill="#E7E7E7" points="944.56,634.19,949.8099,625.857,945.2774,629.2417,941.8927,624.7092,944.56,634.19" style="stroke:#E7E7E7;stroke-width:1;"/><text fill="#FFFFFF" font-family="sans-serif" font-size="13" lengthAdjust="spacing" textLength="49.2515" x="955.44" y="576.2169">-ladung</text><text fill="#FFFFFF" font-family="sans-serif" font-size="13" lengthAdjust="spacing" textLength="8.271" x="937.0786" y="623.4036">1</text></g><!--link ScannerController to BarcodeScanner--><g class="link" data-entity-1="ent0010" data-entity-2="ent0009" data-link-type="dependency" data-source-line="93" id="lnk23"><path codeLine="93" d="M1301.44,104.17 C1301.44,133.08 1301.44,158.62 1301.44,190.74" fill="none" id="ScannerController-BarcodeScanner" style="stroke:#E7E7E7;stroke-width:1;"/><path d="M1297.44,101.17 L1305.44,109.17 M1305.44,101.17 L1297.44,109.17" fill="none" style="stroke:#E7E7E7;stroke-width:1;"/><polygon fill="#E7E7E7" points="1301.44,196.74,1305.44,187.74,1301.44,191.74,1297.44,187.74,1301.44,196.74" style="stroke:#E7E7E7;stroke-width:1;"/><text fill="#FFFFFF" font-family="sans-serif" font-size="13" lengthAdjust="spacing" textLength="56.3989" x="1302.44" y="146.9569">-scanner</text><text fill="#FFFFFF" font-family="sans-serif" font-size="13" lengthAdjust="spacing" textLength="8.271" x="1292.9682" y="185.9499">1</text></g><!--link ScannerController to FlughafenVerwaltung--><g class="link" data-entity-1="ent0010" data-entity-2="ent0002" data-link-type="dependency" data-source-line="94" id="lnk24"><path codeLine="94" d="M1162.6537,98.4896 C1059.0137,129.8896 927.3722,169.78 817.3122,203.13" fill="none" id="ScannerController-FlughafenVerwaltung" style="stroke:#E7E7E7;stroke-width:1;"/><path d="M1164.365,93.7916 L1159.0283,103.7676 M1166.6846,101.4479 L1156.7087,96.1113" fill="none" style="stroke:#E7E7E7;stroke-width:1;"/><polygon fill="#E7E7E7" points="811.57,204.87,821.3432,206.0882,816.3551,203.42,819.0233,198.4319,811.57,204.87" style="stroke:#E7E7E7;stroke-width:1;"/><text fill="#FFFFFF" font-family="sans-serif" font-size="13" lengthAdjust="spacing" textLength="77.7651" x="1037.44" y="146.9569">-verwaltung</text><text fill="#FFFFFF" font-family="sans-serif" font-size="13" lengthAdjust="spacing" textLength="8.271" x="824.2992" y="194.3664">1</text></g><!--link ScannerController to GepaeckSchleuse--><g class="link" data-entity-1="ent0010" data-entity-2="ent0011" data-link-type="dependency" data-source-line="95" id="lnk25"><path codeLine="95" d="M1362.134,100.8972 C1395.174,125.0972 1427.0797,148.4844 1465.9997,176.9944" fill="none" id="ScannerController-GepaeckSchleuse" style="stroke:#E7E7E7;stroke-width:1;"/><path d="M1357.3501,102.3515 L1368.5313,100.6247 M1362.0773,95.8975 L1363.8041,107.0787" fill="none" style="stroke:#E7E7E7;stroke-width:1;"/><polygon fill="#E7E7E7" points="1470.84,180.54,1465.9433,171.9947,1466.8064,177.5853,1461.2158,178.4484,1470.84,180.54" style="stroke:#E7E7E7;stroke-width:1;"/><text fill="#FFFFFF" font-family="sans-serif" font-size="13" lengthAdjust="spacing" textLength="61.4707" x="1428.44" y="146.9569">-schleuse</text><text fill="#FFFFFF" font-family="sans-serif" font-size="13" lengthAdjust="spacing" textLength="8.271" x="1453.073" y="169.9176">1</text></g><!--link BarcodeScanner to Serial--><g class="link" data-entity-1="ent0009" data-entity-2="ent0012" data-link-type="dependency" data-source-line="97" id="lnk26"><path codeLine="97" d="M1308.6467,318.5896 C1313.5467,362.0296 1318.5384,406.1777 1322.1284,438.0477" fill="none" id="BarcodeScanner-Serial" style="stroke:#E7E7E7;stroke-width:1;"/><path d="M1304.3356,316.0568 L1313.1819,323.1097 M1312.2852,315.1601 L1305.2324,324.0064" fill="none" style="stroke:#E7E7E7;stroke-width:1;"/><polygon fill="#E7E7E7" points="1322.8,444.01,1325.7674,434.6188,1322.2403,439.0414,1317.8177,435.5143,1322.8,444.01" style="stroke:#E7E7E7;stroke-width:1;"/><text fill="#FFFFFF" font-family="sans-serif" font-size="13" lengthAdjust="spacing" textLength="39.9966" x="1315.44" y="369.7369">-serial</text><text fill="#FFFFFF" font-family="sans-serif" font-size="13" lengthAdjust="spacing" textLength="8.271" x="1313.2128" y="433.3175">1</text></g><!--link Log to FlughafenVerwaltung--><g class="link" data-entity-1="ent0013" data-entity-2="ent0002" data-link-type="dependency" data-source-line="99" id="lnk28"><path codeLine="99" d="M653.44,110.22 C653.44,140.87 653.44,166.5 653.44,197.12" fill="none" id="Log-FlughafenVerwaltung" style="stroke:#E7E7E7;stroke-width:1;"/><polygon fill="#E7E7E7" points="653.44,104.22,649.44,113.22,653.44,109.22,657.44,113.22,653.44,104.22" style="stroke:#E7E7E7;stroke-width:1;"/><path d="M657.44,200.12 L649.44,192.12 M649.44,200.12 L657.44,192.12" fill="none" style="stroke:#E7E7E7;stroke-width:1;"/><text fill="#FFFFFF" font-family="sans-serif" font-size="13" lengthAdjust="spacing" textLength="31.2813" x="654.44" y="146.9569">-logs</text><text fill="#FFFFFF" font-family="sans-serif" font-size="13" lengthAdjust="spacing" textLength="6.5" x="647.0699" y="123.8577">*</text></g><?plantuml-src bLNDRjim3BxxAOJkugnEqLw3RS3QOaNHeYiMO0Csx43RZ2F4aGn9RhjsVQayHnvgj2Gxjk9bsCMGI7xa9_vPhxYeGC6QfP2j2YLhaMUob8eP1KAJ2eM9T6ULbQ3rHsCKJsk3rvaKS_wCx3Io2lQfh8ibB51yHVK8fQb5mLuYnex7DF64MLMsn6nrBa7bd8GL-Rc-P3F6XKbOWHMGzWeVUROq9CrbdPOueLCgPOaWd8y7LA1Iv0Ql769E5CbR3WO56RlhnBbbqMiKGQhfYPbnJs8UfarDNylv3UDvXsHMK0GqNEm1DEw1aZs0VV5B6_gLm2agp9O2lzSwMvRG9AKrRbWwSZToiK1bMKtP4fGXMw3mGHASsM46oIZUL-806RPZCwzGALyOp-aPLTf0IueLikgR_ulRk9__OjSqccUreEET6jIGg78i0v4sb99BCFMQ5BSoWv8kw7H5SngQh-7fdY91mObGsr6D8WNDzRr2heCEQJZ50Pjao2Jv2ujao21fehV3KGr2JNf9wFZvJ5JjlPqiHrZ0EdoSuTaApLszNcEOETXkwkt6R3ToktdSRd2xKVRAjfkP_VBjHhIIz_PxQhys1nsbU10r6O-Oi0MTcxprd-KdxHiKDDGl_U6pehWWp60QVUU0M0AAnkBHGcS3M3_2EQXCvZZFG0YVlUD066jK76pbxC77uFeBGluhtbjDYiJUWrNsKqf5pYwQzQVhTREhWFGqckh7pua_zUVEnR-GmYXPbXszFNcSoVMzLAQNpOVTFfwDxM9gFvefh3NkaZFt4lz0LOjuf1YjbU-qresmhTvrMYcfo7cOci15B3p6Hsn0xK-Y5lqRrvyh5CDSx_9aozBURcMx3f0yAoY24kHZSt_SmE8GaEmRkuGCVnxlVa-dVXUFQVhxC8h6_fXFq-a7TlJsoEso6PlIwi023zlkHfu0tRmV0fsUd9mT3MUAe9xPZQmMKRHpwY1d0qx5dlxjKV0ZtJdiikGY7Q8WwBRK1fMLZE7EHkAKaDFRecX_J3fCCDq4qkvu23IMG4Bk9keGE1mI6zATeoYWqu7cxOAPQj_AuqMiAv_pfiUR3CX2_m40?></g></svg>