<svg xmlns="http://www.w3.org/2000/svg" xmlns:xlink="http://www.w3.org/1999/xlink" contentStyleType="text/css" data-diagram-type="SEQUENCE" height="739px" preserveAspectRatio="none" style="width:1114px;height:739px;" version="1.1" viewBox="0 0 1114 739" width="1114px" zoomAndPan="magnify"><?plantuml 1.2026.3beta4?><defs/><g><g><title>. ScannerController</title><rect fill="#FFFFFF" height="661.2578" style="stroke:#E7E7E7;stroke-width:1;" width="10" x="119.8091" y="67.4297"/></g><g><title>. ScannerController</title><rect fill="#FFFFFF" height="25" style="stroke:#E7E7E7;stroke-width:1;" width="10" x="124.8091" y="293.4922"/></g><g><title>. ScannerController</title><rect fill="#FFFFFF" height="25" style="stroke:#E7E7E7;stroke-width:1;" width="10" x="124.8091" y="488.1563"/></g><g><title>. ScannerController</title><rect fill="#FFFFFF" height="25" style="stroke:#E7E7E7;stroke-width:1;" width="10" x="124.8091" y="660.6875"/></g><g><title>. BarcodeScanner</title><rect fill="#FFFFFF" height="29.1328" style="stroke:#E7E7E7;stroke-width:1;" width="10" x="644.8511" y="120.6953"/></g><g><title>. BarcodeScanner</title><rect fill="#FFFFFF" height="29.1328" style="stroke:#E7E7E7;stroke-width:1;" width="10" x="644.8511" y="203.0938"/></g><g><title>. FlughafenVerwaltung</title><rect fill="#FFFFFF" height="29.1328" style="stroke:#E7E7E7;stroke-width:1;" width="10" x="810.2866" y="354.625"/></g><g><title>. FlughafenVerwaltung</title><rect fill="#FFFFFF" height="29.1328" style="stroke:#E7E7E7;stroke-width:1;" width="10" x="810.2866" y="594.4219"/></g><g><title>. GepaeckSchleuse</title><rect fill="#FFFFFF" height="14" style="stroke:#E7E7E7;stroke-width:1;" width="10" x="980.2749" y="437.0234"/></g><g><title>. GepaeckSchleuse</title><rect fill="#FFFFFF" height="14" style="stroke:#E7E7E7;stroke-width:1;" width="10" x="980.2749" y="549.2891"/></g><rect fill="none" height="639.2578" style="stroke:#888888;stroke-width:1.5;" width="1088.9014" x="10" y="82.4297"/><rect fill="none" height="549.8594" style="stroke:#888888;stroke-width:1.5;" width="1068.9014" x="20" y="164.8281"/><rect fill="none" height="460.4609" style="stroke:#888888;stroke-width:1.5;" width="1048.9014" x="30" y="247.2266"/><rect fill="none" height="301.9297" style="stroke:#888888;stroke-width:1.5;" width="1028.9014" x="40" y="398.7578"/><g class="participant-lifeline" data-entity-uid="part1" data-qualified-name="C" id="part1-lifeline"><g><title>. ScannerController</title><rect fill="#000000" fill-opacity="0.00000" height="702.3906" width="8" x="120.8091" y="36.2969"/><line style="stroke:#E7E7E7;stroke-width:0.5;stroke-dasharray:5,5;" x1="124" x2="124" y1="36.2969" y2="738.6875"/></g></g><g class="participant-lifeline" data-entity-uid="part2" data-qualified-name="S" id="part2-lifeline"><g><title>. BarcodeScanner</title><rect fill="#000000" fill-opacity="0.00000" height="702.3906" width="8" x="645.8511" y="36.2969"/><line style="stroke:#E7E7E7;stroke-width:0.5;stroke-dasharray:5,5;" x1="649.7773" x2="649.7773" y1="36.2969" y2="738.6875"/></g></g><g class="participant-lifeline" data-entity-uid="part3" data-qualified-name="V" id="part3-lifeline"><g><title>. FlughafenVerwaltung</title><rect fill="#000000" fill-opacity="0.00000" height="702.3906" width="8" x="811.2866" y="36.2969"/><line style="stroke:#E7E7E7;stroke-width:0.5;stroke-dasharray:5,5;" x1="814.9248" x2="814.9248" y1="36.2969" y2="738.6875"/></g></g><g class="participant-lifeline" data-entity-uid="part4" data-qualified-name="G" id="part4-lifeline"><g><title>. GepaeckSchleuse</title><rect fill="#000000" fill-opacity="0.00000" height="702.3906" width="8" x="981.2749" y="36.2969"/><line style="stroke:#E7E7E7;stroke-width:0.5;stroke-dasharray:5,5;" x1="984.6484" x2="984.6484" y1="36.2969" y2="738.6875"/></g></g><g class="participant participant-head" data-entity-uid="part1" data-qualified-name="C" id="part1-head"><rect fill="#222222" height="30.2969" rx="2.5" ry="2.5" style="stroke:#E7E7E7;stroke-width:0.5;" width="149.6182" x="50" y="5"/><text fill="#FFFFFF" font-family="sans-serif" font-size="14" lengthAdjust="spacing" textLength="135.6182" x="57" y="24.9951">: ScannerController</text></g><g class="participant participant-head" data-entity-uid="part2" data-qualified-name="S" id="part2-head"><rect fill="#222222" height="30.2969" rx="2.5" ry="2.5" style="stroke:#E7E7E7;stroke-width:0.5;" width="138.1475" x="580.7773" y="5"/><text fill="#FFFFFF" font-family="sans-serif" font-size="14" lengthAdjust="spacing" textLength="124.1475" x="587.7773" y="24.9951">: BarcodeScanner</text></g><g class="participant participant-head" data-entity-uid="part3" data-qualified-name="V" id="part3-head"><rect fill="#222222" height="30.2969" rx="2.5" ry="2.5" style="stroke:#E7E7E7;stroke-width:0.5;" width="172.7236" x="728.9248" y="5"/><text fill="#FFFFFF" font-family="sans-serif" font-size="14" lengthAdjust="spacing" textLength="158.7236" x="735.9248" y="24.9951">: FlughafenVerwaltung</text></g><g class="participant participant-head" data-entity-uid="part4" data-qualified-name="G" id="part4-head"><rect fill="#222222" height="30.2969" rx="2.5" ry="2.5" style="stroke:#E7E7E7;stroke-width:0.5;" width="147.2529" x="911.6484" y="5"/><text fill="#FFFFFF" font-family="sans-serif" font-size="14" lengthAdjust="spacing" textLength="133.2529" x="918.6484" y="24.9951">: GepaeckSchleuse</text></g><g><title>. ScannerController</title><rect fill="#FFFFFF" height="661.2578" style="stroke:#E7E7E7;stroke-width:1;" width="10" x="119.8091" y="67.4297"/></g><g><title>. ScannerController</title><rect fill="#FFFFFF" height="25" style="stroke:#E7E7E7;stroke-width:1;" width="10" x="124.8091" y="293.4922"/></g><g><title>. ScannerController</title><rect fill="#FFFFFF" height="25" style="stroke:#E7E7E7;stroke-width:1;" width="10" x="124.8091" y="488.1563"/></g><g><title>. ScannerController</title><rect fill="#FFFFFF" height="25" style="stroke:#E7E7E7;stroke-width:1;" width="10" x="124.8091" y="660.6875"/></g><g><title>. BarcodeScanner</title><rect fill="#FFFFFF" height="29.1328" style="stroke:#E7E7E7;stroke-width:1;" width="10" x="644.8511" y="120.6953"/></g><g><title>. BarcodeScanner</title><rect fill="#FFFFFF" height="29.1328" style="stroke:#E7E7E7;stroke-width:1;" width="10" x="644.8511" y="203.0938"/></g><g><title>. FlughafenVerwaltung</title><rect fill="#FFFFFF" height="29.1328" style="stroke:#E7E7E7;stroke-width:1;" width="10" x="810.2866" y="354.625"/></g><g><title>. FlughafenVerwaltung</title><rect fill="#FFFFFF" height="29.1328" style="stroke:#E7E7E7;stroke-width:1;" width="10" x="810.2866" y="594.4219"/></g><g><title>. GepaeckSchleuse</title><rect fill="#FFFFFF" height="14" style="stroke:#E7E7E7;stroke-width:1;" width="10" x="980.2749" y="437.0234"/></g><g><title>. GepaeckSchleuse</title><rect fill="#FFFFFF" height="14" style="stroke:#E7E7E7;stroke-width:1;" width="10" x="980.2749" y="549.2891"/></g><g class="message" data-entity-1="part1" data-entity-2="part1" id="msg1"><ellipse cx="7.5" cy="66.6797" fill="#000000" rx="4" ry="4" style="stroke:#E7E7E7;stroke-width:1.5;"/><polygon fill="#E7E7E7" points="107.8091,63.4297,117.8091,67.4297,107.8091,71.4297,111.8091,67.4297" style="stroke:#E7E7E7;stroke-width:1;"/><line style="stroke:#E7E7E7;stroke-width:1;" x1="12" x2="113.8091" y1="67.4297" y2="67.4297"/><text fill="#FFFFFF" font-family="sans-serif" font-size="13" lengthAdjust="spacing" textLength="31.9668" x="15" y="62.3638">run()</text></g><path d="M10,82.4297 L86.624,82.4297 L86.624,89.5625 L76.624,99.5625 L10,99.5625 L10,82.4297" fill="#222222" style="stroke:#888888;stroke-width:1.5;"/><rect fill="none" height="639.2578" style="stroke:#888888;stroke-width:1.5;" width="1088.9014" x="10" y="82.4297"/><text fill="#FFFFFF" font-family="sans-serif" font-size="13" font-weight="700" lengthAdjust="spacing" textLength="31.624" x="25" y="95.4966">loop</text><text fill="#888888" font-family="sans-serif" font-size="11" font-weight="700" lengthAdjust="spacing" textLength="99.2954" x="101.624" y="94.6401">[Endlosschleife]</text><g class="message" data-entity-1="part1" data-entity-2="part2" id="msg2"><polygon fill="#E7E7E7" points="632.8511,116.6953,642.8511,120.6953,632.8511,124.6953,636.8511,120.6953" style="stroke:#E7E7E7;stroke-width:1;"/><line style="stroke:#E7E7E7;stroke-width:1;" x1="129.8091" x2="638.8511" y1="120.6953" y2="120.6953"/><text fill="#FFFFFF" font-family="sans-serif" font-size="13" lengthAdjust="spacing" textLength="61.4707" x="136.8091" y="115.6294">isReady()</text></g><g class="message" data-entity-1="part2" data-entity-2="part1" id="msg3"><polygon fill="#E7E7E7" points="140.8091,145.8281,130.8091,149.8281,140.8091,153.8281,136.8091,149.8281" style="stroke:#E7E7E7;stroke-width:1;"/><line style="stroke:#E7E7E7;stroke-width:1;stroke-dasharray:2,2;" x1="134.8091" x2="648.8511" y1="149.8281" y2="149.8281"/><text fill="#FFFFFF" font-family="sans-serif" font-size="13" lengthAdjust="spacing" textLength="37.2544" x="146.8091" y="144.7622">ready</text></g><path d="M20,164.8281 L89.4512,164.8281 L89.4512,171.9609 L79.4512,181.9609 L20,181.9609 L20,164.8281" fill="#222222" style="stroke:#888888;stroke-width:1.5;"/><rect fill="none" height="549.8594" style="stroke:#888888;stroke-width:1.5;" width="1068.9014" x="20" y="164.8281"/><text fill="#FFFFFF" font-family="sans-serif" font-size="13" font-weight="700" lengthAdjust="spacing" textLength="24.4512" x="35" y="177.895">opt</text><text fill="#888888" font-family="sans-serif" font-size="11" font-weight="700" lengthAdjust="spacing" textLength="97.4746" x="104.4512" y="177.0386">[ready == true]</text><g class="message" data-entity-1="part1" data-entity-2="part2" id="msg4"><polygon fill="#E7E7E7" points="632.8511,199.0938,642.8511,203.0938,632.8511,207.0938,636.8511,203.0938" style="stroke:#E7E7E7;stroke-width:1;"/><line style="stroke:#E7E7E7;stroke-width:1;" x1="129.8091" x2="638.8511" y1="203.0938" y2="203.0938"/><text fill="#FFFFFF" font-family="sans-serif" font-size="13" lengthAdjust="spacing" textLength="93.2852" x="136.8091" y="198.0278">readBarcode()</text></g><g class="message" data-entity-1="part2" data-entity-2="part1" id="msg5"><polygon fill="#E7E7E7" points="140.8091,228.2266,130.8091,232.2266,140.8091,236.2266,136.8091,232.2266" style="stroke:#E7E7E7;stroke-width:1;"/><line style="stroke:#E7E7E7;stroke-width:1;stroke-dasharray:2,2;" x1="134.8091" x2="648.8511" y1="232.2266" y2="232.2266"/><text fill="#FFFFFF" font-family="sans-serif" font-size="13" lengthAdjust="spacing" textLength="52.9141" x="146.8091" y="227.1606">barcode</text></g><path d="M30,247.2266 L99.4512,247.2266 L99.4512,254.3594 L89.4512,264.3594 L30,264.3594 L30,247.2266" fill="#222222" style="stroke:#888888;stroke-width:1.5;"/><rect fill="none" height="460.4609" style="stroke:#888888;stroke-width:1.5;" width="1048.9014" x="30" y="247.2266"/><text fill="#FFFFFF" font-family="sans-serif" font-size="13" font-weight="700" lengthAdjust="spacing" textLength="24.4512" x="45" y="260.2935">opt</text><text fill="#888888" font-family="sans-serif" font-size="11" font-weight="700" lengthAdjust="spacing" textLength="93.543" x="114.4512" y="259.437">[barcode != ""]</text><g class="message" data-entity-1="part1" data-entity-2="part1" id="msg6"><line style="stroke:#E7E7E7;stroke-width:1;" x1="129.8091" x2="176.8091" y1="280.4922" y2="280.4922"/><line style="stroke:#E7E7E7;stroke-width:1;" x1="176.8091" x2="176.8091" y1="280.4922" y2="293.4922"/><line style="stroke:#E7E7E7;stroke-width:1;" x1="135.8091" x2="176.8091" y1="293.4922" y2="293.4922"/><polygon fill="#E7E7E7" points="145.8091,289.4922,135.8091,293.4922,145.8091,297.4922,141.8091,293.4922" style="stroke:#E7E7E7;stroke-width:1;"/><text fill="#FFFFFF" font-family="sans-serif" font-size="13" lengthAdjust="spacing" textLength="199.0054" x="141.8091" y="275.4263">extrahiere passID und gewicht</text></g><g class="message" data-entity-1="part1" data-entity-2="part1" id="msg7"><line style="stroke:#E7E7E7;stroke-width:1;stroke-dasharray:2,2;" x1="134.8091" x2="176.8091" y1="317.4922" y2="317.4922"/><line style="stroke:#E7E7E7;stroke-width:1;stroke-dasharray:2,2;" x1="176.8091" x2="176.8091" y1="317.4922" y2="330.4922"/><line style="stroke:#E7E7E7;stroke-width:1;stroke-dasharray:2,2;" x1="129.8091" x2="176.8091" y1="330.4922" y2="330.4922"/><polygon fill="#E7E7E7" points="139.8091,326.4922,129.8091,330.4922,139.8091,334.4922,135.8091,330.4922" style="stroke:#E7E7E7;stroke-width:1;"/></g><g class="message" data-entity-1="part1" data-entity-2="part3" id="msg8"><polygon fill="#E7E7E7" points="798.2866,350.625,808.2866,354.625,798.2866,358.625,802.2866,354.625" style="stroke:#E7E7E7;stroke-width:1;"/><line style="stroke:#E7E7E7;stroke-width:1;" x1="129.8091" x2="804.2866" y1="354.625" y2="354.625"/><text fill="#FFFFFF" font-family="sans-serif" font-size="13" lengthAdjust="spacing" textLength="209.5933" x="136.8091" y="349.5591">checkBoarding(passID, gewicht)</text></g><g class="message" data-entity-1="part3" data-entity-2="part1" id="msg9"><polygon fill="#E7E7E7" points="140.8091,379.7578,130.8091,383.7578,140.8091,387.7578,136.8091,383.7578" style="stroke:#E7E7E7;stroke-width:1;"/><line style="stroke:#E7E7E7;stroke-width:1;stroke-dasharray:2,2;" x1="134.8091" x2="814.2866" y1="383.7578" y2="383.7578"/><text fill="#FFFFFF" font-family="sans-serif" font-size="13" lengthAdjust="spacing" textLength="37.064" x="146.8091" y="378.6919">result</text></g><path d="M40,398.7578 L104.4429,398.7578 L104.4429,405.8906 L94.4429,415.8906 L40,415.8906 L40,398.7578" fill="#222222" style="stroke:#888888;stroke-width:1.5;"/><rect fill="none" height="301.9297" style="stroke:#888888;stroke-width:1.5;" width="1028.9014" x="40" y="398.7578"/><text fill="#FFFFFF" font-family="sans-serif" font-size="13" font-weight="700" lengthAdjust="spacing" textLength="19.4429" x="55" y="411.8247">alt</text><text fill="#888888" font-family="sans-serif" font-size="11" font-weight="700" lengthAdjust="spacing" textLength="98.4146" x="119.4429" y="410.9683">[result == true]</text><g class="message" data-entity-1="part1" data-entity-2="part4" id="msg10"><polygon fill="#E7E7E7" points="968.2749,433.0234,978.2749,437.0234,968.2749,441.0234,972.2749,437.0234" style="stroke:#E7E7E7;stroke-width:1;"/><line style="stroke:#E7E7E7;stroke-width:1;" x1="129.8091" x2="974.2749" y1="437.0234" y2="437.0234"/><text fill="#FFFFFF" font-family="sans-serif" font-size="13" lengthAdjust="spacing" textLength="52.8633" x="136.8091" y="431.9575">unlock()</text></g><g class="message" data-entity-1="part4" data-entity-2="part1" id="msg11"><polygon fill="#E7E7E7" points="140.8091,447.0234,130.8091,451.0234,140.8091,455.0234,136.8091,451.0234" style="stroke:#E7E7E7;stroke-width:1;"/><line style="stroke:#E7E7E7;stroke-width:1;stroke-dasharray:2,2;" x1="134.8091" x2="984.2749" y1="451.0234" y2="451.0234"/></g><g class="message" data-entity-1="part1" data-entity-2="part1" id="msg12"><line style="stroke:#E7E7E7;stroke-width:1;" x1="129.8091" x2="176.8091" y1="475.1563" y2="475.1563"/><line style="stroke:#E7E7E7;stroke-width:1;" x1="176.8091" x2="176.8091" y1="475.1563" y2="488.1563"/><line style="stroke:#E7E7E7;stroke-width:1;" x1="135.8091" x2="176.8091" y1="488.1563" y2="488.1563"/><polygon fill="#E7E7E7" points="145.8091,484.1563,135.8091,488.1563,145.8091,492.1563,141.8091,488.1563" style="stroke:#E7E7E7;stroke-width:1;"/><text fill="#FFFFFF" font-family="sans-serif" font-size="13" lengthAdjust="spacing" textLength="118.3203" x="141.8091" y="470.0903">warte 5 Sekunden</text></g><g class="message" data-entity-1="part1" data-entity-2="part1" id="msg13"><line style="stroke:#E7E7E7;stroke-width:1;stroke-dasharray:2,2;" x1="134.8091" x2="176.8091" y1="512.1563" y2="512.1563"/><line style="stroke:#E7E7E7;stroke-width:1;stroke-dasharray:2,2;" x1="176.8091" x2="176.8091" y1="512.1563" y2="525.1563"/><line style="stroke:#E7E7E7;stroke-width:1;stroke-dasharray:2,2;" x1="129.8091" x2="176.8091" y1="525.1563" y2="525.1563"/><polygon fill="#E7E7E7" points="139.8091,521.1563,129.8091,525.1563,139.8091,529.1563,135.8091,525.1563" style="stroke:#E7E7E7;stroke-width:1;"/></g><g class="message" data-entity-1="part1" data-entity-2="part4" id="msg14"><polygon fill="#E7E7E7" points="968.2749,545.2891,978.2749,549.2891,968.2749,553.2891,972.2749,549.2891" style="stroke:#E7E7E7;stroke-width:1;"/><line style="stroke:#E7E7E7;stroke-width:1;" x1="129.8091" x2="974.2749" y1="549.2891" y2="549.2891"/><text fill="#FFFFFF" font-family="sans-serif" font-size="13" lengthAdjust="spacing" textLength="36.3848" x="136.8091" y="544.2231">lock()</text></g><g class="message" data-entity-1="part4" data-entity-2="part1" id="msg15"><polygon fill="#E7E7E7" points="140.8091,559.2891,130.8091,563.2891,140.8091,567.2891,136.8091,563.2891" style="stroke:#E7E7E7;stroke-width:1;"/><line style="stroke:#E7E7E7;stroke-width:1;stroke-dasharray:2,2;" x1="134.8091" x2="984.2749" y1="563.2891" y2="563.2891"/></g><line style="stroke:#888888;stroke-width:1;stroke-dasharray:2,2;" x1="40" x2="1068.9014" y1="572.2891" y2="572.2891"/><g class="message" data-entity-1="part1" data-entity-2="part3" id="msg16"><polygon fill="#E7E7E7" points="798.2866,590.4219,808.2866,594.4219,798.2866,598.4219,802.2866,594.4219" style="stroke:#E7E7E7;stroke-width:1;"/><line style="stroke:#E7E7E7;stroke-width:1;" x1="129.8091" x2="804.2866" y1="594.4219" y2="594.4219"/><text fill="#FFFFFF" font-family="sans-serif" font-size="13" lengthAdjust="spacing" textLength="61.7119" x="136.8091" y="589.356">getLogs()</text></g><g class="message" data-entity-1="part3" data-entity-2="part1" id="msg17"><polygon fill="#E7E7E7" points="140.8091,619.5547,130.8091,623.5547,140.8091,627.5547,136.8091,623.5547" style="stroke:#E7E7E7;stroke-width:1;"/><line style="stroke:#E7E7E7;stroke-width:1;stroke-dasharray:2,2;" x1="134.8091" x2="814.2866" y1="623.5547" y2="623.5547"/><text fill="#FFFFFF" font-family="sans-serif" font-size="13" lengthAdjust="spacing" textLength="50.54" x="146.8091" y="618.4888">logListe</text></g><g class="message" data-entity-1="part1" data-entity-2="part1" id="msg18"><line style="stroke:#E7E7E7;stroke-width:1;" x1="129.8091" x2="176.8091" y1="647.6875" y2="647.6875"/><line style="stroke:#E7E7E7;stroke-width:1;" x1="176.8091" x2="176.8091" y1="647.6875" y2="660.6875"/><line style="stroke:#E7E7E7;stroke-width:1;" x1="135.8091" x2="176.8091" y1="660.6875" y2="660.6875"/><polygon fill="#E7E7E7" points="145.8091,656.6875,135.8091,660.6875,145.8091,664.6875,141.8091,660.6875" style="stroke:#E7E7E7;stroke-width:1;"/><text fill="#FFFFFF" font-family="sans-serif" font-size="13" lengthAdjust="spacing" textLength="491.042" x="141.8091" y="642.6216">f&#252;ge neuen Log zu logListe mit "Abgewiesen" und jetzigem Zeitpunkt hinzu</text></g><g class="message" data-entity-1="part1" data-entity-2="part1" id="msg19"><line style="stroke:#E7E7E7;stroke-width:1;stroke-dasharray:2,2;" x1="134.8091" x2="176.8091" y1="684.6875" y2="684.6875"/><line style="stroke:#E7E7E7;stroke-width:1;stroke-dasharray:2,2;" x1="176.8091" x2="176.8091" y1="684.6875" y2="697.6875"/><line style="stroke:#E7E7E7;stroke-width:1;stroke-dasharray:2,2;" x1="129.8091" x2="176.8091" y1="697.6875" y2="697.6875"/><polygon fill="#E7E7E7" points="139.8091,693.6875,129.8091,697.6875,139.8091,701.6875,135.8091,697.6875" style="stroke:#E7E7E7;stroke-width:1;"/></g><?plantuml-src hPJFQjj04CRlUegfUx6XWL8eb803iTg8G4uLwD2UrgknjDLwLjq_TUfdwwqlrbbPLYGvWK8h91lD_kRxHZChkKPHAwpOmrR8fh8cK2cDDXQy5UHu2SadRg2a5ixTUc_LDdYybuPoTKHuEq9o_1wG96OirjuPyccdz_f3Txm4RemjqVuTEbJQu--w8wbLYR0pnc_DOv9mebTIjO8yBAuXbu8e6f2tHckq2n0EqZcs4LQQ4dkwO_8vSwT3LOiTKe7s8BGFL7LWCGSpR0NA9fUrnk2mWx8a-MgkRY25Qx21bgj4IAz-28zSZ3QcXKzKQkDSJ58xJ81HvdFcbVkCelp9EG13LiutELoT9IF0aH8d09-czQTLMAzvk24gZxJZKl_mdVxCOUonFM5TTERJEPsyUWfUhM6nwAAzMvJ0HzvUjKABqFA6kly8F4seyA1axNjur9SXEwRtToFdSsZiKh2BhBdx6oDigQXQdepUd5rMSvkY3nIZPhgW_QLVCVNZBT2ZazOEfMGi5KWRsInNmyeWbWsXRF9y4yTigXYBE_1UGtZFhqR3lKEwL4x7IIyffvUr_fTAKRjP6-94AlGFfdBFgHT3w6a0sbGFodbypgYuRCdkzwyAWP0_5S0sS0o30kmLlvAtspXyT4YBRiDzGtzK5UxX2ohV1ceyr8euxH-RYLGcJ__nDrvZy0y0?></g></svg>