<?plantuml 1.2026.2beta3?><svg xmlns="http://www.w3.org/2000/svg" xmlns:xlink="http://www.w3.org/1999/xlink" contentStyleType="text/css" data-diagram-type="CLASS" height="458px" preserveAspectRatio="none" style="width:686px;height:458px;" version="1.1" viewBox="0 0 686 458" width="686px" zoomAndPan="magnify"><defs/><g><!--class Rover--><g class="entity" data-qualified-name="Rover" data-source-line="3" id="ent0002"><rect fill="#313139" height="162.0781" rx="2.5" ry="2.5" style="stroke:#E7E7E7;stroke-width:0.5;" width="170.7236" x="7" y="164.59"/><ellipse cx="67.6382" cy="180.59" fill="#2E5233" rx="11" ry="11" style="stroke:#E7E7E7;stroke-width:1;"/><path d="M70.6069,186.2306 Q70.0288,186.5275 69.3882,186.6681 Q68.7476,186.8244 68.0444,186.8244 Q65.5444,186.8244 64.2163,185.1838 Q62.9038,183.5275 62.9038,180.4025 Q62.9038,177.2775 64.2163,175.6213 Q65.5444,173.965 68.0444,173.965 Q68.7476,173.965 69.3882,174.1213 Q70.0444,174.2775 70.6069,174.5744 L70.6069,177.2931 Q69.9819,176.715 69.3882,176.4494 Q68.7944,176.1681 68.1694,176.1681 Q66.8257,176.1681 66.1382,177.2463 Q65.4507,178.3088 65.4507,180.4025 Q65.4507,182.4963 66.1382,183.5744 Q66.8257,184.6369 68.1694,184.6369 Q68.7944,184.6369 69.3882,184.3713 Q69.9819,184.09 70.6069,183.5119 L70.6069,186.2306 Z " fill="#FFFFFF"/><text fill="#FFFFFF" font-family="sans-serif" font-size="14" lengthAdjust="spacing" textLength="40.9473" x="88.1382" y="185.4367">Rover</text><line style="stroke:#E7E7E7;stroke-width:0.5;" x1="8" x2="176.7236" y1="196.59" y2="196.59"/><text fill="#FFFFFF" font-family="sans-serif" font-size="14" lengthAdjust="spacing" textLength="133.7246" x="13" y="213.5851">-a&#818;u&#818;t&#818;o&#818;w&#818;e&#818;r&#818;t&#818; &#818;:&#818; &#818;i&#818;n&#818;t&#818; &#818;=&#818; &#818;0&#818; &#818;</text><text fill="#FFFFFF" font-family="sans-serif" font-size="14" lengthAdjust="spacing" textLength="115.0078" x="13" y="229.882">-fahrzeugNr : int</text><text fill="#FFFFFF" font-family="sans-serif" font-size="14" lengthAdjust="spacing" textLength="73.2266" x="13" y="246.1789">-id : String</text><line style="stroke:#E7E7E7;stroke-width:0.5;" x1="8" x2="176.7236" y1="253.4806" y2="253.4806"/><text fill="#FFFFFF" font-family="sans-serif" font-size="14" lengthAdjust="spacing" textLength="131.7764" x="13" y="270.4757">+Rover(id : String)</text><text fill="#FFFFFF" font-family="sans-serif" font-size="14" lengthAdjust="spacing" textLength="158.7236" x="13" y="286.7726">+getFahrzeugNr() : int</text><text fill="#FFFFFF" font-family="sans-serif" font-size="14" lengthAdjust="spacing" textLength="68.6602" x="13" y="303.0695">+unlock()</text><text fill="#FFFFFF" font-family="sans-serif" font-size="14" lengthAdjust="spacing" textLength="50.9141" x="13" y="319.3664">+lock()</text></g><!--class Controller--><g class="entity" data-qualified-name="Controller" data-source-line="12" id="ent0003"><rect fill="#313139" height="80.5938" rx="2.5" ry="2.5" style="stroke:#E7E7E7;stroke-width:0.5;" width="257.1436" x="322.79" y="7"/><ellipse cx="412.5254" cy="23" fill="#2E5233" rx="11" ry="11" style="stroke:#E7E7E7;stroke-width:1;"/><path d="M415.4941,28.6406 Q414.916,28.9375 414.2754,29.0781 Q413.6347,29.2344 412.9316,29.2344 Q410.4316,29.2344 409.1035,27.5938 Q407.791,25.9375 407.791,22.8125 Q407.791,19.6875 409.1035,18.0313 Q410.4316,16.375 412.9316,16.375 Q413.6347,16.375 414.2754,16.5313 Q414.9316,16.6875 415.4941,16.9844 L415.4941,19.7031 Q414.8691,19.125 414.2754,18.8594 Q413.6816,18.5781 413.0566,18.5781 Q411.7129,18.5781 411.0254,19.6563 Q410.3379,20.7188 410.3379,22.8125 Q410.3379,24.9063 411.0254,25.9844 Q411.7129,27.0469 413.0566,27.0469 Q413.6816,27.0469 414.2754,26.7813 Q414.8691,26.5 415.4941,25.9219 L415.4941,28.6406 Z " fill="#FFFFFF"/><text fill="#FFFFFF" font-family="sans-serif" font-size="14" lengthAdjust="spacing" textLength="69.1729" x="433.0254" y="27.8467">Controller</text><line style="stroke:#E7E7E7;stroke-width:0.5;" x1="323.79" x2="578.9336" y1="39" y2="39"/><line style="stroke:#E7E7E7;stroke-width:0.5;" x1="323.79" x2="578.9336" y1="47" y2="47"/><text fill="#FFFFFF" font-family="sans-serif" font-size="14" lengthAdjust="spacing" textLength="245.1436" x="328.79" y="63.9951">+Controller(port : String, r : Rover)</text><text fill="#FFFFFF" font-family="sans-serif" font-size="14" lengthAdjust="spacing" textLength="46.1563" x="328.79" y="80.292">+run()</text></g><!--class RFIDReader--><g class="entity" data-qualified-name="RFIDReader" data-source-line="16" id="ent0004"><rect fill="#313139" height="96.8906" rx="2.5" ry="2.5" style="stroke:#E7E7E7;stroke-width:0.5;" width="212.6143" x="213.05" y="197.19"/><ellipse cx="273.6745" cy="213.19" fill="#2E5233" rx="11" ry="11" style="stroke:#E7E7E7;stroke-width:1;"/><path d="M276.6433,218.8306 Q276.0651,219.1275 275.4245,219.2681 Q274.7839,219.4244 274.0808,219.4244 Q271.5808,219.4244 270.2526,217.7838 Q268.9401,216.1275 268.9401,213.0025 Q268.9401,209.8775 270.2526,208.2213 Q271.5808,206.565 274.0808,206.565 Q274.7839,206.565 275.4245,206.7213 Q276.0808,206.8775 276.6433,207.1744 L276.6433,209.8931 Q276.0183,209.315 275.4245,209.0494 Q274.8308,208.7681 274.2058,208.7681 Q272.862,208.7681 272.1745,209.8463 Q271.487,210.9088 271.487,213.0025 Q271.487,215.0963 272.1745,216.1744 Q272.862,217.2369 274.2058,217.2369 Q274.8308,217.2369 275.4245,216.9713 Q276.0183,216.69 276.6433,216.1119 L276.6433,218.8306 Z " fill="#FFFFFF"/><text fill="#FFFFFF" font-family="sans-serif" font-size="14" lengthAdjust="spacing" textLength="82.8652" x="294.1745" y="218.0367">RFIDReader</text><line style="stroke:#E7E7E7;stroke-width:0.5;" x1="214.05" x2="424.6643" y1="229.19" y2="229.19"/><line style="stroke:#E7E7E7;stroke-width:0.5;" x1="214.05" x2="424.6643" y1="237.19" y2="237.19"/><text fill="#FFFFFF" font-family="sans-serif" font-size="14" lengthAdjust="spacing" textLength="166.0449" x="219.05" y="254.1851">+RFIDReader(s : Serial)</text><text fill="#FFFFFF" font-family="sans-serif" font-size="14" lengthAdjust="spacing" textLength="142.8848" x="219.05" y="270.482">+readCard() : String</text><text fill="#FFFFFF" font-family="sans-serif" font-size="14" lengthAdjust="spacing" textLength="200.6143" x="219.05" y="286.7789">+isCardAvailable() : boolean</text></g><!--class Serial--><g class="entity" data-qualified-name="Serial" data-source-line="21" id="ent0005"><rect fill="#313139" height="48" rx="2.5" ry="2.5" style="stroke:#E7E7E7;stroke-width:0.5;" width="71.6143" x="371.55" y="403.67"/><ellipse cx="386.55" cy="419.67" fill="#2E5233" rx="11" ry="11" style="stroke:#E7E7E7;stroke-width:1;"/><path d="M389.5188,425.3106 Q388.9406,425.6075 388.3,425.7481 Q387.6594,425.9044 386.9563,425.9044 Q384.4563,425.9044 383.1281,424.2638 Q381.8156,422.6075 381.8156,419.4825 Q381.8156,416.3575 383.1281,414.7013 Q384.4563,413.045 386.9563,413.045 Q387.6594,413.045 388.3,413.2013 Q388.9563,413.3575 389.5188,413.6544 L389.5188,416.3731 Q388.8938,415.795 388.3,415.5294 Q387.7063,415.2481 387.0813,415.2481 Q385.7375,415.2481 385.05,416.3263 Q384.3625,417.3888 384.3625,419.4825 Q384.3625,421.5763 385.05,422.6544 Q385.7375,423.7169 387.0813,423.7169 Q387.7063,423.7169 388.3,423.4513 Q388.8938,423.17 389.5188,422.5919 L389.5188,425.3106 Z " fill="#FFFFFF"/><text fill="#FFFFFF" font-family="sans-serif" font-size="14" lengthAdjust="spacing" textLength="39.6143" x="400.55" y="424.5167">Serial</text><line style="stroke:#E7E7E7;stroke-width:0.5;" x1="372.55" x2="442.1643" y1="435.67" y2="435.67"/><line style="stroke:#E7E7E7;stroke-width:0.5;" x1="372.55" x2="442.1643" y1="443.67" y2="443.67"/></g><!--class FunkModul--><g class="entity" data-qualified-name="FunkModul" data-source-line="23" id="ent0006"><rect fill="#313139" height="48" rx="2.5" ry="2.5" style="stroke:#E7E7E7;stroke-width:0.5;" width="108.2002" x="571.26" y="221.63"/><ellipse cx="586.26" cy="237.63" fill="#2E5233" rx="11" ry="11" style="stroke:#E7E7E7;stroke-width:1;"/><path d="M589.2288,243.2706 Q588.6506,243.5675 588.01,243.7081 Q587.3694,243.8644 586.6663,243.8644 Q584.1663,243.8644 582.8381,242.2238 Q581.5256,240.5675 581.5256,237.4425 Q581.5256,234.3175 582.8381,232.6613 Q584.1663,231.005 586.6663,231.005 Q587.3694,231.005 588.01,231.1613 Q588.6663,231.3175 589.2288,231.6144 L589.2288,234.3331 Q588.6038,233.755 588.01,233.4894 Q587.4163,233.2081 586.7913,233.2081 Q585.4475,233.2081 584.76,234.2863 Q584.0725,235.3488 584.0725,237.4425 Q584.0725,239.5363 584.76,240.6144 Q585.4475,241.6769 586.7913,241.6769 Q587.4163,241.6769 588.01,241.4113 Q588.6038,241.13 589.2288,240.5519 L589.2288,243.2706 Z " fill="#FFFFFF"/><text fill="#FFFFFF" font-family="sans-serif" font-size="14" lengthAdjust="spacing" textLength="76.2002" x="600.26" y="242.4767">FunkModul</text><line style="stroke:#E7E7E7;stroke-width:0.5;" x1="572.26" x2="678.4602" y1="253.63" y2="253.63"/><line style="stroke:#E7E7E7;stroke-width:0.5;" x1="572.26" x2="678.4602" y1="261.63" y2="261.63"/></g><!--link Controller to Serial--><g class="link" data-entity-1="ent0003" data-entity-2="ent0005" data-link-type="dependency" data-source-line="25" id="lnk7"><path codeLine="25" d="M456.8363,95.7813 C457.7963,105.5013 457.88,107.93 458.36,117.59 C463.05,210.64 459.48,234.91 443.36,326.67 C439.61,348.02 437.58,353.23 430.36,373.67 C426.89,383.51 424.8824,388.6196 420.8224,397.7296" fill="none" id="Controller-Serial" style="stroke:#E7E7E7;stroke-width:1;"/><path d="M452.5608,93.1889 L461.3084,100.3639 M460.5221,92.4026 L453.3471,101.1502" fill="none" style="stroke:#E7E7E7;stroke-width:1;"/><polygon fill="#E7E7E7" points="418.38,403.21,425.6972,396.6177,420.4153,398.643,418.39,393.3611,418.38,403.21" style="stroke:#E7E7E7;stroke-width:1;"/><text fill="#FFFFFF" font-family="sans-serif" font-size="13" lengthAdjust="spacing" textLength="39.9966" x="461.36" y="250.1969">-serial</text><text fill="#FFFFFF" font-family="sans-serif" font-size="13" lengthAdjust="spacing" textLength="8.271" x="412.1249" y="392.5028">1</text></g><!--link Controller to FunkModul--><g class="link" data-entity-1="ent0003" data-entity-2="ent0006" data-link-type="dependency" data-source-line="26" id="lnk8"><path codeLine="26" d="M498.4757,93.548 C508.0457,103.088 512.39,107.73 521.36,117.59 C553.2,152.59 583.7964,190.8839 603.9564,216.8039" fill="none" id="Controller-FunkModul" style="stroke:#E7E7E7;stroke-width:1;"/><path d="M493.5271,94.2628 L504.8408,94.2451 M499.1751,88.5971 L499.1928,99.9108" fill="none" style="stroke:#E7E7E7;stroke-width:1;"/><polygon fill="#E7E7E7" points="607.64,221.54,605.2719,211.9801,604.5703,217.5932,598.9571,216.8916,607.64,221.54" style="stroke:#E7E7E7;stroke-width:1;"/><text fill="#FFFFFF" font-family="sans-serif" font-size="13" lengthAdjust="spacing" textLength="33.2744" x="537.36" y="130.6569">-funk</text><text fill="#FFFFFF" font-family="sans-serif" font-size="13" lengthAdjust="spacing" textLength="8.271" x="594.1089" y="210.529">1</text></g><!--link Controller to RFIDReader--><g class="link" data-entity-1="ent0003" data-entity-2="ent0004" data-link-type="dependency" data-source-line="27" id="lnk9"><path codeLine="27" d="M420.1857,94.6685 C399.0157,126.1485 377.1775,158.6306 354.7375,192.0106" fill="none" id="Controller-RFIDReader" style="stroke:#E7E7E7;stroke-width:1;"/><path d="M418.5405,89.9469 L420.7147,101.0497 M425.179,94.4112 L414.0762,96.5854" fill="none" style="stroke:#E7E7E7;stroke-width:1;"/><polygon fill="#E7E7E7" points="351.39,196.99,359.7308,191.7525,354.1795,192.8405,353.0916,187.2892,351.39,196.99" style="stroke:#E7E7E7;stroke-width:1;"/><text fill="#FFFFFF" font-family="sans-serif" font-size="13" lengthAdjust="spacing" textLength="47.5947" x="402.36" y="130.6569">-reader</text><text fill="#FFFFFF" font-family="sans-serif" font-size="13" lengthAdjust="spacing" textLength="8.271" x="347.3512" y="186.1708">1</text></g><!--link Controller to Rover--><g class="link" data-entity-1="ent0003" data-entity-2="ent0002" data-link-type="dependency" data-source-line="28" id="lnk10"><path codeLine="28" d="M342.1547,91.1829 C294.0647,111.5729 244.04,135.18 195.36,164.59 C189.64,168.05 188.8482,168.4059 183.1182,172.2859" fill="none" id="Controller-Rover" style="stroke:#E7E7E7;stroke-width:1;"/><path d="M343.3553,86.3291 L339.1128,96.8173 M346.4781,93.6944 L335.9899,89.452" fill="none" style="stroke:#E7E7E7;stroke-width:1;"/><polygon fill="#E7E7E7" points="178.15,175.65,187.845,173.9159,182.2901,172.8466,183.3595,167.2917,178.15,175.65" style="stroke:#E7E7E7;stroke-width:1;"/><text fill="#FFFFFF" font-family="sans-serif" font-size="13" lengthAdjust="spacing" textLength="39.0254" x="278.36" y="130.6569">-rover</text><text fill="#FFFFFF" font-family="sans-serif" font-size="13" lengthAdjust="spacing" textLength="8.271" x="185.5968" y="166.3062">1</text></g><!--link RFIDReader to Serial--><g class="link" data-entity-1="ent0004" data-entity-2="ent0005" data-link-type="dependency" data-source-line="29" id="lnk11"><path codeLine="29" d="M346.2231,301.5974 C363.4331,336.8074 379.9563,370.5889 393.3663,398.0389" fill="none" id="RFIDReader-Serial" style="stroke:#E7E7E7;stroke-width:1;"/><path d="M341.312,300.6586 L352.0124,304.333 M348.4994,297.1456 L344.825,307.846" fill="none" style="stroke:#E7E7E7;stroke-width:1;"/><polygon fill="#E7E7E7" points="396,403.43,395.6435,393.5876,393.8053,398.9374,388.4554,397.0992,396,403.43" style="stroke:#E7E7E7;stroke-width:1;"/><text fill="#FFFFFF" font-family="sans-serif" font-size="13" lengthAdjust="spacing" textLength="39.9966" x="382.36" y="369.7369">-serial</text><text fill="#FFFFFF" font-family="sans-serif" font-size="13" lengthAdjust="spacing" textLength="8.271" x="384.2897" y="392.7765">1</text></g><?plantuml-src TLBBQiCm4BpxAvQS7593UWsq4182ERI7v0lMjk8Agr9OIMb9wK_fE_HHbUMN3kb5xCxEpko0TClb5Ga_eSIgRKXPMLTAA093A7KOCMaoFR4gWLflZI5UMiEEbP9dVcUmpk80Jkh627uoW0BGE-kTyKvvz-KTyuvY2zvjuikzaoFo4jzrVEFs1J_epcppJh01BWr4bDUXEmTtsNJ0gZVC4tZPumqpXqaXNyuQAx1IgAhD1-9O_mu9TaeQKa8CCLO9a5yLcSde2RhBelyWHLQcIgV3SNzYM4zACv3hJeOHHp7k1do7LCTJqu1ST_3sXbnWALYSbqe9XdAswgM2pGWSh6pVL6rxBCdqNHIli7XUZ2iRA7Ii7f9ccS2xXEOXAmaQQ1IhnyJuEpfELsJ9thzd_G40?></g></svg>