<?plantuml 1.2026.2beta3?><svg xmlns="http://www.w3.org/2000/svg" xmlns:xlink="http://www.w3.org/1999/xlink" contentStyleType="text/css" data-diagram-type="CLASS" height="491px" preserveAspectRatio="none" style="width:773px;height:491px;" version="1.1" viewBox="0 0 773 491" width="773px" zoomAndPan="magnify"><defs/><g><!--class MissionsZentrale--><g class="entity" data-qualified-name="MissionsZentrale" data-source-line="3" id="ent0002"><rect fill="#313139" height="96.8906" rx="2.5" ry="2.5" style="stroke:#E7E7E7;stroke-width:0.5;" width="294.9805" x="249.73" y="7"/><ellipse cx="333.6787" cy="23" fill="#2E5233" rx="11" ry="11" style="stroke:#E7E7E7;stroke-width:1;"/><path d="M336.6475,28.6406 Q336.0694,28.9375 335.4287,29.0781 Q334.7881,29.2344 334.085,29.2344 Q331.585,29.2344 330.2569,27.5938 Q328.9444,25.9375 328.9444,22.8125 Q328.9444,19.6875 330.2569,18.0313 Q331.585,16.375 334.085,16.375 Q334.7881,16.375 335.4287,16.5313 Q336.085,16.6875 336.6475,16.9844 L336.6475,19.7031 Q336.0225,19.125 335.4287,18.8594 Q334.835,18.5781 334.21,18.5781 Q332.8662,18.5781 332.1787,19.6563 Q331.4912,20.7188 331.4912,22.8125 Q331.4912,24.9063 332.1787,25.9844 Q332.8662,27.0469 334.21,27.0469 Q334.835,27.0469 335.4287,26.7813 Q336.0225,26.5 336.6475,25.9219 L336.6475,28.6406 Z " fill="#FFFFFF"/><text fill="#FFFFFF" font-family="sans-serif" font-size="14" lengthAdjust="spacing" textLength="118.583" x="354.1787" y="27.8467">MissionsZentrale</text><line style="stroke:#E7E7E7;stroke-width:0.5;" x1="250.73" x2="543.7105" y1="39" y2="39"/><line style="stroke:#E7E7E7;stroke-width:0.5;" x1="250.73" x2="543.7105" y1="47" y2="47"/><text fill="#FFFFFF" font-family="sans-serif" font-size="14" lengthAdjust="spacing" textLength="141.2373" x="255.73" y="63.9951">+MissionsZentrale()</text><text fill="#FFFFFF" font-family="sans-serif" font-size="14" lengthAdjust="spacing" textLength="150.2744" x="255.73" y="80.292">+addRover(r : Rover)</text><text fill="#FFFFFF" font-family="sans-serif" font-size="14" lengthAdjust="spacing" textLength="282.9805" x="255.73" y="96.5889">+verarbeiteDatenstrom(stream : String)</text></g><!--class Rover--><g class="entity" data-qualified-name="Rover" data-source-line="8" id="ent0003"><rect fill="#313139" height="129.4844" rx="2.5" ry="2.5" style="stroke:#E7E7E7;stroke-width:0.5;" width="384.4492" x="7" y="180.9"/><ellipse cx="174.501" cy="196.9" fill="#2E5233" rx="11" ry="11" style="stroke:#E7E7E7;stroke-width:1;"/><path d="M177.4697,202.5406 Q176.8916,202.8375 176.251,202.9781 Q175.6104,203.1344 174.9072,203.1344 Q172.4072,203.1344 171.0791,201.4937 Q169.7666,199.8375 169.7666,196.7125 Q169.7666,193.5875 171.0791,191.9312 Q172.4072,190.275 174.9072,190.275 Q175.6104,190.275 176.251,190.4312 Q176.9072,190.5875 177.4697,190.8844 L177.4697,193.6031 Q176.8447,193.025 176.251,192.7594 Q175.6572,192.4781 175.0322,192.4781 Q173.6885,192.4781 173.001,193.5562 Q172.3135,194.6187 172.3135,196.7125 Q172.3135,198.8062 173.001,199.8844 Q173.6885,200.9469 175.0322,200.9469 Q175.6572,200.9469 176.251,200.6812 Q176.8447,200.4 177.4697,199.8219 L177.4697,202.5406 Z " fill="#FFFFFF"/><text fill="#FFFFFF" font-family="sans-serif" font-size="14" lengthAdjust="spacing" textLength="40.9473" x="195.001" y="201.7467">Rover</text><line style="stroke:#E7E7E7;stroke-width:0.5;" x1="8" x2="390.4492" y1="212.9" y2="212.9"/><text fill="#FFFFFF" font-family="sans-serif" font-size="14" lengthAdjust="spacing" textLength="73.2266" x="13" y="229.8951">-id : String</text><text fill="#FFFFFF" font-family="sans-serif" font-size="14" lengthAdjust="spacing" textLength="139.5898" x="13" y="246.192">-batterie : int = 100</text><line style="stroke:#E7E7E7;stroke-width:0.5;" x1="8" x2="390.4492" y1="253.4937" y2="253.4937"/><text fill="#FFFFFF" font-family="sans-serif" font-size="14" lengthAdjust="spacing" textLength="131.7764" x="13" y="270.4889">+Rover(id : String)</text><text fill="#FFFFFF" font-family="sans-serif" font-size="14" lengthAdjust="spacing" textLength="372.4492" x="13" y="286.7857">+verarbeiteStatus(typ : String, val : String) : boolean</text><text fill="#FFFFFF" font-family="sans-serif" font-size="14" lengthAdjust="spacing" textLength="114.0576" x="13" y="303.0826">+getId() : String</text></g><!--class WartungsDienst--><g class="entity" data-qualified-name="WartungsDienst" data-source-line="15" id="ent0004"><rect fill="#313139" height="80.5938" rx="2.5" ry="2.5" style="stroke:#E7E7E7;stroke-width:0.5;" width="340.125" x="426.16" y="205.34"/><ellipse cx="535.7059" cy="221.34" fill="#2E5233" rx="11" ry="11" style="stroke:#E7E7E7;stroke-width:1;"/><path d="M538.6746,226.9806 Q538.0965,227.2775 537.4559,227.4181 Q536.8153,227.5744 536.1121,227.5744 Q533.6121,227.5744 532.284,225.9337 Q530.9715,224.2775 530.9715,221.1525 Q530.9715,218.0275 532.284,216.3712 Q533.6121,214.715 536.1121,214.715 Q536.8153,214.715 537.4559,214.8712 Q538.1121,215.0275 538.6746,215.3244 L538.6746,218.0431 Q538.0496,217.465 537.4559,217.1994 Q536.8621,216.9181 536.2371,216.9181 Q534.8934,216.9181 534.2059,217.9962 Q533.5184,219.0587 533.5184,221.1525 Q533.5184,223.2462 534.2059,224.3244 Q534.8934,225.3869 536.2371,225.3869 Q536.8621,225.3869 537.4559,225.1212 Q538.0496,224.84 538.6746,224.2619 L538.6746,226.9806 Z " fill="#FFFFFF"/><text fill="#FFFFFF" font-family="sans-serif" font-size="14" lengthAdjust="spacing" textLength="112.5332" x="556.2059" y="226.1867">WartungsDienst</text><line style="stroke:#E7E7E7;stroke-width:0.5;" x1="427.16" x2="765.285" y1="237.34" y2="237.34"/><line style="stroke:#E7E7E7;stroke-width:0.5;" x1="427.16" x2="765.285" y1="245.34" y2="245.34"/><text fill="#FFFFFF" font-family="sans-serif" font-size="14" lengthAdjust="spacing" textLength="135.1875" x="432.16" y="262.3351">+WartungsDienst()</text><text fill="#FFFFFF" font-family="sans-serif" font-size="14" lengthAdjust="spacing" textLength="328.125" x="432.16" y="278.632">+erstelleTicket(roverId : String, grund : String)</text></g><!--class WartungsTicket--><g class="entity" data-qualified-name="WartungsTicket" data-source-line="19" id="ent0005"><rect fill="#313139" height="96.8906" rx="2.5" ry="2.5" style="stroke:#E7E7E7;stroke-width:0.5;" width="318.3457" x="437.05" y="387.38"/><ellipse cx="537.0017" cy="403.38" fill="#2E5233" rx="11" ry="11" style="stroke:#E7E7E7;stroke-width:1;"/><path d="M539.9704,409.0206 Q539.3923,409.3175 538.7517,409.4581 Q538.111,409.6144 537.4079,409.6144 Q534.9079,409.6144 533.5798,407.9738 Q532.2673,406.3175 532.2673,403.1925 Q532.2673,400.0675 533.5798,398.4113 Q534.9079,396.755 537.4079,396.755 Q538.111,396.755 538.7517,396.9113 Q539.4079,397.0675 539.9704,397.3644 L539.9704,400.0831 Q539.3454,399.505 538.7517,399.2394 Q538.1579,398.9581 537.5329,398.9581 Q536.1892,398.9581 535.5017,400.0363 Q534.8142,401.0988 534.8142,403.1925 Q534.8142,405.2863 535.5017,406.3644 Q536.1892,407.4269 537.5329,407.4269 Q538.1579,407.4269 538.7517,407.1613 Q539.3454,406.88 539.9704,406.3019 L539.9704,409.0206 Z " fill="#FFFFFF"/><text fill="#FFFFFF" font-family="sans-serif" font-size="14" lengthAdjust="spacing" textLength="109.9424" x="557.5017" y="408.2267">WartungsTicket</text><line style="stroke:#E7E7E7;stroke-width:0.5;" x1="438.05" x2="754.3957" y1="419.38" y2="419.38"/><text fill="#FFFFFF" font-family="sans-serif" font-size="14" lengthAdjust="spacing" textLength="110.4414" x="443.05" y="436.3751">-roverId : String</text><text fill="#FFFFFF" font-family="sans-serif" font-size="14" lengthAdjust="spacing" textLength="101.7256" x="443.05" y="452.672">-grund : String</text><line style="stroke:#E7E7E7;stroke-width:0.5;" x1="438.05" x2="754.3957" y1="459.9738" y2="459.9738"/><text fill="#FFFFFF" font-family="sans-serif" font-size="14" lengthAdjust="spacing" textLength="306.3457" x="443.05" y="476.9689">+WartungsTicket(id : String, grund : String)</text></g><!--class LogEintrag--><g class="entity" data-qualified-name="LogEintrag" data-source-line="24" id="ent0006"><rect fill="#313139" height="96.8906" rx="2.5" ry="2.5" style="stroke:#E7E7E7;stroke-width:0.5;" width="292.1777" x="53.14" y="387.38"/><ellipse cx="157.1932" cy="403.38" fill="#2E5233" rx="11" ry="11" style="stroke:#E7E7E7;stroke-width:1;"/><path d="M160.162,409.0206 Q159.5838,409.3175 158.9432,409.4581 Q158.3026,409.6144 157.5995,409.6144 Q155.0995,409.6144 153.7713,407.9738 Q152.4588,406.3175 152.4588,403.1925 Q152.4588,400.0675 153.7713,398.4113 Q155.0995,396.755 157.5995,396.755 Q158.3026,396.755 158.9432,396.9113 Q159.5995,397.0675 160.162,397.3644 L160.162,400.0831 Q159.537,399.505 158.9432,399.2394 Q158.3495,398.9581 157.7245,398.9581 Q156.3807,398.9581 155.6932,400.0363 Q155.0057,401.0988 155.0057,403.1925 Q155.0057,405.2863 155.6932,406.3644 Q156.3807,407.4269 157.7245,407.4269 Q158.3495,407.4269 158.9432,407.1613 Q159.537,406.88 160.162,406.3019 L160.162,409.0206 Z " fill="#FFFFFF"/><text fill="#FFFFFF" font-family="sans-serif" font-size="14" lengthAdjust="spacing" textLength="75.5713" x="177.6932" y="408.2267">LogEintrag</text><line style="stroke:#E7E7E7;stroke-width:0.5;" x1="54.14" x2="344.3177" y1="419.38" y2="419.38"/><text fill="#FFFFFF" font-family="sans-serif" font-size="14" lengthAdjust="spacing" textLength="83.1113" x="59.14" y="436.3751">-typ : String</text><text fill="#FFFFFF" font-family="sans-serif" font-size="14" lengthAdjust="spacing" textLength="100.0439" x="59.14" y="452.672">-inhalt : String</text><line style="stroke:#E7E7E7;stroke-width:0.5;" x1="54.14" x2="344.3177" y1="459.9738" y2="459.9738"/><text fill="#FFFFFF" font-family="sans-serif" font-size="14" lengthAdjust="spacing" textLength="280.1777" x="59.14" y="476.9689">+LogEintrag(typ : String, inhalt : String)</text></g><!--link MissionsZentrale to Rover--><g class="link" data-entity-1="ent0002" data-entity-2="ent0003" data-link-type="dependency" data-source-line="29" id="lnk7"><path codeLine="29" d="M341.2012,109.6912 C316.8012,132.8812 297.2794,151.4469 270.9394,176.4769" fill="none" id="MissionsZentrale-Rover" style="stroke:#E7E7E7;stroke-width:1;"/><path d="M340.6201,104.7251 L340.3326,116.0352 M346.1314,110.5239 L334.8213,110.2364" fill="none" style="stroke:#E7E7E7;stroke-width:1;"/><polygon fill="#E7E7E7" points="266.59,180.61,275.8695,177.31,270.2145,177.1657,270.3587,171.5107,266.59,180.61" style="stroke:#E7E7E7;stroke-width:1;"/><text fill="#FFFFFF" font-family="sans-serif" font-size="13" lengthAdjust="spacing" textLength="69.748" x="311.22" y="146.9669">-roverListe</text><text fill="#FFFFFF" font-family="sans-serif" font-size="13" lengthAdjust="spacing" textLength="6.5" x="267.6573" y="169.7509">*</text></g><!--link MissionsZentrale to WartungsDienst--><g class="link" data-entity-1="ent0002" data-entity-2="ent0004" data-link-type="dependency" data-source-line="30" id="lnk8"><path codeLine="30" d="M453.5126,109.6767 C486.4426,140.8167 518.7605,171.3775 549.8505,200.7775" fill="none" id="MissionsZentrale-WartungsDienst" style="stroke:#E7E7E7;stroke-width:1;"/><path d="M448.5846,110.5217 L459.8939,110.2058 M454.0812,104.7091 L454.3972,116.0184" fill="none" style="stroke:#E7E7E7;stroke-width:1;"/><polygon fill="#E7E7E7" points="554.21,204.9,550.4191,195.8099,550.5771,201.4646,544.9225,201.6226,554.21,204.9" style="stroke:#E7E7E7;stroke-width:1;"/><text fill="#FFFFFF" font-family="sans-serif" font-size="13" lengthAdjust="spacing" textLength="58.4619" x="498.22" y="146.9669">-wartung</text><text fill="#FFFFFF" font-family="sans-serif" font-size="13" lengthAdjust="spacing" textLength="8.271" x="538.8984" y="194.2897">1</text></g><!--link WartungsDienst to WartungsTicket--><g class="link" data-entity-1="ent0004" data-entity-2="ent0005" data-link-type="dependency" data-source-line="31" id="lnk9"><path codeLine="31" d="M596.22,294.09 C596.22,323.51 596.22,349.84 596.22,381.09" fill="none" id="WartungsDienst-WartungsTicket" style="stroke:#E7E7E7;stroke-width:1;"/><path d="M592.22,291.09 L600.22,299.09 M600.22,291.09 L592.22,299.09" fill="none" style="stroke:#E7E7E7;stroke-width:1;"/><polygon fill="#E7E7E7" points="596.22,387.09,600.22,378.09,596.22,382.09,592.22,378.09,596.22,387.09" style="stroke:#E7E7E7;stroke-width:1;"/><text fill="#FFFFFF" font-family="sans-serif" font-size="13" lengthAdjust="spacing" textLength="47.9438" x="597.22" y="353.4469">-tickets</text><text fill="#FFFFFF" font-family="sans-serif" font-size="13" lengthAdjust="spacing" textLength="6.5" x="589.8329" y="376.2581">*</text></g><!--link Rover to LogEintrag--><g class="link" data-entity-1="ent0003" data-entity-2="ent0006" data-link-type="dependency" data-source-line="32" id="lnk10"><path codeLine="32" d="M199.22,318.87 C199.22,343.79 199.22,357.82 199.22,380.92" fill="none" id="Rover-LogEintrag" style="stroke:#E7E7E7;stroke-width:1;"/><path d="M195.22,315.87 L203.22,323.87 M203.22,315.87 L195.22,323.87" fill="none" style="stroke:#E7E7E7;stroke-width:1;"/><polygon fill="#E7E7E7" points="199.22,386.92,203.22,377.92,199.22,381.92,195.22,377.92,199.22,386.92" style="stroke:#E7E7E7;stroke-width:1;"/><text fill="#FFFFFF" font-family="sans-serif" font-size="13" lengthAdjust="spacing" textLength="31.2813" x="200.22" y="353.4469">-logs</text><text fill="#FFFFFF" font-family="sans-serif" font-size="13" lengthAdjust="spacing" textLength="6.5" x="192.8493" y="376.4164">*</text></g><?plantuml-src ZP9FQyCm3CNl-HIYftHReBq6DXXqXq9tMGU3tPH4UAAkNMob-yU--rmxpT9qWrs2aTxpJtwAtx3PeSCjL5XlbBEjQMghhGDnQ7neaP7CzwfQe_Ut8ewhLcXPMxFc3u9P5XjmpzwpDVuvk1ngWiyCuFAid4yXrh5f7koUNEwWX7Zg6k64hY8MMg2GyUBiDWzV2YEKi0vueuBqgyD6QsGLm4slW5YeK8GSKoYp4RY6-MoMA8azC9pHruBI-bpUTxtc2lQe1uuIAcireKbUHR9iykbWXkEGJ-YaDSel-F2WBfdJuZ4NSbv8QthaUaEIkyESosOmWd9XJxybSRmlERj8nlwKo-aTS39E1-P_CLTMtV5XiQhZ3UDAB3Olg6K4-_6D0Xwf8-hiptehYXkON4owvPTGn6UkE4Jtbte-6MyXs5vJ9Hjr-lj7aGQ7n9FF4haN3d888csL_mO0?></g></svg>