<svg xmlns="http://www.w3.org/2000/svg" xmlns:xlink="http://www.w3.org/1999/xlink" contentStyleType="text/css" data-diagram-type="CLASS" height="182px" preserveAspectRatio="none" style="width:388px;height:182px;" version="1.1" viewBox="0 0 388 182" width="388px" zoomAndPan="magnify"><?plantuml 1.2026.3beta4?><defs/><g><!--class LocalDate--><g class="entity" data-qualified-name="LocalDate" data-source-line="3" id="ent0002"><rect fill="#313139" height="162.0781" rx="2.5" ry="2.5" style="stroke:#E7E7E7;stroke-width:0.5;" width="368.4326" x="7" y="7"/><ellipse cx="151.9697" cy="23" fill="#2E5233" rx="11" ry="11" style="stroke:#E7E7E7;stroke-width:1;"/><path d="M154.9385,28.6406 Q154.3604,28.9375 153.7197,29.0781 Q153.0791,29.2344 152.376,29.2344 Q149.876,29.2344 148.5479,27.5938 Q147.2354,25.9375 147.2354,22.8125 Q147.2354,19.6875 148.5479,18.0313 Q149.876,16.375 152.376,16.375 Q153.0791,16.375 153.7197,16.5313 Q154.376,16.6875 154.9385,16.9844 L154.9385,19.7031 Q154.3135,19.125 153.7197,18.8594 Q153.126,18.5781 152.501,18.5781 Q151.1572,18.5781 150.4697,19.6563 Q149.7822,20.7188 149.7822,22.8125 Q149.7822,24.9063 150.4697,25.9844 Q151.1572,27.0469 152.501,27.0469 Q153.126,27.0469 153.7197,26.7813 Q154.3135,26.5 154.9385,25.9219 L154.9385,28.6406 Z " fill="#FFFFFF"/><text fill="#FFFFFF" font-family="sans-serif" font-size="14" lengthAdjust="spacing" textLength="69.9932" x="172.4697" y="27.8467">LocalDate</text><line style="stroke:#E7E7E7;stroke-width:0.5;" x1="8" x2="374.4326" y1="39" y2="39"/><line style="stroke:#E7E7E7;stroke-width:0.5;" x1="8" x2="374.4326" y1="47" y2="47"/><text fill="#FFFFFF" font-family="sans-serif" font-size="14" lengthAdjust="spacing" textLength="139.6035" x="13" y="63.9951">+n&#818;o&#818;w&#818;(&#818;)&#818; &#818;:&#818; &#818;L&#818;o&#818;c&#818;a&#818;l&#818;D&#818;a&#818;t&#818;e&#818; &#818;</text><text fill="#FFFFFF" font-family="sans-serif" font-size="14" lengthAdjust="spacing" textLength="258.6992" x="13" y="80.292">+isAfter(other : LocalDate) : boolean</text><text fill="#FFFFFF" font-family="sans-serif" font-size="14" lengthAdjust="spacing" textLength="270.416" x="13" y="96.5889">+isBefore(other : LocalDate) : boolean</text><text fill="#FFFFFF" font-family="sans-serif" font-size="14" lengthAdjust="spacing" textLength="296.5703" x="13" y="112.8857">+minusMonths(months : long) : LocalDate</text><text fill="#FFFFFF" font-family="sans-serif" font-size="14" lengthAdjust="spacing" textLength="247.0234" x="13" y="129.1826">+plusDays(days : long) : LocalDate</text><text fill="#FFFFFF" font-family="sans-serif" font-size="14" lengthAdjust="spacing" textLength="356.4326" x="13" y="145.4795">+until(endExclusive : LocalDate, unit : Object) : int</text><text fill="#FFFFFF" font-family="sans-serif" font-size="14" lengthAdjust="spacing" textLength="133.8887" x="13" y="161.7764">+toString() : String</text></g><?plantuml-src ZP0nJWCn44NxFSMKNa51dIveAP22A782htUoCV7EHFOia20kDUVmeN2y2D8WqOp7_x_dmkdWwMYZdQ2txZ16dcbm73Y2H4kfL4ZIf1_A1PlIMYJwVXPyT4nRVqQuQse16tOsT5OGFXg06w2idFKjgydQPeMigpetDNTPRTQGjQkBPCNQLjMdzKum6fOzHbZzFjsMIyySq19ya_UuuuZ_G2TFStfYadqoKpqA4PZ6zbfRs6EOKsTFoGnb_8tD93uOfE7XtHN3l-8rSrjwBoLvxb_GoSNt98ifl2t_IAEvfCiApUSN?></g></svg>