<?plantuml 1.2026.2beta3?><svg xmlns="http://www.w3.org/2000/svg" xmlns:xlink="http://www.w3.org/1999/xlink" contentStyleType="text/css" data-diagram-type="CLASS" height="150px" preserveAspectRatio="none" style="width:273px;height:150px;" version="1.1" viewBox="0 0 273 150" width="273px" zoomAndPan="magnify"><defs/><g><!--class Paket--><g class="entity" data-qualified-name="Paket" data-source-line="3" id="ent0002"><rect fill="#313139" height="129.4844" rx="2.5" ry="2.5" style="stroke:#E7E7E7;stroke-width:0.5;" width="252.208" x="7" y="7"/><ellipse cx="109.2383" cy="23" fill="#2E5233" rx="11" ry="11" style="stroke:#E7E7E7;stroke-width:1;"/><path d="M112.207,28.6406 Q111.6289,28.9375 110.9883,29.0781 Q110.3477,29.2344 109.6445,29.2344 Q107.1445,29.2344 105.8164,27.5938 Q104.5039,25.9375 104.5039,22.8125 Q104.5039,19.6875 105.8164,18.0313 Q107.1445,16.375 109.6445,16.375 Q110.3477,16.375 110.9883,16.5313 Q111.6445,16.6875 112.207,16.9844 L112.207,19.7031 Q111.582,19.125 110.9883,18.8594 Q110.3945,18.5781 109.7695,18.5781 Q108.4258,18.5781 107.7383,19.6563 Q107.0508,20.7188 107.0508,22.8125 Q107.0508,24.9063 107.7383,25.9844 Q108.4258,27.0469 109.7695,27.0469 Q110.3945,27.0469 110.9883,26.7813 Q111.582,26.5 112.207,25.9219 L112.207,28.6406 Z " fill="#FFFFFF"/><text fill="#FFFFFF" font-family="sans-serif" font-size="14" lengthAdjust="spacing" textLength="39.2314" x="129.7383" y="27.8467">Paket</text><line style="stroke:#E7E7E7;stroke-width:0.5;" x1="8" x2="258.208" y1="39" y2="39"/><text fill="#FFFFFF" font-family="sans-serif" font-size="14" lengthAdjust="spacing" textLength="121.2832" x="13" y="55.9951">-gewicht : double</text><text fill="#FFFFFF" font-family="sans-serif" font-size="14" lengthAdjust="spacing" textLength="104.002" x="13" y="72.292">-zielort : String</text><line style="stroke:#E7E7E7;stroke-width:0.5;" x1="8" x2="258.208" y1="79.5938" y2="79.5938"/><text fill="#FFFFFF" font-family="sans-serif" font-size="14" lengthAdjust="spacing" textLength="240.208" x="13" y="96.5889">+Paket(ziel : String, gew : double)</text><text fill="#FFFFFF" font-family="sans-serif" font-size="14" lengthAdjust="spacing" textLength="163.8369" x="13" y="112.8857">+getGewicht() : double</text><text fill="#FFFFFF" font-family="sans-serif" font-size="14" lengthAdjust="spacing" textLength="146.8359" x="13" y="129.1826">+getZielort() : String</text></g><?plantuml-src LOon3W8X40LxlcBBkwY9jPsLiJEvpcxXDaX0CB3aaZF-kmT44jkPzoPPuryOyGaIbTKnP3-hu484ZkZJfiYpI7sb7APqPev6PgQh2duoAy5HL04tjCJm5W07qBGOzM0umHooT0ILheQsUg7J5l6wq5tx3SLriI-1VXxRJXDVMdOO_y9LtLkxgb_zymK0?></g></svg>