<?plantuml 1.2026.2beta3?><svg xmlns="http://www.w3.org/2000/svg" xmlns:xlink="http://www.w3.org/1999/xlink" contentStyleType="text/css" data-diagram-type="CLASS" height="117px" preserveAspectRatio="none" style="width:174px;height:117px;" version="1.1" viewBox="0 0 174 117" width="174px" zoomAndPan="magnify"><defs/><g><!--class FunkModul--><g class="entity" data-qualified-name="FunkModul" data-source-line="3" id="ent0002"><rect fill="#313139" height="96.8906" rx="2.5" ry="2.5" style="stroke:#E7E7E7;stroke-width:0.5;" width="153.9414" x="7" y="7"/><ellipse cx="42.5835" cy="23" fill="#2E5233" rx="11" ry="11" style="stroke:#E7E7E7;stroke-width:1;"/><path d="M45.5523,28.6406 Q44.9742,28.9375 44.3335,29.0781 Q43.6929,29.2344 42.9898,29.2344 Q40.4898,29.2344 39.1617,27.5938 Q37.8492,25.9375 37.8492,22.8125 Q37.8492,19.6875 39.1617,18.0313 Q40.4898,16.375 42.9898,16.375 Q43.6929,16.375 44.3335,16.5313 Q44.9898,16.6875 45.5523,16.9844 L45.5523,19.7031 Q44.9273,19.125 44.3335,18.8594 Q43.7398,18.5781 43.1148,18.5781 Q41.771,18.5781 41.0835,19.6563 Q40.396,20.7188 40.396,22.8125 Q40.396,24.9063 41.0835,25.9844 Q41.771,27.0469 43.1148,27.0469 Q43.7398,27.0469 44.3335,26.7813 Q44.9273,26.5 45.5523,25.9219 L45.5523,28.6406 Z " fill="#FFFFFF"/><text fill="#FFFFFF" font-family="sans-serif" font-size="14" lengthAdjust="spacing" textLength="76.2002" x="61.1577" y="27.8467">FunkModul</text><line style="stroke:#E7E7E7;stroke-width:0.5;" x1="8" x2="159.9414" y1="39" y2="39"/><line style="stroke:#E7E7E7;stroke-width:0.5;" x1="8" x2="159.9414" y1="47" y2="47"/><text fill="#FFFFFF" font-family="sans-serif" font-size="14" lengthAdjust="spacing" textLength="98.8545" x="13" y="63.9951">+FunkModul()</text><text fill="#FFFFFF" font-family="sans-serif" font-size="14" lengthAdjust="spacing" textLength="141.9414" x="13" y="80.292">+send(cmd : String)</text><text fill="#FFFFFF" font-family="sans-serif" font-size="14" lengthAdjust="spacing" textLength="118.6445" x="13" y="96.5889">+receive() : char</text></g><?plantuml-src HOmn3i8m40HxlsBB81hgT3H855HvWNC-1SlE6TtP547y7Ij2KExCQ2r5UNZrAsPFQT7I9539HL7LYtN5KftzAihUx5ohnhbLlbAHAMwCazi5BatIhOIMyNB0yR-70tPWB66WDM34r4za-N9bulZadesWkrUuzmS0?></g></svg>