<?plantuml 1.2026.2beta3?><svg xmlns="http://www.w3.org/2000/svg" xmlns:xlink="http://www.w3.org/1999/xlink" contentStyleType="text/css" data-diagram-type="CLASS" height="117px" preserveAspectRatio="none" style="width:178px;height:117px;" version="1.1" viewBox="0 0 178 117" width="178px" zoomAndPan="magnify"><defs/><g><!--class Random--><g class="entity" data-qualified-name="Random" data-source-line="3" id="ent0002"><rect fill="#313139" height="96.8906" rx="2.5" ry="2.5" style="stroke:#E7E7E7;stroke-width:0.5;" width="157.0176" x="7" y="7"/><ellipse cx="52.124" cy="23" fill="#2E5233" rx="11" ry="11" style="stroke:#E7E7E7;stroke-width:1;"/><path d="M55.0928,28.6406 Q54.5146,28.9375 53.874,29.0781 Q53.2334,29.2344 52.5303,29.2344 Q50.0303,29.2344 48.7021,27.5938 Q47.3896,25.9375 47.3896,22.8125 Q47.3896,19.6875 48.7021,18.0313 Q50.0303,16.375 52.5303,16.375 Q53.2334,16.375 53.874,16.5313 Q54.5303,16.6875 55.0928,16.9844 L55.0928,19.7031 Q54.4678,19.125 53.874,18.8594 Q53.2803,18.5781 52.6553,18.5781 Q51.3115,18.5781 50.624,19.6563 Q49.9365,20.7188 49.9365,22.8125 Q49.9365,24.9063 50.624,25.9844 Q51.3115,27.0469 52.6553,27.0469 Q53.2803,27.0469 53.874,26.7813 Q54.4678,26.5 55.0928,25.9219 L55.0928,28.6406 Z " fill="#FFFFFF"/><text fill="#FFFFFF" font-family="sans-serif" font-size="14" lengthAdjust="spacing" textLength="58.2695" x="72.624" y="27.8467">Random</text><line style="stroke:#E7E7E7;stroke-width:0.5;" x1="8" x2="163.0176" y1="39" y2="39"/><line style="stroke:#E7E7E7;stroke-width:0.5;" x1="8" x2="163.0176" y1="47" y2="47"/><text fill="#FFFFFF" font-family="sans-serif" font-size="14" lengthAdjust="spacing" textLength="80.9238" x="13" y="63.9951">+Random()</text><text fill="#FFFFFF" font-family="sans-serif" font-size="14" lengthAdjust="spacing" textLength="104.2754" x="13" y="80.292">+nextInt() : int</text><text fill="#FFFFFF" font-family="sans-serif" font-size="14" lengthAdjust="spacing" textLength="145.0176" x="13" y="96.5889">+nextInt(n : int) : int</text></g><?plantuml-src JOox3i9030Jx-uej4z5Gqr6cXIzmBYTqIh96jYCX4FzE51wYd9dL-bXv5PCPlUJnOhfmo3gf8KpeQogCvBzLdiJz666rNw9qMNckzu9zsW9Ema5dF1Am-q3JRi1oYuxHj3YWhfV_Zc_tJSyN?></g></svg>