<?plantuml 1.2026.2beta3?><svg xmlns="http://www.w3.org/2000/svg" xmlns:xlink="http://www.w3.org/1999/xlink" contentStyleType="text/css" data-diagram-type="CLASS" height="150px" preserveAspectRatio="none" style="width:238px;height:150px;" version="1.1" viewBox="0 0 238 150" width="238px" zoomAndPan="magnify"><defs/><g><!--class List<T>--><g class="entity" data-qualified-name="List.T." data-source-line="3" id="ent0002"><rect fill="#313139" height="129.4844" rx="2.5" ry="2.5" style="stroke:#E7E7E7;stroke-width:0.5;" width="217.3037" x="7" y="7"/><ellipse cx="83.1592" cy="23" fill="#2E5233" rx="11" ry="11" style="stroke:#E7E7E7;stroke-width:1;"/><path d="M86.1279,28.6406 Q85.5498,28.9375 84.9092,29.0781 Q84.2686,29.2344 83.5654,29.2344 Q81.0654,29.2344 79.7373,27.5938 Q78.4248,25.9375 78.4248,22.8125 Q78.4248,19.6875 79.7373,18.0313 Q81.0654,16.375 83.5654,16.375 Q84.2686,16.375 84.9092,16.5313 Q85.5654,16.6875 86.1279,16.9844 L86.1279,19.7031 Q85.5029,19.125 84.9092,18.8594 Q84.3154,18.5781 83.6904,18.5781 Q82.3467,18.5781 81.6592,19.6563 Q80.9717,20.7188 80.9717,22.8125 Q80.9717,24.9063 81.6592,25.9844 Q82.3467,27.0469 83.6904,27.0469 Q84.3154,27.0469 84.9092,26.7813 Q85.5029,26.5 86.1279,25.9219 L86.1279,28.6406 Z " fill="#FFFFFF"/><text fill="#FFFFFF" font-family="sans-serif" font-size="14" lengthAdjust="spacing" textLength="56.4854" x="103.6592" y="27.8467">List&lt;T&gt;</text><line style="stroke:#E7E7E7;stroke-width:0.5;" x1="8" x2="223.3037" y1="39" y2="39"/><line style="stroke:#E7E7E7;stroke-width:0.5;" x1="8" x2="223.3037" y1="47" y2="47"/><text fill="#FFFFFF" font-family="sans-serif" font-size="14" lengthAdjust="spacing" textLength="146.0498" x="13" y="63.9951">+add(item : T) : void</text><text fill="#FFFFFF" font-family="sans-serif" font-size="14" lengthAdjust="spacing" textLength="173.168" x="13" y="80.292">+remove(item : T) : void</text><text fill="#FFFFFF" font-family="sans-serif" font-size="14" lengthAdjust="spacing" textLength="138.2295" x="13" y="96.5889">+get(index : int) : T</text><text fill="#FFFFFF" font-family="sans-serif" font-size="14" lengthAdjust="spacing" textLength="81.6689" x="13" y="112.8857">+size() : int</text><text fill="#FFFFFF" font-family="sans-serif" font-size="14" lengthAdjust="spacing" textLength="205.3037" x="13" y="129.1826">+contains(item : T) : boolean</text></g><?plantuml-src TSwn2i9030RW_PuYT6fnSHOH70Kt-mBfNP3GDf5BMaJntJrR41nSClpVJnBhMMwOSOGEOt_DEacAEcW6poXMYCI3VLjnGBEZU-PkSZf5bGi_2BPX0QZERBvl3nKy0y06CAMQdKROGTkKCIidM2JJg3FzmIjvpPBeNb8M_s2xYfLhTRF6Qr9US6IndrMTwa0e45vl?></g></svg>