<svg xmlns="http://www.w3.org/2000/svg" xmlns:xlink="http://www.w3.org/1999/xlink" contentStyleType="text/css" data-diagram-type="CLASS" height="198px" preserveAspectRatio="none" style="width:257px;height:198px;" version="1.1" viewBox="0 0 257 198" width="257px" zoomAndPan="magnify"><?plantuml 1.2026.3beta4?><defs/><g><!--class Socket--><g class="entity" data-qualified-name="Socket" data-source-line="3" id="ent0002"><rect fill="#313139" height="178.375" rx="2.5" ry="2.5" style="stroke:#E7E7E7;stroke-width:0.5;" width="237.1006" x="7" y="7"/><ellipse cx="97.6206" cy="23" fill="#2E5233" rx="11" ry="11" style="stroke:#E7E7E7;stroke-width:1;"/><path d="M100.5894,28.6406 Q100.0112,28.9375 99.3706,29.0781 Q98.73,29.2344 98.0269,29.2344 Q95.5269,29.2344 94.1987,27.5938 Q92.8862,25.9375 92.8862,22.8125 Q92.8862,19.6875 94.1987,18.0313 Q95.5269,16.375 98.0269,16.375 Q98.73,16.375 99.3706,16.5313 Q100.0269,16.6875 100.5894,16.9844 L100.5894,19.7031 Q99.9644,19.125 99.3706,18.8594 Q98.7769,18.5781 98.1519,18.5781 Q96.8081,18.5781 96.1206,19.6563 Q95.4331,20.7188 95.4331,22.8125 Q95.4331,24.9063 96.1206,25.9844 Q96.8081,27.0469 98.1519,27.0469 Q98.7769,27.0469 99.3706,26.7813 Q99.9644,26.5 100.5894,25.9219 L100.5894,28.6406 Z " fill="#FFFFFF"/><text fill="#FFFFFF" font-family="sans-serif" font-size="14" lengthAdjust="spacing" textLength="47.3594" x="118.1206" y="27.8467">Socket</text><line style="stroke:#E7E7E7;stroke-width:0.5;" x1="8" x2="243.1006" y1="39" y2="39"/><text fill="#FFFFFF" font-family="sans-serif" font-size="14" lengthAdjust="spacing" textLength="155.5723" x="13" y="55.9951">-remoteHostIP : String</text><text fill="#FFFFFF" font-family="sans-serif" font-size="14" lengthAdjust="spacing" textLength="115.8486" x="13" y="72.292">-remotePort : int</text><line style="stroke:#E7E7E7;stroke-width:0.5;" x1="8" x2="243.1006" y1="79.5938" y2="79.5938"/><text fill="#FFFFFF" font-family="sans-serif" font-size="14" lengthAdjust="spacing" textLength="225.1006" x="13" y="96.5889">+Socket(host : String, port : int)</text><text fill="#FFFFFF" font-family="sans-serif" font-size="14" lengthAdjust="spacing" textLength="200.1357" x="13" y="112.8857">+getRemoteHostIP() : String</text><text fill="#FFFFFF" font-family="sans-serif" font-size="14" lengthAdjust="spacing" textLength="160.4121" x="13" y="129.1826">+getRemotePort() : int</text><text fill="#FFFFFF" font-family="sans-serif" font-size="14" lengthAdjust="spacing" textLength="139.0635" x="13" y="145.4795">+readLine() : String</text><text fill="#FFFFFF" font-family="sans-serif" font-size="14" lengthAdjust="spacing" textLength="120.5449" x="13" y="161.7764">+write(s : String)</text><text fill="#FFFFFF" font-family="sans-serif" font-size="14" lengthAdjust="spacing" textLength="58.7139" x="13" y="178.0732">+close()</text></g><?plantuml-src POsn3e9044Jx-uej8MfYRMSdYGMHBpYE3Lw0NRAtn4JZltiWkM1ivxsP2PsdqOeTeBQkQuKdQXptBA1YAKI4f2Oao_KsXBEg-7fIB1nJvPy8HxC0gDXrgF0o00SG75Znma6B4avGnHAri44bYqRWIUTqjxQpUsmaVmzZilAlrgBUDjDP_ZE-uVF-GjE3e6skdl2lyn2lc8MKhbUkvp3Bvlq1?></g></svg>