<?plantuml 1.2026.2beta3?><svg xmlns="http://www.w3.org/2000/svg" xmlns:xlink="http://www.w3.org/1999/xlink" contentStyleType="text/css" data-diagram-type="CLASS" height="117px" preserveAspectRatio="none" style="width:209px;height:117px;" version="1.1" viewBox="0 0 209 117" width="209px" zoomAndPan="magnify"><defs/><g><!--class ServerSocket--><g class="entity" data-qualified-name="ServerSocket" data-source-line="3" id="ent0002"><rect fill="#313139" height="96.8906" rx="2.5" ry="2.5" style="stroke:#E7E7E7;stroke-width:0.5;" width="188.4902" x="7" y="7"/><ellipse cx="50.4493" cy="23" fill="#2E5233" rx="11" ry="11" style="stroke:#E7E7E7;stroke-width:1;"/><path d="M53.4181,28.6406 Q52.8399,28.9375 52.1993,29.0781 Q51.5587,29.2344 50.8556,29.2344 Q48.3556,29.2344 47.0274,27.5938 Q45.7149,25.9375 45.7149,22.8125 Q45.7149,19.6875 47.0274,18.0313 Q48.3556,16.375 50.8556,16.375 Q51.5587,16.375 52.1993,16.5313 Q52.8556,16.6875 53.4181,16.9844 L53.4181,19.7031 Q52.7931,19.125 52.1993,18.8594 Q51.6056,18.5781 50.9806,18.5781 Q49.6368,18.5781 48.9493,19.6563 Q48.2618,20.7188 48.2618,22.8125 Q48.2618,24.9063 48.9493,25.9844 Q49.6368,27.0469 50.9806,27.0469 Q51.6056,27.0469 52.1993,26.7813 Q52.7931,26.5 53.4181,25.9219 L53.4181,28.6406 Z " fill="#FFFFFF"/><text fill="#FFFFFF" font-family="sans-serif" font-size="14" lengthAdjust="spacing" textLength="93.2695" x="70.7714" y="27.8467">ServerSocket</text><line style="stroke:#E7E7E7;stroke-width:0.5;" x1="8" x2="194.4902" y1="39" y2="39"/><line style="stroke:#E7E7E7;stroke-width:0.5;" x1="8" x2="194.4902" y1="47" y2="47"/><text fill="#FFFFFF" font-family="sans-serif" font-size="14" lengthAdjust="spacing" textLength="176.4902" x="13" y="63.9951">+ServerSocket(port : int)</text><text fill="#FFFFFF" font-family="sans-serif" font-size="14" lengthAdjust="spacing" textLength="130.5938" x="13" y="80.292">+accept() : Socket</text><text fill="#FFFFFF" font-family="sans-serif" font-size="14" lengthAdjust="spacing" textLength="58.7139" x="13" y="96.5889">+close()</text></g><?plantuml-src LSin3W8n34JHFgTmkIiQQZfAwfp0QomK9TYHxQK0SNUY227HlZ_ZjKX7mpjiIFLckikLjAb168gFn1B9Vojgw7wEiBBjmHTIoUN9S4mpG6Pxi6MboW6l173uewMh1PoWIAmmAn9nZsKT-7rDfgREGzFx0m00?></g></svg>