<?plantuml 1.2026.2beta3?><svg xmlns="http://www.w3.org/2000/svg" xmlns:xlink="http://www.w3.org/1999/xlink" contentStyleType="text/css" data-diagram-type="CLASS" height="374px" preserveAspectRatio="none" style="width:173px;height:374px;" version="1.1" viewBox="0 0 173 374" width="173px" zoomAndPan="magnify"><defs/><g><!--class Nutzer--><g class="entity" data-qualified-name="Nutzer" data-source-line="6" id="ent0002"><rect fill="#313139" height="58.5938" rx="2.5" ry="2.5" style="stroke:#E7E7E7;stroke-width:0.5;" width="60.3027" x="42.79" y="7"/><text fill="#FFFFFF" font-family="sans-serif" font-size="14" lengthAdjust="spacing" textLength="46.5527" x="49.665" y="24.9951">Nutzer</text><line style="stroke:#E7E7E7;stroke-width:0.5;" x1="43.79" x2="102.0927" y1="33.2969" y2="33.2969"/><text fill="#FFFFFF" font-family="sans-serif" font-size="14" lengthAdjust="spacing" textLength="48.3027" x="48.79" y="50.292">*Name</text><line style="stroke:#E7E7E7;stroke-width:0.5;" x1="43.79" x2="102.0927" y1="57.5938" y2="57.5938"/></g><!--class Beitrag--><g class="entity" data-qualified-name="Beitrag" data-source-line="10" id="ent0003"><rect fill="#313139" height="107.4844" rx="2.5" ry="2.5" style="stroke:#E7E7E7;stroke-width:0.5;" width="61.9912" x="41.94" y="260.49"/><text fill="#FFFFFF" font-family="sans-serif" font-size="14" lengthAdjust="spacing" textLength="50.8184" x="47.5264" y="278.4851">Beitrag</text><line style="stroke:#E7E7E7;stroke-width:0.5;" x1="42.94" x2="102.9312" y1="286.7869" y2="286.7869"/><text fill="#FFFFFF" font-family="sans-serif" font-size="14" lengthAdjust="spacing" textLength="21.9092" x="47.94" y="303.782">*ID</text><text fill="#FFFFFF" font-family="sans-serif" font-size="14" lengthAdjust="spacing" textLength="10.1035" x="47.94" y="320.0789">--</text><text fill="#FFFFFF" font-family="sans-serif" font-size="14" lengthAdjust="spacing" textLength="30.4336" x="47.94" y="336.3757">Titel</text><text fill="#FFFFFF" font-family="sans-serif" font-size="14" lengthAdjust="spacing" textLength="49.9912" x="47.94" y="352.6726">#Autor</text><line style="stroke:#E7E7E7;stroke-width:0.5;" x1="42.94" x2="102.9312" y1="359.9744" y2="359.9744"/></g><!--class Likes--><g class="entity" data-qualified-name="Likes" data-source-line="17" id="ent0004"><rect fill="#313139" height="74.8906" rx="2.5" ry="2.5" style="stroke:#E7E7E7;stroke-width:0.5;" width="89.458" x="77.21" y="125.59"/><text fill="#FFFFFF" font-family="sans-serif" font-size="14" lengthAdjust="spacing" textLength="35.7041" x="104.087" y="143.5851">Likes</text><line style="stroke:#E7E7E7;stroke-width:0.5;" x1="78.21" x2="165.668" y1="151.8869" y2="151.8869"/><text fill="#FFFFFF" font-family="sans-serif" font-size="14" lengthAdjust="spacing" textLength="58.2832" x="83.21" y="168.882">#Nutzer</text><text fill="#FFFFFF" font-family="sans-serif" font-size="14" lengthAdjust="spacing" textLength="77.458" x="83.21" y="185.1789">#BeitragID</text><line style="stroke:#E7E7E7;stroke-width:0.5;" x1="78.21" x2="165.668" y1="192.4806" y2="192.4806"/></g><!--link Nutzer to Beitrag--><g class="link" data-entity-1="ent0002" data-entity-2="ent0003" data-link-type="crowfoot" data-source-line="22" id="lnk5"><path codeLine="22" d="M60,74.04 C60,120.32 60,184.27 60,242.22" fill="none" id="Nutzer-Beitrag" style="stroke:#E7E7E7;stroke-width:1;stroke-dasharray:7,7;"/><line style="stroke:#E7E7E7;stroke-width:1;" x1="56" x2="64" y1="70.04" y2="70.04"/><line style="stroke:#E7E7E7;stroke-width:1;" x1="56" x2="64" y1="73.04" y2="73.04"/><line style="stroke:#E7E7E7;stroke-width:1;" x1="60" x2="60" y1="74.04" y2="66.04"/><line style="stroke:#E7E7E7;stroke-width:1;" x1="60" x2="66" y1="252.22" y2="260.22"/><line style="stroke:#E7E7E7;stroke-width:1;" x1="60" x2="54" y1="252.22" y2="260.22"/><line style="stroke:#E7E7E7;stroke-width:1;" x1="60" x2="60" y1="252.22" y2="260.22"/><ellipse cx="60" cy="246.22" fill="none" rx="4" ry="4" style="stroke:#E7E7E7;stroke-width:1;"/><text fill="#FFFFFF" font-family="sans-serif" font-size="13" lengthAdjust="spacing" textLength="52.2222" x="7" y="159.1969">verfasst</text></g><!--link Nutzer to Likes--><g class="link" data-entity-1="ent0002" data-entity-2="ent0004" data-link-type="crowfoot" data-source-line="23" id="lnk6"><path codeLine="23" d="M90.15,74.01 C90.15,91.72 90.15,98.36 90.15,117.32" fill="none" id="Nutzer-Likes" style="stroke:#E7E7E7;stroke-width:1;stroke-dasharray:7,7;"/><line style="stroke:#E7E7E7;stroke-width:1;" x1="90.15" x2="84.15" y1="74.01" y2="66.01"/><line style="stroke:#E7E7E7;stroke-width:1;" x1="90.15" x2="96.15" y1="74.01" y2="66.01"/><line style="stroke:#E7E7E7;stroke-width:1;" x1="90.15" x2="90.15" y1="74.01" y2="66.01"/><line style="stroke:#E7E7E7;stroke-width:1;" x1="86.15" x2="94.15" y1="76.01" y2="76.01"/><line style="stroke:#E7E7E7;stroke-width:1;" x1="90.15" x2="96.15" y1="117.32" y2="125.32"/><line style="stroke:#E7E7E7;stroke-width:1;" x1="90.15" x2="84.15" y1="117.32" y2="125.32"/><line style="stroke:#E7E7E7;stroke-width:1;" x1="90.15" x2="90.15" y1="117.32" y2="125.32"/><line style="stroke:#E7E7E7;stroke-width:1;" x1="94.15" x2="86.15" y1="115.32" y2="115.32"/><text fill="#FFFFFF" font-family="sans-serif" font-size="13" lengthAdjust="spacing" textLength="31.002" x="58.15" y="91.7369">liked</text></g><!--link Likes to Beitrag--><g class="link" data-entity-1="ent0004" data-entity-2="ent0003" data-link-type="crowfoot" data-source-line="24" id="lnk7"><path codeLine="24" d="M90.57,208.8 C90.57,226.73 90.57,232.49 90.57,252.13" fill="none" id="Likes-Beitrag" style="stroke:#E7E7E7;stroke-width:1;stroke-dasharray:7,7;"/><line style="stroke:#E7E7E7;stroke-width:1;" x1="90.57" x2="84.57" y1="208.8" y2="200.8"/><line style="stroke:#E7E7E7;stroke-width:1;" x1="90.57" x2="96.57" y1="208.8" y2="200.8"/><line style="stroke:#E7E7E7;stroke-width:1;" x1="90.57" x2="90.57" y1="208.8" y2="200.8"/><line style="stroke:#E7E7E7;stroke-width:1;" x1="86.57" x2="94.57" y1="210.8" y2="210.8"/><line style="stroke:#E7E7E7;stroke-width:1;" x1="94.57" x2="86.57" y1="256.13" y2="256.13"/><line style="stroke:#E7E7E7;stroke-width:1;" x1="94.57" x2="86.57" y1="253.13" y2="253.13"/><line style="stroke:#E7E7E7;stroke-width:1;" x1="90.57" x2="90.57" y1="252.13" y2="260.13"/></g><?plantuml-src JO-x3i8m34NtV8L5DoGGCnk8fH9YWHz8KmDMGr8vBXAq_3kc3s2n5PrpRv9KKQWjsniKrbKNZaqeNVIHGTY6f0Y3cFIrdBSfRKIOYaOmTp4SwOcmCbSg4Hony_YdUmeeZneXiboZCLf6ye3PeP4dyWnQ0p0_s1kQrmzkaVJooqZpdSx50dIUID3hpZQDw0l_CtkgC0s9R2Z_1BAnAj_ryWYwRhcCBOmCrd17FkktP19UAdGjz9sAlUxI3ASUTLFs3G00?></g></svg>