<?plantuml 1.2026.2beta3?><svg xmlns="http://www.w3.org/2000/svg" xmlns:xlink="http://www.w3.org/1999/xlink" contentStyleType="text/css" data-diagram-type="CLASS" height="203px" preserveAspectRatio="none" style="width:342px;height:203px;" version="1.1" viewBox="0 0 342 203" width="342px" zoomAndPan="magnify"><defs/><g><!--class LogistikZentrum--><g class="entity" data-qualified-name="LogistikZentrum" data-source-line="3" id="ent0002"><rect fill="#313139" height="64.2969" rx="2.5" ry="2.5" style="stroke:#E7E7E7;stroke-width:0.5;" width="328.4355" x="7" y="7"/><ellipse cx="109.5903" cy="23" fill="#2E5233" rx="11" ry="11" style="stroke:#E7E7E7;stroke-width:1;"/><path d="M112.5591,28.6406 Q111.981,28.9375 111.3403,29.0781 Q110.6997,29.2344 109.9966,29.2344 Q107.4966,29.2344 106.1685,27.5938 Q104.856,25.9375 104.856,22.8125 Q104.856,19.6875 106.1685,18.0313 Q107.4966,16.375 109.9966,16.375 Q110.6997,16.375 111.3403,16.5313 Q111.9966,16.6875 112.5591,16.9844 L112.5591,19.7031 Q111.9341,19.125 111.3403,18.8594 Q110.7466,18.5781 110.1216,18.5781 Q108.7778,18.5781 108.0903,19.6563 Q107.4028,20.7188 107.4028,22.8125 Q107.4028,24.9063 108.0903,25.9844 Q108.7778,27.0469 110.1216,27.0469 Q110.7466,27.0469 111.3403,26.7813 Q111.9341,26.5 112.5591,25.9219 L112.5591,28.6406 Z " fill="#FFFFFF"/><text fill="#FFFFFF" font-family="sans-serif" font-size="14" lengthAdjust="spacing" textLength="114.7549" x="130.0903" y="27.8467">LogistikZentrum</text><line style="stroke:#E7E7E7;stroke-width:0.5;" x1="8" x2="334.4355" y1="39" y2="39"/><line style="stroke:#E7E7E7;stroke-width:0.5;" x1="8" x2="334.4355" y1="47" y2="47"/><text fill="#FFFFFF" font-family="sans-serif" font-size="14" lengthAdjust="spacing" textLength="316.4355" x="13" y="63.9951">+getTop3Schwere(ort : String) : List&lt;Paket&gt;</text></g><!--class Paket--><g class="entity" data-qualified-name="Paket" data-source-line="6" id="ent0003"><rect fill="#313139" height="48" rx="2.5" ry="2.5" style="stroke:#E7E7E7;stroke-width:0.5;" width="71.2314" x="135.6" y="148.3"/><ellipse cx="150.6" cy="164.3" fill="#2E5233" rx="11" ry="11" style="stroke:#E7E7E7;stroke-width:1;"/><path d="M153.5688,169.9406 Q152.9906,170.2375 152.35,170.3781 Q151.7094,170.5344 151.0063,170.5344 Q148.5063,170.5344 147.1781,168.8938 Q145.8656,167.2375 145.8656,164.1125 Q145.8656,160.9875 147.1781,159.3313 Q148.5063,157.675 151.0063,157.675 Q151.7094,157.675 152.35,157.8313 Q153.0063,157.9875 153.5688,158.2844 L153.5688,161.0031 Q152.9438,160.425 152.35,160.1594 Q151.7563,159.8781 151.1313,159.8781 Q149.7875,159.8781 149.1,160.9563 Q148.4125,162.0188 148.4125,164.1125 Q148.4125,166.2063 149.1,167.2844 Q149.7875,168.3469 151.1313,168.3469 Q151.7563,168.3469 152.35,168.0813 Q152.9438,167.8 153.5688,167.2219 L153.5688,169.9406 Z " fill="#FFFFFF"/><text fill="#FFFFFF" font-family="sans-serif" font-size="14" lengthAdjust="spacing" textLength="39.2314" x="164.6" y="169.1467">Paket</text><line style="stroke:#E7E7E7;stroke-width:0.5;" x1="136.6" x2="205.8314" y1="180.3" y2="180.3"/><line style="stroke:#E7E7E7;stroke-width:0.5;" x1="136.6" x2="205.8314" y1="188.3" y2="188.3"/></g><!--link LogistikZentrum to Paket--><g class="link" data-entity-1="ent0002" data-entity-2="ent0003" data-link-type="dependency" data-source-line="6" id="lnk4"><path codeLine="6" d="M171.22,79.56 C171.22,103.06 171.22,120.66 171.22,141.95" fill="none" id="LogistikZentrum-Paket" style="stroke:#E7E7E7;stroke-width:1;"/><path d="M167.22,76.56 L175.22,84.56 M175.22,76.56 L167.22,84.56" fill="none" style="stroke:#E7E7E7;stroke-width:1;"/><polygon fill="#E7E7E7" points="171.22,147.95,175.22,138.95,171.22,142.95,167.22,138.95,171.22,147.95" style="stroke:#E7E7E7;stroke-width:1;"/><text fill="#FFFFFF" font-family="sans-serif" font-size="13" lengthAdjust="spacing" textLength="72.3062" x="172.22" y="114.3669">-allePakete</text><text fill="#FFFFFF" font-family="sans-serif" font-size="13" lengthAdjust="spacing" textLength="6.5" x="164.5507" y="137.2696">*</text></g><?plantuml-src NOmz2y9044Jx-nLBAZy827OY0KiXHI1MTfjpEO-xt8Qz3OhYV_T8OM4tmxnvEVWqeU080zhWXETqinnPG0LJBXCbDVb7sOWvdrJ53xFIsNBg_OjWPvO1MdO-gm_Nyf9vXBS1s88ZlV2qx-tzGK8h5eK3zCMHtBgajboE7GRI1ip7_3kUTTr0jQbWGGfVOuoq5Fe2?></g></svg>