<?plantuml 1.2026.2beta3?><svg xmlns="http://www.w3.org/2000/svg" xmlns:xlink="http://www.w3.org/1999/xlink" contentStyleType="text/css" data-diagram-type="CLASS" height="219px" preserveAspectRatio="none" style="width:313px;height:219px;" version="1.1" viewBox="0 0 313 219" width="313px" zoomAndPan="magnify"><defs/><g><!--class Lager--><g class="entity" data-qualified-name="Lager" data-source-line="3" id="ent0002"><rect fill="#313139" height="80.5938" rx="2.5" ry="2.5" style="stroke:#E7E7E7;stroke-width:0.5;" width="299.6699" x="7" y="7"/><ellipse cx="132.7676" cy="23" fill="#2E5233" rx="11" ry="11" style="stroke:#E7E7E7;stroke-width:1;"/><path d="M135.7363,28.6406 Q135.1582,28.9375 134.5176,29.0781 Q133.877,29.2344 133.1738,29.2344 Q130.6738,29.2344 129.3457,27.5938 Q128.0332,25.9375 128.0332,22.8125 Q128.0332,19.6875 129.3457,18.0313 Q130.6738,16.375 133.1738,16.375 Q133.877,16.375 134.5176,16.5313 Q135.1738,16.6875 135.7363,16.9844 L135.7363,19.7031 Q135.1113,19.125 134.5176,18.8594 Q133.9238,18.5781 133.2988,18.5781 Q131.9551,18.5781 131.2676,19.6563 Q130.5801,20.7188 130.5801,22.8125 Q130.5801,24.9063 131.2676,25.9844 Q131.9551,27.0469 133.2988,27.0469 Q133.9238,27.0469 134.5176,26.7813 Q135.1113,26.5 135.7363,25.9219 L135.7363,28.6406 Z " fill="#FFFFFF"/><text fill="#FFFFFF" font-family="sans-serif" font-size="14" lengthAdjust="spacing" textLength="39.6348" x="153.2676" y="27.8467">Lager</text><line style="stroke:#E7E7E7;stroke-width:0.5;" x1="8" x2="305.6699" y1="39" y2="39"/><line style="stroke:#E7E7E7;stroke-width:0.5;" x1="8" x2="305.6699" y1="47" y2="47"/><text fill="#FFFFFF" font-family="sans-serif" font-size="14" lengthAdjust="spacing" textLength="161.8682" x="13" y="63.9951">+hinzufuegen(Paket p)</text><text fill="#FFFFFF" font-family="sans-serif" font-size="14" lengthAdjust="spacing" textLength="287.6699" x="13" y="80.292">+filterePakete(ort : String) : List&lt;Paket&gt;</text></g><!--class Paket--><g class="entity" data-qualified-name="Paket" data-source-line="7" id="ent0003"><rect fill="#313139" height="48" rx="2.5" ry="2.5" style="stroke:#E7E7E7;stroke-width:0.5;" width="71.2314" x="121.22" y="164.59"/><ellipse cx="136.22" cy="180.59" fill="#2E5233" rx="11" ry="11" style="stroke:#E7E7E7;stroke-width:1;"/><path d="M139.1888,186.2306 Q138.6106,186.5275 137.97,186.6681 Q137.3294,186.8244 136.6263,186.8244 Q134.1263,186.8244 132.7981,185.1838 Q131.4856,183.5275 131.4856,180.4025 Q131.4856,177.2775 132.7981,175.6213 Q134.1263,173.965 136.6263,173.965 Q137.3294,173.965 137.97,174.1213 Q138.6263,174.2775 139.1888,174.5744 L139.1888,177.2931 Q138.5638,176.715 137.97,176.4494 Q137.3763,176.1681 136.7513,176.1681 Q135.4075,176.1681 134.72,177.2463 Q134.0325,178.3088 134.0325,180.4025 Q134.0325,182.4963 134.72,183.5744 Q135.4075,184.6369 136.7513,184.6369 Q137.3763,184.6369 137.97,184.3713 Q138.5638,184.09 139.1888,183.5119 L139.1888,186.2306 Z " fill="#FFFFFF"/><text fill="#FFFFFF" font-family="sans-serif" font-size="14" lengthAdjust="spacing" textLength="39.2314" x="150.22" y="185.4367">Paket</text><line style="stroke:#E7E7E7;stroke-width:0.5;" x1="122.22" x2="191.4514" y1="196.59" y2="196.59"/><line style="stroke:#E7E7E7;stroke-width:0.5;" x1="122.22" x2="191.4514" y1="204.59" y2="204.59"/></g><!--link Lager to Paket--><g class="link" data-entity-1="ent0002" data-entity-2="ent0003" data-link-type="dependency" data-source-line="7" id="lnk4"><path codeLine="7" d="M156.83,95.84 C156.83,120.45 156.83,137.27 156.83,158.09" fill="none" id="Lager-Paket" style="stroke:#E7E7E7;stroke-width:1;"/><path d="M152.83,92.84 L160.83,100.84 M160.83,92.84 L152.83,100.84" fill="none" style="stroke:#E7E7E7;stroke-width:1;"/><polygon fill="#E7E7E7" points="156.83,164.09,160.83,155.09,156.83,159.09,152.83,155.09,156.83,164.09" style="stroke:#E7E7E7;stroke-width:1;"/><text fill="#FFFFFF" font-family="sans-serif" font-size="13" lengthAdjust="spacing" textLength="49.5308" x="157.83" y="130.6569">-pakete</text><text fill="#FFFFFF" font-family="sans-serif" font-size="13" lengthAdjust="spacing" textLength="6.5" x="150.1583" y="153.3731">*</text></g><?plantuml-src FOp12eCm44Jl-Oh1axO8FKiHUYpqKF0BOhhQeDt8PWF5qd-lHEXjc3VpukHviM9VwAsRHWc97oxCGQ1YEMw8M4tyhzniOxoeYk-JqjK5xlnAE9aCSBCZ2Ju6EEBfUKr3ef6ulDk954k5J0O_AmdbaieWYWRTfkInsjBDHprdri9ypQvyrtMBub1WDpMeb_p-0G00?></g></svg>