<svg xmlns="http://www.w3.org/2000/svg" xmlns:xlink="http://www.w3.org/1999/xlink" contentStyleType="text/css" data-diagram-type="CLASS" height="211px" preserveAspectRatio="none" style="width:203px;height:211px;" version="1.1" viewBox="0 0 203 211" width="203px" zoomAndPan="magnify"><?plantuml 1.2026.3beta5?><defs/><g><!--class Lager--><g class="entity" data-qualified-name="Lager" data-source-line="3" id="ent0002"><rect fill="#313139" height="64.2969" rx="2.5" ry="2.5" style="stroke:#E7E7E7;stroke-width:0.5;" width="181.1143" x="7" y="7"/><ellipse cx="73.4897" cy="23" fill="#2E5233" rx="11" ry="11" style="stroke:#E7E7E7;stroke-width:1;"/><path d="M76.4585,28.6406 Q75.8804,28.9375 75.2397,29.0781 Q74.5991,29.2344 73.896,29.2344 Q71.396,29.2344 70.0679,27.5938 Q68.7554,25.9375 68.7554,22.8125 Q68.7554,19.6875 70.0679,18.0313 Q71.396,16.375 73.896,16.375 Q74.5991,16.375 75.2397,16.5313 Q75.896,16.6875 76.4585,16.9844 L76.4585,19.7031 Q75.8335,19.125 75.2397,18.8594 Q74.646,18.5781 74.021,18.5781 Q72.6772,18.5781 71.9897,19.6563 Q71.3022,20.7188 71.3022,22.8125 Q71.3022,24.9063 71.9897,25.9844 Q72.6772,27.0469 74.021,27.0469 Q74.646,27.0469 75.2397,26.7813 Q75.8335,26.5 76.4585,25.9219 L76.4585,28.6406 Z " fill="#FFFFFF"/><text fill="#FFFFFF" font-family="sans-serif" font-size="14" lengthAdjust="spacing" textLength="39.6348" x="93.9897" y="27.8467">Lager</text><line style="stroke:#E7E7E7;stroke-width:0.5;" x1="8" x2="187.1143" y1="39" y2="39"/><line style="stroke:#E7E7E7;stroke-width:0.5;" x1="8" x2="187.1143" y1="47" y2="47"/><text fill="#FFFFFF" font-family="sans-serif" font-size="14" lengthAdjust="spacing" textLength="169.1143" x="13" y="63.9951">+sortiereNachGewicht()</text></g><!--class Paket--><g class="entity" data-qualified-name="Paket" data-source-line="6" id="ent0003"><rect fill="#313139" height="48" rx="2.5" ry="2.5" style="stroke:#E7E7E7;stroke-width:0.5;" width="71.2314" x="61.94" y="148.3"/><ellipse cx="76.94" cy="164.3" fill="#2E5233" rx="11" ry="11" style="stroke:#E7E7E7;stroke-width:1;"/><path d="M79.9088,169.9406 Q79.3306,170.2375 78.69,170.3781 Q78.0494,170.5344 77.3463,170.5344 Q74.8463,170.5344 73.5181,168.8938 Q72.2056,167.2375 72.2056,164.1125 Q72.2056,160.9875 73.5181,159.3313 Q74.8463,157.675 77.3463,157.675 Q78.0494,157.675 78.69,157.8313 Q79.3463,157.9875 79.9088,158.2844 L79.9088,161.0031 Q79.2838,160.425 78.69,160.1594 Q78.0963,159.8781 77.4713,159.8781 Q76.1275,159.8781 75.44,160.9563 Q74.7525,162.0188 74.7525,164.1125 Q74.7525,166.2063 75.44,167.2844 Q76.1275,168.3469 77.4713,168.3469 Q78.0963,168.3469 78.69,168.0813 Q79.2838,167.8 79.9088,167.2219 L79.9088,169.9406 Z " fill="#FFFFFF"/><text fill="#FFFFFF" font-family="sans-serif" font-size="14" lengthAdjust="spacing" textLength="39.2314" x="90.94" y="169.1467">Paket</text><line style="stroke:#E7E7E7;stroke-width:0.5;" x1="62.94" x2="132.1714" y1="180.3" y2="180.3"/><line style="stroke:#E7E7E7;stroke-width:0.5;" x1="62.94" x2="132.1714" y1="188.3" y2="188.3"/></g><!--link Lager to Paket--><g class="link" data-entity-1="ent0002" data-entity-2="ent0003" data-link-type="dependency" data-source-line="6" id="lnk4"><path codeLine="6" d="M97.56,79.56 C97.56,103.06 97.56,120.66 97.56,141.95" fill="none" id="Lager-Paket" style="stroke:#E7E7E7;stroke-width:1;"/><path d="M93.56,76.56 L101.56,84.56 M101.56,76.56 L93.56,84.56" fill="none" style="stroke:#E7E7E7;stroke-width:1;"/><polygon fill="#E7E7E7" points="97.56,147.95,101.56,138.95,97.56,142.95,93.56,138.95,97.56,147.95" style="stroke:#E7E7E7;stroke-width:1;"/><text fill="#FFFFFF" font-family="sans-serif" font-size="13" lengthAdjust="spacing" textLength="49.5308" x="98.56" y="114.3669">-pakete</text><text fill="#FFFFFF" font-family="sans-serif" font-size="13" lengthAdjust="spacing" textLength="6.5" x="90.8907" y="137.2696">*</text></g><?plantuml-src FShB2i9034RX_Jp5JrTU673jGd0bWXJ19qXZQ8VMcPAaA8hlxWtS7VYEzIcFf7H1GzotMgPyvZ8KXIjbUvDa3_Q_U22phRkcPdBPSycdT1UimXTme5OKZm0iOKKzYKfDtEtachZpsHpX6NxJBSODgaM58_NYM2EEdv0N?></g></svg>