<?plantuml 1.2026.2beta3?><svg xmlns="http://www.w3.org/2000/svg" xmlns:xlink="http://www.w3.org/1999/xlink" contentStyleType="text/css" data-diagram-type="CLASS" height="203px" preserveAspectRatio="none" style="width:109px;height:203px;" version="1.1" viewBox="0 0 109 203" width="109px" zoomAndPan="magnify"><defs/><g><!--class Lager--><g class="entity" data-qualified-name="Lager" data-source-line="3" id="ent0002"><rect fill="#313139" height="64.2969" rx="2.5" ry="2.5" style="stroke:#E7E7E7;stroke-width:0.5;" width="88.6309" x="7" y="7"/><ellipse cx="29.6482" cy="23" fill="#2E5233" rx="11" ry="11" style="stroke:#E7E7E7;stroke-width:1;"/><path d="M32.617,28.6406 Q32.0389,28.9375 31.3982,29.0781 Q30.7576,29.2344 30.0545,29.2344 Q27.5545,29.2344 26.2264,27.5938 Q24.9139,25.9375 24.9139,22.8125 Q24.9139,19.6875 26.2264,18.0313 Q27.5545,16.375 30.0545,16.375 Q30.7576,16.375 31.3982,16.5313 Q32.0545,16.6875 32.617,16.9844 L32.617,19.7031 Q31.992,19.125 31.3982,18.8594 Q30.8045,18.5781 30.1795,18.5781 Q28.8357,18.5781 28.1482,19.6563 Q27.4607,20.7188 27.4607,22.8125 Q27.4607,24.9063 28.1482,25.9844 Q28.8357,27.0469 30.1795,27.0469 Q30.8045,27.0469 31.3982,26.7813 Q31.992,26.5 32.617,25.9219 L32.617,28.6406 Z " fill="#FFFFFF"/><text fill="#FFFFFF" font-family="sans-serif" font-size="14" lengthAdjust="spacing" textLength="39.6348" x="45.3479" y="27.8467">Lager</text><line style="stroke:#E7E7E7;stroke-width:0.5;" x1="8" x2="94.6309" y1="39" y2="39"/><line style="stroke:#E7E7E7;stroke-width:0.5;" x1="8" x2="94.6309" y1="47" y2="47"/><text fill="#FFFFFF" font-family="sans-serif" font-size="14" lengthAdjust="spacing" textLength="76.6309" x="13" y="63.9951">+sortiere()</text></g><!--class Paket--><g class="entity" data-qualified-name="Paket" data-source-line="6" id="ent0003"><rect fill="#313139" height="48" rx="2.5" ry="2.5" style="stroke:#E7E7E7;stroke-width:0.5;" width="71.2314" x="15.7" y="148.3"/><ellipse cx="30.7" cy="164.3" fill="#2E5233" rx="11" ry="11" style="stroke:#E7E7E7;stroke-width:1;"/><path d="M33.6688,169.9406 Q33.0906,170.2375 32.45,170.3781 Q31.8094,170.5344 31.1063,170.5344 Q28.6063,170.5344 27.2781,168.8938 Q25.9656,167.2375 25.9656,164.1125 Q25.9656,160.9875 27.2781,159.3313 Q28.6063,157.675 31.1063,157.675 Q31.8094,157.675 32.45,157.8313 Q33.1063,157.9875 33.6688,158.2844 L33.6688,161.0031 Q33.0438,160.425 32.45,160.1594 Q31.8563,159.8781 31.2313,159.8781 Q29.8875,159.8781 29.2,160.9563 Q28.5125,162.0188 28.5125,164.1125 Q28.5125,166.2063 29.2,167.2844 Q29.8875,168.3469 31.2313,168.3469 Q31.8563,168.3469 32.45,168.0813 Q33.0438,167.8 33.6688,167.2219 L33.6688,169.9406 Z " fill="#FFFFFF"/><text fill="#FFFFFF" font-family="sans-serif" font-size="14" lengthAdjust="spacing" textLength="39.2314" x="44.7" y="169.1467">Paket</text><line style="stroke:#E7E7E7;stroke-width:0.5;" x1="16.7" x2="85.9314" y1="180.3" y2="180.3"/><line style="stroke:#E7E7E7;stroke-width:0.5;" x1="16.7" x2="85.9314" y1="188.3" y2="188.3"/></g><!--link Lager to Paket--><g class="link" data-entity-1="ent0002" data-entity-2="ent0003" data-link-type="dependency" data-source-line="6" id="lnk4"><path codeLine="6" d="M51.32,79.56 C51.32,103.06 51.32,120.66 51.32,141.95" fill="none" id="Lager-Paket" style="stroke:#E7E7E7;stroke-width:1;"/><path d="M47.32,76.56 L55.32,84.56 M55.32,76.56 L47.32,84.56" fill="none" style="stroke:#E7E7E7;stroke-width:1;"/><polygon fill="#E7E7E7" points="51.32,147.95,55.32,138.95,51.32,142.95,47.32,138.95,51.32,147.95" style="stroke:#E7E7E7;stroke-width:1;"/><text fill="#FFFFFF" font-family="sans-serif" font-size="13" lengthAdjust="spacing" textLength="49.5308" x="52.32" y="114.3669">-pakete</text><text fill="#FFFFFF" font-family="sans-serif" font-size="13" lengthAdjust="spacing" textLength="6.5" x="44.6507" y="137.2696">*</text></g><?plantuml-src FSgx2W9134RXVfxYPoil35XR29Q2XU0JPCUm3BCcIv85KNntRs1tu3lUganaT4LFfGsciroAZce88_4tiKJo_rL6Sjz7MEtdu4DHETSxOvE-W2CDR7WaO0rNYyh6YoNIC_tablCEtQh3YHe7jiZJ9_W5?></g></svg>