<?plantuml 1.2026.2beta3?><svg xmlns="http://www.w3.org/2000/svg" xmlns:xlink="http://www.w3.org/1999/xlink" contentStyleType="text/css" data-diagram-type="CLASS" height="370px" preserveAspectRatio="none" style="width:343px;height:370px;" version="1.1" viewBox="0 0 343 370" width="343px" zoomAndPan="magnify"><defs/><g><!--class Knoten--><g class="entity" data-qualified-name="Knoten" data-source-line="5" id="ent0002"><rect fill="#262626" height="92.8906" rx="2.5" ry="2.5" style="stroke:#D4D4D4;stroke-width:1;" width="203.6318" x="12" y="149.3"/><ellipse cx="85.2686" cy="163.3" fill="#262626" rx="9" ry="9" style="stroke:#D4D4D4;stroke-width:1;"/><path d="M88.2373,168.9406 Q87.6592,169.2375 87.0186,169.3781 Q86.3779,169.5344 85.6748,169.5344 Q83.1748,169.5344 81.8467,167.8938 Q80.5342,166.2375 80.5342,163.1125 Q80.5342,159.9875 81.8467,158.3313 Q83.1748,156.675 85.6748,156.675 Q86.3779,156.675 87.0186,156.8313 Q87.6748,156.9875 88.2373,157.2844 L88.2373,160.0031 Q87.6123,159.425 87.0186,159.1594 Q86.4248,158.8781 85.7998,158.8781 Q84.4561,158.8781 83.7686,159.9563 Q83.0811,161.0188 83.0811,163.1125 Q83.0811,165.2063 83.7686,166.2844 Q84.4561,167.3469 85.7998,167.3469 Q86.4248,167.3469 87.0186,167.0813 Q87.6123,166.8 88.2373,166.2219 L88.2373,168.9406 Z " fill="#D4D4D4"/><text fill="#D4D4D4" font-family="Verdana" font-size="14" lengthAdjust="spacing" textLength="49.5947" x="102.7686" y="168.1467">Knoten</text><line style="stroke:#D4D4D4;stroke-width:1;" x1="13" x2="214.6318" y1="177.3" y2="177.3"/><line style="stroke:#D4D4D4;stroke-width:1;" x1="13" x2="214.6318" y1="185.3" y2="185.3"/><text fill="#D4D4D4" font-family="Verdana" font-size="14" lengthAdjust="spacing" textLength="133.9844" x="18" y="202.2951">+Knoten(p : Paket)</text><text fill="#D4D4D4" font-family="Verdana" font-size="14" lengthAdjust="spacing" textLength="185.1172" x="18" y="218.592">+getNachfolger() : Knoten</text><text fill="#D4D4D4" font-family="Verdana" font-size="14" lengthAdjust="spacing" textLength="191.6318" x="18" y="234.8889">+setNachfolger(k : Knoten)</text></g><!--class Foerderband--><g class="entity" data-qualified-name="Foerderband" data-source-line="10" id="ent0003"><rect fill="#262626" height="60.2969" rx="2.5" ry="2.5" style="stroke:#D4D4D4;stroke-width:1;" width="175.1533" x="26.24" y="12"/><ellipse cx="65.3323" cy="26" fill="#262626" rx="9" ry="9" style="stroke:#D4D4D4;stroke-width:1;"/><path d="M68.301,31.6406 Q67.7229,31.9375 67.0823,32.0781 Q66.4417,32.2344 65.7385,32.2344 Q63.2385,32.2344 61.9104,30.5938 Q60.5979,28.9375 60.5979,25.8125 Q60.5979,22.6875 61.9104,21.0313 Q63.2385,19.375 65.7385,19.375 Q66.4417,19.375 67.0823,19.5313 Q67.7385,19.6875 68.301,19.9844 L68.301,22.7031 Q67.676,22.125 67.0823,21.8594 Q66.4885,21.5781 65.8635,21.5781 Q64.5198,21.5781 63.8323,22.6563 Q63.1448,23.7188 63.1448,25.8125 Q63.1448,27.9063 63.8323,28.9844 Q64.5198,30.0469 65.8635,30.0469 Q66.4885,30.0469 67.0823,29.7813 Q67.676,29.5 68.301,28.9219 L68.301,31.6406 Z " fill="#D4D4D4"/><text fill="#D4D4D4" font-family="Verdana" font-size="14" lengthAdjust="spacing" textLength="89.4688" x="82.8323" y="30.8467">Foerderband</text><line style="stroke:#D4D4D4;stroke-width:1;" x1="27.24" x2="200.3933" y1="40" y2="40"/><line style="stroke:#D4D4D4;stroke-width:1;" x1="27.24" x2="200.3933" y1="48" y2="48"/><text fill="#D4D4D4" font-family="Verdana" font-size="14" lengthAdjust="spacing" textLength="163.1533" x="32.24" y="64.9951">+anhaengen(p : Paket)</text></g><!--class Paket--><g class="entity" data-qualified-name="Paket" data-source-line="15" id="ent0006"><rect fill="#262626" height="44" rx="2.5" ry="2.5" style="stroke:#D4D4D4;stroke-width:1;" width="67.2314" x="80.2" y="319.19"/><ellipse cx="93.2" cy="333.19" fill="#262626" rx="9" ry="9" style="stroke:#D4D4D4;stroke-width:1;"/><path d="M96.1688,338.8306 Q95.5906,339.1275 94.95,339.2681 Q94.3094,339.4244 93.6063,339.4244 Q91.1063,339.4244 89.7781,337.7838 Q88.4656,336.1275 88.4656,333.0025 Q88.4656,329.8775 89.7781,328.2213 Q91.1063,326.565 93.6063,326.565 Q94.3094,326.565 94.95,326.7213 Q95.6063,326.8775 96.1688,327.1744 L96.1688,329.8931 Q95.5438,329.315 94.95,329.0494 Q94.3563,328.7681 93.7313,328.7681 Q92.3875,328.7681 91.7,329.8463 Q91.0125,330.9088 91.0125,333.0025 Q91.0125,335.0963 91.7,336.1744 Q92.3875,337.2369 93.7313,337.2369 Q94.3563,337.2369 94.95,336.9713 Q95.5438,336.69 96.1688,336.1119 L96.1688,338.8306 Z " fill="#D4D4D4"/><text fill="#D4D4D4" font-family="Verdana" font-size="14" lengthAdjust="spacing" textLength="39.2314" x="105.2" y="338.0367">Paket</text><line style="stroke:#D4D4D4;stroke-width:1;" x1="81.2" x2="146.4314" y1="347.19" y2="347.19"/><line style="stroke:#D4D4D4;stroke-width:1;" x1="81.2" x2="146.4314" y1="355.19" y2="355.19"/></g><!--link Foerderband to Knoten--><g class="link" data-entity-1="ent0003" data-entity-2="ent0002" data-link-type="dependency" data-source-line="13" id="lnk4"><path codeLine="13" d="M113.82,80.74 C113.82,102.37 113.82,118.11 113.82,142.82" fill="none" id="Foerderband-Knoten" style="stroke:#D4D4D4;stroke-width:1;"/><path d="M109.82,77.74 L117.82,85.74 M117.82,77.74 L109.82,85.74" fill="none" style="stroke:#D4D4D4;stroke-width:1;"/><polygon fill="#D4D4D4" points="113.82,148.82,117.82,139.82,113.82,143.82,109.82,139.82,113.82,148.82" style="stroke:#D4D4D4;stroke-width:1;"/><text fill="#D4D4D4" font-family="Verdana" font-size="13" lengthAdjust="spacing" textLength="33.0015" x="114.82" y="115.3669">-kopf</text><text fill="#D4D4D4" font-family="Verdana" font-size="13" lengthAdjust="spacing" textLength="24.8066" x="88.1898" y="138.2427">0..1</text></g><!--link Knoten to Knoten--><g class="link" data-entity-1="ent0002" data-entity-2="ent0002" data-link-type="dependency" data-source-line="14" id="lnk5"><path codeLine="14" d="M223.8214,181.1454 C244.1214,182.8654 250.63,187.28 250.63,195.74 C250.63,204.21 242.1288,208.7964 221.8288,210.5064" fill="none" id="Knoten-Knoten" style="stroke:#D4D4D4;stroke-width:1;"/><path d="M220.4944,184.8779 L229.1413,177.5818 M221.1699,176.9064 L228.4659,185.5533" fill="none" style="stroke:#D4D4D4;stroke-width:1;"/><polygon fill="#D4D4D4" points="215.85,211.01,225.154,214.2404,220.8324,210.5903,224.4825,206.2687,215.85,211.01" style="stroke:#D4D4D4;stroke-width:1;"/><text fill="#D4D4D4" font-family="Verdana" font-size="13" lengthAdjust="spacing" textLength="74.02" x="256.63" y="200.3069">-nachfolger</text><text fill="#D4D4D4" font-family="Verdana" font-size="13" lengthAdjust="spacing" textLength="24.8066" x="223.5388" y="208.603">0..1</text></g><!--link Knoten to Paket--><g class="link" data-entity-1="ent0002" data-entity-2="ent0006" data-link-type="dependency" data-source-line="15" id="lnk7"><path codeLine="15" d="M113.82,250.53 C113.82,276.11 113.82,292.78 113.82,312.84" fill="none" id="Knoten-Paket" style="stroke:#D4D4D4;stroke-width:1;"/><path d="M109.82,247.53 L117.82,255.53 M117.82,247.53 L109.82,255.53" fill="none" style="stroke:#D4D4D4;stroke-width:1;"/><polygon fill="#D4D4D4" points="113.82,318.84,117.82,309.84,113.82,313.84,109.82,309.84,113.82,318.84" style="stroke:#D4D4D4;stroke-width:1;"/><text fill="#D4D4D4" font-family="Verdana" font-size="13" lengthAdjust="spacing" textLength="41.4565" x="114.82" y="285.2569">-inhalt</text><text fill="#D4D4D4" font-family="Verdana" font-size="13" lengthAdjust="spacing" textLength="8.271" x="104.8308" y="308.2748">1</text></g><?plantuml-src ROx1QiCm38RlVWgjfvQHqbrx6EmoA8Cns1CeZfeOErAG5HWRVVTvmIlDs57-lf_FTpRGID2ccIODR2x7m1CgZj2YZxtAp9sN90gcoBaWMba-OSvFPXhQsUZaXT_39y7XHXc5nGygfMCwaricyC9YnF3b0ExhiPtW26yOoNQmFFTah-Y7iwIUTBihjAuMcbSqNcaPNshaMKWxqXQvgoNa0OdxFx6BkpK_ckOHDeVz_c7p6pn24sKwkth-R_3rDsklI4lenmcbd-mR?></g></svg>