<?plantuml 1.2026.2beta3?><svg xmlns="http://www.w3.org/2000/svg" xmlns:xlink="http://www.w3.org/1999/xlink" contentStyleType="text/css" data-diagram-type="CLASS" height="377px" preserveAspectRatio="none" style="width:338px;height:377px;" version="1.1" viewBox="0 0 338 377" width="338px" zoomAndPan="magnify"><defs/><g><!--class Knoten--><g class="entity" data-qualified-name="Knoten" data-source-line="3" id="ent0002"><rect fill="#313139" height="96.8906" rx="2.5" ry="2.5" style="stroke:#E7E7E7;stroke-width:0.5;" width="203.6318" x="7" y="148.3"/><ellipse cx="79.7686" cy="164.3" fill="#2E5233" rx="11" ry="11" style="stroke:#E7E7E7;stroke-width:1;"/><path d="M82.7373,169.9406 Q82.1592,170.2375 81.5186,170.3781 Q80.8779,170.5344 80.1748,170.5344 Q77.6748,170.5344 76.3467,168.8938 Q75.0342,167.2375 75.0342,164.1125 Q75.0342,160.9875 76.3467,159.3313 Q77.6748,157.675 80.1748,157.675 Q80.8779,157.675 81.5186,157.8313 Q82.1748,157.9875 82.7373,158.2844 L82.7373,161.0031 Q82.1123,160.425 81.5186,160.1594 Q80.9248,159.8781 80.2998,159.8781 Q78.9561,159.8781 78.2686,160.9563 Q77.5811,162.0188 77.5811,164.1125 Q77.5811,166.2063 78.2686,167.2844 Q78.9561,168.3469 80.2998,168.3469 Q80.9248,168.3469 81.5186,168.0813 Q82.1123,167.8 82.7373,167.2219 L82.7373,169.9406 Z " fill="#FFFFFF"/><text fill="#FFFFFF" font-family="sans-serif" font-size="14" lengthAdjust="spacing" textLength="49.5947" x="100.2686" y="169.1467">Knoten</text><line style="stroke:#E7E7E7;stroke-width:0.5;" x1="8" x2="209.6318" y1="180.3" y2="180.3"/><line style="stroke:#E7E7E7;stroke-width:0.5;" x1="8" x2="209.6318" y1="188.3" y2="188.3"/><text fill="#FFFFFF" font-family="sans-serif" font-size="14" lengthAdjust="spacing" textLength="133.9844" x="13" y="205.2951">+Knoten(p : Paket)</text><text fill="#FFFFFF" font-family="sans-serif" font-size="14" lengthAdjust="spacing" textLength="185.1172" x="13" y="221.592">+getNachfolger() : Knoten</text><text fill="#FFFFFF" font-family="sans-serif" font-size="14" lengthAdjust="spacing" textLength="191.6318" x="13" y="237.8889">+setNachfolger(k : Knoten)</text></g><!--class Foerderband--><g class="entity" data-qualified-name="Foerderband" data-source-line="8" id="ent0003"><rect fill="#313139" height="64.2969" rx="2.5" ry="2.5" style="stroke:#E7E7E7;stroke-width:0.5;" width="175.1533" x="21.24" y="7"/><ellipse cx="60.3981" cy="23" fill="#2E5233" rx="11" ry="11" style="stroke:#E7E7E7;stroke-width:1;"/><path d="M63.3668,28.6406 Q62.7887,28.9375 62.1481,29.0781 Q61.5074,29.2344 60.8043,29.2344 Q58.3043,29.2344 56.9762,27.5938 Q55.6637,25.9375 55.6637,22.8125 Q55.6637,19.6875 56.9762,18.0313 Q58.3043,16.375 60.8043,16.375 Q61.5074,16.375 62.1481,16.5313 Q62.8043,16.6875 63.3668,16.9844 L63.3668,19.7031 Q62.7418,19.125 62.1481,18.8594 Q61.5543,18.5781 60.9293,18.5781 Q59.5856,18.5781 58.8981,19.6563 Q58.2106,20.7188 58.2106,22.8125 Q58.2106,24.9063 58.8981,25.9844 Q59.5856,27.0469 60.9293,27.0469 Q61.5543,27.0469 62.1481,26.7813 Q62.7418,26.5 63.3668,25.9219 L63.3668,28.6406 Z " fill="#FFFFFF"/><text fill="#FFFFFF" font-family="sans-serif" font-size="14" lengthAdjust="spacing" textLength="89.4688" x="79.7665" y="27.8467">Foerderband</text><line style="stroke:#E7E7E7;stroke-width:0.5;" x1="22.24" x2="195.3933" y1="39" y2="39"/><line style="stroke:#E7E7E7;stroke-width:0.5;" x1="22.24" x2="195.3933" y1="47" y2="47"/><text fill="#FFFFFF" font-family="sans-serif" font-size="14" lengthAdjust="spacing" textLength="163.1533" x="27.24" y="63.9951">+anhaengen(p : Paket)</text></g><!--class Paket--><g class="entity" data-qualified-name="Paket" data-source-line="13" id="ent0006"><rect fill="#313139" height="48" rx="2.5" ry="2.5" style="stroke:#E7E7E7;stroke-width:0.5;" width="71.2314" x="73.2" y="322.19"/><ellipse cx="88.2" cy="338.19" fill="#2E5233" rx="11" ry="11" style="stroke:#E7E7E7;stroke-width:1;"/><path d="M91.1688,343.8306 Q90.5906,344.1275 89.95,344.2681 Q89.3094,344.4244 88.6063,344.4244 Q86.1063,344.4244 84.7781,342.7838 Q83.4656,341.1275 83.4656,338.0025 Q83.4656,334.8775 84.7781,333.2213 Q86.1063,331.565 88.6063,331.565 Q89.3094,331.565 89.95,331.7213 Q90.6063,331.8775 91.1688,332.1744 L91.1688,334.8931 Q90.5438,334.315 89.95,334.0494 Q89.3563,333.7681 88.7313,333.7681 Q87.3875,333.7681 86.7,334.8463 Q86.0125,335.9088 86.0125,338.0025 Q86.0125,340.0963 86.7,341.1744 Q87.3875,342.2369 88.7313,342.2369 Q89.3563,342.2369 89.95,341.9713 Q90.5438,341.69 91.1688,341.1119 L91.1688,343.8306 Z " fill="#FFFFFF"/><text fill="#FFFFFF" font-family="sans-serif" font-size="14" lengthAdjust="spacing" textLength="39.2314" x="102.2" y="343.0367">Paket</text><line style="stroke:#E7E7E7;stroke-width:0.5;" x1="74.2" x2="143.4314" y1="354.19" y2="354.19"/><line style="stroke:#E7E7E7;stroke-width:0.5;" x1="74.2" x2="143.4314" y1="362.19" y2="362.19"/></g><!--link Foerderband to Knoten--><g class="link" data-entity-1="ent0003" data-entity-2="ent0002" data-link-type="dependency" data-source-line="11" id="lnk4"><path codeLine="11" d="M108.82,79.64 C108.82,101.57 108.82,117.23 108.82,142.05" fill="none" id="Foerderband-Knoten" style="stroke:#E7E7E7;stroke-width:1;"/><path d="M104.82,76.64 L112.82,84.64 M112.82,76.64 L104.82,84.64" fill="none" style="stroke:#E7E7E7;stroke-width:1;"/><polygon fill="#E7E7E7" points="108.82,148.05,112.82,139.05,108.82,143.05,104.82,139.05,108.82,148.05" style="stroke:#E7E7E7;stroke-width:1;"/><text fill="#FFFFFF" font-family="sans-serif" font-size="13" lengthAdjust="spacing" textLength="33.0015" x="109.82" y="114.3669">-kopf</text><text fill="#FFFFFF" font-family="sans-serif" font-size="13" lengthAdjust="spacing" textLength="24.8066" x="83.1898" y="137.2238">0..1</text></g><!--link Knoten to Knoten--><g class="link" data-entity-1="ent0002" data-entity-2="ent0002" data-link-type="dependency" data-source-line="12" id="lnk5"><path codeLine="12" d="M218.8204,181.8071 C239.1204,183.5571 245.63,188.08 245.63,196.74 C245.63,205.41 237.1278,210.1047 216.8278,211.8547" fill="none" id="Knoten-Knoten" style="stroke:#E7E7E7;stroke-width:1;"/><path d="M215.488,185.5347 L224.1455,178.2513 M216.1751,177.5642 L223.4584,186.2218" fill="none" style="stroke:#E7E7E7;stroke-width:1;"/><polygon fill="#E7E7E7" points="210.85,212.37,220.1603,215.5822,215.8315,211.9406,219.4732,207.6118,210.85,212.37" style="stroke:#E7E7E7;stroke-width:1;"/><text fill="#FFFFFF" font-family="sans-serif" font-size="13" lengthAdjust="spacing" textLength="74.02" x="251.63" y="201.3069">-nachfolger</text><text fill="#FFFFFF" font-family="sans-serif" font-size="13" lengthAdjust="spacing" textLength="24.8066" x="218.5388" y="209.9872">0..1</text></g><!--link Knoten to Paket--><g class="link" data-entity-1="ent0002" data-entity-2="ent0006" data-link-type="dependency" data-source-line="13" id="lnk7"><path codeLine="13" d="M108.82,253.62 C108.82,279.18 108.82,295.49 108.82,315.9" fill="none" id="Knoten-Paket" style="stroke:#E7E7E7;stroke-width:1;"/><path d="M104.82,250.62 L112.82,258.62 M112.82,250.62 L104.82,258.62" fill="none" style="stroke:#E7E7E7;stroke-width:1;"/><polygon fill="#E7E7E7" points="108.82,321.9,112.82,312.9,108.82,316.9,104.82,312.9,108.82,321.9" style="stroke:#E7E7E7;stroke-width:1;"/><text fill="#FFFFFF" font-family="sans-serif" font-size="13" lengthAdjust="spacing" textLength="41.4565" x="109.82" y="288.2569">-inhalt</text><text fill="#FFFFFF" font-family="sans-serif" font-size="13" lengthAdjust="spacing" textLength="8.271" x="99.8791" y="311.2343">1</text></g><?plantuml-src ROx12i8m343l_OhWQI8Ry-f1y2A8889Va7NP79tfQ3CGPVzk7NKuyPYy5rwyQRX3XpSeK9lQsPvBRLlhG1oo3uXOb9yitQBtEn7N5BtGGLk-D0-2N8q0Zco569uAO1M7f8CDdD6GB65SroGdrDVAjZMvP1bel1gfdr4pqN0ynCZUaYl95SXbB25VaRZ-YGtgsxodwHOMUPQj5v_W1b9Zkqh5yR_1qpTpBqXZwEqqeT_A2m00?></g></svg>