<?plantuml 1.2026.3beta3?><svg xmlns="http://www.w3.org/2000/svg" xmlns:xlink="http://www.w3.org/1999/xlink" contentStyleType="text/css" data-diagram-type="CLASS" height="385px" preserveAspectRatio="none" style="width:348px;height:385px;" version="1.1" viewBox="0 0 348 385" width="348px" zoomAndPan="magnify"><defs/><g><!--class Waggon--><g class="entity" data-qualified-name="Waggon" data-source-line="3" id="ent0002"><rect fill="#313139" height="96.8906" rx="2.5" ry="2.5" style="stroke:#E7E7E7;stroke-width:0.5;" width="210.1396" x="7" y="148.3"/><ellipse cx="79.0029" cy="164.3" fill="#2E5233" rx="11" ry="11" style="stroke:#E7E7E7;stroke-width:1;"/><path d="M81.9717,169.9406 Q81.3936,170.2375 80.7529,170.3781 Q80.1123,170.5344 79.4092,170.5344 Q76.9092,170.5344 75.5811,168.8938 Q74.2686,167.2375 74.2686,164.1125 Q74.2686,160.9875 75.5811,159.3313 Q76.9092,157.675 79.4092,157.675 Q80.1123,157.675 80.7529,157.8313 Q81.4092,157.9875 81.9717,158.2844 L81.9717,161.0031 Q81.3467,160.425 80.7529,160.1594 Q80.1592,159.8781 79.5342,159.8781 Q78.1904,159.8781 77.5029,160.9563 Q76.8154,162.0188 76.8154,164.1125 Q76.8154,166.2063 77.5029,167.2844 Q78.1904,168.3469 79.5342,168.3469 Q80.1592,168.3469 80.7529,168.0813 Q81.3467,167.8 81.9717,167.2219 L81.9717,169.9406 Z " fill="#FFFFFF"/><text fill="#FFFFFF" font-family="sans-serif" font-size="14" lengthAdjust="spacing" textLength="57.6338" x="99.5029" y="169.1467">Waggon</text><line style="stroke:#E7E7E7;stroke-width:0.5;" x1="8" x2="216.1396" y1="180.3" y2="180.3"/><line style="stroke:#E7E7E7;stroke-width:0.5;" x1="8" x2="216.1396" y1="188.3" y2="188.3"/><text fill="#FFFFFF" font-family="sans-serif" font-size="14" lengthAdjust="spacing" textLength="142.0234" x="13" y="205.2951">+Waggon(p : Paket)</text><text fill="#FFFFFF" font-family="sans-serif" font-size="14" lengthAdjust="spacing" textLength="188.2822" x="13" y="221.592">+getNaechster() : Waggon</text><text fill="#FFFFFF" font-family="sans-serif" font-size="14" lengthAdjust="spacing" textLength="198.1396" x="13" y="237.8889">+setNaechster(w : Waggon)</text></g><!--class Gueterzug--><g class="entity" data-qualified-name="Gueterzug" data-source-line="8" id="ent0003"><rect fill="#313139" height="64.2969" rx="2.5" ry="2.5" style="stroke:#E7E7E7;stroke-width:0.5;" width="175.1533" x="24.49" y="7"/><ellipse cx="71.1658" cy="23" fill="#2E5233" rx="11" ry="11" style="stroke:#E7E7E7;stroke-width:1;"/><path d="M74.1345,28.6406 Q73.5564,28.9375 72.9158,29.0781 Q72.2752,29.2344 71.572,29.2344 Q69.072,29.2344 67.7439,27.5938 Q66.4314,25.9375 66.4314,22.8125 Q66.4314,19.6875 67.7439,18.0313 Q69.072,16.375 71.572,16.375 Q72.2752,16.375 72.9158,16.5313 Q73.572,16.6875 74.1345,16.9844 L74.1345,19.7031 Q73.5095,19.125 72.9158,18.8594 Q72.322,18.5781 71.697,18.5781 Q70.3533,18.5781 69.6658,19.6563 Q68.9783,20.7188 68.9783,22.8125 Q68.9783,24.9063 69.6658,25.9844 Q70.3533,27.0469 71.697,27.0469 Q72.322,27.0469 72.9158,26.7813 Q73.5095,26.5 74.1345,25.9219 L74.1345,28.6406 Z " fill="#FFFFFF"/><text fill="#FFFFFF" font-family="sans-serif" font-size="14" lengthAdjust="spacing" textLength="73.3018" x="91.6658" y="27.8467">Gueterzug</text><line style="stroke:#E7E7E7;stroke-width:0.5;" x1="25.49" x2="198.6433" y1="39" y2="39"/><line style="stroke:#E7E7E7;stroke-width:0.5;" x1="25.49" x2="198.6433" y1="47" y2="47"/><text fill="#FFFFFF" font-family="sans-serif" font-size="14" lengthAdjust="spacing" textLength="163.1533" x="30.49" y="63.9951">+anhaengen(p : Paket)</text></g><!--class Paket--><g class="entity" data-qualified-name="Paket" data-source-line="13" id="ent0006"><rect fill="#313139" height="48" rx="2.5" ry="2.5" style="stroke:#E7E7E7;stroke-width:0.5;" width="71.2314" x="76.45" y="322.19"/><ellipse cx="91.45" cy="338.19" fill="#2E5233" rx="11" ry="11" style="stroke:#E7E7E7;stroke-width:1;"/><path d="M94.4188,343.8306 Q93.8406,344.1275 93.2,344.2681 Q92.5594,344.4244 91.8563,344.4244 Q89.3563,344.4244 88.0281,342.7838 Q86.7156,341.1275 86.7156,338.0025 Q86.7156,334.8775 88.0281,333.2213 Q89.3563,331.565 91.8563,331.565 Q92.5594,331.565 93.2,331.7213 Q93.8563,331.8775 94.4188,332.1744 L94.4188,334.8931 Q93.7938,334.315 93.2,334.0494 Q92.6063,333.7681 91.9813,333.7681 Q90.6375,333.7681 89.95,334.8463 Q89.2625,335.9088 89.2625,338.0025 Q89.2625,340.0963 89.95,341.1744 Q90.6375,342.2369 91.9813,342.2369 Q92.6063,342.2369 93.2,341.9713 Q93.7938,341.69 94.4188,341.1119 L94.4188,343.8306 Z " fill="#FFFFFF"/><text fill="#FFFFFF" font-family="sans-serif" font-size="14" lengthAdjust="spacing" textLength="39.2314" x="105.45" y="343.0367">Paket</text><line style="stroke:#E7E7E7;stroke-width:0.5;" x1="77.45" x2="146.6814" y1="354.19" y2="354.19"/><line style="stroke:#E7E7E7;stroke-width:0.5;" x1="77.45" x2="146.6814" y1="362.19" y2="362.19"/></g><!--link Gueterzug to Waggon--><g class="link" data-entity-1="ent0003" data-entity-2="ent0002" data-link-type="dependency" data-source-line="11" id="lnk4"><path codeLine="11" d="M112.07,79.64 C112.07,101.57 112.07,117.23 112.07,142.05" fill="none" id="Gueterzug-Waggon" style="stroke:#E7E7E7;stroke-width:1;"/><path d="M108.07,76.64 L116.07,84.64 M116.07,76.64 L108.07,84.64" fill="none" style="stroke:#E7E7E7;stroke-width:1;"/><polygon fill="#E7E7E7" points="112.07,148.05,116.07,139.05,112.07,143.05,108.07,139.05,112.07,148.05" style="stroke:#E7E7E7;stroke-width:1;"/><text fill="#FFFFFF" font-family="sans-serif" font-size="13" lengthAdjust="spacing" textLength="76.7559" x="113.07" y="114.3669">-lokomotive</text><text fill="#FFFFFF" font-family="sans-serif" font-size="13" lengthAdjust="spacing" textLength="24.8066" x="86.4392" y="137.2238">0..1</text></g><!--link Waggon to Waggon--><g class="link" data-entity-1="ent0002" data-entity-2="ent0002" data-link-type="dependency" data-source-line="12" id="lnk5"><path codeLine="12" d="M225.4074,181.9118 C245.7174,183.7518 252.14,188.21 252.14,196.74 C252.14,205.28 243.7258,209.9216 223.4158,211.7516" fill="none" id="Waggon-Waggon" style="stroke:#E7E7E7;stroke-width:1;"/><path d="M222.0587,185.6248 L230.7479,178.3793 M222.7805,177.6574 L230.0261,186.3466" fill="none" style="stroke:#E7E7E7;stroke-width:1;"/><polygon fill="#E7E7E7" points="217.44,212.29,226.7626,215.4662,222.4198,211.8413,226.0447,207.4985,217.44,212.29" style="stroke:#E7E7E7;stroke-width:1;"/><text fill="#FFFFFF" font-family="sans-serif" font-size="13" lengthAdjust="spacing" textLength="69.4941" x="258.14" y="201.3069">-naechster</text><text fill="#FFFFFF" font-family="sans-serif" font-size="13" lengthAdjust="spacing" textLength="24.8066" x="224.9849" y="209.8765">0..1</text></g><!--link Waggon to Paket--><g class="link" data-entity-1="ent0002" data-entity-2="ent0006" data-link-type="dependency" data-source-line="13" id="lnk7"><path codeLine="13" d="M112.07,253.62 C112.07,279.18 112.07,295.49 112.07,315.9" fill="none" id="Waggon-Paket" style="stroke:#E7E7E7;stroke-width:1;"/><path d="M108.07,250.62 L116.07,258.62 M116.07,250.62 L108.07,258.62" fill="none" style="stroke:#E7E7E7;stroke-width:1;"/><polygon fill="#E7E7E7" points="112.07,321.9,116.07,312.9,112.07,316.9,108.07,312.9,112.07,321.9" style="stroke:#E7E7E7;stroke-width:1;"/><text fill="#FFFFFF" font-family="sans-serif" font-size="13" lengthAdjust="spacing" textLength="49.2515" x="113.07" y="288.2569">-ladung</text><text fill="#FFFFFF" font-family="sans-serif" font-size="13" lengthAdjust="spacing" textLength="8.271" x="103.1291" y="311.2343">1</text></g><?plantuml-src ROwn2i8m443tVCNXf4X5rmw2axY8uE1yZKSihHT9BYgL_hiXf5N1CVVUvPrlQhwXmojKg1lZRE2pjgrr80xPHqGioe-MRj7xZOYhgo2qqvQFTKUmL0d02Osn32y5CC-FwGrAE613CeCqDYHx97tnGcuwYp0l9UY_uME4SRNFYMsWoBfWSWNvWiI6VaEz-dZFebZ3PBbOh2P3guIYjOszMgdlfFBmlyV3ERzQT58hVONdmEOD?></g></svg>