<?plantuml 1.2026.2beta3?><svg xmlns="http://www.w3.org/2000/svg" xmlns:xlink="http://www.w3.org/1999/xlink" contentStyleType="text/css" data-diagram-type="SEQUENCE" height="421px" preserveAspectRatio="none" style="width:518px;height:421px;" version="1.1" viewBox="0 0 518 421" width="518px" zoomAndPan="magnify"><defs/><g><g><title>server. SmartHomeServer</title><rect fill="#FFFFFF" height="329.0625" style="stroke:#E7E7E7;stroke-width:1;" width="10" x="102.0527" y="67.4297"/></g><g><title>ss. ServerSocket</title><rect fill="#FFFFFF" height="29.1328" style="stroke:#E7E7E7;stroke-width:1;" width="10" x="276.1084" y="96.5625"/></g><g><title>clientSocket. Socket</title><rect fill="#FFFFFF" height="30" style="stroke:#E7E7E7;stroke-width:1;" width="10" x="429.7896" y="154.8281"/></g><g><title>clientSocket. Socket</title><rect fill="#FFFFFF" height="29.1328" style="stroke:#E7E7E7;stroke-width:1;" width="10" x="429.7896" y="213.9609"/></g><g><title>clientSocket. Socket</title><rect fill="#FFFFFF" height="30" style="stroke:#E7E7E7;stroke-width:1;" width="10" x="429.7896" y="307.3594"/></g><g><title>clientSocket. Socket</title><rect fill="#FFFFFF" height="30" style="stroke:#E7E7E7;stroke-width:1;" width="10" x="429.7896" y="366.4922"/></g><g class="participant-lifeline" data-entity-uid="part1" data-qualified-name="S" id="part1-lifeline"><g><title>server. SmartHomeServer</title><rect fill="#000000" fill-opacity="0.00000" height="378.1953" width="8" x="103.0527" y="36.2969"/><line style="stroke:#E7E7E7;stroke-width:0.5;stroke-dasharray:5,5;" x1="106.5093" x2="106.5093" y1="36.2969" y2="414.4922"/></g></g><g class="participant-lifeline" data-entity-uid="part2" data-qualified-name="SS" id="part2-lifeline"><g><title>ss. ServerSocket</title><rect fill="#000000" fill-opacity="0.00000" height="378.1953" width="8" x="277.1084" y="36.2969"/><line style="stroke:#E7E7E7;stroke-width:0.5;stroke-dasharray:5,5;" x1="280.5962" x2="280.5962" y1="36.2969" y2="414.4922"/></g></g><g class="participant-lifeline" data-entity-uid="part3" data-qualified-name="CS" id="part3-lifeline"><g><title>clientSocket. Socket</title><rect fill="#000000" fill-opacity="0.00000" height="378.1953" width="8" x="430.7896" y="36.2969"/><line style="stroke:#E7E7E7;stroke-width:0.5;stroke-dasharray:5,5;" x1="434.6206" x2="434.6206" y1="36.2969" y2="414.4922"/></g></g><g class="participant participant-head" data-entity-uid="part1" data-qualified-name="S" id="part1-head"><rect fill="#222222" height="30.2969" rx="2.5" ry="2.5" style="stroke:#E7E7E7;stroke-width:0.5;" width="197.0869" x="8.5093" y="5"/><text fill="#FFFFFF" font-family="sans-serif" font-size="14" lengthAdjust="spacing" textLength="183.0869" x="15.5093" y="24.9951">server: SmartHomeServer</text></g><g class="participant participant-head" data-entity-uid="part2" data-qualified-name="SS" id="part2-head"><rect fill="#222222" height="30.2969" rx="2.5" ry="2.5" style="stroke:#E7E7E7;stroke-width:0.5;" width="131.0244" x="215.5962" y="5"/><text fill="#FFFFFF" font-family="sans-serif" font-size="14" lengthAdjust="spacing" textLength="117.0244" x="222.5962" y="24.9951">ss: ServerSocket</text></g><g class="participant participant-head" data-entity-uid="part3" data-qualified-name="CS" id="part3-head"><rect fill="#222222" height="30.2969" rx="2.5" ry="2.5" style="stroke:#E7E7E7;stroke-width:0.5;" width="156.3379" x="356.6206" y="5"/><text fill="#FFFFFF" font-family="sans-serif" font-size="14" lengthAdjust="spacing" textLength="142.3379" x="363.6206" y="24.9951">clientSocket: Socket</text></g><g><title>server. SmartHomeServer</title><rect fill="#FFFFFF" height="329.0625" style="stroke:#E7E7E7;stroke-width:1;" width="10" x="102.0527" y="67.4297"/></g><g><title>ss. ServerSocket</title><rect fill="#FFFFFF" height="29.1328" style="stroke:#E7E7E7;stroke-width:1;" width="10" x="276.1084" y="96.5625"/></g><g><title>clientSocket. Socket</title><rect fill="#FFFFFF" height="30" style="stroke:#E7E7E7;stroke-width:1;" width="10" x="429.7896" y="154.8281"/></g><g><title>clientSocket. Socket</title><rect fill="#FFFFFF" height="29.1328" style="stroke:#E7E7E7;stroke-width:1;" width="10" x="429.7896" y="213.9609"/></g><g><title>clientSocket. Socket</title><rect fill="#FFFFFF" height="30" style="stroke:#E7E7E7;stroke-width:1;" width="10" x="429.7896" y="307.3594"/></g><g><title>clientSocket. Socket</title><rect fill="#FFFFFF" height="30" style="stroke:#E7E7E7;stroke-width:1;" width="10" x="429.7896" y="366.4922"/></g><g class="message" data-entity-1="part1" data-entity-2="part1" id="msg1"><polygon fill="#E7E7E7" points="90.0527,63.4297,100.0527,67.4297,90.0527,71.4297,94.0527,67.4297" style="stroke:#E7E7E7;stroke-width:1;"/><line style="stroke:#E7E7E7;stroke-width:1;" x1="0" x2="96.0527" y1="67.4297" y2="67.4297"/><text fill="#FFFFFF" font-family="sans-serif" font-size="13" lengthAdjust="spacing" textLength="83.0527" x="7" y="62.3638">startServer()</text></g><g class="message" data-entity-1="part1" data-entity-2="part2" id="msg2"><polygon fill="#E7E7E7" points="264.1084,92.5625,274.1084,96.5625,264.1084,100.5625,268.1084,96.5625" style="stroke:#E7E7E7;stroke-width:1;"/><line style="stroke:#E7E7E7;stroke-width:1;" x1="112.0527" x2="270.1084" y1="96.5625" y2="96.5625"/><text fill="#FFFFFF" font-family="sans-serif" font-size="13" lengthAdjust="spacing" textLength="53.752" x="119.0527" y="91.4966">accept()</text></g><g class="message" data-entity-1="part2" data-entity-2="part1" id="msg3"><polygon fill="#E7E7E7" points="123.0527,121.6953,113.0527,125.6953,123.0527,129.6953,119.0527,125.6953" style="stroke:#E7E7E7;stroke-width:1;"/><line style="stroke:#E7E7E7;stroke-width:1;stroke-dasharray:2,2;" x1="117.0527" x2="280.1084" y1="125.6953" y2="125.6953"/><text fill="#FFFFFF" font-family="sans-serif" font-size="13" lengthAdjust="spacing" textLength="79.6821" x="129.0527" y="120.6294">clientSocket</text></g><g class="message" data-entity-1="part1" data-entity-2="part3" id="msg4"><polygon fill="#E7E7E7" points="417.7896,150.8281,427.7896,154.8281,417.7896,158.8281,421.7896,154.8281" style="stroke:#E7E7E7;stroke-width:1;"/><line style="stroke:#E7E7E7;stroke-width:1;" x1="112.0527" x2="423.7896" y1="154.8281" y2="154.8281"/><text fill="#FFFFFF" font-family="sans-serif" font-size="13" lengthAdjust="spacing" textLength="200.8145" x="119.0527" y="149.7622">write("+OK Smart Home Hub")</text></g><g class="message" data-entity-1="part1" data-entity-2="part3" id="msg5"><polygon fill="#E7E7E7" points="417.7896,209.9609,427.7896,213.9609,417.7896,217.9609,421.7896,213.9609" style="stroke:#E7E7E7;stroke-width:1;"/><line style="stroke:#E7E7E7;stroke-width:1;" x1="112.0527" x2="423.7896" y1="213.9609" y2="213.9609"/><text fill="#FFFFFF" font-family="sans-serif" font-size="13" lengthAdjust="spacing" textLength="66.7964" x="119.0527" y="208.895">readLine()</text></g><g class="message" data-entity-1="part3" data-entity-2="part1" id="msg6"><polygon fill="#E7E7E7" points="123.0527,239.0938,113.0527,243.0938,123.0527,247.0938,119.0527,243.0938" style="stroke:#E7E7E7;stroke-width:1;"/><line style="stroke:#E7E7E7;stroke-width:1;stroke-dasharray:2,2;" x1="117.0527" x2="433.7896" y1="243.0938" y2="243.0938"/><text fill="#FFFFFF" font-family="sans-serif" font-size="13" lengthAdjust="spacing" textLength="40.6758" x="129.0527" y="238.0278">befehl</text></g><path d="M117,256.0938 L117,281.0938 L292,281.0938 L292,266.0938 L282,256.0938 L117,256.0938" fill="#714137" style="stroke:#E7E7E7;stroke-width:0.5;"/><path d="M282,256.0938 L282,266.0938 L292,266.0938 L282,256.0938" fill="#714137" style="stroke:#E7E7E7;stroke-width:0.5;"/><text fill="#FFFFFF" font-family="sans-serif" font-size="13" lengthAdjust="spacing" textLength="154.8257" x="123" y="273.1606">id = befehl.substring(6)</text><g class="message" data-entity-1="part1" data-entity-2="part3" id="msg7"><polygon fill="#E7E7E7" points="417.7896,303.3594,427.7896,307.3594,417.7896,311.3594,421.7896,307.3594" style="stroke:#E7E7E7;stroke-width:1;"/><line style="stroke:#E7E7E7;stroke-width:1;" x1="112.0527" x2="423.7896" y1="307.3594" y2="307.3594"/><text fill="#FFFFFF" font-family="sans-serif" font-size="13" lengthAdjust="spacing" textLength="158.4438" x="119.0527" y="302.2935">write("+ACK " + id + "")</text></g><g class="message" data-entity-1="part1" data-entity-2="part3" id="msg8"><polygon fill="#E7E7E7" points="417.7896,362.4922,427.7896,366.4922,417.7896,370.4922,421.7896,366.4922" style="stroke:#E7E7E7;stroke-width:1;"/><line style="stroke:#E7E7E7;stroke-width:1;" x1="112.0527" x2="423.7896" y1="366.4922" y2="366.4922"/><text fill="#FFFFFF" font-family="sans-serif" font-size="13" lengthAdjust="spacing" textLength="43.6274" x="119.0527" y="361.4263">close()</text></g><?plantuml-src ZP51QuGm48Nl-HL3JegqzDJ3GWkBborRw26_8CPHmseYoRWj_VKTTUb6wQ6dmBpllRn9uiMwKGSzGANDfGr-ShNnlGz0GRl84ZeIyPSolOxnI1HiDH6-6U-K_KPu4fsj4HhlgV9VWbconexQ4SY8uOhX06hWwSaFg9Q111r1xT38sA8gRov8AxE3J6-vqmemVWTB9SJ3AoWuG2Hsh4bP3a8RibTDoFSfc96PqSRWI5cUg2opVij8xn4rRgWvf9oXps09CrbydDVzO5uGJbCbarmkblZBr1zGr-_MORR5otkD2Xli-bs0ytm6stO4lbamMyFBZNsCKnNvXroRFUT_T3sMPv1Gp9O2v3-Bcjx7VSijcpxH3m00?></g></svg>