<svg xmlns="http://www.w3.org/2000/svg" xmlns:xlink="http://www.w3.org/1999/xlink" contentStyleType="text/css" data-diagram-type="CLASS" height="466px" preserveAspectRatio="none" style="width:746px;height:466px;" version="1.1" viewBox="0 0 746 466" width="746px" zoomAndPan="magnify"><?plantuml 1.2026.3beta4?><defs/><g><!--class SmartHomeServer--><g class="entity" data-qualified-name="SmartHomeServer" data-source-line="5" id="ent0002"><rect fill="#313139" height="96.8906" rx="2.5" ry="2.5" style="stroke:#E7E7E7;stroke-width:0.5;" width="385.9531" x="345.09" y="7"/><ellipse cx="469.0153" cy="23" fill="#2E5233" rx="11" ry="11" style="stroke:#E7E7E7;stroke-width:1;"/><path d="M471.984,28.6406 Q471.4059,28.9375 470.7653,29.0781 Q470.1247,29.2344 469.4215,29.2344 Q466.9215,29.2344 465.5934,27.5938 Q464.2809,25.9375 464.2809,22.8125 Q464.2809,19.6875 465.5934,18.0313 Q466.9215,16.375 469.4215,16.375 Q470.1247,16.375 470.7653,16.5313 Q471.4215,16.6875 471.984,16.9844 L471.984,19.7031 Q471.359,19.125 470.7653,18.8594 Q470.1715,18.5781 469.5465,18.5781 Q468.2028,18.5781 467.5153,19.6563 Q466.8278,20.7188 466.8278,22.8125 Q466.8278,24.9063 467.5153,25.9844 Q468.2028,27.0469 469.5465,27.0469 Q470.1715,27.0469 470.7653,26.7813 Q471.359,26.5 471.984,25.9219 L471.984,28.6406 Z " fill="#FFFFFF"/><text fill="#FFFFFF" font-family="sans-serif" font-size="14" lengthAdjust="spacing" textLength="129.6025" x="489.5153" y="27.8467">SmartHomeServer</text><line style="stroke:#E7E7E7;stroke-width:0.5;" x1="346.09" x2="730.0431" y1="39" y2="39"/><text fill="#FFFFFF" font-family="sans-serif" font-size="14" lengthAdjust="spacing" textLength="65.6182" x="351.09" y="55.9951">-port : int</text><line style="stroke:#E7E7E7;stroke-width:0.5;" x1="346.09" x2="730.0431" y1="63.2969" y2="63.2969"/><text fill="#FFFFFF" font-family="sans-serif" font-size="14" lengthAdjust="spacing" textLength="373.9531" x="351.09" y="80.292">+SmartHomeServer(port : int, hub : SmartHomeHub)</text><text fill="#FFFFFF" font-family="sans-serif" font-size="14" lengthAdjust="spacing" textLength="92.0664" x="351.09" y="96.5889">+runServer()</text></g><!--class ServerThread--><g class="entity" data-qualified-name="ServerThread" data-source-line="10" id="ent0003"><rect fill="#313139" height="80.5938" rx="2.5" ry="2.5" style="stroke:#E7E7E7;stroke-width:0.5;" width="366.9219" x="93.61" y="180.89"/><ellipse cx="225.236" cy="196.89" fill="#2E5233" rx="11" ry="11" style="stroke:#E7E7E7;stroke-width:1;"/><path d="M228.2047,202.5306 Q227.6266,202.8275 226.986,202.9681 Q226.3454,203.1244 225.6422,203.1244 Q223.1422,203.1244 221.8141,201.4838 Q220.5016,199.8275 220.5016,196.7025 Q220.5016,193.5775 221.8141,191.9213 Q223.1422,190.265 225.6422,190.265 Q226.3454,190.265 226.986,190.4213 Q227.6422,190.5775 228.2047,190.8744 L228.2047,193.5931 Q227.5797,193.015 226.986,192.7494 Q226.3922,192.4681 225.7672,192.4681 Q224.4235,192.4681 223.736,193.5463 Q223.0485,194.6088 223.0485,196.7025 Q223.0485,198.7963 223.736,199.8744 Q224.4235,200.9369 225.7672,200.9369 Q226.3922,200.9369 226.986,200.6713 Q227.5797,200.39 228.2047,199.8119 L228.2047,202.5306 Z " fill="#FFFFFF"/><text fill="#FFFFFF" font-family="sans-serif" font-size="14" lengthAdjust="spacing" textLength="95.1699" x="245.736" y="201.7367">ServerThread</text><line style="stroke:#E7E7E7;stroke-width:0.5;" x1="94.61" x2="459.5319" y1="212.89" y2="212.89"/><line style="stroke:#E7E7E7;stroke-width:0.5;" x1="94.61" x2="459.5319" y1="220.89" y2="220.89"/><text fill="#FFFFFF" font-family="sans-serif" font-size="14" lengthAdjust="spacing" textLength="354.9219" x="99.61" y="237.8851">+ServerThread(cs : Socket, hub : SmartHomeHub)</text><text fill="#FFFFFF" font-family="sans-serif" font-size="14" lengthAdjust="spacing" textLength="46.1563" x="99.61" y="254.182">+run()</text></g><!--class Thread--><g class="entity" data-qualified-name="Thread" data-source-line="14" id="ent0004"><rect fill="#313139" height="80.5938" rx="2.5" ry="2.5" style="stroke:#E7E7E7;stroke-width:0.5;" width="81.2598" x="228.44" y="15.15"/><ellipse cx="243.44" cy="31.15" fill="#2E5233" rx="11" ry="11" style="stroke:#E7E7E7;stroke-width:1;"/><path d="M246.4088,36.7906 Q245.8306,37.0875 245.19,37.2281 Q244.5494,37.3844 243.8463,37.3844 Q241.3463,37.3844 240.0181,35.7438 Q238.7056,34.0875 238.7056,30.9625 Q238.7056,27.8375 240.0181,26.1813 Q241.3463,24.525 243.8463,24.525 Q244.5494,24.525 245.19,24.6813 Q245.8463,24.8375 246.4088,25.1344 L246.4088,27.8531 Q245.7838,27.275 245.19,27.0094 Q244.5963,26.7281 243.9713,26.7281 Q242.6275,26.7281 241.94,27.8063 Q241.2525,28.8688 241.2525,30.9625 Q241.2525,33.0563 241.94,34.1344 Q242.6275,35.1969 243.9713,35.1969 Q244.5963,35.1969 245.19,34.9313 Q245.7838,34.65 246.4088,34.0719 L246.4088,36.7906 Z " fill="#FFFFFF"/><text fill="#FFFFFF" font-family="sans-serif" font-size="14" lengthAdjust="spacing" textLength="49.2598" x="257.44" y="35.9967">Thread</text><line style="stroke:#E7E7E7;stroke-width:0.5;" x1="229.44" x2="308.6998" y1="47.15" y2="47.15"/><line style="stroke:#E7E7E7;stroke-width:0.5;" x1="229.44" x2="308.6998" y1="55.15" y2="55.15"/><text fill="#FFFFFF" font-family="sans-serif" font-size="14" lengthAdjust="spacing" textLength="55.2617" x="234.44" y="72.1451">+start()</text><text fill="#FFFFFF" font-family="sans-serif" font-size="14" lengthAdjust="spacing" textLength="46.1563" x="234.44" y="88.442">+run()</text></g><!--class SmartHomeHub--><g class="entity" data-qualified-name="SmartHomeHub" data-source-line="18" id="ent0005"><rect fill="#313139" height="64.2969" rx="2.5" ry="2.5" style="stroke:#E7E7E7;stroke-width:0.5;" width="146.6338" x="460.75" y="362.93"/><ellipse cx="476.9444" cy="378.93" fill="#2E5233" rx="11" ry="11" style="stroke:#E7E7E7;stroke-width:1;"/><path d="M479.9132,384.5706 Q479.3351,384.8675 478.6944,385.0081 Q478.0538,385.1644 477.3507,385.1644 Q474.8507,385.1644 473.5226,383.5238 Q472.2101,381.8675 472.2101,378.7425 Q472.2101,375.6175 473.5226,373.9613 Q474.8507,372.305 477.3507,372.305 Q478.0538,372.305 478.6944,372.4613 Q479.3507,372.6175 479.9132,372.9144 L479.9132,375.6331 Q479.2882,375.055 478.6944,374.7894 Q478.1007,374.5081 477.4757,374.5081 Q476.1319,374.5081 475.4444,375.5863 Q474.7569,376.6488 474.7569,378.7425 Q474.7569,380.8363 475.4444,381.9144 Q476.1319,382.9769 477.4757,382.9769 Q478.1007,382.9769 478.6944,382.7113 Q479.2882,382.43 479.9132,381.8519 L479.9132,384.5706 Z " fill="#FFFFFF"/><text fill="#FFFFFF" font-family="sans-serif" font-size="14" lengthAdjust="spacing" textLength="111.9795" x="491.2099" y="383.7767">SmartHomeHub</text><line style="stroke:#E7E7E7;stroke-width:0.5;" x1="461.75" x2="606.3838" y1="394.93" y2="394.93"/><line style="stroke:#E7E7E7;stroke-width:0.5;" x1="461.75" x2="606.3838" y1="402.93" y2="402.93"/><text fill="#FFFFFF" font-family="sans-serif" font-size="14" lengthAdjust="spacing" textLength="134.6338" x="466.75" y="419.9251">+SmartHomeHub()</text></g><!--class Socket--><g class="entity" data-qualified-name="Socket" data-source-line="21" id="ent0006"><rect fill="#313139" height="113.1875" rx="2.5" ry="2.5" style="stroke:#E7E7E7;stroke-width:0.5;" width="212.1357" x="7" y="338.48"/><ellipse cx="85.1382" cy="354.48" fill="#2E5233" rx="11" ry="11" style="stroke:#E7E7E7;stroke-width:1;"/><path d="M88.1069,360.1206 Q87.5288,360.4175 86.8882,360.5581 Q86.2476,360.7144 85.5444,360.7144 Q83.0444,360.7144 81.7163,359.0738 Q80.4038,357.4175 80.4038,354.2925 Q80.4038,351.1675 81.7163,349.5113 Q83.0444,347.855 85.5444,347.855 Q86.2476,347.855 86.8882,348.0113 Q87.5444,348.1675 88.1069,348.4644 L88.1069,351.1831 Q87.4819,350.605 86.8882,350.3394 Q86.2944,350.0581 85.6694,350.0581 Q84.3257,350.0581 83.6382,351.1363 Q82.9507,352.1988 82.9507,354.2925 Q82.9507,356.3863 83.6382,357.4644 Q84.3257,358.5269 85.6694,358.5269 Q86.2944,358.5269 86.8882,358.2613 Q87.4819,357.98 88.1069,357.4019 L88.1069,360.1206 Z " fill="#FFFFFF"/><text fill="#FFFFFF" font-family="sans-serif" font-size="14" lengthAdjust="spacing" textLength="47.3594" x="105.6382" y="359.3267">Socket</text><line style="stroke:#E7E7E7;stroke-width:0.5;" x1="8" x2="218.1357" y1="370.48" y2="370.48"/><text fill="#FFFFFF" font-family="sans-serif" font-size="14" lengthAdjust="spacing" textLength="155.5723" x="13" y="387.4751">-remoteHostIP : String</text><text fill="#FFFFFF" font-family="sans-serif" font-size="14" lengthAdjust="spacing" textLength="115.8486" x="13" y="403.772">-remotePort : int</text><line style="stroke:#E7E7E7;stroke-width:0.5;" x1="8" x2="218.1357" y1="411.0738" y2="411.0738"/><text fill="#FFFFFF" font-family="sans-serif" font-size="14" lengthAdjust="spacing" textLength="200.1357" x="13" y="428.0689">+getRemoteHostIP() : String</text><text fill="#FFFFFF" font-family="sans-serif" font-size="14" lengthAdjust="spacing" textLength="160.4121" x="13" y="444.3657">+getRemotePort() : int</text></g><!--entity Netzwerk--><g class="entity" data-qualified-name="Netzwerk" data-source-line="27" id="ent0007"><path d="M339.7978,380.2268 C343.6743,375.1658 348.7942,375.1415 352.2343,380.7361 C354.5574,373.9508 360.4686,371.9173 365.5289,377.8821 C369.7846,371.9412 375.4775,369.9921 379.9897,377.6086 C384.2231,373.301 389.1657,373.6409 391.6355,379.6077 C396.9782,373.0034 401.2583,372.7972 405.3988,380.7447 C409.5764,375.2163 415.2871,375.1218 418.7857,381.5076 C427.8013,382.6296 429.701,390.2954 424.7475,396.8467 C430.0456,404.069 426.8948,409.3397 418.5491,410.2542 C415.5649,416.8837 410.9174,418.9289 405.2431,413.1356 C401.7792,418.6578 398.2279,419.2841 393.3523,414.8159 C389.5386,421.9316 384.3281,423.4243 378.4487,417.1079 C374.1935,423.0301 369.765,422.2031 366.7896,415.8885 C360.957,422.0004 355.3021,422.0727 351.8937,413.4395 C347.7329,418.3255 342.4787,416.5979 340.1948,411.2863 C331.4185,409.8403 330.5958,403.0342 335.5383,397.0887 C329.6574,390.1161 331.3009,383.5675 339.7978,380.2268" fill="#313139" style="stroke:#E7E7E7;stroke-width:0.5;"/><text fill="#FFFFFF" font-family="sans-serif" font-size="14" lengthAdjust="spacing" textLength="65.8506" x="345.14" y="399.9251">Netzwerk</text></g><!--class ServerSocket--><g class="entity" data-qualified-name="ServerSocket" data-source-line="28" id="ent0008"><rect fill="#313139" height="48" rx="2.5" ry="2.5" style="stroke:#E7E7E7;stroke-width:0.5;" width="125.2695" x="600.43" y="197.19"/><ellipse cx="615.43" cy="213.19" fill="#2E5233" rx="11" ry="11" style="stroke:#E7E7E7;stroke-width:1;"/><path d="M618.3988,218.8306 Q617.8206,219.1275 617.18,219.2681 Q616.5394,219.4244 615.8363,219.4244 Q613.3363,219.4244 612.0081,217.7838 Q610.6956,216.1275 610.6956,213.0025 Q610.6956,209.8775 612.0081,208.2213 Q613.3363,206.565 615.8363,206.565 Q616.5394,206.565 617.18,206.7213 Q617.8363,206.8775 618.3988,207.1744 L618.3988,209.8931 Q617.7738,209.315 617.18,209.0494 Q616.5863,208.7681 615.9613,208.7681 Q614.6175,208.7681 613.93,209.8463 Q613.2425,210.9088 613.2425,213.0025 Q613.2425,215.0963 613.93,216.1744 Q614.6175,217.2369 615.9613,217.2369 Q616.5863,217.2369 617.18,216.9713 Q617.7738,216.69 618.3988,216.1119 L618.3988,218.8306 Z " fill="#FFFFFF"/><text fill="#FFFFFF" font-family="sans-serif" font-size="14" lengthAdjust="spacing" textLength="93.2695" x="629.43" y="218.0367">ServerSocket</text><line style="stroke:#E7E7E7;stroke-width:0.5;" x1="601.43" x2="724.6995" y1="229.19" y2="229.19"/><line style="stroke:#E7E7E7;stroke-width:0.5;" x1="601.43" x2="724.6995" y1="237.19" y2="237.19"/></g><!--link SmartHomeServer to ServerSocket--><g class="link" data-entity-1="ent0002" data-entity-2="ent0008" data-link-type="dependency" data-source-line="28" id="lnk9"><path codeLine="28" d="M579.4134,110.5996 C602.6134,140.9996 623.1498,167.8904 641.4898,191.9204" fill="none" id="SmartHomeServer-ServerSocket" style="stroke:#E7E7E7;stroke-width:1;"/><path d="M574.4136,110.6414 L585.6266,112.1477 M580.7732,105.7881 L579.2669,117.0011" fill="none" style="stroke:#E7E7E7;stroke-width:1;"/><polygon fill="#E7E7E7" points="645.13,196.69,642.8494,187.1088,642.0965,192.7153,636.49,191.9624,645.13,196.69" style="stroke:#E7E7E7;stroke-width:1;"/><text fill="#FFFFFF" font-family="sans-serif" font-size="13" lengthAdjust="spacing" textLength="89.8193" x="608.07" y="146.9569">-serverSocket</text><text fill="#FFFFFF" font-family="sans-serif" font-size="13" lengthAdjust="spacing" textLength="8.271" x="631.8164" y="185.9731">1</text></g><!--link SmartHomeServer to ServerThread--><g class="link" data-entity-1="ent0002" data-entity-2="ent0003" data-link-type="dependency" data-source-line="29" id="lnk10"><path codeLine="29" d="M461.87,104.24 C423.2,128.5 381.8724,154.431 345.2324,177.421" fill="none" id="SmartHomeServer-to-ServerThread" style="stroke:#E7E7E7;stroke-width:1;stroke-dasharray:7,7;"/><polygon fill="#E7E7E7" points="340.15,180.61,349.8995,179.2148,344.3853,177.9525,345.6476,172.4383,340.15,180.61" style="stroke:#E7E7E7;stroke-width:1;"/><text fill="#FFFFFF" font-family="sans-serif" font-size="13" lengthAdjust="spacing" textLength="64.2319" x="409.07" y="146.9569">&#171;creates&#187;</text></g><!--reverse link Thread to ServerThread--><g class="link" data-entity-1="ent0004" data-entity-2="ent0003" data-link-type="extension" data-source-line="30" id="lnk12"><path codeLine="30" d="M271.8831,114.0583 C273.1431,139.7083 273.88,155 275.14,180.63" fill="none" id="Thread-backto-ServerThread" style="stroke:#E7E7E7;stroke-width:1;"/><polygon fill="none" points="271,96.08,265.8904,114.3527,277.8759,113.7639,271,96.08" style="stroke:#E7E7E7;stroke-width:1;"/></g><!--link ServerThread to Socket--><g class="link" data-entity-1="ent0003" data-entity-2="ent0006" data-link-type="dependency" data-source-line="31" id="lnk13"><path codeLine="31" d="M233.9186,267.4092 C212.2686,290.1092 194.3616,308.8687 170.5116,333.8687" fill="none" id="ServerThread-Socket" style="stroke:#E7E7E7;stroke-width:1;"/><path d="M233.0946,262.4775 L233.3623,273.7881 M238.8837,267.9989 L227.5732,268.2667" fill="none" style="stroke:#E7E7E7;stroke-width:1;"/><polygon fill="#E7E7E7" points="166.37,338.21,175.4766,334.4591,169.8213,334.5922,169.6882,328.9369,166.37,338.21" style="stroke:#E7E7E7;stroke-width:1;"/><text fill="#FFFFFF" font-family="sans-serif" font-size="13" lengthAdjust="spacing" textLength="84.373" x="211.07" y="304.5469">-clientSocket</text><text fill="#FFFFFF" font-family="sans-serif" font-size="13" lengthAdjust="spacing" textLength="8.271" x="164.3952" y="327.4407">1</text></g><!--link Socket to Netzwerk--><g class="link" data-entity-1="ent0006" data-entity-2="ent0007" data-link-type="association" data-source-line="32" id="lnk14"><path codeLine="32" d="M219.33,395.08 C257.63,395.08 298.98,395.08 329.87,395.08" fill="none" id="Socket-Netzwerk" style="stroke:#E7E7E7;stroke-width:1;"/><polygon fill="#FFFFFF" points="246.14,383.6464,237.0949,380.7075,237.0949,386.5853,246.14,383.6464" style="stroke:#FFFFFF;stroke-width:1;"/><text fill="#FFFFFF" font-family="sans-serif" font-size="13" lengthAdjust="spacing" textLength="62.4863" x="250.14" y="388.1469">verbindet</text></g><!--link SmartHomeServer to SmartHomeHub--><g class="link" data-entity-1="ent0002" data-entity-2="ent0005" data-link-type="dependency" data-source-line="33" id="lnk15"><path codeLine="33" d="M537.4054,112.0994 C536.5754,182.2694 535.2108,297.4504 534.5108,356.7804" fill="none" id="SmartHomeServer-SmartHomeHub" style="stroke:#E7E7E7;stroke-width:1;"/><path d="M533.4411,109.0523 L541.346,117.1464 M541.4406,109.147 L533.3465,117.0518" fill="none" style="stroke:#E7E7E7;stroke-width:1;"/><polygon fill="#E7E7E7" points="534.44,362.78,538.5459,353.8278,534.499,357.7803,530.5465,353.7334,534.44,362.78" style="stroke:#E7E7E7;stroke-width:1;"/><text fill="#FFFFFF" font-family="sans-serif" font-size="13" lengthAdjust="spacing" textLength="29.4214" x="537.07" y="225.7569">-hub</text><text fill="#FFFFFF" font-family="sans-serif" font-size="13" lengthAdjust="spacing" textLength="8.271" x="525.7199" y="351.6522">1</text></g><!--link ServerThread to SmartHomeHub--><g class="link" data-entity-1="ent0003" data-entity-2="ent0005" data-link-type="dependency" data-source-line="34" id="lnk16"><path codeLine="34" d="M343.0004,266.2866 C388.8104,296.9166 439.7024,330.9647 482.0824,359.3047" fill="none" id="ServerThread-SmartHomeHub" style="stroke:#E7E7E7;stroke-width:1;"/><path d="M338.2832,267.9443 L349.3802,265.7406 M342.7298,261.294 L344.9335,272.391" fill="none" style="stroke:#E7E7E7;stroke-width:1;"/><polygon fill="#E7E7E7" points="487.07,362.64,481.8121,354.3121,482.9137,359.8606,477.3651,360.9622,487.07,362.64" style="stroke:#E7E7E7;stroke-width:1;"/><text fill="#FFFFFF" font-family="sans-serif" font-size="13" lengthAdjust="spacing" textLength="29.4214" x="407.07" y="304.5469">-hub</text><text fill="#FFFFFF" font-family="sans-serif" font-size="13" lengthAdjust="spacing" textLength="8.271" x="469.0567" y="351.8571">1</text></g><?plantuml-src XL91Ri8m4Bpd5QkSgAXHUqKeKc_XKg7I3pZEAbX9RBHU5qJRlzS92NM0gZTxPtPcTspPDFRGwgCsLPAuMfkz9Db28LLTaVMcLBQn14pIk02XuOYb6kdS2pFfmZEkbJLRVK9uIde0jgqapcsBMwGF9FXC00JiBJ4iGHk6S9zVisQ_-2FiV16E5qRkYuTp4tapq4FXU_JhA-yxGbdsPlD9QQPS9sPLZVz8nw8JESU1FhjFZAL6zwWqeVOp37aGjfOnjuxNcswYaAQf888sLu5Lo6zHJn2EkoAyQ-pHlhKpjxw4L-JJ0QbEhf_dA4fxC2A3z3aTWXi6NO9mqVscSx78fk4lORLIuSJeiYoPGCBlnLSsn3g5Zc8qlzYgHeSlDzgUou9qjMDnMIJmKWWgXJPbWBFqpcQZSFn6GJvyWhz6k6N-0000?></g></svg>