<?plantuml 1.2026.2beta3?><svg xmlns="http://www.w3.org/2000/svg" xmlns:xlink="http://www.w3.org/1999/xlink" contentStyleType="text/css" data-diagram-type="CLASS" height="409px" preserveAspectRatio="none" style="width:671px;height:409px;" version="1.1" viewBox="0 0 671 409" width="671px" zoomAndPan="magnify"><defs/><g><!--class SmartHomeServer--><g class="entity" data-qualified-name="SmartHomeServer" data-source-line="3" id="ent0002"><rect fill="#313139" height="96.8906" rx="2.5" ry="2.5" style="stroke:#E7E7E7;stroke-width:0.5;" width="385.9531" x="7" y="7"/><ellipse cx="130.9253" cy="23" fill="#2E5233" rx="11" ry="11" style="stroke:#E7E7E7;stroke-width:1;"/><path d="M133.894,28.6406 Q133.3159,28.9375 132.6753,29.0781 Q132.0347,29.2344 131.3315,29.2344 Q128.8315,29.2344 127.5034,27.5938 Q126.1909,25.9375 126.1909,22.8125 Q126.1909,19.6875 127.5034,18.0313 Q128.8315,16.375 131.3315,16.375 Q132.0347,16.375 132.6753,16.5313 Q133.3315,16.6875 133.894,16.9844 L133.894,19.7031 Q133.269,19.125 132.6753,18.8594 Q132.0815,18.5781 131.4565,18.5781 Q130.1128,18.5781 129.4253,19.6563 Q128.7378,20.7188 128.7378,22.8125 Q128.7378,24.9063 129.4253,25.9844 Q130.1128,27.0469 131.4565,27.0469 Q132.0815,27.0469 132.6753,26.7813 Q133.269,26.5 133.894,25.9219 L133.894,28.6406 Z " fill="#FFFFFF"/><text fill="#FFFFFF" font-family="sans-serif" font-size="14" lengthAdjust="spacing" textLength="129.6025" x="151.4253" y="27.8467">SmartHomeServer</text><line style="stroke:#E7E7E7;stroke-width:0.5;" x1="8" x2="391.9531" y1="39" y2="39"/><text fill="#FFFFFF" font-family="sans-serif" font-size="14" lengthAdjust="spacing" textLength="65.6182" x="13" y="55.9951">-port : int</text><line style="stroke:#E7E7E7;stroke-width:0.5;" x1="8" x2="391.9531" y1="63.2969" y2="63.2969"/><text fill="#FFFFFF" font-family="sans-serif" font-size="14" lengthAdjust="spacing" textLength="373.9531" x="13" y="80.292">+SmartHomeServer(port : int, hub : SmartHomeHub)</text><text fill="#FFFFFF" font-family="sans-serif" font-size="14" lengthAdjust="spacing" textLength="92.0664" x="13" y="96.5889">+runServer()</text></g><!--class ServerThread--><g class="entity" data-qualified-name="ServerThread" data-source-line="8" id="ent0003"><rect fill="#313139" height="80.5938" rx="2.5" ry="2.5" style="stroke:#E7E7E7;stroke-width:0.5;" width="366.9219" x="297.52" y="180.89"/><ellipse cx="429.146" cy="196.89" fill="#2E5233" rx="11" ry="11" style="stroke:#E7E7E7;stroke-width:1;"/><path d="M432.1147,202.5306 Q431.5366,202.8275 430.896,202.9681 Q430.2554,203.1244 429.5522,203.1244 Q427.0522,203.1244 425.7241,201.4838 Q424.4116,199.8275 424.4116,196.7025 Q424.4116,193.5775 425.7241,191.9213 Q427.0522,190.265 429.5522,190.265 Q430.2554,190.265 430.896,190.4213 Q431.5522,190.5775 432.1147,190.8744 L432.1147,193.5931 Q431.4897,193.015 430.896,192.7494 Q430.3022,192.4681 429.6772,192.4681 Q428.3335,192.4681 427.646,193.5463 Q426.9585,194.6088 426.9585,196.7025 Q426.9585,198.7963 427.646,199.8744 Q428.3335,200.9369 429.6772,200.9369 Q430.3022,200.9369 430.896,200.6713 Q431.4897,200.39 432.1147,199.8119 L432.1147,202.5306 Z " fill="#FFFFFF"/><text fill="#FFFFFF" font-family="sans-serif" font-size="14" lengthAdjust="spacing" textLength="95.1699" x="449.646" y="201.7367">ServerThread</text><line style="stroke:#E7E7E7;stroke-width:0.5;" x1="298.52" x2="663.4419" y1="212.89" y2="212.89"/><line style="stroke:#E7E7E7;stroke-width:0.5;" x1="298.52" x2="663.4419" y1="220.89" y2="220.89"/><text fill="#FFFFFF" font-family="sans-serif" font-size="14" lengthAdjust="spacing" textLength="354.9219" x="303.52" y="237.8851">+ServerThread(cs : Socket, hub : SmartHomeHub)</text><text fill="#FFFFFF" font-family="sans-serif" font-size="14" lengthAdjust="spacing" textLength="46.1563" x="303.52" y="254.182">+run()</text></g><!--class Thread--><g class="entity" data-qualified-name="Thread" data-source-line="12" id="ent0004"><rect fill="#313139" height="80.5938" rx="2.5" ry="2.5" style="stroke:#E7E7E7;stroke-width:0.5;" width="81.2598" x="440.35" y="15.15"/><ellipse cx="455.35" cy="31.15" fill="#2E5233" rx="11" ry="11" style="stroke:#E7E7E7;stroke-width:1;"/><path d="M458.3188,36.7906 Q457.7406,37.0875 457.1,37.2281 Q456.4594,37.3844 455.7563,37.3844 Q453.2563,37.3844 451.9281,35.7437 Q450.6156,34.0875 450.6156,30.9625 Q450.6156,27.8375 451.9281,26.1812 Q453.2563,24.525 455.7563,24.525 Q456.4594,24.525 457.1,24.6812 Q457.7563,24.8375 458.3188,25.1344 L458.3188,27.8531 Q457.6938,27.275 457.1,27.0094 Q456.5063,26.7281 455.8813,26.7281 Q454.5375,26.7281 453.85,27.8062 Q453.1625,28.8687 453.1625,30.9625 Q453.1625,33.0562 453.85,34.1344 Q454.5375,35.1969 455.8813,35.1969 Q456.5063,35.1969 457.1,34.9312 Q457.6938,34.65 458.3188,34.0719 L458.3188,36.7906 Z " fill="#FFFFFF"/><text fill="#FFFFFF" font-family="sans-serif" font-size="14" lengthAdjust="spacing" textLength="49.2598" x="469.35" y="35.9967">Thread</text><line style="stroke:#E7E7E7;stroke-width:0.5;" x1="441.35" x2="520.6098" y1="47.15" y2="47.15"/><line style="stroke:#E7E7E7;stroke-width:0.5;" x1="441.35" x2="520.6098" y1="55.15" y2="55.15"/><text fill="#FFFFFF" font-family="sans-serif" font-size="14" lengthAdjust="spacing" textLength="55.2617" x="446.35" y="72.1451">+start()</text><text fill="#FFFFFF" font-family="sans-serif" font-size="14" lengthAdjust="spacing" textLength="46.1563" x="446.35" y="88.442">+run()</text></g><!--class SmartHomeHub--><g class="entity" data-qualified-name="SmartHomeHub" data-source-line="16" id="ent0005"><rect fill="#313139" height="64.2969" rx="2.5" ry="2.5" style="stroke:#E7E7E7;stroke-width:0.5;" width="146.6338" x="128.66" y="338.48"/><ellipse cx="144.8544" cy="354.48" fill="#2E5233" rx="11" ry="11" style="stroke:#E7E7E7;stroke-width:1;"/><path d="M147.8232,360.1206 Q147.2451,360.4175 146.6044,360.5581 Q145.9638,360.7144 145.2607,360.7144 Q142.7607,360.7144 141.4326,359.0737 Q140.1201,357.4175 140.1201,354.2925 Q140.1201,351.1675 141.4326,349.5112 Q142.7607,347.855 145.2607,347.855 Q145.9638,347.855 146.6044,348.0112 Q147.2607,348.1675 147.8232,348.4644 L147.8232,351.1831 Q147.1982,350.605 146.6044,350.3394 Q146.0107,350.0581 145.3857,350.0581 Q144.0419,350.0581 143.3544,351.1362 Q142.6669,352.1987 142.6669,354.2925 Q142.6669,356.3862 143.3544,357.4644 Q144.0419,358.5269 145.3857,358.5269 Q146.0107,358.5269 146.6044,358.2612 Q147.1982,357.98 147.8232,357.4019 L147.8232,360.1206 Z " fill="#FFFFFF"/><text fill="#FFFFFF" font-family="sans-serif" font-size="14" lengthAdjust="spacing" textLength="111.9795" x="159.1199" y="359.3267">SmartHomeHub</text><line style="stroke:#E7E7E7;stroke-width:0.5;" x1="129.66" x2="274.2938" y1="370.48" y2="370.48"/><line style="stroke:#E7E7E7;stroke-width:0.5;" x1="129.66" x2="274.2938" y1="378.48" y2="378.48"/><text fill="#FFFFFF" font-family="sans-serif" font-size="14" lengthAdjust="spacing" textLength="134.6338" x="134.66" y="395.4751">+SmartHomeHub()</text></g><!--class ServerSocket--><g class="entity" data-qualified-name="ServerSocket" data-source-line="19" id="ent0006"><rect fill="#313139" height="48" rx="2.5" ry="2.5" style="stroke:#E7E7E7;stroke-width:0.5;" width="125.2695" x="137.34" y="197.19"/><ellipse cx="152.34" cy="213.19" fill="#2E5233" rx="11" ry="11" style="stroke:#E7E7E7;stroke-width:1;"/><path d="M155.3088,218.8306 Q154.7306,219.1275 154.09,219.2681 Q153.4494,219.4244 152.7463,219.4244 Q150.2463,219.4244 148.9181,217.7837 Q147.6056,216.1275 147.6056,213.0025 Q147.6056,209.8775 148.9181,208.2212 Q150.2463,206.565 152.7463,206.565 Q153.4494,206.565 154.09,206.7212 Q154.7463,206.8775 155.3088,207.1744 L155.3088,209.8931 Q154.6838,209.315 154.09,209.0494 Q153.4963,208.7681 152.8713,208.7681 Q151.5275,208.7681 150.84,209.8462 Q150.1525,210.9087 150.1525,213.0025 Q150.1525,215.0962 150.84,216.1744 Q151.5275,217.2369 152.8713,217.2369 Q153.4963,217.2369 154.09,216.9712 Q154.6838,216.69 155.3088,216.1119 L155.3088,218.8306 Z " fill="#FFFFFF"/><text fill="#FFFFFF" font-family="sans-serif" font-size="14" lengthAdjust="spacing" textLength="93.2695" x="166.34" y="218.0367">ServerSocket</text><line style="stroke:#E7E7E7;stroke-width:0.5;" x1="138.34" x2="261.6095" y1="229.19" y2="229.19"/><line style="stroke:#E7E7E7;stroke-width:0.5;" x1="138.34" x2="261.6095" y1="237.19" y2="237.19"/></g><!--class Socket--><g class="entity" data-qualified-name="Socket" data-source-line="22" id="ent0011"><rect fill="#313139" height="48" rx="2.5" ry="2.5" style="stroke:#E7E7E7;stroke-width:0.5;" width="79.3594" x="441.3" y="346.63"/><ellipse cx="456.3" cy="362.63" fill="#2E5233" rx="11" ry="11" style="stroke:#E7E7E7;stroke-width:1;"/><path d="M459.2688,368.2706 Q458.6906,368.5675 458.05,368.7081 Q457.4094,368.8644 456.7063,368.8644 Q454.2063,368.8644 452.8781,367.2238 Q451.5656,365.5675 451.5656,362.4425 Q451.5656,359.3175 452.8781,357.6613 Q454.2063,356.005 456.7063,356.005 Q457.4094,356.005 458.05,356.1613 Q458.7063,356.3175 459.2688,356.6144 L459.2688,359.3331 Q458.6438,358.755 458.05,358.4894 Q457.4563,358.2081 456.8313,358.2081 Q455.4875,358.2081 454.8,359.2863 Q454.1125,360.3488 454.1125,362.4425 Q454.1125,364.5363 454.8,365.6144 Q455.4875,366.6769 456.8313,366.6769 Q457.4563,366.6769 458.05,366.4113 Q458.6438,366.13 459.2688,365.5519 L459.2688,368.2706 Z " fill="#FFFFFF"/><text fill="#FFFFFF" font-family="sans-serif" font-size="14" lengthAdjust="spacing" textLength="47.3594" x="470.3" y="367.4767">Socket</text><line style="stroke:#E7E7E7;stroke-width:0.5;" x1="442.3" x2="519.6594" y1="378.63" y2="378.63"/><line style="stroke:#E7E7E7;stroke-width:0.5;" x1="442.3" x2="519.6594" y1="386.63" y2="386.63"/></g><!--link SmartHomeServer to ServerSocket--><g class="link" data-entity-1="ent0002" data-entity-2="ent0006" data-link-type="dependency" data-source-line="19" id="lnk7"><path codeLine="19" d="M199.98,112.25 C199.98,142.64 199.98,166.66 199.98,190.69" fill="none" id="SmartHomeServer-ServerSocket" style="stroke:#E7E7E7;stroke-width:1;"/><path d="M195.98,109.25 L203.98,117.25 M203.98,109.25 L195.98,117.25" fill="none" style="stroke:#E7E7E7;stroke-width:1;"/><polygon fill="#E7E7E7" points="199.98,196.69,203.98,187.69,199.98,191.69,195.98,187.69,199.98,196.69" style="stroke:#E7E7E7;stroke-width:1;"/><text fill="#FFFFFF" font-family="sans-serif" font-size="13" lengthAdjust="spacing" textLength="89.8193" x="200.98" y="146.9569">-serverSocket</text><text fill="#FFFFFF" font-family="sans-serif" font-size="13" lengthAdjust="spacing" textLength="8.271" x="191.0393" y="185.9731">1</text></g><!--link SmartHomeServer to ServerThread--><g class="link" data-entity-1="ent0002" data-entity-2="ent0003" data-link-type="dependency" data-source-line="20" id="lnk8"><path codeLine="20" d="M282.01,104.25 C323.64,128.51 368.426,154.599 407.876,177.589" fill="none" id="SmartHomeServer-to-ServerThread" style="stroke:#E7E7E7;stroke-width:1;stroke-dasharray:7,7;"/><polygon fill="#E7E7E7" points="413.06,180.61,407.2981,172.6225,408.74,178.0925,403.27,179.5344,413.06,180.61" style="stroke:#E7E7E7;stroke-width:1;"/><text fill="#FFFFFF" font-family="sans-serif" font-size="13" lengthAdjust="spacing" textLength="64.2319" x="358.98" y="146.9569">&#171;creates&#187;</text></g><!--reverse link Thread to ServerThread--><g class="link" data-entity-1="ent0004" data-entity-2="ent0003" data-link-type="extension" data-source-line="21" id="lnk10"><path codeLine="21" d="M480.98,114.08 C480.98,139.73 480.98,155 480.98,180.63" fill="none" id="Thread-backto-ServerThread" style="stroke:#E7E7E7;stroke-width:1;"/><polygon fill="none" points="480.98,96.08,474.98,114.08,486.98,114.08,480.98,96.08" style="stroke:#E7E7E7;stroke-width:1;"/></g><!--link ServerThread to Socket--><g class="link" data-entity-1="ent0003" data-entity-2="ent0011" data-link-type="dependency" data-source-line="22" id="lnk12"><path codeLine="22" d="M480.98,269.7 C480.98,296.65 480.98,317.45 480.98,340.14" fill="none" id="ServerThread-Socket" style="stroke:#E7E7E7;stroke-width:1;"/><path d="M476.98,266.7 L484.98,274.7 M484.98,266.7 L476.98,274.7" fill="none" style="stroke:#E7E7E7;stroke-width:1;"/><polygon fill="#E7E7E7" points="480.98,346.14,484.98,337.14,480.98,341.14,476.98,337.14,480.98,346.14" style="stroke:#E7E7E7;stroke-width:1;"/><text fill="#FFFFFF" font-family="sans-serif" font-size="13" lengthAdjust="spacing" textLength="84.373" x="481.98" y="304.5469">-clientSocket</text><text fill="#FFFFFF" font-family="sans-serif" font-size="13" lengthAdjust="spacing" textLength="8.271" x="472.0381" y="335.4255">1</text></g><!--link SmartHomeServer to SmartHomeHub--><g class="link" data-entity-1="ent0002" data-entity-2="ent0005" data-link-type="dependency" data-source-line="23" id="lnk13"><path codeLine="23" d="M136.7985,109.7922 C115.7585,130.8722 100.06,151.81 88.98,180.89 C76.22,214.36 74.91,228.54 88.98,261.48 C102.31,292.7 124.8222,315.5385 149.2222,334.4985" fill="none" id="SmartHomeServer-SmartHomeHub" style="stroke:#E7E7E7;stroke-width:1;"/><path d="M136.0867,104.8432 L136.0975,116.1569 M141.7489,110.4946 L130.4352,110.5054" fill="none" style="stroke:#E7E7E7;stroke-width:1;"/><polygon fill="#E7E7E7" points="153.96,338.18,149.3076,329.4992,150.0118,335.1121,144.399,335.8163,153.96,338.18" style="stroke:#E7E7E7;stroke-width:1;"/><text fill="#FFFFFF" font-family="sans-serif" font-size="13" lengthAdjust="spacing" textLength="29.4214" x="89.98" y="225.7569">-hub</text><text fill="#FFFFFF" font-family="sans-serif" font-size="13" lengthAdjust="spacing" textLength="8.271" x="135.7459" y="327.3951">1</text></g><!--link ServerThread to SmartHomeHub--><g class="link" data-entity-1="ent0003" data-entity-2="ent0005" data-link-type="dependency" data-source-line="24" id="lnk14"><path codeLine="24" d="M398.7675,265.6289 C353.5775,289.5189 309.2248,312.9565 267.0848,335.2265" fill="none" id="ServerThread-SmartHomeHub" style="stroke:#E7E7E7;stroke-width:1;"/><path d="M399.5502,260.6906 L396.2166,271.502 M403.2891,267.7631 L392.4777,264.4295" fill="none" style="stroke:#E7E7E7;stroke-width:1;"/><polygon fill="#E7E7E7" points="261.78,338.03,271.6061,337.3613,266.2006,335.6938,267.8682,330.2883,261.78,338.03" style="stroke:#E7E7E7;stroke-width:1;"/><text fill="#FFFFFF" font-family="sans-serif" font-size="13" lengthAdjust="spacing" textLength="29.4214" x="350.98" y="304.5469">-hub</text><text fill="#FFFFFF" font-family="sans-serif" font-size="13" lengthAdjust="spacing" textLength="8.271" x="264.4433" y="327.4658">1</text></g><?plantuml-src XP5DJiCm48NtESMegw3Y2hPLPObTMOSBE8v5eoHsD1v3rSBT6V9NkwLYPy_xvhqPspUrxHMg3agbctTqmLRQjGw1K5dFah6K-ONIhVB-XGZhCf1vrSuMzSd0KpO8K7GAQUywKnZyC0Zd3410xv1W2xKbuFlwciel-YCSGid7XTY7yc5imc0dd0lVSzvGUJkWKTKGjavAkVQ_PautvX_hs3InyyHu_ZSOMytfKMb4hv_aA2htQOM4rVDg6dOSa6SJFhhVT6usCbru2xkTvXCPBsMMI2BquajEgwJIKSpXIwnkQ_xcEx4NFbwNk_WzxpdVaZy0?></g></svg>