<?plantuml 1.2026.2beta3?><svg xmlns="http://www.w3.org/2000/svg" xmlns:xlink="http://www.w3.org/1999/xlink" contentStyleType="text/css" data-diagram-type="SEQUENCE" height="1194px" preserveAspectRatio="none" style="width:667px;height:1194px;" version="1.1" viewBox="0 0 667 1194" width="667px" zoomAndPan="magnify"><defs/><g><g><title>. SicherheitsThread</title><rect fill="#FFFFFF" height="1110.8672" style="stroke:#E7E7E7;stroke-width:1;" width="10" x="120.1509" y="67.4297"/></g><g><title>. SicherheitsThread</title><rect fill="#FFFFFF" height="98.3984" style="stroke:#E7E7E7;stroke-width:1;" width="10" x="125.1509" y="186.9609"/></g><g><title>. SicherheitsThread</title><rect fill="#FFFFFF" height="28" style="stroke:#E7E7E7;stroke-width:1;" width="10" x="125.1509" y="709.7578"/></g><g><title>. SicherheitsThread</title><rect fill="#FFFFFF" height="28" style="stroke:#E7E7E7;stroke-width:1;" width="10" x="125.1509" y="840.1563"/></g><g><title>. Socket</title><rect fill="#FFFFFF" height="29.1328" style="stroke:#E7E7E7;stroke-width:1;" width="10" x="410.2935" y="96.5625"/></g><g><title>. Socket</title><rect fill="#FFFFFF" height="30" style="stroke:#E7E7E7;stroke-width:1;" width="10" x="410.2935" y="345.625"/></g><g><title>. Socket</title><rect fill="#FFFFFF" height="29.1328" style="stroke:#E7E7E7;stroke-width:1;" width="10" x="410.2935" y="428.8906"/></g><g><title>. Socket</title><rect fill="#FFFFFF" height="30" style="stroke:#E7E7E7;stroke-width:1;" width="10" x="410.2935" y="569.5547"/></g><g><title>. Socket</title><rect fill="#FFFFFF" height="30" style="stroke:#E7E7E7;stroke-width:1;" width="10" x="410.2935" y="904.2891"/></g><g><title>. Socket</title><rect fill="#FFFFFF" height="30" style="stroke:#E7E7E7;stroke-width:1;" width="10" x="410.2935" y="978.2266"/></g><g><title>. Socket</title><rect fill="#FFFFFF" height="30" style="stroke:#E7E7E7;stroke-width:1;" width="10" x="410.2935" y="1066.1641"/></g><g><title>. Socket</title><rect fill="#FFFFFF" height="30" style="stroke:#E7E7E7;stroke-width:1;" width="10" x="410.2935" y="1139.2969"/></g><g><title>. SicherheitsZentrale</title><rect fill="#FFFFFF" height="29.1328" style="stroke:#E7E7E7;stroke-width:1;" width="10" x="535.7798" y="221.0938"/></g><g><title>. SicherheitsZentrale</title><rect fill="#FFFFFF" height="29.1328" style="stroke:#E7E7E7;stroke-width:1;" width="10" x="535.7798" y="511.2891"/></g><g><title>. SicherheitsZentrale</title><rect fill="#FFFFFF" height="29.1328" style="stroke:#E7E7E7;stroke-width:1;" width="10" x="535.7798" y="643.4922"/></g><g><title>. SicherheitsZentrale</title><rect fill="#FFFFFF" height="29.1328" style="stroke:#E7E7E7;stroke-width:1;" width="10" x="535.7798" y="773.8906"/></g><rect fill="none" height="970.4688" style="stroke:#888888;stroke-width:1.5;" width="651.0029" x="10" y="140.6953"/><rect fill="none" height="796.8047" style="stroke:#888888;stroke-width:1.5;" width="631.0029" x="20" y="307.3594"/><rect fill="none" height="632.6016" style="stroke:#888888;stroke-width:1.5;" width="611.0029" x="30" y="390.625"/><rect fill="none" height="543.2031" style="stroke:#888888;stroke-width:1.5;" width="591.0029" x="40" y="473.0234"/><g class="participant-lifeline" data-entity-uid="part1" data-qualified-name="T" id="part1-lifeline"><g><title>. SicherheitsThread</title><rect fill="#000000" fill-opacity="0.00000" height="1151" width="8" x="121.1509" y="36.2969"/><line style="stroke:#E7E7E7;stroke-width:0.5;stroke-dasharray:5,5;" x1="125" x2="125" y1="36.2969" y2="1187.2969"/></g></g><g class="participant-lifeline" data-entity-uid="part2" data-qualified-name="CS" id="part2-lifeline"><g><title>. Socket</title><rect fill="#000000" fill-opacity="0.00000" height="1151" width="8" x="411.2935" y="36.2969"/><line style="stroke:#E7E7E7;stroke-width:0.5;stroke-dasharray:5,5;" x1="415.0303" x2="415.0303" y1="36.2969" y2="1187.2969"/></g></g><g class="participant-lifeline" data-entity-uid="part3" data-qualified-name="Z" id="part3-lifeline"><g><title>. SicherheitsZentrale</title><rect fill="#000000" fill-opacity="0.00000" height="1151" width="8" x="536.7798" y="36.2969"/><line style="stroke:#E7E7E7;stroke-width:0.5;stroke-dasharray:5,5;" x1="540.5566" x2="540.5566" y1="36.2969" y2="1187.2969"/></g></g><g class="participant participant-head" data-entity-uid="part1" data-qualified-name="T" id="part1-head"><rect fill="#222222" height="30.2969" rx="2.5" ry="2.5" style="stroke:#E7E7E7;stroke-width:0.5;" width="150.3018" x="50" y="5"/><text fill="#FFFFFF" font-family="sans-serif" font-size="14" lengthAdjust="spacing" textLength="136.3018" x="57" y="24.9951">: SicherheitsThread</text></g><g class="participant participant-head" data-entity-uid="part2" data-qualified-name="CS" id="part2-head"><rect fill="#222222" height="30.2969" rx="2.5" ry="2.5" style="stroke:#E7E7E7;stroke-width:0.5;" width="70.5264" x="380.0303" y="5"/><text fill="#FFFFFF" font-family="sans-serif" font-size="14" lengthAdjust="spacing" textLength="56.5264" x="387.0303" y="24.9951">: Socket</text></g><g class="participant participant-head" data-entity-uid="part3" data-qualified-name="Z" id="part3-head"><rect fill="#222222" height="30.2969" rx="2.5" ry="2.5" style="stroke:#E7E7E7;stroke-width:0.5;" width="160.4463" x="460.5566" y="5"/><text fill="#FFFFFF" font-family="sans-serif" font-size="14" lengthAdjust="spacing" textLength="146.4463" x="467.5566" y="24.9951">: SicherheitsZentrale</text></g><g><title>. SicherheitsThread</title><rect fill="#FFFFFF" height="1110.8672" style="stroke:#E7E7E7;stroke-width:1;" width="10" x="120.1509" y="67.4297"/></g><g><title>. SicherheitsThread</title><rect fill="#FFFFFF" height="98.3984" style="stroke:#E7E7E7;stroke-width:1;" width="10" x="125.1509" y="186.9609"/></g><g><title>. SicherheitsThread</title><rect fill="#FFFFFF" height="28" style="stroke:#E7E7E7;stroke-width:1;" width="10" x="125.1509" y="709.7578"/></g><g><title>. SicherheitsThread</title><rect fill="#FFFFFF" height="28" style="stroke:#E7E7E7;stroke-width:1;" width="10" x="125.1509" y="840.1563"/></g><g><title>. Socket</title><rect fill="#FFFFFF" height="29.1328" style="stroke:#E7E7E7;stroke-width:1;" width="10" x="410.2935" y="96.5625"/></g><g><title>. Socket</title><rect fill="#FFFFFF" height="30" style="stroke:#E7E7E7;stroke-width:1;" width="10" x="410.2935" y="345.625"/></g><g><title>. Socket</title><rect fill="#FFFFFF" height="29.1328" style="stroke:#E7E7E7;stroke-width:1;" width="10" x="410.2935" y="428.8906"/></g><g><title>. Socket</title><rect fill="#FFFFFF" height="30" style="stroke:#E7E7E7;stroke-width:1;" width="10" x="410.2935" y="569.5547"/></g><g><title>. Socket</title><rect fill="#FFFFFF" height="30" style="stroke:#E7E7E7;stroke-width:1;" width="10" x="410.2935" y="904.2891"/></g><g><title>. Socket</title><rect fill="#FFFFFF" height="30" style="stroke:#E7E7E7;stroke-width:1;" width="10" x="410.2935" y="978.2266"/></g><g><title>. Socket</title><rect fill="#FFFFFF" height="30" style="stroke:#E7E7E7;stroke-width:1;" width="10" x="410.2935" y="1066.1641"/></g><g><title>. Socket</title><rect fill="#FFFFFF" height="30" style="stroke:#E7E7E7;stroke-width:1;" width="10" x="410.2935" y="1139.2969"/></g><g><title>. SicherheitsZentrale</title><rect fill="#FFFFFF" height="29.1328" style="stroke:#E7E7E7;stroke-width:1;" width="10" x="535.7798" y="221.0938"/></g><g><title>. SicherheitsZentrale</title><rect fill="#FFFFFF" height="29.1328" style="stroke:#E7E7E7;stroke-width:1;" width="10" x="535.7798" y="511.2891"/></g><g><title>. SicherheitsZentrale</title><rect fill="#FFFFFF" height="29.1328" style="stroke:#E7E7E7;stroke-width:1;" width="10" x="535.7798" y="643.4922"/></g><g><title>. SicherheitsZentrale</title><rect fill="#FFFFFF" height="29.1328" style="stroke:#E7E7E7;stroke-width:1;" width="10" x="535.7798" y="773.8906"/></g><g class="message" data-entity-1="part1" data-entity-2="part1" id="msg1"><ellipse cx="7.5" cy="66.6797" fill="#000000" rx="4" ry="4" style="stroke:#E7E7E7;stroke-width:1.5;"/><polygon fill="#E7E7E7" points="108.1509,63.4297,118.1509,67.4297,108.1509,71.4297,112.1509,67.4297" style="stroke:#E7E7E7;stroke-width:1;"/><line style="stroke:#E7E7E7;stroke-width:1;" x1="12" x2="114.1509" y1="67.4297" y2="67.4297"/><text fill="#FFFFFF" font-family="sans-serif" font-size="13" lengthAdjust="spacing" textLength="31.9668" x="15" y="62.3638">run()</text></g><g class="message" data-entity-1="part1" data-entity-2="part2" id="msg2"><polygon fill="#E7E7E7" points="398.2935,92.5625,408.2935,96.5625,398.2935,100.5625,402.2935,96.5625" style="stroke:#E7E7E7;stroke-width:1;"/><line style="stroke:#E7E7E7;stroke-width:1;" x1="130.1509" x2="404.2935" y1="96.5625" y2="96.5625"/><text fill="#FFFFFF" font-family="sans-serif" font-size="13" lengthAdjust="spacing" textLength="66.7964" x="137.1509" y="91.4966">readLine()</text></g><g class="message" data-entity-1="part2" data-entity-2="part1" id="msg3"><polygon fill="#E7E7E7" points="141.1509,121.6953,131.1509,125.6953,141.1509,129.6953,137.1509,125.6953" style="stroke:#E7E7E7;stroke-width:1;"/><line style="stroke:#E7E7E7;stroke-width:1;stroke-dasharray:2,2;" x1="135.1509" x2="414.2935" y1="125.6953" y2="125.6953"/><text fill="#FFFFFF" font-family="sans-serif" font-size="13" lengthAdjust="spacing" textLength="40.6758" x="147.1509" y="120.6294">befehl</text></g><path d="M10,140.6953 L79.4512,140.6953 L79.4512,147.8281 L69.4512,157.8281 L10,157.8281 L10,140.6953" fill="#222222" style="stroke:#888888;stroke-width:1.5;"/><rect fill="none" height="970.4688" style="stroke:#888888;stroke-width:1.5;" width="651.0029" x="10" y="140.6953"/><text fill="#FFFFFF" font-family="sans-serif" font-size="13" font-weight="bold" lengthAdjust="spacing" textLength="24.4512" x="25" y="153.7622">opt</text><text fill="#888888" font-family="sans-serif" font-size="11" font-weight="bold" lengthAdjust="spacing" textLength="183.6646" x="94.4512" y="152.9058">[befehl beginnt mit "LOGIN;"]</text><g class="message" data-entity-1="part1" data-entity-2="part1" id="msg4"><line style="stroke:#E7E7E7;stroke-width:1;" x1="130.1509" x2="177.1509" y1="173.9609" y2="173.9609"/><line style="stroke:#E7E7E7;stroke-width:1;" x1="177.1509" x2="177.1509" y1="173.9609" y2="186.9609"/><line style="stroke:#E7E7E7;stroke-width:1;" x1="136.1509" x2="177.1509" y1="186.9609" y2="186.9609"/><polygon fill="#E7E7E7" points="146.1509,182.9609,136.1509,186.9609,146.1509,190.9609,142.1509,186.9609" style="stroke:#E7E7E7;stroke-width:1;"/><text fill="#FFFFFF" font-family="sans-serif" font-size="13" lengthAdjust="spacing" textLength="228.9409" x="142.1509" y="168.895">vergleicheZugangsdaten(user, pin)</text></g><g class="message" data-entity-1="part1" data-entity-2="part3" id="msg5"><polygon fill="#E7E7E7" points="523.7798,217.0938,533.7798,221.0938,523.7798,225.0938,527.7798,221.0938" style="stroke:#E7E7E7;stroke-width:1;"/><line style="stroke:#E7E7E7;stroke-width:1;" x1="135.1509" x2="529.7798" y1="221.0938" y2="221.0938"/><text fill="#FFFFFF" font-family="sans-serif" font-size="13" lengthAdjust="spacing" textLength="105.7646" x="142.1509" y="216.0278">getVerwaltung()</text></g><g class="message" data-entity-1="part3" data-entity-2="part1" id="msg6"><polygon fill="#E7E7E7" points="146.1509,246.2266,136.1509,250.2266,146.1509,254.2266,142.1509,250.2266" style="stroke:#E7E7E7;stroke-width:1;"/><line style="stroke:#E7E7E7;stroke-width:1;stroke-dasharray:2,2;" x1="140.1509" x2="539.7798" y1="250.2266" y2="250.2266"/><text fill="#FFFFFF" font-family="sans-serif" font-size="13" lengthAdjust="spacing" textLength="73.0742" x="152.1509" y="245.1606">verwaltung</text></g><g class="message" data-entity-1="part1" data-entity-2="part1" id="msg7"><line style="stroke:#E7E7E7;stroke-width:1;stroke-dasharray:2,2;" x1="135.1509" x2="177.1509" y1="284.3594" y2="284.3594"/><line style="stroke:#E7E7E7;stroke-width:1;stroke-dasharray:2,2;" x1="177.1509" x2="177.1509" y1="284.3594" y2="297.3594"/><line style="stroke:#E7E7E7;stroke-width:1;stroke-dasharray:2,2;" x1="130.1509" x2="177.1509" y1="297.3594" y2="297.3594"/><polygon fill="#E7E7E7" points="140.1509,293.3594,130.1509,297.3594,140.1509,301.3594,136.1509,297.3594" style="stroke:#E7E7E7;stroke-width:1;"/><text fill="#FFFFFF" font-family="sans-serif" font-size="13" lengthAdjust="spacing" textLength="61.9849" x="142.1509" y="279.2935">true/false</text></g><path d="M20,307.3594 L84.4429,307.3594 L84.4429,314.4922 L74.4429,324.4922 L20,324.4922 L20,307.3594" fill="#222222" style="stroke:#888888;stroke-width:1.5;"/><rect fill="none" height="796.8047" style="stroke:#888888;stroke-width:1.5;" width="631.0029" x="20" y="307.3594"/><text fill="#FFFFFF" font-family="sans-serif" font-size="13" font-weight="bold" lengthAdjust="spacing" textLength="19.4429" x="35" y="320.4263">alt</text><text fill="#888888" font-family="sans-serif" font-size="11" font-weight="bold" lengthAdjust="spacing" textLength="77.9346" x="99.4429" y="319.5698">[erfolgreich]</text><g class="message" data-entity-1="part1" data-entity-2="part2" id="msg8"><polygon fill="#E7E7E7" points="398.2935,341.625,408.2935,345.625,398.2935,349.625,402.2935,345.625" style="stroke:#E7E7E7;stroke-width:1;"/><line style="stroke:#E7E7E7;stroke-width:1;" x1="130.1509" x2="404.2935" y1="345.625" y2="345.625"/><text fill="#FFFFFF" font-family="sans-serif" font-size="13" lengthAdjust="spacing" textLength="181.9238" x="137.1509" y="340.5591">write("+OK Willkommen\n")</text></g><path d="M30,390.625 L106.624,390.625 L106.624,397.7578 L96.624,407.7578 L30,407.7578 L30,390.625" fill="#222222" style="stroke:#888888;stroke-width:1.5;"/><rect fill="none" height="632.6016" style="stroke:#888888;stroke-width:1.5;" width="611.0029" x="30" y="390.625"/><text fill="#FFFFFF" font-family="sans-serif" font-size="13" font-weight="bold" lengthAdjust="spacing" textLength="31.624" x="45" y="403.6919">loop</text><text fill="#888888" font-family="sans-serif" font-size="11" font-weight="bold" lengthAdjust="spacing" textLength="112.4707" x="121.624" y="402.8354">[befehl != "QUIT"]</text><g class="message" data-entity-1="part1" data-entity-2="part2" id="msg9"><polygon fill="#E7E7E7" points="398.2935,424.8906,408.2935,428.8906,398.2935,432.8906,402.2935,428.8906" style="stroke:#E7E7E7;stroke-width:1;"/><line style="stroke:#E7E7E7;stroke-width:1;" x1="130.1509" x2="404.2935" y1="428.8906" y2="428.8906"/><text fill="#FFFFFF" font-family="sans-serif" font-size="13" lengthAdjust="spacing" textLength="66.7964" x="137.1509" y="423.8247">readLine()</text></g><g class="message" data-entity-1="part2" data-entity-2="part1" id="msg10"><polygon fill="#E7E7E7" points="141.1509,454.0234,131.1509,458.0234,141.1509,462.0234,137.1509,458.0234" style="stroke:#E7E7E7;stroke-width:1;"/><line style="stroke:#E7E7E7;stroke-width:1;stroke-dasharray:2,2;" x1="135.1509" x2="414.2935" y1="458.0234" y2="458.0234"/><text fill="#FFFFFF" font-family="sans-serif" font-size="13" lengthAdjust="spacing" textLength="40.6758" x="147.1509" y="452.9575">befehl</text></g><path d="M40,473.0234 L104.4429,473.0234 L104.4429,480.1563 L94.4429,490.1563 L40,490.1563 L40,473.0234" fill="#222222" style="stroke:#888888;stroke-width:1.5;"/><rect fill="none" height="543.2031" style="stroke:#888888;stroke-width:1.5;" width="591.0029" x="40" y="473.0234"/><text fill="#FFFFFF" font-family="sans-serif" font-size="13" font-weight="bold" lengthAdjust="spacing" textLength="19.4429" x="55" y="486.0903">alt</text><text fill="#888888" font-family="sans-serif" font-size="11" font-weight="bold" lengthAdjust="spacing" textLength="135.0884" x="119.4429" y="485.2339">[befehl == "STATUS"]</text><g class="message" data-entity-1="part1" data-entity-2="part3" id="msg11"><polygon fill="#E7E7E7" points="523.7798,507.2891,533.7798,511.2891,523.7798,515.2891,527.7798,511.2891" style="stroke:#E7E7E7;stroke-width:1;"/><line style="stroke:#E7E7E7;stroke-width:1;" x1="130.1509" x2="529.7798" y1="511.2891" y2="511.2891"/><text fill="#FFFFFF" font-family="sans-serif" font-size="13" lengthAdjust="spacing" textLength="114.0039" x="137.1509" y="506.2231">getAlarmanlage()</text></g><g class="message" data-entity-1="part3" data-entity-2="part1" id="msg12"><polygon fill="#E7E7E7" points="141.1509,536.4219,131.1509,540.4219,141.1509,544.4219,137.1509,540.4219" style="stroke:#E7E7E7;stroke-width:1;"/><line style="stroke:#E7E7E7;stroke-width:1;stroke-dasharray:2,2;" x1="135.1509" x2="539.7798" y1="540.4219" y2="540.4219"/><text fill="#FFFFFF" font-family="sans-serif" font-size="13" lengthAdjust="spacing" textLength="81.5864" x="147.1509" y="535.356">alarmanlage</text></g><g class="message" data-entity-1="part1" data-entity-2="part2" id="msg13"><polygon fill="#E7E7E7" points="398.2935,565.5547,408.2935,569.5547,398.2935,573.5547,402.2935,569.5547" style="stroke:#E7E7E7;stroke-width:1;"/><line style="stroke:#E7E7E7;stroke-width:1;" x1="130.1509" x2="404.2935" y1="569.5547" y2="569.5547"/><text fill="#FFFFFF" font-family="sans-serif" font-size="13" lengthAdjust="spacing" textLength="246.0669" x="137.1509" y="564.4888">write("+OK ALARM_ON (oder OFF)\n")</text></g><line style="stroke:#888888;stroke-width:1;stroke-dasharray:2,2;" x1="40" x2="631.0029" y1="608.5547" y2="608.5547"/><text fill="#888888" font-family="sans-serif" font-size="11" font-weight="bold" lengthAdjust="spacing" textLength="136.2271" x="45" y="618.7651">[befehl == "TOGGLE"]</text><g class="message" data-entity-1="part1" data-entity-2="part3" id="msg14"><polygon fill="#E7E7E7" points="523.7798,639.4922,533.7798,643.4922,523.7798,647.4922,527.7798,643.4922" style="stroke:#E7E7E7;stroke-width:1;"/><line style="stroke:#E7E7E7;stroke-width:1;" x1="130.1509" x2="529.7798" y1="643.4922" y2="643.4922"/><text fill="#FFFFFF" font-family="sans-serif" font-size="13" lengthAdjust="spacing" textLength="114.0039" x="137.1509" y="638.4263">getAlarmanlage()</text></g><g class="message" data-entity-1="part3" data-entity-2="part1" id="msg15"><polygon fill="#E7E7E7" points="141.1509,668.625,131.1509,672.625,141.1509,676.625,137.1509,672.625" style="stroke:#E7E7E7;stroke-width:1;"/><line style="stroke:#E7E7E7;stroke-width:1;stroke-dasharray:2,2;" x1="135.1509" x2="539.7798" y1="672.625" y2="672.625"/><text fill="#FFFFFF" font-family="sans-serif" font-size="13" lengthAdjust="spacing" textLength="81.5864" x="147.1509" y="667.5591">alarmanlage</text></g><g class="message" data-entity-1="part1" data-entity-2="part1" id="msg16"><line style="stroke:#E7E7E7;stroke-width:1;" x1="135.1509" x2="177.1509" y1="701.7578" y2="701.7578"/><line style="stroke:#E7E7E7;stroke-width:1;" x1="177.1509" x2="177.1509" y1="701.7578" y2="714.7578"/><line style="stroke:#E7E7E7;stroke-width:1;" x1="136.1509" x2="177.1509" y1="714.7578" y2="714.7578"/><polygon fill="#E7E7E7" points="146.1509,710.7578,136.1509,714.7578,146.1509,718.7578,142.1509,714.7578" style="stroke:#E7E7E7;stroke-width:1;"/><text fill="#FFFFFF" font-family="sans-serif" font-size="13" lengthAdjust="spacing" textLength="144.1299" x="142.1509" y="696.6919">wechsle Status (aktiv)</text></g><g class="message" data-entity-1="part1" data-entity-2="part3" id="msg17"><polygon fill="#E7E7E7" points="523.7798,769.8906,533.7798,773.8906,523.7798,777.8906,527.7798,773.8906" style="stroke:#E7E7E7;stroke-width:1;"/><line style="stroke:#E7E7E7;stroke-width:1;" x1="130.1509" x2="529.7798" y1="773.8906" y2="773.8906"/><text fill="#FFFFFF" font-family="sans-serif" font-size="13" lengthAdjust="spacing" textLength="54.939" x="137.1509" y="768.8247">getLog()</text></g><g class="message" data-entity-1="part3" data-entity-2="part1" id="msg18"><polygon fill="#E7E7E7" points="141.1509,799.0234,131.1509,803.0234,141.1509,807.0234,137.1509,803.0234" style="stroke:#E7E7E7;stroke-width:1;"/><line style="stroke:#E7E7E7;stroke-width:1;stroke-dasharray:2,2;" x1="135.1509" x2="539.7798" y1="803.0234" y2="803.0234"/><text fill="#FFFFFF" font-family="sans-serif" font-size="13" lengthAdjust="spacing" textLength="19.8174" x="147.1509" y="797.9575">log</text></g><g class="message" data-entity-1="part1" data-entity-2="part1" id="msg19"><line style="stroke:#E7E7E7;stroke-width:1;" x1="135.1509" x2="177.1509" y1="832.1563" y2="832.1563"/><line style="stroke:#E7E7E7;stroke-width:1;" x1="177.1509" x2="177.1509" y1="832.1563" y2="845.1563"/><line style="stroke:#E7E7E7;stroke-width:1;" x1="136.1509" x2="177.1509" y1="845.1563" y2="845.1563"/><polygon fill="#E7E7E7" points="146.1509,841.1563,136.1509,845.1563,146.1509,849.1563,142.1509,845.1563" style="stroke:#E7E7E7;stroke-width:1;"/><text fill="#FFFFFF" font-family="sans-serif" font-size="13" lengthAdjust="spacing" textLength="119.209" x="142.1509" y="827.0903">f&#252;ge Eintrag hinzu</text></g><g class="message" data-entity-1="part1" data-entity-2="part2" id="msg20"><polygon fill="#E7E7E7" points="398.2935,900.2891,408.2935,904.2891,398.2935,908.2891,402.2935,904.2891" style="stroke:#E7E7E7;stroke-width:1;"/><line style="stroke:#E7E7E7;stroke-width:1;" x1="130.1509" x2="404.2935" y1="904.2891" y2="904.2891"/><text fill="#FFFFFF" font-family="sans-serif" font-size="13" lengthAdjust="spacing" textLength="261.1426" x="137.1509" y="899.2231">write("+OK Umschaltung erfolgreich\n")</text></g><line style="stroke:#888888;stroke-width:1;stroke-dasharray:2,2;" x1="40" x2="631.0029" y1="943.2891" y2="943.2891"/><text fill="#888888" font-family="sans-serif" font-size="11" font-weight="bold" lengthAdjust="spacing" textLength="116.6709" x="45" y="953.4995">[befehl == "QUIT"]</text><g class="message" data-entity-1="part1" data-entity-2="part2" id="msg21"><polygon fill="#E7E7E7" points="398.2935,974.2266,408.2935,978.2266,398.2935,982.2266,402.2935,978.2266" style="stroke:#E7E7E7;stroke-width:1;"/><line style="stroke:#E7E7E7;stroke-width:1;" x1="130.1509" x2="404.2935" y1="978.2266" y2="978.2266"/><text fill="#FFFFFF" font-family="sans-serif" font-size="13" lengthAdjust="spacing" textLength="125.7979" x="137.1509" y="973.1606">write("+OK Bye\n")</text></g><line style="stroke:#888888;stroke-width:1;stroke-dasharray:2,2;" x1="20" x2="651.0029" y1="1031.2266" y2="1031.2266"/><text fill="#888888" font-family="sans-serif" font-size="11" font-weight="bold" lengthAdjust="spacing" textLength="104.4946" x="25" y="1041.437">[fehlgeschlagen]</text><g class="message" data-entity-1="part1" data-entity-2="part2" id="msg22"><polygon fill="#E7E7E7" points="398.2935,1062.1641,408.2935,1066.1641,398.2935,1070.1641,402.2935,1066.1641" style="stroke:#E7E7E7;stroke-width:1;"/><line style="stroke:#E7E7E7;stroke-width:1;" x1="130.1509" x2="404.2935" y1="1066.1641" y2="1066.1641"/><text fill="#FFFFFF" font-family="sans-serif" font-size="13" lengthAdjust="spacing" textLength="240.8428" x="137.1509" y="1061.0981">write("-ERR Login fehlgeschlagen\n")</text></g><g class="message" data-entity-1="part1" data-entity-2="part2" id="msg23"><polygon fill="#E7E7E7" points="398.2935,1135.2969,408.2935,1139.2969,398.2935,1143.2969,402.2935,1139.2969" style="stroke:#E7E7E7;stroke-width:1;"/><line style="stroke:#E7E7E7;stroke-width:1;" x1="130.1509" x2="404.2935" y1="1139.2969" y2="1139.2969"/><text fill="#FFFFFF" font-family="sans-serif" font-size="13" lengthAdjust="spacing" textLength="43.6274" x="137.1509" y="1134.231">close()</text></g><?plantuml-src nLHHYzf047xFhvYcBqehBNqgLwxWYOhKdjJ45jA3iYRZPd7TjRiRRU-tzQr_hBCnfp5wHOv25qB8Vj_CzyrCTkrIg3KpR0LpbYwvqONAKYsr0MUOiWIXSe7TirB9hEqwPyIyS3XAjOh4FSBh6YN2xmMg58UKR3tGolNAVC_Vbkinueqs6PhBg7kd5VrDkO9SP0WBhTrS_mWepebKh9bo45v19D8SJOx2sJWtoB8Gc8NuXARJ9ReIwqL_oP5GLmoJM3AJ8FYgE-yXXYimXMgr0vOwiM4EII06GdgHXqXrB1JMSH8Xh5C5pt61kGmohEDwxIg0Nbmeyh8Iv6Sy6OvktuK1G2dXupTek4JlCYauKzncb4Er2elc9Qo5QXEvPgsAJ2YIe_kCPikaAnHl7V4I-aZs5ZTx5ctNZ2QxR1NBcG9VBPYqUCpocXGDQ1PQSkEjqaxbespIrWY7hV35v0Dy4L8kzMg5wkvEXUsIM6-C_pvkbT-HMgyV-lNi6i9Fir4SbaXTfZQB7THC0t0wbzt-gUIkfahpcZIZk1lFeWVLupPt9JChfYJZ1_56jtVhq7Ds2DcZZTOtwwkriJlkJZz-czn2IzC1WybWq3xqytpfvuj46cUzodWo78xx_wbA7x75DBSI8NBC5HPQR4dSCshnkNpnMTzZpI_rApM_qEVYzo-Eq1V-ok2G2tLVFCraSxIpbKtptMci7wb_CzxwmNb4_-OdFb5BPS7XNIfxNOvKZ_y1rFbReTEVJe5695I3Vla5uHNzSyYTIcsRT_9Hr1y0?></g></svg>