<?plantuml 1.2026.2beta3?><svg xmlns="http://www.w3.org/2000/svg" xmlns:xlink="http://www.w3.org/1999/xlink" contentStyleType="text/css" data-diagram-type="CLASS" height="583px" preserveAspectRatio="none" style="width:825px;height:583px;" version="1.1" viewBox="0 0 825 583" width="825px" zoomAndPan="magnify"><defs/><g><!--class SicherheitsServer--><g class="entity" data-qualified-name="SicherheitsServer" data-source-line="3" id="ent0002"><rect fill="#313139" height="96.8906" rx="2.5" ry="2.5" style="stroke:#E7E7E7;stroke-width:0.5;" width="386.1514" x="83.5" y="7"/><ellipse cx="210.4331" cy="23" fill="#2E5233" rx="11" ry="11" style="stroke:#E7E7E7;stroke-width:1;"/><path d="M213.4019,28.6406 Q212.8237,28.9375 212.1831,29.0781 Q211.5425,29.2344 210.8394,29.2344 Q208.3394,29.2344 207.0112,27.5938 Q205.6987,25.9375 205.6987,22.8125 Q205.6987,19.6875 207.0112,18.0313 Q208.3394,16.375 210.8394,16.375 Q211.5425,16.375 212.1831,16.5313 Q212.8394,16.6875 213.4019,16.9844 L213.4019,19.7031 Q212.7769,19.125 212.1831,18.8594 Q211.5894,18.5781 210.9644,18.5781 Q209.6206,18.5781 208.9331,19.6563 Q208.2456,20.7188 208.2456,22.8125 Q208.2456,24.9063 208.9331,25.9844 Q209.6206,27.0469 210.9644,27.0469 Q211.5894,27.0469 212.1831,26.7813 Q212.7769,26.5 213.4019,25.9219 L213.4019,28.6406 Z " fill="#FFFFFF"/><text fill="#FFFFFF" font-family="sans-serif" font-size="14" lengthAdjust="spacing" textLength="123.7852" x="230.9331" y="27.8467">SicherheitsServer</text><line style="stroke:#E7E7E7;stroke-width:0.5;" x1="84.5" x2="468.6514" y1="39" y2="39"/><text fill="#FFFFFF" font-family="sans-serif" font-size="14" lengthAdjust="spacing" textLength="65.6182" x="89.5" y="55.9951">-port : int</text><line style="stroke:#E7E7E7;stroke-width:0.5;" x1="84.5" x2="468.6514" y1="63.2969" y2="63.2969"/><text fill="#FFFFFF" font-family="sans-serif" font-size="14" lengthAdjust="spacing" textLength="374.1514" x="89.5" y="80.292">+SicherheitsServer(port : int, z : SicherheitsZentrale)</text><text fill="#FFFFFF" font-family="sans-serif" font-size="14" lengthAdjust="spacing" textLength="92.0664" x="89.5" y="96.5889">+runServer()</text></g><!--class SicherheitsThread--><g class="entity" data-qualified-name="SicherheitsThread" data-source-line="8" id="ent0003"><rect fill="#313139" height="96.8906" rx="2.5" ry="2.5" style="stroke:#E7E7E7;stroke-width:0.5;" width="443.9902" x="374.58" y="180.89"/><ellipse cx="528.7577" cy="196.89" fill="#2E5233" rx="11" ry="11" style="stroke:#E7E7E7;stroke-width:1;"/><path d="M531.7265,202.5306 Q531.1484,202.8275 530.5077,202.9681 Q529.8671,203.1244 529.164,203.1244 Q526.664,203.1244 525.3359,201.4838 Q524.0234,199.8275 524.0234,196.7025 Q524.0234,193.5775 525.3359,191.9213 Q526.664,190.265 529.164,190.265 Q529.8671,190.265 530.5077,190.4213 Q531.164,190.5775 531.7265,190.8744 L531.7265,193.5931 Q531.1015,193.015 530.5077,192.7494 Q529.914,192.4681 529.289,192.4681 Q527.9452,192.4681 527.2577,193.5463 Q526.5702,194.6088 526.5702,196.7025 Q526.5702,198.7963 527.2577,199.8744 Q527.9452,200.9369 529.289,200.9369 Q529.914,200.9369 530.5077,200.6713 Q531.1015,200.39 531.7265,199.8119 L531.7265,202.5306 Z " fill="#FFFFFF"/><text fill="#FFFFFF" font-family="sans-serif" font-size="14" lengthAdjust="spacing" textLength="127.1348" x="549.2577" y="201.7367">SicherheitsThread</text><line style="stroke:#E7E7E7;stroke-width:0.5;" x1="375.58" x2="817.5702" y1="212.89" y2="212.89"/><line style="stroke:#E7E7E7;stroke-width:0.5;" x1="375.58" x2="817.5702" y1="220.89" y2="220.89"/><text fill="#FFFFFF" font-family="sans-serif" font-size="14" lengthAdjust="spacing" textLength="392.9023" x="380.58" y="237.8851">+SicherheitsThread(cs : Socket, z : SicherheitsZentrale)</text><text fill="#FFFFFF" font-family="sans-serif" font-size="14" lengthAdjust="spacing" textLength="46.1563" x="380.58" y="254.182">+run()</text><text fill="#FFFFFF" font-family="sans-serif" font-size="14" lengthAdjust="spacing" textLength="431.9902" x="380.58" y="270.4789">-vergleicheZugangsdaten(user : String, pin : String) : boolean</text></g><!--class Thread--><g class="entity" data-qualified-name="Thread" data-source-line="13" id="ent0004"><rect fill="#313139" height="80.5938" rx="2.5" ry="2.5" style="stroke:#E7E7E7;stroke-width:0.5;" width="81.2598" x="555.95" y="15.15"/><ellipse cx="570.95" cy="31.15" fill="#2E5233" rx="11" ry="11" style="stroke:#E7E7E7;stroke-width:1;"/><path d="M573.9188,36.7906 Q573.3406,37.0875 572.7,37.2281 Q572.0594,37.3844 571.3563,37.3844 Q568.8563,37.3844 567.5281,35.7437 Q566.2156,34.0875 566.2156,30.9625 Q566.2156,27.8375 567.5281,26.1812 Q568.8563,24.525 571.3563,24.525 Q572.0594,24.525 572.7,24.6812 Q573.3563,24.8375 573.9188,25.1344 L573.9188,27.8531 Q573.2938,27.275 572.7,27.0094 Q572.1063,26.7281 571.4813,26.7281 Q570.1375,26.7281 569.45,27.8062 Q568.7625,28.8687 568.7625,30.9625 Q568.7625,33.0562 569.45,34.1344 Q570.1375,35.1969 571.4813,35.1969 Q572.1063,35.1969 572.7,34.9312 Q573.2938,34.65 573.9188,34.0719 L573.9188,36.7906 Z " fill="#FFFFFF"/><text fill="#FFFFFF" font-family="sans-serif" font-size="14" lengthAdjust="spacing" textLength="49.2598" x="584.95" y="35.9967">Thread</text><line style="stroke:#E7E7E7;stroke-width:0.5;" x1="556.95" x2="636.2098" y1="47.15" y2="47.15"/><line style="stroke:#E7E7E7;stroke-width:0.5;" x1="556.95" x2="636.2098" y1="55.15" y2="55.15"/><text fill="#FFFFFF" font-family="sans-serif" font-size="14" lengthAdjust="spacing" textLength="55.2617" x="561.95" y="72.1451">+start()</text><text fill="#FFFFFF" font-family="sans-serif" font-size="14" lengthAdjust="spacing" textLength="46.1563" x="561.95" y="88.442">+run()</text></g><!--class SicherheitsZentrale--><g class="entity" data-qualified-name="SicherheitsZentrale" data-source-line="17" id="ent0005"><rect fill="#313139" height="64.2969" rx="2.5" ry="2.5" style="stroke:#E7E7E7;stroke-width:0.5;" width="171.9336" x="191.61" y="354.78"/><ellipse cx="207.8044" cy="370.78" fill="#2E5233" rx="11" ry="11" style="stroke:#E7E7E7;stroke-width:1;"/><path d="M210.7732,376.4206 Q210.1951,376.7175 209.5544,376.8581 Q208.9138,377.0144 208.2107,377.0144 Q205.7107,377.0144 204.3826,375.3738 Q203.0701,373.7175 203.0701,370.5925 Q203.0701,367.4675 204.3826,365.8113 Q205.7107,364.155 208.2107,364.155 Q208.9138,364.155 209.5544,364.3113 Q210.2107,364.4675 210.7732,364.7644 L210.7732,367.4831 Q210.1482,366.905 209.5544,366.6394 Q208.9607,366.3581 208.3357,366.3581 Q206.9919,366.3581 206.3044,367.4363 Q205.6169,368.4988 205.6169,370.5925 Q205.6169,372.6863 206.3044,373.7644 Q206.9919,374.8269 208.3357,374.8269 Q208.9607,374.8269 209.5544,374.5613 Q210.1482,374.28 210.7732,373.7019 L210.7732,376.4206 Z " fill="#FFFFFF"/><text fill="#FFFFFF" font-family="sans-serif" font-size="14" lengthAdjust="spacing" textLength="137.2793" x="222.0699" y="375.6267">SicherheitsZentrale</text><line style="stroke:#E7E7E7;stroke-width:0.5;" x1="192.61" x2="362.5436" y1="386.78" y2="386.78"/><line style="stroke:#E7E7E7;stroke-width:0.5;" x1="192.61" x2="362.5436" y1="394.78" y2="394.78"/><text fill="#FFFFFF" font-family="sans-serif" font-size="14" lengthAdjust="spacing" textLength="159.9336" x="197.61" y="411.7751">+SicherheitsZentrale()</text></g><!--class BenutzerVerwaltung--><g class="entity" data-qualified-name="BenutzerVerwaltung" data-source-line="20" id="ent0006"><rect fill="#313139" height="80.5938" rx="2.5" ry="2.5" style="stroke:#E7E7E7;stroke-width:0.5;" width="175.1582" x="7" y="496.08"/><ellipse cx="22" cy="512.08" fill="#2E5233" rx="11" ry="11" style="stroke:#E7E7E7;stroke-width:1;"/><path d="M24.9688,517.7206 Q24.3906,518.0175 23.75,518.1581 Q23.1094,518.3144 22.4063,518.3144 Q19.9063,518.3144 18.5781,516.6737 Q17.2656,515.0175 17.2656,511.8925 Q17.2656,508.7675 18.5781,507.1112 Q19.9063,505.455 22.4063,505.455 Q23.1094,505.455 23.75,505.6112 Q24.4063,505.7675 24.9688,506.0644 L24.9688,508.7831 Q24.3438,508.205 23.75,507.9394 Q23.1563,507.6581 22.5313,507.6581 Q21.1875,507.6581 20.5,508.7362 Q19.8125,509.7987 19.8125,511.8925 Q19.8125,513.9862 20.5,515.0644 Q21.1875,516.1269 22.5313,516.1269 Q23.1563,516.1269 23.75,515.8612 Q24.3438,515.58 24.9688,515.0019 L24.9688,517.7206 Z " fill="#FFFFFF"/><text fill="#FFFFFF" font-family="sans-serif" font-size="14" lengthAdjust="spacing" textLength="143.1582" x="36" y="516.9267">BenutzerVerwaltung</text><line style="stroke:#E7E7E7;stroke-width:0.5;" x1="8" x2="181.1582" y1="528.08" y2="528.08"/><text fill="#FFFFFF" font-family="sans-serif" font-size="14" lengthAdjust="spacing" textLength="136.2266" x="13" y="545.0751">-adminUser : String</text><text fill="#FFFFFF" font-family="sans-serif" font-size="14" lengthAdjust="spacing" textLength="125.5215" x="13" y="561.372">-adminPin : String</text><line style="stroke:#E7E7E7;stroke-width:0.5;" x1="8" x2="181.1582" y1="568.6737" y2="568.6737"/></g><!--class Alarmanlage--><g class="entity" data-qualified-name="Alarmanlage" data-source-line="24" id="ent0007"><rect fill="#313139" height="64.2969" rx="2.5" ry="2.5" style="stroke:#E7E7E7;stroke-width:0.5;" width="120.9922" x="217.08" y="504.22"/><ellipse cx="232.1393" cy="520.22" fill="#2E5233" rx="11" ry="11" style="stroke:#E7E7E7;stroke-width:1;"/><path d="M235.1081,525.8606 Q234.53,526.1575 233.8893,526.2981 Q233.2487,526.4544 232.5456,526.4544 Q230.0456,526.4544 228.7175,524.8138 Q227.405,523.1575 227.405,520.0325 Q227.405,516.9075 228.7175,515.2513 Q230.0456,513.595 232.5456,513.595 Q233.2487,513.595 233.8893,513.7513 Q234.5456,513.9075 235.1081,514.2044 L235.1081,516.9231 Q234.4831,516.345 233.8893,516.0794 Q233.2956,515.7981 232.6706,515.7981 Q231.3268,515.7981 230.6393,516.8763 Q229.9518,517.9388 229.9518,520.0325 Q229.9518,522.1263 230.6393,523.2044 Q231.3268,524.2669 232.6706,524.2669 Q233.2956,524.2669 233.8893,524.0013 Q234.4831,523.72 235.1081,523.1419 L235.1081,525.8606 Z " fill="#FFFFFF"/><text fill="#FFFFFF" font-family="sans-serif" font-size="14" lengthAdjust="spacing" textLength="88.8604" x="246.1525" y="525.0667">Alarmanlage</text><line style="stroke:#E7E7E7;stroke-width:0.5;" x1="218.08" x2="337.0722" y1="536.22" y2="536.22"/><text fill="#FFFFFF" font-family="sans-serif" font-size="14" lengthAdjust="spacing" textLength="108.9922" x="223.08" y="553.2151">-aktiv : boolean</text><line style="stroke:#E7E7E7;stroke-width:0.5;" x1="218.08" x2="337.0722" y1="560.5169" y2="560.5169"/></g><!--class ProtokollLog--><g class="entity" data-qualified-name="ProtokollLog" data-source-line="27" id="ent0008"><rect fill="#313139" height="64.2969" rx="2.5" ry="2.5" style="stroke:#E7E7E7;stroke-width:0.5;" width="187.6973" x="372.73" y="504.22"/><ellipse cx="419.0674" cy="520.22" fill="#2E5233" rx="11" ry="11" style="stroke:#E7E7E7;stroke-width:1;"/><path d="M422.0362,525.8606 Q421.458,526.1575 420.8174,526.2981 Q420.1768,526.4544 419.4737,526.4544 Q416.9737,526.4544 415.6455,524.8138 Q414.333,523.1575 414.333,520.0325 Q414.333,516.9075 415.6455,515.2513 Q416.9737,513.595 419.4737,513.595 Q420.1768,513.595 420.8174,513.7513 Q421.4737,513.9075 422.0362,514.2044 L422.0362,516.9231 Q421.4112,516.345 420.8174,516.0794 Q420.2237,515.7981 419.5987,515.7981 Q418.2549,515.7981 417.5674,516.8763 Q416.8799,517.9388 416.8799,520.0325 Q416.8799,522.1263 417.5674,523.2044 Q418.2549,524.2669 419.5987,524.2669 Q420.2237,524.2669 420.8174,524.0013 Q421.4112,523.72 422.0362,523.1419 L422.0362,525.8606 Z " fill="#FFFFFF"/><text fill="#FFFFFF" font-family="sans-serif" font-size="14" lengthAdjust="spacing" textLength="86.5225" x="439.5674" y="525.0667">ProtokollLog</text><line style="stroke:#E7E7E7;stroke-width:0.5;" x1="373.73" x2="559.4273" y1="536.22" y2="536.22"/><text fill="#FFFFFF" font-family="sans-serif" font-size="14" lengthAdjust="spacing" textLength="175.6973" x="378.73" y="553.2151">-eintraege : List&lt;String&gt;</text><line style="stroke:#E7E7E7;stroke-width:0.5;" x1="373.73" x2="559.4273" y1="560.5169" y2="560.5169"/></g><!--class ServerSocket--><g class="entity" data-qualified-name="ServerSocket" data-source-line="30" id="ent0009"><rect fill="#313139" height="48" rx="2.5" ry="2.5" style="stroke:#E7E7E7;stroke-width:0.5;" width="125.2695" x="213.94" y="205.33"/><ellipse cx="228.94" cy="221.33" fill="#2E5233" rx="11" ry="11" style="stroke:#E7E7E7;stroke-width:1;"/><path d="M231.9088,226.9706 Q231.3306,227.2675 230.69,227.4081 Q230.0494,227.5644 229.3463,227.5644 Q226.8463,227.5644 225.5181,225.9237 Q224.2056,224.2675 224.2056,221.1425 Q224.2056,218.0175 225.5181,216.3612 Q226.8463,214.705 229.3463,214.705 Q230.0494,214.705 230.69,214.8612 Q231.3463,215.0175 231.9088,215.3144 L231.9088,218.0331 Q231.2838,217.455 230.69,217.1894 Q230.0963,216.9081 229.4713,216.9081 Q228.1275,216.9081 227.44,217.9862 Q226.7525,219.0487 226.7525,221.1425 Q226.7525,223.2362 227.44,224.3144 Q228.1275,225.3769 229.4713,225.3769 Q230.0963,225.3769 230.69,225.1112 Q231.2838,224.83 231.9088,224.2519 L231.9088,226.9706 Z " fill="#FFFFFF"/><text fill="#FFFFFF" font-family="sans-serif" font-size="14" lengthAdjust="spacing" textLength="93.2695" x="242.94" y="226.1767">ServerSocket</text><line style="stroke:#E7E7E7;stroke-width:0.5;" x1="214.94" x2="338.2095" y1="237.33" y2="237.33"/><line style="stroke:#E7E7E7;stroke-width:0.5;" x1="214.94" x2="338.2095" y1="245.33" y2="245.33"/></g><!--class Socket--><g class="entity" data-qualified-name="Socket" data-source-line="34" id="ent0015"><rect fill="#313139" height="48" rx="2.5" ry="2.5" style="stroke:#E7E7E7;stroke-width:0.5;" width="79.3594" x="556.9" y="362.93"/><ellipse cx="571.9" cy="378.93" fill="#2E5233" rx="11" ry="11" style="stroke:#E7E7E7;stroke-width:1;"/><path d="M574.8688,384.5706 Q574.2906,384.8675 573.65,385.0081 Q573.0094,385.1644 572.3063,385.1644 Q569.8063,385.1644 568.4781,383.5237 Q567.1656,381.8675 567.1656,378.7425 Q567.1656,375.6175 568.4781,373.9612 Q569.8063,372.305 572.3063,372.305 Q573.0094,372.305 573.65,372.4612 Q574.3063,372.6175 574.8688,372.9144 L574.8688,375.6331 Q574.2438,375.055 573.65,374.7894 Q573.0563,374.5081 572.4313,374.5081 Q571.0875,374.5081 570.4,375.5862 Q569.7125,376.6487 569.7125,378.7425 Q569.7125,380.8362 570.4,381.9144 Q571.0875,382.9769 572.4313,382.9769 Q573.0563,382.9769 573.65,382.7112 Q574.2438,382.43 574.8688,381.8519 L574.8688,384.5706 Z " fill="#FFFFFF"/><text fill="#FFFFFF" font-family="sans-serif" font-size="14" lengthAdjust="spacing" textLength="47.3594" x="585.9" y="383.7767">Socket</text><line style="stroke:#E7E7E7;stroke-width:0.5;" x1="557.9" x2="635.2594" y1="394.93" y2="394.93"/><line style="stroke:#E7E7E7;stroke-width:0.5;" x1="557.9" x2="635.2594" y1="402.93" y2="402.93"/></g><!--link SicherheitsServer to ServerSocket--><g class="link" data-entity-1="ent0002" data-entity-2="ent0009" data-link-type="dependency" data-source-line="30" id="lnk10"><path codeLine="30" d="M276.58,112.32 C276.58,145.11 276.58,173.15 276.58,198.89" fill="none" id="SicherheitsServer-ServerSocket" style="stroke:#E7E7E7;stroke-width:1;"/><path d="M272.58,109.32 L280.58,117.32 M280.58,109.32 L272.58,117.32" fill="none" style="stroke:#E7E7E7;stroke-width:1;"/><polygon fill="#E7E7E7" points="276.58,204.89,280.58,195.89,276.58,199.89,272.58,195.89,276.58,204.89" style="stroke:#E7E7E7;stroke-width:1;"/><text fill="#FFFFFF" font-family="sans-serif" font-size="13" lengthAdjust="spacing" textLength="89.8193" x="277.58" y="146.9569">-serverSocket</text><text fill="#FFFFFF" font-family="sans-serif" font-size="13" lengthAdjust="spacing" textLength="8.271" x="267.6393" y="194.1877">1</text></g><!--link SicherheitsServer to SicherheitsZentrale--><g class="link" data-entity-1="ent0002" data-entity-2="ent0005" data-link-type="dependency" data-source-line="31" id="lnk11"><path codeLine="31" d="M194.9771,109.3474 C169.8871,129.6174 151.13,150.58 137.58,180.89 C120.01,220.2 118.6,239.13 137.58,277.78 C153.69,310.58 179.9802,333.0828 208.9602,351.1728" fill="none" id="SicherheitsServer-SicherheitsZentrale" style="stroke:#E7E7E7;stroke-width:1;"/><path d="M194.7969,104.3507 L193.6015,115.6011 M199.8244,110.5736 L188.574,109.3781" fill="none" style="stroke:#E7E7E7;stroke-width:1;"/><polygon fill="#E7E7E7" points="214.05,354.35,208.5335,346.1911,209.8085,351.7024,204.2973,352.9774,214.05,354.35" style="stroke:#E7E7E7;stroke-width:1;"/><text fill="#FFFFFF" font-family="sans-serif" font-size="13" lengthAdjust="spacing" textLength="57.77" x="138.58" y="233.8969">-zentrale</text><text fill="#FFFFFF" font-family="sans-serif" font-size="13" lengthAdjust="spacing" textLength="8.271" x="193.2035" y="343.7896">1</text></g><!--link SicherheitsServer to SicherheitsThread--><g class="link" data-entity-1="ent0002" data-entity-2="ent0003" data-link-type="dependency" data-source-line="32" id="lnk12"><path codeLine="32" d="M365.72,104.32 C409.92,128.07 457.8747,153.82 502.0747,177.57" fill="none" id="SicherheitsServer-to-SicherheitsThread" style="stroke:#E7E7E7;stroke-width:1;stroke-dasharray:7,7;"/><polygon fill="#E7E7E7" points="507.36,180.41,501.3253,172.6265,502.9556,178.0434,497.5387,179.6736,507.36,180.41" style="stroke:#E7E7E7;stroke-width:1;"/><text fill="#FFFFFF" font-family="sans-serif" font-size="13" lengthAdjust="spacing" textLength="64.2319" x="447.58" y="146.9569">&#171;creates&#187;</text></g><!--reverse link Thread to SicherheitsThread--><g class="link" data-entity-1="ent0004" data-entity-2="ent0003" data-link-type="extension" data-source-line="33" id="lnk14"><path codeLine="33" d="M596.58,113.88 C596.58,139.05 596.58,153.85 596.58,180.51" fill="none" id="Thread-backto-SicherheitsThread" style="stroke:#E7E7E7;stroke-width:1;"/><polygon fill="none" points="596.58,95.88,590.58,113.88,602.58,113.88,596.58,95.88" style="stroke:#E7E7E7;stroke-width:1;"/></g><!--link SicherheitsThread to Socket--><g class="link" data-entity-1="ent0003" data-entity-2="ent0015" data-link-type="dependency" data-source-line="34" id="lnk16"><path codeLine="34" d="M596.58,285.86 C596.58,313.92 596.58,334.21 596.58,356.53" fill="none" id="SicherheitsThread-Socket" style="stroke:#E7E7E7;stroke-width:1;"/><path d="M592.58,282.86 L600.58,290.86 M600.58,282.86 L592.58,290.86" fill="none" style="stroke:#E7E7E7;stroke-width:1;"/><polygon fill="#E7E7E7" points="596.58,362.53,600.58,353.53,596.58,357.53,592.58,353.53,596.58,362.53" style="stroke:#E7E7E7;stroke-width:1;"/><text fill="#FFFFFF" font-family="sans-serif" font-size="13" lengthAdjust="spacing" textLength="84.373" x="597.58" y="320.8469">-clientSocket</text><text fill="#FFFFFF" font-family="sans-serif" font-size="13" lengthAdjust="spacing" textLength="8.271" x="587.6381" y="351.8375">1</text></g><!--link SicherheitsThread to SicherheitsZentrale--><g class="link" data-entity-1="ent0003" data-entity-2="ent0005" data-link-type="dependency" data-source-line="35" id="lnk17"><path codeLine="35" d="M491.5102,281.5781 C440.6002,306.4181 392.3625,329.9392 347.4125,351.8692" fill="none" id="SicherheitsThread-SicherheitsZentrale" style="stroke:#E7E7E7;stroke-width:1;"/><path d="M492.4523,276.6676 L488.7706,287.3655 M495.9604,283.8574 L485.2625,280.1757" fill="none" style="stroke:#E7E7E7;stroke-width:1;"/><polygon fill="#E7E7E7" points="342.02,354.5,351.8626,354.1487,346.5137,352.3076,348.3548,346.9588,342.02,354.5" style="stroke:#E7E7E7;stroke-width:1;"/><text fill="#FFFFFF" font-family="sans-serif" font-size="13" lengthAdjust="spacing" textLength="57.77" x="438.58" y="320.8469">-zentrale</text><text fill="#FFFFFF" font-family="sans-serif" font-size="13" lengthAdjust="spacing" textLength="8.271" x="345.9464" y="343.7191">1</text></g><!--link SicherheitsZentrale to BenutzerVerwaltung--><g class="link" data-entity-1="ent0005" data-entity-2="ent0006" data-link-type="dependency" data-source-line="36" id="lnk18"><path codeLine="36" d="M224.2206,423.884 C210.9906,433.164 203.29,438.96 190.58,449.08 C172.35,463.59 157.5083,476.5115 141.0683,491.5415" fill="none" id="SicherheitsZentrale-BenutzerVerwaltung" style="stroke:#E7E7E7;stroke-width:1;"/><path d="M224.3796,418.8865 L222.4242,430.03 M228.9736,425.436 L217.8302,423.4805" fill="none" style="stroke:#E7E7E7;stroke-width:1;"/><polygon fill="#E7E7E7" points="136.64,495.59,145.9814,492.4695,140.3302,492.2163,140.5834,486.5651,136.64,495.59" style="stroke:#E7E7E7;stroke-width:1;"/><text fill="#FFFFFF" font-family="sans-serif" font-size="13" lengthAdjust="spacing" textLength="77.7651" x="191.58" y="462.1469">-verwaltung</text><text fill="#FFFFFF" font-family="sans-serif" font-size="13" lengthAdjust="spacing" textLength="8.271" x="134.7276" y="484.9718">1</text></g><!--link SicherheitsZentrale to Alarmanlage--><g class="link" data-entity-1="ent0005" data-entity-2="ent0007" data-link-type="dependency" data-source-line="37" id="lnk19"><path codeLine="37" d="M277.58,427.56 C277.58,452.44 277.58,472.93 277.58,497.79" fill="none" id="SicherheitsZentrale-Alarmanlage" style="stroke:#E7E7E7;stroke-width:1;"/><path d="M273.58,424.56 L281.58,432.56 M281.58,424.56 L273.58,432.56" fill="none" style="stroke:#E7E7E7;stroke-width:1;"/><polygon fill="#E7E7E7" points="277.58,503.79,281.58,494.79,277.58,498.79,273.58,494.79,277.58,503.79" style="stroke:#E7E7E7;stroke-width:1;"/><text fill="#FFFFFF" font-family="sans-serif" font-size="13" lengthAdjust="spacing" textLength="86.2773" x="278.58" y="462.1469">-alarmanlage</text><text fill="#FFFFFF" font-family="sans-serif" font-size="13" lengthAdjust="spacing" textLength="8.271" x="268.8441" y="493.2296">1</text></g><!--link SicherheitsZentrale to ProtokollLog--><g class="link" data-entity-1="ent0005" data-entity-2="ent0008" data-link-type="dependency" data-source-line="38" id="lnk20"><path codeLine="38" d="M337.3099,423.5641 C351.6299,432.6741 360.13,438.69 373.58,449.08 C395.37,465.9 413.7525,482.6829 431.2625,499.7429" fill="none" id="SicherheitsZentrale-ProtokollLog" style="stroke:#E7E7E7;stroke-width:1;"/><path d="M332.6316,425.3287 L343.6756,422.873 M336.9257,418.5789 L339.3815,429.6228" fill="none" style="stroke:#E7E7E7;stroke-width:1;"/><polygon fill="#E7E7E7" points="435.56,503.93,431.9051,494.7844,431.9787,500.4408,426.3224,500.5144,435.56,503.93" style="stroke:#E7E7E7;stroke-width:1;"/><text fill="#FFFFFF" font-family="sans-serif" font-size="13" lengthAdjust="spacing" textLength="24.5083" x="393.58" y="462.1469">-log</text><text fill="#FFFFFF" font-family="sans-serif" font-size="13" lengthAdjust="spacing" textLength="8.271" x="420.6924" y="493.1471">1</text></g><?plantuml-src ZP8zRy9038PtVeN554I3sXMXI7Ihn814su7D75OuvRX3FeTMjFtlDLz9K2B4vg_7Vds-M5Y_GyOjhD0KEOVIhqrmWK4OVTGKUUd5gieuZ74gmdPL2hsPu1VsGF3SEoLWOSs6U4DMue9uJmm_FO0KTe45nc2zWFh3TbrILpp1GOr6nL8bC3eQd5ak_ONHm5zxyFk62TUdmSDsF37ns3sOWXwPb9pC57HSxkXOkInpz7bSev1FogWhQWjz3vy_mSxwoXkejGh14VfQvessACYItCxgsESgghtHDTC4NycNSY3-9Fv29wNFBoV0zTRwZwPUgEFpXl2wrzGXRz4xpEdQf12xxrfipa524PoRXUj0iaTrfEmOPZRAvDm-EqBjV_ATfXdqN_fmziy7KZAD3Vykr_5YYXykTWSw6cKT_sOCaubHIoXcMQ-TJyjT-fjTBjcHhmLLAnXdLKLxXHRn-0fLle8x3g_illBkqyrJAuQrUv-xkRk2BkJ_?></g></svg>