<?plantuml 1.2026.2beta3?><svg xmlns="http://www.w3.org/2000/svg" xmlns:xlink="http://www.w3.org/1999/xlink" contentStyleType="text/css" data-diagram-type="SEQUENCE" height="615px" preserveAspectRatio="none" style="width:709px;height:615px;" version="1.1" viewBox="0 0 709 615" width="709px" zoomAndPan="magnify"><defs/><g><g><title>hub. SmartHomeServer</title><rect fill="#FFFFFF" height="522.8594" style="stroke:#E7E7E7;stroke-width:1;" width="10" x="134.7012" y="67.4297"/></g><g><title>hub. SmartHomeServer</title><rect fill="#FFFFFF" height="28" style="stroke:#E7E7E7;stroke-width:1;" width="10" x="139.7012" y="293.4922"/></g><g><title>server. ServerSocket</title><rect fill="#FFFFFF" height="29.1328" style="stroke:#E7E7E7;stroke-width:1;" width="10" x="314.7793" y="96.5625"/></g><g><title>clientSocket. Socket</title><rect fill="#FFFFFF" height="29.1328" style="stroke:#E7E7E7;stroke-width:1;" width="10" x="483.3252" y="178.9609"/></g><g><title>clientSocket. Socket</title><rect fill="#FFFFFF" height="84.2656" style="stroke:#E7E7E7;stroke-width:1;" width="10" x="483.3252" y="440.8906"/></g><g><title>clientSocket. Socket</title><rect fill="#FFFFFF" height="30" style="stroke:#E7E7E7;stroke-width:1;" width="10" x="483.3252" y="560.2891"/></g><g><title>licht. Licht</title><rect fill="#FFFFFF" height="30" style="stroke:#E7E7E7;stroke-width:1;" width="10" x="614.8716" y="381.7578"/></g><rect fill="none" height="391.4609" style="stroke:#888888;stroke-width:1.5;" width="693.249" x="10" y="140.6953"/><rect fill="none" height="302.0625" style="stroke:#888888;stroke-width:1.5;" width="673.249" x="20" y="223.0938"/><rect fill="none" height="270.9297" style="stroke:#888888;stroke-width:1.5;" width="653.249" x="30" y="247.2266"/><rect fill="none" height="136.5313" style="stroke:#888888;stroke-width:1.5;" width="633.249" x="40" y="343.4922"/><g class="participant-lifeline" data-entity-uid="part1" data-qualified-name="S" id="part1-lifeline"><g><title>hub. SmartHomeServer</title><rect fill="#000000" fill-opacity="0.00000" height="571.9922" width="8" x="135.7012" y="36.2969"/><line style="stroke:#E7E7E7;stroke-width:0.5;stroke-dasharray:5,5;" x1="139" x2="139" y1="36.2969" y2="608.2891"/></g></g><g class="participant-lifeline" data-entity-uid="part2" data-qualified-name="SS" id="part2-lifeline"><g><title>server. ServerSocket</title><rect fill="#000000" fill-opacity="0.00000" height="571.9922" width="8" x="315.7793" y="36.2969"/><line style="stroke:#E7E7E7;stroke-width:0.5;stroke-dasharray:5,5;" x1="319.4023" x2="319.4023" y1="36.2969" y2="608.2891"/></g></g><g class="participant-lifeline" data-entity-uid="part3" data-qualified-name="CS" id="part3-lifeline"><g><title>clientSocket. Socket</title><rect fill="#000000" fill-opacity="0.00000" height="571.9922" width="8" x="484.3252" y="36.2969"/><line style="stroke:#E7E7E7;stroke-width:0.5;stroke-dasharray:5,5;" x1="488.1563" x2="488.1563" y1="36.2969" y2="608.2891"/></g></g><g class="participant-lifeline" data-entity-uid="part4" data-qualified-name="L" id="part4-lifeline"><g><title>licht. Licht</title><rect fill="#000000" fill-opacity="0.00000" height="571.9922" width="8" x="615.8716" y="36.2969"/><line style="stroke:#E7E7E7;stroke-width:0.5;stroke-dasharray:5,5;" x1="619.4941" x2="619.4941" y1="36.2969" y2="608.2891"/></g></g><g class="participant participant-head" data-entity-uid="part1" data-qualified-name="S" id="part1-head"><rect fill="#222222" height="30.2969" rx="2.5" ry="2.5" style="stroke:#E7E7E7;stroke-width:0.5;" width="179.4023" x="50" y="5"/><text fill="#FFFFFF" font-family="sans-serif" font-size="14" lengthAdjust="spacing" textLength="165.4023" x="57" y="24.9951">hub: SmartHomeServer</text></g><g class="participant participant-head" data-entity-uid="part2" data-qualified-name="SS" id="part2-head"><rect fill="#222222" height="30.2969" rx="2.5" ry="2.5" style="stroke:#E7E7E7;stroke-width:0.5;" width="160.7539" x="239.4023" y="5"/><text fill="#FFFFFF" font-family="sans-serif" font-size="14" lengthAdjust="spacing" textLength="146.7539" x="246.4023" y="24.9951">server: ServerSocket</text></g><g class="participant participant-head" data-entity-uid="part3" data-qualified-name="CS" id="part3-head"><rect fill="#222222" height="30.2969" rx="2.5" ry="2.5" style="stroke:#E7E7E7;stroke-width:0.5;" width="156.3379" x="410.1563" y="5"/><text fill="#FFFFFF" font-family="sans-serif" font-size="14" lengthAdjust="spacing" textLength="142.3379" x="417.1563" y="24.9951">clientSocket: Socket</text></g><g class="participant participant-head" data-entity-uid="part4" data-qualified-name="L" id="part4-head"><rect fill="#222222" height="30.2969" rx="2.5" ry="2.5" style="stroke:#E7E7E7;stroke-width:0.5;" width="86.7549" x="576.4941" y="5"/><text fill="#FFFFFF" font-family="sans-serif" font-size="14" lengthAdjust="spacing" textLength="72.7549" x="583.4941" y="24.9951">licht: Licht</text></g><g><title>hub. SmartHomeServer</title><rect fill="#FFFFFF" height="522.8594" style="stroke:#E7E7E7;stroke-width:1;" width="10" x="134.7012" y="67.4297"/></g><g><title>hub. SmartHomeServer</title><rect fill="#FFFFFF" height="28" style="stroke:#E7E7E7;stroke-width:1;" width="10" x="139.7012" y="293.4922"/></g><g><title>server. ServerSocket</title><rect fill="#FFFFFF" height="29.1328" style="stroke:#E7E7E7;stroke-width:1;" width="10" x="314.7793" y="96.5625"/></g><g><title>clientSocket. Socket</title><rect fill="#FFFFFF" height="29.1328" style="stroke:#E7E7E7;stroke-width:1;" width="10" x="483.3252" y="178.9609"/></g><g><title>clientSocket. Socket</title><rect fill="#FFFFFF" height="84.2656" style="stroke:#E7E7E7;stroke-width:1;" width="10" x="483.3252" y="440.8906"/></g><g><title>clientSocket. Socket</title><rect fill="#FFFFFF" height="30" style="stroke:#E7E7E7;stroke-width:1;" width="10" x="483.3252" y="560.2891"/></g><g><title>licht. Licht</title><rect fill="#FFFFFF" height="30" style="stroke:#E7E7E7;stroke-width:1;" width="10" x="614.8716" y="381.7578"/></g><g class="message" data-entity-1="part1" data-entity-2="part1" id="msg1"><ellipse cx="7.5" cy="66.6797" fill="#000000" rx="4" ry="4" style="stroke:#E7E7E7;stroke-width:1.5;"/><polygon fill="#E7E7E7" points="122.7012,63.4297,132.7012,67.4297,122.7012,71.4297,126.7012,67.4297" style="stroke:#E7E7E7;stroke-width:1;"/><line style="stroke:#E7E7E7;stroke-width:1;" x1="12" x2="128.7012" y1="67.4297" y2="67.4297"/><text fill="#FFFFFF" font-family="sans-serif" font-size="13" lengthAdjust="spacing" textLength="83.0527" x="15" y="62.3638">startServer()</text></g><g class="message" data-entity-1="part1" data-entity-2="part2" id="msg2"><polygon fill="#E7E7E7" points="302.7793,92.5625,312.7793,96.5625,302.7793,100.5625,306.7793,96.5625" style="stroke:#E7E7E7;stroke-width:1;"/><line style="stroke:#E7E7E7;stroke-width:1;" x1="144.7012" x2="308.7793" y1="96.5625" y2="96.5625"/><text fill="#FFFFFF" font-family="sans-serif" font-size="13" lengthAdjust="spacing" textLength="53.752" x="151.7012" y="91.4966">accept()</text></g><g class="message" data-entity-1="part2" data-entity-2="part1" id="msg3"><polygon fill="#E7E7E7" points="155.7012,121.6953,145.7012,125.6953,155.7012,129.6953,151.7012,125.6953" style="stroke:#E7E7E7;stroke-width:1;"/><line style="stroke:#E7E7E7;stroke-width:1;stroke-dasharray:2,2;" x1="149.7012" x2="318.7793" y1="125.6953" y2="125.6953"/><text fill="#FFFFFF" font-family="sans-serif" font-size="13" lengthAdjust="spacing" textLength="79.6821" x="161.7012" y="120.6294">clientSocket</text></g><path d="M10,140.6953 L86.624,140.6953 L86.624,147.8281 L76.624,157.8281 L10,157.8281 L10,140.6953" fill="#222222" style="stroke:#888888;stroke-width:1.5;"/><rect fill="none" height="391.4609" style="stroke:#888888;stroke-width:1.5;" width="693.249" x="10" y="140.6953"/><text fill="#FFFFFF" font-family="sans-serif" font-size="13" font-weight="bold" lengthAdjust="spacing" textLength="31.624" x="25" y="153.7622">loop</text><text fill="#888888" font-family="sans-serif" font-size="11" font-weight="bold" lengthAdjust="spacing" textLength="112.4707" x="101.624" y="152.9058">[befehl != "QUIT"]</text><g class="message" data-entity-1="part1" data-entity-2="part3" id="msg4"><polygon fill="#E7E7E7" points="471.3252,174.9609,481.3252,178.9609,471.3252,182.9609,475.3252,178.9609" style="stroke:#E7E7E7;stroke-width:1;"/><line style="stroke:#E7E7E7;stroke-width:1;" x1="144.7012" x2="477.3252" y1="178.9609" y2="178.9609"/><text fill="#FFFFFF" font-family="sans-serif" font-size="13" lengthAdjust="spacing" textLength="66.7964" x="151.7012" y="173.895">readLine()</text></g><g class="message" data-entity-1="part3" data-entity-2="part1" id="msg5"><polygon fill="#E7E7E7" points="155.7012,204.0938,145.7012,208.0938,155.7012,212.0938,151.7012,208.0938" style="stroke:#E7E7E7;stroke-width:1;"/><line style="stroke:#E7E7E7;stroke-width:1;stroke-dasharray:2,2;" x1="149.7012" x2="487.3252" y1="208.0938" y2="208.0938"/><text fill="#FFFFFF" font-family="sans-serif" font-size="13" lengthAdjust="spacing" textLength="40.6758" x="161.7012" y="203.0278">befehl</text></g><path d="M20,223.0938 L89.4512,223.0938 L89.4512,230.2266 L79.4512,240.2266 L20,240.2266 L20,223.0938" fill="#222222" style="stroke:#888888;stroke-width:1.5;"/><rect fill="none" height="302.0625" style="stroke:#888888;stroke-width:1.5;" width="673.249" x="20" y="223.0938"/><text fill="#FFFFFF" font-family="sans-serif" font-size="13" font-weight="bold" lengthAdjust="spacing" textLength="24.4512" x="35" y="236.1606">opt</text><text fill="#888888" font-family="sans-serif" font-size="11" font-weight="bold" lengthAdjust="spacing" textLength="236.7524" x="104.4512" y="235.3042">[befehl beginnt mit "TOGGLE_LIGHT;"]</text><path d="M30,247.2266 L94.4429,247.2266 L94.4429,254.3594 L84.4429,264.3594 L30,264.3594 L30,247.2266" fill="#222222" style="stroke:#888888;stroke-width:1.5;"/><rect fill="none" height="270.9297" style="stroke:#888888;stroke-width:1.5;" width="653.249" x="30" y="247.2266"/><text fill="#FFFFFF" font-family="sans-serif" font-size="13" font-weight="bold" lengthAdjust="spacing" textLength="19.4429" x="45" y="260.2935">alt</text><text fill="#888888" font-family="sans-serif" font-size="11" font-weight="bold" lengthAdjust="spacing" textLength="246.3721" x="109.4429" y="259.437">[ASCII-Wert von ID zwischen 'A' und 'Z']</text><g class="message" data-entity-1="part1" data-entity-2="part1" id="msg6"><line style="stroke:#E7E7E7;stroke-width:1;" x1="149.7012" x2="191.7012" y1="285.4922" y2="285.4922"/><line style="stroke:#E7E7E7;stroke-width:1;" x1="191.7012" x2="191.7012" y1="285.4922" y2="298.4922"/><line style="stroke:#E7E7E7;stroke-width:1;" x1="150.7012" x2="191.7012" y1="298.4922" y2="298.4922"/><polygon fill="#E7E7E7" points="160.7012,294.4922,150.7012,298.4922,160.7012,302.4922,156.7012,298.4922" style="stroke:#E7E7E7;stroke-width:1;"/><text fill="#FFFFFF" font-family="sans-serif" font-size="13" lengthAdjust="spacing" textLength="73.8677" x="156.7012" y="280.4263">suche Licht</text></g><path d="M40,343.4922 L104.4429,343.4922 L104.4429,350.625 L94.4429,360.625 L40,360.625 L40,343.4922" fill="#222222" style="stroke:#888888;stroke-width:1.5;"/><rect fill="none" height="136.5313" style="stroke:#888888;stroke-width:1.5;" width="633.249" x="40" y="343.4922"/><text fill="#FFFFFF" font-family="sans-serif" font-size="13" font-weight="bold" lengthAdjust="spacing" textLength="19.4429" x="55" y="356.5591">alt</text><text fill="#888888" font-family="sans-serif" font-size="11" font-weight="bold" lengthAdjust="spacing" textLength="103.2217" x="119.4429" y="355.7026">[Licht gefunden]</text><g class="message" data-entity-1="part1" data-entity-2="part4" id="msg7"><polygon fill="#E7E7E7" points="602.8716,377.7578,612.8716,381.7578,602.8716,385.7578,606.8716,381.7578" style="stroke:#E7E7E7;stroke-width:1;"/><line style="stroke:#E7E7E7;stroke-width:1;" x1="144.7012" x2="608.8716" y1="381.7578" y2="381.7578"/><text fill="#FFFFFF" font-family="sans-serif" font-size="13" lengthAdjust="spacing" textLength="51.3081" x="151.7012" y="376.6919">toggle()</text></g><g class="message" data-entity-1="part1" data-entity-2="part3" id="msg8"><polygon fill="#E7E7E7" points="471.3252,436.8906,481.3252,440.8906,471.3252,444.8906,475.3252,440.8906" style="stroke:#E7E7E7;stroke-width:1;"/><line style="stroke:#E7E7E7;stroke-width:1;" x1="144.7012" x2="477.3252" y1="440.8906" y2="440.8906"/><text fill="#FFFFFF" font-family="sans-serif" font-size="13" lengthAdjust="spacing" textLength="97.0557" x="151.7012" y="435.8247">write("+OK\n")</text></g><line style="stroke:#888888;stroke-width:1;stroke-dasharray:2,2;" x1="40" x2="673.249" y1="449.8906" y2="449.8906"/><g class="message" data-entity-1="part1" data-entity-2="part3" id="msg9"><polygon fill="#E7E7E7" points="471.3252,468.0234,481.3252,472.0234,471.3252,476.0234,475.3252,472.0234" style="stroke:#E7E7E7;stroke-width:1;"/><line style="stroke:#E7E7E7;stroke-width:1;" x1="144.7012" x2="477.3252" y1="472.0234" y2="472.0234"/><text fill="#FFFFFF" font-family="sans-serif" font-size="13" lengthAdjust="spacing" textLength="236.2407" x="151.7012" y="466.9575">write("-ERR Licht nicht gefunden\n")</text></g><line style="stroke:#888888;stroke-width:1;stroke-dasharray:2,2;" x1="30" x2="683.249" y1="488.0234" y2="488.0234"/><g class="message" data-entity-1="part1" data-entity-2="part3" id="msg10"><polygon fill="#E7E7E7" points="471.3252,506.1563,481.3252,510.1563,471.3252,514.1563,475.3252,510.1563" style="stroke:#E7E7E7;stroke-width:1;"/><line style="stroke:#E7E7E7;stroke-width:1;" x1="144.7012" x2="477.3252" y1="510.1563" y2="510.1563"/><text fill="#FFFFFF" font-family="sans-serif" font-size="13" lengthAdjust="spacing" textLength="182.0254" x="151.7012" y="505.0903">write("-ERR ung&#252;ltige ID\n")</text></g><g class="message" data-entity-1="part1" data-entity-2="part3" id="msg11"><polygon fill="#E7E7E7" points="471.3252,556.2891,481.3252,560.2891,471.3252,564.2891,475.3252,560.2891" style="stroke:#E7E7E7;stroke-width:1;"/><line style="stroke:#E7E7E7;stroke-width:1;" x1="144.7012" x2="477.3252" y1="560.2891" y2="560.2891"/><text fill="#FFFFFF" font-family="sans-serif" font-size="13" lengthAdjust="spacing" textLength="43.6274" x="151.7012" y="555.2231">close()</text></g><?plantuml-src ZP9VYzD04C3Vyod6-D0JAOXFSg9GuzaB1Wul5K4FPBEPfaktkt5tqfFxRBxvnPniqdPJxi102SpyvZT_KhzLfXLExA0ISjiusvbQMcqTa1F6SmeD9Vv8IIsyNn0vLNM4kRIcL0y8hoAan5yT6ebBbhMVhA4i-9w_2SzJu0VhQdJ_Xnud7V7NuKasgaPOMqkL_Prm7IcfMc48qarNNKAvuz2rtM69Reyk1U6Xd78-P1WDxzBABTB0dO5IAxxB031-0hCpK2kvOQBeNm4eakI7dR-74Yx14wD3huiNYP2azeAGXogX9tf4I8ajJRASvloeY0T9QemfRMqB5Qvne-7PEqY_VCrNQG8Gv5bVx53KXJB8Ue1ZAQy0VVxGOb1mBD8pmm7Rqg51XOqolF1EyTAhc-MokFfPvClhrTk-9TirmQBCydp-3Ht1tXh8FyB3lV9oWmPcYndmzuJPzrd0nod3aJecXWEEgUXGGo3U-y1mlr033QxPZ6PCZEQ2pMIRHW_BducBOoXI5rD3kE2zKuGNwSkRptTt9dt4b1q6GktnQS7ywlPsdDTCfewrQEhaJFMug3FDtp-QL8Dyv9DXg9z-nI7Q_quggQt7-2_7tBGgFlW_?></g></svg>