<?plantuml 1.2026.2beta3?><svg xmlns="http://www.w3.org/2000/svg" xmlns:xlink="http://www.w3.org/1999/xlink" contentStyleType="text/css" data-diagram-type="CLASS" height="301px" preserveAspectRatio="none" style="width:325px;height:301px;" version="1.1" viewBox="0 0 325 301" width="325px" zoomAndPan="magnify"><defs/><g><!--class SmartHomeServer--><g class="entity" data-qualified-name="SmartHomeServer" data-source-line="3" id="ent0002"><rect fill="#313139" height="96.8906" rx="2.5" ry="2.5" style="stroke:#E7E7E7;stroke-width:0.5;" width="224.8232" x="56.09" y="7"/><ellipse cx="99.5393" cy="23" fill="#2E5233" rx="11" ry="11" style="stroke:#E7E7E7;stroke-width:1;"/><path d="M102.5081,28.6406 Q101.9299,28.9375 101.2893,29.0781 Q100.6487,29.2344 99.9456,29.2344 Q97.4456,29.2344 96.1174,27.5938 Q94.8049,25.9375 94.8049,22.8125 Q94.8049,19.6875 96.1174,18.0313 Q97.4456,16.375 99.9456,16.375 Q100.6487,16.375 101.2893,16.5313 Q101.9456,16.6875 102.5081,16.9844 L102.5081,19.7031 Q101.8831,19.125 101.2893,18.8594 Q100.6956,18.5781 100.0706,18.5781 Q98.7268,18.5781 98.0393,19.6563 Q97.3518,20.7188 97.3518,22.8125 Q97.3518,24.9063 98.0393,25.9844 Q98.7268,27.0469 100.0706,27.0469 Q100.6956,27.0469 101.2893,26.7813 Q101.8831,26.5 102.5081,25.9219 L102.5081,28.6406 Z " fill="#FFFFFF"/><text fill="#FFFFFF" font-family="sans-serif" font-size="14" lengthAdjust="spacing" textLength="129.6025" x="119.8614" y="27.8467">SmartHomeServer</text><line style="stroke:#E7E7E7;stroke-width:0.5;" x1="57.09" x2="279.9132" y1="39" y2="39"/><text fill="#FFFFFF" font-family="sans-serif" font-size="14" lengthAdjust="spacing" textLength="65.6182" x="62.09" y="55.9951">-port : int</text><line style="stroke:#E7E7E7;stroke-width:0.5;" x1="57.09" x2="279.9132" y1="63.2969" y2="63.2969"/><text fill="#FFFFFF" font-family="sans-serif" font-size="14" lengthAdjust="spacing" textLength="212.8232" x="62.09" y="80.292">+SmartHomeServer(port : int)</text><text fill="#FFFFFF" font-family="sans-serif" font-size="14" lengthAdjust="spacing" textLength="101.1719" x="62.09" y="96.5889">+startServer()</text></g><!--class Licht--><g class="entity" data-qualified-name="Licht" data-source-line="8" id="ent0003"><rect fill="#313139" height="113.1875" rx="2.5" ry="2.5" style="stroke:#E7E7E7;stroke-width:0.5;" width="151.002" x="7" y="180.89"/><ellipse cx="61.3765" cy="196.89" fill="#2E5233" rx="11" ry="11" style="stroke:#E7E7E7;stroke-width:1;"/><path d="M64.3452,202.5306 Q63.7671,202.8275 63.1265,202.9681 Q62.4858,203.1244 61.7827,203.1244 Q59.2827,203.1244 57.9546,201.4838 Q56.6421,199.8275 56.6421,196.7025 Q56.6421,193.5775 57.9546,191.9213 Q59.2827,190.265 61.7827,190.265 Q62.4858,190.265 63.1265,190.4213 Q63.7827,190.5775 64.3452,190.8744 L64.3452,193.5931 Q63.7202,193.015 63.1265,192.7494 Q62.5327,192.4681 61.9077,192.4681 Q60.564,192.4681 59.8765,193.5463 Q59.189,194.6088 59.189,196.7025 Q59.189,198.7963 59.8765,199.8744 Q60.564,200.9369 61.9077,200.9369 Q62.5327,200.9369 63.1265,200.6713 Q63.7202,200.39 64.3452,199.8119 L64.3452,202.5306 Z " fill="#FFFFFF"/><text fill="#FFFFFF" font-family="sans-serif" font-size="14" lengthAdjust="spacing" textLength="33.749" x="81.8765" y="201.7367">Licht</text><line style="stroke:#E7E7E7;stroke-width:0.5;" x1="8" x2="157.002" y1="212.89" y2="212.89"/><text fill="#FFFFFF" font-family="sans-serif" font-size="14" lengthAdjust="spacing" textLength="139.002" x="13" y="229.8851">-bezeichnung : char</text><text fill="#FFFFFF" font-family="sans-serif" font-size="14" lengthAdjust="spacing" textLength="109.7646" x="13" y="246.182">-istAn : boolean</text><line style="stroke:#E7E7E7;stroke-width:0.5;" x1="8" x2="157.002" y1="253.4838" y2="253.4838"/><text fill="#FFFFFF" font-family="sans-serif" font-size="14" lengthAdjust="spacing" textLength="125.7744" x="13" y="270.4789">+Licht(bez : char)</text><text fill="#FFFFFF" font-family="sans-serif" font-size="14" lengthAdjust="spacing" textLength="66.9854" x="13" y="286.7757">+toggle()</text></g><!--class ServerSocket--><g class="entity" data-qualified-name="ServerSocket" data-source-line="15" id="ent0005"><rect fill="#313139" height="48" rx="2.5" ry="2.5" style="stroke:#E7E7E7;stroke-width:0.5;" width="125.2695" x="192.87" y="213.49"/><ellipse cx="207.87" cy="229.49" fill="#2E5233" rx="11" ry="11" style="stroke:#E7E7E7;stroke-width:1;"/><path d="M210.8388,235.1306 Q210.2606,235.4275 209.62,235.5681 Q208.9794,235.7244 208.2763,235.7244 Q205.7763,235.7244 204.4481,234.0837 Q203.1356,232.4275 203.1356,229.3025 Q203.1356,226.1775 204.4481,224.5212 Q205.7763,222.865 208.2763,222.865 Q208.9794,222.865 209.62,223.0212 Q210.2763,223.1775 210.8388,223.4744 L210.8388,226.1931 Q210.2138,225.615 209.62,225.3494 Q209.0263,225.0681 208.4013,225.0681 Q207.0575,225.0681 206.37,226.1462 Q205.6825,227.2087 205.6825,229.3025 Q205.6825,231.3962 206.37,232.4744 Q207.0575,233.5369 208.4013,233.5369 Q209.0263,233.5369 209.62,233.2712 Q210.2138,232.99 210.8388,232.4119 L210.8388,235.1306 Z " fill="#FFFFFF"/><text fill="#FFFFFF" font-family="sans-serif" font-size="14" lengthAdjust="spacing" textLength="93.2695" x="221.87" y="234.3367">ServerSocket</text><line style="stroke:#E7E7E7;stroke-width:0.5;" x1="193.87" x2="317.1395" y1="245.49" y2="245.49"/><line style="stroke:#E7E7E7;stroke-width:0.5;" x1="193.87" x2="317.1395" y1="253.49" y2="253.49"/></g><!--link SmartHomeServer to Licht--><g class="link" data-entity-1="ent0002" data-entity-2="ent0003" data-link-type="dependency" data-source-line="14" id="lnk4"><path codeLine="14" d="M142.231,111.4383 C131.031,134.8783 123.5154,150.6256 111.8354,175.0856" fill="none" id="SmartHomeServer-Licht" style="stroke:#E7E7E7;stroke-width:1;"/><path d="M139.9152,107.0069 L143.6845,117.6743 M147.1335,110.456 L136.4662,114.2253" fill="none" style="stroke:#E7E7E7;stroke-width:1;"/><polygon fill="#E7E7E7" points="109.25,180.5,116.7377,174.1021,111.4045,175.988,109.5186,170.6548,109.25,180.5" style="stroke:#E7E7E7;stroke-width:1;"/><text fill="#FFFFFF" font-family="sans-serif" font-size="13" lengthAdjust="spacing" textLength="45.7412" x="132.5" y="146.9569">-lichter</text><text fill="#FFFFFF" font-family="sans-serif" font-size="13" lengthAdjust="spacing" textLength="6.5" x="106.1749" y="169.716">*</text></g><!--link SmartHomeServer to ServerSocket--><g class="link" data-entity-1="ent0002" data-entity-2="ent0005" data-link-type="dependency" data-source-line="15" id="lnk6"><path codeLine="15" d="M195.07,111.4234 C212.08,146.6334 228.3994,180.3977 241.6594,207.8377" fill="none" id="SmartHomeServer-ServerSocket" style="stroke:#E7E7E7;stroke-width:1;"/><path d="M190.1633,110.4622 L200.8467,114.1856 M197.3667,106.9822 L193.6433,117.6656" fill="none" style="stroke:#E7E7E7;stroke-width:1;"/><polygon fill="#E7E7E7" points="244.27,213.24,243.9557,203.3962,242.0945,208.7381,236.7526,206.8769,244.27,213.24" style="stroke:#E7E7E7;stroke-width:1;"/><text fill="#FFFFFF" font-family="sans-serif" font-size="13" lengthAdjust="spacing" textLength="45.8428" x="212.5" y="146.9569">-server</text><text fill="#FFFFFF" font-family="sans-serif" font-size="13" lengthAdjust="spacing" textLength="8.271" x="232.5896" y="202.584">1</text></g><?plantuml-src TOxD2i8m48JlVOgb9tyewBK7mPk2jpv16fSsDDsLpLP4yTsDQL0Gl6Lslfb961nTZ9WHMcE7JdYYisNF0Yg6GhIGj0WVodeJmbvLN3if7YrJu-u8co8Pq8n6zC0ZDYXN57WK01LSM1HgSAGGzVgNMdpzvGm4ZK0su-cPsq_EzfexMxnZb3HH5wEsDmBfxeBkALvQPe-6vhuKNCH8HlECSjTvd1T-VtwhgXsKgpAFrb3vzmFb3xajOTODsm5J82Jz0W00?></g></svg>