<?plantuml 1.2026.2beta3?><svg xmlns="http://www.w3.org/2000/svg" xmlns:xlink="http://www.w3.org/1999/xlink" contentStyleType="text/css" data-diagram-type="CLASS" height="235px" preserveAspectRatio="none" style="width:238px;height:235px;" version="1.1" viewBox="0 0 238 235" width="238px" zoomAndPan="magnify"><defs/><g><!--class SmartHomeServer--><g class="entity" data-qualified-name="SmartHomeServer" data-source-line="3" id="ent0002"><rect fill="#313139" height="96.8906" rx="2.5" ry="2.5" style="stroke:#E7E7E7;stroke-width:0.5;" width="224.8232" x="7" y="7"/><ellipse cx="50.4493" cy="23" fill="#2E5233" rx="11" ry="11" style="stroke:#E7E7E7;stroke-width:1;"/><path d="M53.4181,28.6406 Q52.8399,28.9375 52.1993,29.0781 Q51.5587,29.2344 50.8556,29.2344 Q48.3556,29.2344 47.0274,27.5938 Q45.7149,25.9375 45.7149,22.8125 Q45.7149,19.6875 47.0274,18.0313 Q48.3556,16.375 50.8556,16.375 Q51.5587,16.375 52.1993,16.5313 Q52.8556,16.6875 53.4181,16.9844 L53.4181,19.7031 Q52.7931,19.125 52.1993,18.8594 Q51.6056,18.5781 50.9806,18.5781 Q49.6368,18.5781 48.9493,19.6563 Q48.2618,20.7188 48.2618,22.8125 Q48.2618,24.9063 48.9493,25.9844 Q49.6368,27.0469 50.9806,27.0469 Q51.6056,27.0469 52.1993,26.7813 Q52.7931,26.5 53.4181,25.9219 L53.4181,28.6406 Z " fill="#FFFFFF"/><text fill="#FFFFFF" font-family="sans-serif" font-size="14" lengthAdjust="spacing" textLength="129.6025" x="70.7714" y="27.8467">SmartHomeServer</text><line style="stroke:#E7E7E7;stroke-width:0.5;" x1="8" x2="230.8232" y1="39" y2="39"/><text fill="#FFFFFF" font-family="sans-serif" font-size="14" lengthAdjust="spacing" textLength="65.6182" x="13" y="55.9951">-port : int</text><line style="stroke:#E7E7E7;stroke-width:0.5;" x1="8" x2="230.8232" y1="63.2969" y2="63.2969"/><text fill="#FFFFFF" font-family="sans-serif" font-size="14" lengthAdjust="spacing" textLength="212.8232" x="13" y="80.292">+SmartHomeServer(port : int)</text><text fill="#FFFFFF" font-family="sans-serif" font-size="14" lengthAdjust="spacing" textLength="101.1719" x="13" y="96.5889">+startServer()</text></g><!--class ServerSocket--><g class="entity" data-qualified-name="ServerSocket" data-source-line="8" id="ent0003"><rect fill="#313139" height="48" rx="2.5" ry="2.5" style="stroke:#E7E7E7;stroke-width:0.5;" width="125.2695" x="56.78" y="180.89"/><ellipse cx="71.78" cy="196.89" fill="#2E5233" rx="11" ry="11" style="stroke:#E7E7E7;stroke-width:1;"/><path d="M74.7488,202.5306 Q74.1706,202.8275 73.53,202.9681 Q72.8894,203.1244 72.1863,203.1244 Q69.6863,203.1244 68.3581,201.4838 Q67.0456,199.8275 67.0456,196.7025 Q67.0456,193.5775 68.3581,191.9213 Q69.6863,190.265 72.1863,190.265 Q72.8894,190.265 73.53,190.4213 Q74.1863,190.5775 74.7488,190.8744 L74.7488,193.5931 Q74.1238,193.015 73.53,192.7494 Q72.9363,192.4681 72.3113,192.4681 Q70.9675,192.4681 70.28,193.5463 Q69.5925,194.6088 69.5925,196.7025 Q69.5925,198.7963 70.28,199.8744 Q70.9675,200.9369 72.3113,200.9369 Q72.9363,200.9369 73.53,200.6713 Q74.1238,200.39 74.7488,199.8119 L74.7488,202.5306 Z " fill="#FFFFFF"/><text fill="#FFFFFF" font-family="sans-serif" font-size="14" lengthAdjust="spacing" textLength="93.2695" x="85.78" y="201.7367">ServerSocket</text><line style="stroke:#E7E7E7;stroke-width:0.5;" x1="57.78" x2="181.0495" y1="212.89" y2="212.89"/><line style="stroke:#E7E7E7;stroke-width:0.5;" x1="57.78" x2="181.0495" y1="220.89" y2="220.89"/></g><!--link SmartHomeServer to ServerSocket--><g class="link" data-entity-1="ent0002" data-entity-2="ent0003" data-link-type="dependency" data-source-line="8" id="lnk4"><path codeLine="8" d="M119.41,112.32 C119.41,137.88 119.41,154.19 119.41,174.6" fill="none" id="SmartHomeServer-ServerSocket" style="stroke:#E7E7E7;stroke-width:1;"/><path d="M115.41,109.32 L123.41,117.32 M123.41,109.32 L115.41,117.32" fill="none" style="stroke:#E7E7E7;stroke-width:1;"/><polygon fill="#E7E7E7" points="119.41,180.6,123.41,171.6,119.41,175.6,115.41,171.6,119.41,180.6" style="stroke:#E7E7E7;stroke-width:1;"/><text fill="#FFFFFF" font-family="sans-serif" font-size="13" lengthAdjust="spacing" textLength="45.8428" x="120.41" y="146.9569">-server</text><text fill="#FFFFFF" font-family="sans-serif" font-size="13" lengthAdjust="spacing" textLength="8.271" x="110.4669" y="169.9343">1</text></g><?plantuml-src NOn12i8m44NtESNGbI81tReGtEaw9vZ6GKBQJ9cPYYZUtTYAGfVllyVNdCg0WZsq6FDLU2oNo1qBc63HggYOqryLErGzcabgHwDpv1BIWs3h9W6XHx4JznH8RYJmT00U1XQ3FQHYK7cph5P_lvu3jHfyPPrURlbxz_u0pQw1cGF7J9yBhnE_0G00?></g></svg>