<?plantuml 1.2026.2beta3?><svg xmlns="http://www.w3.org/2000/svg" xmlns:xlink="http://www.w3.org/1999/xlink" contentStyleType="text/css" data-diagram-type="SEQUENCE" height="622px" preserveAspectRatio="none" style="width:709px;height:622px;" version="1.1" viewBox="0 0 709 622" width="709px" zoomAndPan="magnify"><defs/><g><g><title>hub. SmartHomeServer</title><rect fill="#FFFFFF" height="529.8594" style="stroke:#E7E7E7;stroke-width:1;" width="10" x="134.7012" y="67.4297"/></g><g><title>hub. SmartHomeServer</title><rect fill="#FFFFFF" height="25" style="stroke:#E7E7E7;stroke-width:1;" width="10" x="139.7012" y="293.4922"/></g><g><title>server. ServerSocket</title><rect fill="#FFFFFF" height="29.1328" style="stroke:#E7E7E7;stroke-width:1;" width="10" x="314.7793" y="96.5625"/></g><g><title>clientSocket. Socket</title><rect fill="#FFFFFF" height="29.1328" style="stroke:#E7E7E7;stroke-width:1;" width="10" x="483.3252" y="178.9609"/></g><g><title>clientSocket. Socket</title><rect fill="#FFFFFF" height="14" style="stroke:#E7E7E7;stroke-width:1;" width="10" x="483.3252" y="421.8906"/></g><g><title>clientSocket. Socket</title><rect fill="#FFFFFF" height="14" style="stroke:#E7E7E7;stroke-width:1;" width="10" x="483.3252" y="467.0234"/></g><g><title>clientSocket. Socket</title><rect fill="#FFFFFF" height="14" style="stroke:#E7E7E7;stroke-width:1;" width="10" x="483.3252" y="519.1563"/></g><g><title>clientSocket. Socket</title><rect fill="#FFFFFF" height="14" style="stroke:#E7E7E7;stroke-width:1;" width="10" x="483.3252" y="583.2891"/></g><g><title>licht. Licht</title><rect fill="#FFFFFF" height="14" style="stroke:#E7E7E7;stroke-width:1;" width="10" x="614.8716" y="378.7578"/></g><rect fill="none" height="414.4609" style="stroke:#888888;stroke-width:1.5;" width="693.249" x="10" y="140.6953"/><rect fill="none" height="325.0625" style="stroke:#888888;stroke-width:1.5;" width="673.249" x="20" y="223.0938"/><rect fill="none" height="293.9297" style="stroke:#888888;stroke-width:1.5;" width="653.249" x="30" y="247.2266"/><rect fill="none" height="148.5313" style="stroke:#888888;stroke-width:1.5;" width="633.249" x="40" y="340.4922"/><g class="participant-lifeline" data-entity-uid="part1" data-qualified-name="S" id="part1-lifeline"><g><title>hub. SmartHomeServer</title><rect fill="#000000" fill-opacity="0.00000" height="578.9922" width="8" x="135.7012" y="36.2969"/><line style="stroke:#E7E7E7;stroke-width:0.5;stroke-dasharray:5,5;" x1="139" x2="139" y1="36.2969" y2="615.2891"/></g></g><g class="participant-lifeline" data-entity-uid="part2" data-qualified-name="SS" id="part2-lifeline"><g><title>server. ServerSocket</title><rect fill="#000000" fill-opacity="0.00000" height="578.9922" width="8" x="315.7793" y="36.2969"/><line style="stroke:#E7E7E7;stroke-width:0.5;stroke-dasharray:5,5;" x1="319.4023" x2="319.4023" y1="36.2969" y2="615.2891"/></g></g><g class="participant-lifeline" data-entity-uid="part3" data-qualified-name="CS" id="part3-lifeline"><g><title>clientSocket. Socket</title><rect fill="#000000" fill-opacity="0.00000" height="578.9922" width="8" x="484.3252" y="36.2969"/><line style="stroke:#E7E7E7;stroke-width:0.5;stroke-dasharray:5,5;" x1="488.1563" x2="488.1563" y1="36.2969" y2="615.2891"/></g></g><g class="participant-lifeline" data-entity-uid="part4" data-qualified-name="L" id="part4-lifeline"><g><title>licht. Licht</title><rect fill="#000000" fill-opacity="0.00000" height="578.9922" width="8" x="615.8716" y="36.2969"/><line style="stroke:#E7E7E7;stroke-width:0.5;stroke-dasharray:5,5;" x1="619.4941" x2="619.4941" y1="36.2969" y2="615.2891"/></g></g><g class="participant participant-head" data-entity-uid="part1" data-qualified-name="S" id="part1-head"><rect fill="#222222" height="30.2969" rx="2.5" ry="2.5" style="stroke:#E7E7E7;stroke-width:0.5;" width="179.4023" x="50" y="5"/><text fill="#FFFFFF" font-family="sans-serif" font-size="14" lengthAdjust="spacing" textLength="165.4023" x="57" y="24.9951">hub: SmartHomeServer</text></g><g class="participant participant-head" data-entity-uid="part2" data-qualified-name="SS" id="part2-head"><rect fill="#222222" height="30.2969" rx="2.5" ry="2.5" style="stroke:#E7E7E7;stroke-width:0.5;" width="160.7539" x="239.4023" y="5"/><text fill="#FFFFFF" font-family="sans-serif" font-size="14" lengthAdjust="spacing" textLength="146.7539" x="246.4023" y="24.9951">server: ServerSocket</text></g><g class="participant participant-head" data-entity-uid="part3" data-qualified-name="CS" id="part3-head"><rect fill="#222222" height="30.2969" rx="2.5" ry="2.5" style="stroke:#E7E7E7;stroke-width:0.5;" width="156.3379" x="410.1563" y="5"/><text fill="#FFFFFF" font-family="sans-serif" font-size="14" lengthAdjust="spacing" textLength="142.3379" x="417.1563" y="24.9951">clientSocket: Socket</text></g><g class="participant participant-head" data-entity-uid="part4" data-qualified-name="L" id="part4-head"><rect fill="#222222" height="30.2969" rx="2.5" ry="2.5" style="stroke:#E7E7E7;stroke-width:0.5;" width="86.7549" x="576.4941" y="5"/><text fill="#FFFFFF" font-family="sans-serif" font-size="14" lengthAdjust="spacing" textLength="72.7549" x="583.4941" y="24.9951">licht: Licht</text></g><g><title>hub. SmartHomeServer</title><rect fill="#FFFFFF" height="529.8594" style="stroke:#E7E7E7;stroke-width:1;" width="10" x="134.7012" y="67.4297"/></g><g><title>hub. SmartHomeServer</title><rect fill="#FFFFFF" height="25" style="stroke:#E7E7E7;stroke-width:1;" width="10" x="139.7012" y="293.4922"/></g><g><title>server. ServerSocket</title><rect fill="#FFFFFF" height="29.1328" style="stroke:#E7E7E7;stroke-width:1;" width="10" x="314.7793" y="96.5625"/></g><g><title>clientSocket. Socket</title><rect fill="#FFFFFF" height="29.1328" style="stroke:#E7E7E7;stroke-width:1;" width="10" x="483.3252" y="178.9609"/></g><g><title>clientSocket. Socket</title><rect fill="#FFFFFF" height="14" style="stroke:#E7E7E7;stroke-width:1;" width="10" x="483.3252" y="421.8906"/></g><g><title>clientSocket. Socket</title><rect fill="#FFFFFF" height="14" style="stroke:#E7E7E7;stroke-width:1;" width="10" x="483.3252" y="467.0234"/></g><g><title>clientSocket. Socket</title><rect fill="#FFFFFF" height="14" style="stroke:#E7E7E7;stroke-width:1;" width="10" x="483.3252" y="519.1563"/></g><g><title>clientSocket. Socket</title><rect fill="#FFFFFF" height="14" style="stroke:#E7E7E7;stroke-width:1;" width="10" x="483.3252" y="583.2891"/></g><g><title>licht. Licht</title><rect fill="#FFFFFF" height="14" style="stroke:#E7E7E7;stroke-width:1;" width="10" x="614.8716" y="378.7578"/></g><g class="message" data-entity-1="part1" data-entity-2="part1" id="msg1"><ellipse cx="7.5" cy="66.6797" fill="#000000" rx="4" ry="4" style="stroke:#E7E7E7;stroke-width:1.5;"/><polygon fill="#E7E7E7" points="122.7012,63.4297,132.7012,67.4297,122.7012,71.4297,126.7012,67.4297" style="stroke:#E7E7E7;stroke-width:1;"/><line style="stroke:#E7E7E7;stroke-width:1;" x1="12" x2="128.7012" y1="67.4297" y2="67.4297"/><text fill="#FFFFFF" font-family="sans-serif" font-size="13" lengthAdjust="spacing" textLength="83.0527" x="15" y="62.3638">startServer()</text></g><g class="message" data-entity-1="part1" data-entity-2="part2" id="msg2"><polygon fill="#E7E7E7" points="302.7793,92.5625,312.7793,96.5625,302.7793,100.5625,306.7793,96.5625" style="stroke:#E7E7E7;stroke-width:1;"/><line style="stroke:#E7E7E7;stroke-width:1;" x1="144.7012" x2="308.7793" y1="96.5625" y2="96.5625"/><text fill="#FFFFFF" font-family="sans-serif" font-size="13" lengthAdjust="spacing" textLength="53.752" x="151.7012" y="91.4966">accept()</text></g><g class="message" data-entity-1="part2" data-entity-2="part1" id="msg3"><polygon fill="#E7E7E7" points="155.7012,121.6953,145.7012,125.6953,155.7012,129.6953,151.7012,125.6953" style="stroke:#E7E7E7;stroke-width:1;"/><line style="stroke:#E7E7E7;stroke-width:1;stroke-dasharray:2,2;" x1="149.7012" x2="318.7793" y1="125.6953" y2="125.6953"/><text fill="#FFFFFF" font-family="sans-serif" font-size="13" lengthAdjust="spacing" textLength="79.6821" x="161.7012" y="120.6294">clientSocket</text></g><path d="M10,140.6953 L86.624,140.6953 L86.624,147.8281 L76.624,157.8281 L10,157.8281 L10,140.6953" fill="#222222" style="stroke:#888888;stroke-width:1.5;"/><rect fill="none" height="414.4609" style="stroke:#888888;stroke-width:1.5;" width="693.249" x="10" y="140.6953"/><text fill="#FFFFFF" font-family="sans-serif" font-size="13" font-weight="bold" lengthAdjust="spacing" textLength="31.624" x="25" y="153.7622">loop</text><text fill="#888888" font-family="sans-serif" font-size="11" font-weight="bold" lengthAdjust="spacing" textLength="112.4707" x="101.624" y="152.9058">[befehl != "QUIT"]</text><g class="message" data-entity-1="part1" data-entity-2="part3" id="msg4"><polygon fill="#E7E7E7" points="471.3252,174.9609,481.3252,178.9609,471.3252,182.9609,475.3252,178.9609" style="stroke:#E7E7E7;stroke-width:1;"/><line style="stroke:#E7E7E7;stroke-width:1;" x1="144.7012" x2="477.3252" y1="178.9609" y2="178.9609"/><text fill="#FFFFFF" font-family="sans-serif" font-size="13" lengthAdjust="spacing" textLength="66.7964" x="151.7012" y="173.895">readLine()</text></g><g class="message" data-entity-1="part3" data-entity-2="part1" id="msg5"><polygon fill="#E7E7E7" points="155.7012,204.0938,145.7012,208.0938,155.7012,212.0938,151.7012,208.0938" style="stroke:#E7E7E7;stroke-width:1;"/><line style="stroke:#E7E7E7;stroke-width:1;stroke-dasharray:2,2;" x1="149.7012" x2="487.3252" y1="208.0938" y2="208.0938"/><text fill="#FFFFFF" font-family="sans-serif" font-size="13" lengthAdjust="spacing" textLength="40.6758" x="161.7012" y="203.0278">befehl</text></g><path d="M20,223.0938 L89.4512,223.0938 L89.4512,230.2266 L79.4512,240.2266 L20,240.2266 L20,223.0938" fill="#222222" style="stroke:#888888;stroke-width:1.5;"/><rect fill="none" height="325.0625" style="stroke:#888888;stroke-width:1.5;" width="673.249" x="20" y="223.0938"/><text fill="#FFFFFF" font-family="sans-serif" font-size="13" font-weight="bold" lengthAdjust="spacing" textLength="24.4512" x="35" y="236.1606">opt</text><text fill="#888888" font-family="sans-serif" font-size="11" font-weight="bold" lengthAdjust="spacing" textLength="236.7524" x="104.4512" y="235.3042">[befehl beginnt mit "TOGGLE_LIGHT;"]</text><path d="M30,247.2266 L94.4429,247.2266 L94.4429,254.3594 L84.4429,264.3594 L30,264.3594 L30,247.2266" fill="#222222" style="stroke:#888888;stroke-width:1.5;"/><rect fill="none" height="293.9297" style="stroke:#888888;stroke-width:1.5;" width="653.249" x="30" y="247.2266"/><text fill="#FFFFFF" font-family="sans-serif" font-size="13" font-weight="bold" lengthAdjust="spacing" textLength="19.4429" x="45" y="260.2935">alt</text><text fill="#888888" font-family="sans-serif" font-size="11" font-weight="bold" lengthAdjust="spacing" textLength="246.3721" x="109.4429" y="259.437">[ASCII-Wert von ID zwischen 'A' und 'Z']</text><g class="message" data-entity-1="part1" data-entity-2="part1" id="msg6"><line style="stroke:#E7E7E7;stroke-width:1;" x1="144.7012" x2="191.7012" y1="280.4922" y2="280.4922"/><line style="stroke:#E7E7E7;stroke-width:1;" x1="191.7012" x2="191.7012" y1="280.4922" y2="293.4922"/><line style="stroke:#E7E7E7;stroke-width:1;" x1="150.7012" x2="191.7012" y1="293.4922" y2="293.4922"/><polygon fill="#E7E7E7" points="160.7012,289.4922,150.7012,293.4922,160.7012,297.4922,156.7012,293.4922" style="stroke:#E7E7E7;stroke-width:1;"/><text fill="#FFFFFF" font-family="sans-serif" font-size="13" lengthAdjust="spacing" textLength="73.8677" x="156.7012" y="275.4263">suche Licht</text></g><g class="message" data-entity-1="part1" data-entity-2="part1" id="msg7"><line style="stroke:#E7E7E7;stroke-width:1;stroke-dasharray:2,2;" x1="149.7012" x2="191.7012" y1="317.4922" y2="317.4922"/><line style="stroke:#E7E7E7;stroke-width:1;stroke-dasharray:2,2;" x1="191.7012" x2="191.7012" y1="317.4922" y2="330.4922"/><line style="stroke:#E7E7E7;stroke-width:1;stroke-dasharray:2,2;" x1="144.7012" x2="191.7012" y1="330.4922" y2="330.4922"/><polygon fill="#E7E7E7" points="154.7012,326.4922,144.7012,330.4922,154.7012,334.4922,150.7012,330.4922" style="stroke:#E7E7E7;stroke-width:1;"/></g><path d="M40,340.4922 L104.4429,340.4922 L104.4429,347.625 L94.4429,357.625 L40,357.625 L40,340.4922" fill="#222222" style="stroke:#888888;stroke-width:1.5;"/><rect fill="none" height="148.5313" style="stroke:#888888;stroke-width:1.5;" width="633.249" x="40" y="340.4922"/><text fill="#FFFFFF" font-family="sans-serif" font-size="13" font-weight="bold" lengthAdjust="spacing" textLength="19.4429" x="55" y="353.5591">alt</text><text fill="#888888" font-family="sans-serif" font-size="11" font-weight="bold" lengthAdjust="spacing" textLength="103.2217" x="119.4429" y="352.7026">[Licht gefunden]</text><g class="message" data-entity-1="part1" data-entity-2="part4" id="msg8"><polygon fill="#E7E7E7" points="602.8716,374.7578,612.8716,378.7578,602.8716,382.7578,606.8716,378.7578" style="stroke:#E7E7E7;stroke-width:1;"/><line style="stroke:#E7E7E7;stroke-width:1;" x1="144.7012" x2="608.8716" y1="378.7578" y2="378.7578"/><text fill="#FFFFFF" font-family="sans-serif" font-size="13" lengthAdjust="spacing" textLength="51.3081" x="151.7012" y="373.6919">toggle()</text></g><g class="message" data-entity-1="part4" data-entity-2="part1" id="msg9"><polygon fill="#E7E7E7" points="155.7012,388.7578,145.7012,392.7578,155.7012,396.7578,151.7012,392.7578" style="stroke:#E7E7E7;stroke-width:1;"/><line style="stroke:#E7E7E7;stroke-width:1;stroke-dasharray:2,2;" x1="149.7012" x2="618.8716" y1="392.7578" y2="392.7578"/></g><g class="message" data-entity-1="part1" data-entity-2="part3" id="msg10"><polygon fill="#E7E7E7" points="471.3252,417.8906,481.3252,421.8906,471.3252,425.8906,475.3252,421.8906" style="stroke:#E7E7E7;stroke-width:1;"/><line style="stroke:#E7E7E7;stroke-width:1;" x1="144.7012" x2="477.3252" y1="421.8906" y2="421.8906"/><text fill="#FFFFFF" font-family="sans-serif" font-size="13" lengthAdjust="spacing" textLength="97.0557" x="151.7012" y="416.8247">write("+OK\n")</text></g><g class="message" data-entity-1="part3" data-entity-2="part1" id="msg11"><polygon fill="#E7E7E7" points="155.7012,431.8906,145.7012,435.8906,155.7012,439.8906,151.7012,435.8906" style="stroke:#E7E7E7;stroke-width:1;"/><line style="stroke:#E7E7E7;stroke-width:1;stroke-dasharray:2,2;" x1="149.7012" x2="487.3252" y1="435.8906" y2="435.8906"/></g><line style="stroke:#888888;stroke-width:1;stroke-dasharray:2,2;" x1="40" x2="673.249" y1="444.8906" y2="444.8906"/><g class="message" data-entity-1="part1" data-entity-2="part3" id="msg12"><polygon fill="#E7E7E7" points="471.3252,463.0234,481.3252,467.0234,471.3252,471.0234,475.3252,467.0234" style="stroke:#E7E7E7;stroke-width:1;"/><line style="stroke:#E7E7E7;stroke-width:1;" x1="144.7012" x2="477.3252" y1="467.0234" y2="467.0234"/><text fill="#FFFFFF" font-family="sans-serif" font-size="13" lengthAdjust="spacing" textLength="236.2407" x="151.7012" y="461.9575">write("-ERR Licht nicht gefunden\n")</text></g><g class="message" data-entity-1="part3" data-entity-2="part1" id="msg13"><polygon fill="#E7E7E7" points="155.7012,477.0234,145.7012,481.0234,155.7012,485.0234,151.7012,481.0234" style="stroke:#E7E7E7;stroke-width:1;"/><line style="stroke:#E7E7E7;stroke-width:1;stroke-dasharray:2,2;" x1="149.7012" x2="487.3252" y1="481.0234" y2="481.0234"/></g><line style="stroke:#888888;stroke-width:1;stroke-dasharray:2,2;" x1="30" x2="683.249" y1="497.0234" y2="497.0234"/><g class="message" data-entity-1="part1" data-entity-2="part3" id="msg14"><polygon fill="#E7E7E7" points="471.3252,515.1563,481.3252,519.1563,471.3252,523.1563,475.3252,519.1563" style="stroke:#E7E7E7;stroke-width:1;"/><line style="stroke:#E7E7E7;stroke-width:1;" x1="144.7012" x2="477.3252" y1="519.1563" y2="519.1563"/><text fill="#FFFFFF" font-family="sans-serif" font-size="13" lengthAdjust="spacing" textLength="182.0254" x="151.7012" y="514.0903">write("-ERR ung&#252;ltige ID\n")</text></g><g class="message" data-entity-1="part3" data-entity-2="part1" id="msg15"><polygon fill="#E7E7E7" points="155.7012,529.1563,145.7012,533.1563,155.7012,537.1563,151.7012,533.1563" style="stroke:#E7E7E7;stroke-width:1;"/><line style="stroke:#E7E7E7;stroke-width:1;stroke-dasharray:2,2;" x1="149.7012" x2="487.3252" y1="533.1563" y2="533.1563"/></g><g class="message" data-entity-1="part1" data-entity-2="part3" id="msg16"><polygon fill="#E7E7E7" points="471.3252,579.2891,481.3252,583.2891,471.3252,587.2891,475.3252,583.2891" style="stroke:#E7E7E7;stroke-width:1;"/><line style="stroke:#E7E7E7;stroke-width:1;" x1="144.7012" x2="477.3252" y1="583.2891" y2="583.2891"/><text fill="#FFFFFF" font-family="sans-serif" font-size="13" lengthAdjust="spacing" textLength="43.6274" x="151.7012" y="578.2231">close()</text></g><g class="message" data-entity-1="part3" data-entity-2="part1" id="msg17"><polygon fill="#E7E7E7" points="150.7012,593.2891,140.7012,597.2891,150.7012,601.2891,146.7012,597.2891" style="stroke:#E7E7E7;stroke-width:1;"/><line style="stroke:#E7E7E7;stroke-width:1;stroke-dasharray:2,2;" x1="144.7012" x2="487.3252" y1="597.2891" y2="597.2891"/></g><?plantuml-src hPDHYzD04CVVyod6-D0JAOXFSg9GuzaB1Wul5K4FPBEPfaktkt5tqfFxRBxvnPniqZIfL_31GB9avpV__yniuhVArCA97HH2RYjd6rDAgwq3Si9u3g6Xo0-KrCBx1P5JHKEOIcjozO3mOeJa-AD18t79OlK7QoW9UazVXUiS-Cww4js_eKEbFVuoND56bGXhQwcmFoFE8oLLBGn1l6cAIyXtl7LjTvYZswEBGNZ8fvmF4KR3cbkvHUgu4r1gnNFf0CQFO782QYKtJ6Jj4e0iYhxP-Ll8uH8yCTfvNJoBX2Ir5uHSL0ujqI92Ignf4kKmntk9SI5HYMDAMrj3WMlSQ7Zo1k9FdzDL7044yQHDTYZAJ1baUO0XbLk0Ddwmw2HuRoJF36_OcWu61LRASCCxnKslRfRBxEfxbYwlLwzRIrRN18iyITFv5tG4UsiWVGyFzyhB3HgOBMR0vmcphxE0zrM68JLCT0FiGwD13MmBzs_ZAHmos3qeG8Lhza7J1tgVZ7t8LfNkHd5YamrRsSHeOfLD5SDyxvqYl8YVttoykpFn8yh9KIh9psiF66gFvttcLxUtVPjcqkp_SZTbT5B5upKqflhzIvEga0zvRFwtPdBsx7gaCssVxNtqazfw7FyNp0zYKvdn1_47?></g></svg>