<?plantuml 1.2026.2beta3?><svg xmlns="http://www.w3.org/2000/svg" xmlns:xlink="http://www.w3.org/1999/xlink" contentStyleType="text/css" data-diagram-type="SEQUENCE" height="458px" preserveAspectRatio="none" style="width:572px;height:458px;" version="1.1" viewBox="0 0 572 458" width="572px" zoomAndPan="magnify"><defs/><g><g><title>hub. SmartHomeServer</title><rect fill="#FFFFFF" height="366.1328" style="stroke:#E7E7E7;stroke-width:1;" width="10" x="114.7012" y="67.4297"/></g><g><title>server. ServerSocket</title><rect fill="#FFFFFF" height="29.1328" style="stroke:#E7E7E7;stroke-width:1;" width="10" x="294.7793" y="96.5625"/></g><g><title>clientSocket. Socket</title><rect fill="#FFFFFF" height="14" style="stroke:#E7E7E7;stroke-width:1;" width="10" x="463.3252" y="154.8281"/></g><g><title>clientSocket. Socket</title><rect fill="#FFFFFF" height="29.1328" style="stroke:#E7E7E7;stroke-width:1;" width="10" x="463.3252" y="222.0938"/></g><g><title>clientSocket. Socket</title><rect fill="#FFFFFF" height="14" style="stroke:#E7E7E7;stroke-width:1;" width="10" x="463.3252" y="304.4922"/></g><g><title>clientSocket. Socket</title><rect fill="#FFFFFF" height="14" style="stroke:#E7E7E7;stroke-width:1;" width="10" x="463.3252" y="362.4297"/></g><g><title>clientSocket. Socket</title><rect fill="#FFFFFF" height="14" style="stroke:#E7E7E7;stroke-width:1;" width="10" x="463.3252" y="419.5625"/></g><rect fill="none" height="207.6016" style="stroke:#888888;stroke-width:1.5;" width="556.4941" x="10" y="183.8281"/><rect fill="none" height="118.2031" style="stroke:#888888;stroke-width:1.5;" width="536.4941" x="20" y="266.2266"/><g class="participant-lifeline" data-entity-uid="part1" data-qualified-name="S" id="part1-lifeline"><g><title>hub. SmartHomeServer</title><rect fill="#000000" fill-opacity="0.00000" height="415.2656" width="8" x="115.7012" y="36.2969"/><line style="stroke:#E7E7E7;stroke-width:0.5;stroke-dasharray:5,5;" x1="119" x2="119" y1="36.2969" y2="451.5625"/></g></g><g class="participant-lifeline" data-entity-uid="part2" data-qualified-name="SS" id="part2-lifeline"><g><title>server. ServerSocket</title><rect fill="#000000" fill-opacity="0.00000" height="415.2656" width="8" x="295.7793" y="36.2969"/><line style="stroke:#E7E7E7;stroke-width:0.5;stroke-dasharray:5,5;" x1="299.4023" x2="299.4023" y1="36.2969" y2="451.5625"/></g></g><g class="participant-lifeline" data-entity-uid="part3" data-qualified-name="CS" id="part3-lifeline"><g><title>clientSocket. Socket</title><rect fill="#000000" fill-opacity="0.00000" height="415.2656" width="8" x="464.3252" y="36.2969"/><line style="stroke:#E7E7E7;stroke-width:0.5;stroke-dasharray:5,5;" x1="468.1563" x2="468.1563" y1="36.2969" y2="451.5625"/></g></g><g class="participant participant-head" data-entity-uid="part1" data-qualified-name="S" id="part1-head"><rect fill="#222222" height="30.2969" rx="2.5" ry="2.5" style="stroke:#E7E7E7;stroke-width:0.5;" width="179.4023" x="30" y="5"/><text fill="#FFFFFF" font-family="sans-serif" font-size="14" lengthAdjust="spacing" textLength="165.4023" x="37" y="24.9951">hub: SmartHomeServer</text></g><g class="participant participant-head" data-entity-uid="part2" data-qualified-name="SS" id="part2-head"><rect fill="#222222" height="30.2969" rx="2.5" ry="2.5" style="stroke:#E7E7E7;stroke-width:0.5;" width="160.7539" x="219.4023" y="5"/><text fill="#FFFFFF" font-family="sans-serif" font-size="14" lengthAdjust="spacing" textLength="146.7539" x="226.4023" y="24.9951">server: ServerSocket</text></g><g class="participant participant-head" data-entity-uid="part3" data-qualified-name="CS" id="part3-head"><rect fill="#222222" height="30.2969" rx="2.5" ry="2.5" style="stroke:#E7E7E7;stroke-width:0.5;" width="156.3379" x="390.1563" y="5"/><text fill="#FFFFFF" font-family="sans-serif" font-size="14" lengthAdjust="spacing" textLength="142.3379" x="397.1563" y="24.9951">clientSocket: Socket</text></g><g><title>hub. SmartHomeServer</title><rect fill="#FFFFFF" height="366.1328" style="stroke:#E7E7E7;stroke-width:1;" width="10" x="114.7012" y="67.4297"/></g><g><title>server. ServerSocket</title><rect fill="#FFFFFF" height="29.1328" style="stroke:#E7E7E7;stroke-width:1;" width="10" x="294.7793" y="96.5625"/></g><g><title>clientSocket. Socket</title><rect fill="#FFFFFF" height="14" style="stroke:#E7E7E7;stroke-width:1;" width="10" x="463.3252" y="154.8281"/></g><g><title>clientSocket. Socket</title><rect fill="#FFFFFF" height="29.1328" style="stroke:#E7E7E7;stroke-width:1;" width="10" x="463.3252" y="222.0938"/></g><g><title>clientSocket. Socket</title><rect fill="#FFFFFF" height="14" style="stroke:#E7E7E7;stroke-width:1;" width="10" x="463.3252" y="304.4922"/></g><g><title>clientSocket. Socket</title><rect fill="#FFFFFF" height="14" style="stroke:#E7E7E7;stroke-width:1;" width="10" x="463.3252" y="362.4297"/></g><g><title>clientSocket. Socket</title><rect fill="#FFFFFF" height="14" style="stroke:#E7E7E7;stroke-width:1;" width="10" x="463.3252" y="419.5625"/></g><g class="message" data-entity-1="part1" data-entity-2="part1" id="msg1"><ellipse cx="7.5" cy="66.6797" fill="#000000" rx="4" ry="4" style="stroke:#E7E7E7;stroke-width:1.5;"/><polygon fill="#E7E7E7" points="102.7012,63.4297,112.7012,67.4297,102.7012,71.4297,106.7012,67.4297" style="stroke:#E7E7E7;stroke-width:1;"/><line style="stroke:#E7E7E7;stroke-width:1;" x1="12" x2="108.7012" y1="67.4297" y2="67.4297"/><text fill="#FFFFFF" font-family="sans-serif" font-size="13" lengthAdjust="spacing" textLength="83.0527" x="15" y="62.3638">startServer()</text></g><g class="message" data-entity-1="part1" data-entity-2="part2" id="msg2"><polygon fill="#E7E7E7" points="282.7793,92.5625,292.7793,96.5625,282.7793,100.5625,286.7793,96.5625" style="stroke:#E7E7E7;stroke-width:1;"/><line style="stroke:#E7E7E7;stroke-width:1;" x1="124.7012" x2="288.7793" y1="96.5625" y2="96.5625"/><text fill="#FFFFFF" font-family="sans-serif" font-size="13" lengthAdjust="spacing" textLength="53.752" x="131.7012" y="91.4966">accept()</text></g><g class="message" data-entity-1="part2" data-entity-2="part1" id="msg3"><polygon fill="#E7E7E7" points="135.7012,121.6953,125.7012,125.6953,135.7012,129.6953,131.7012,125.6953" style="stroke:#E7E7E7;stroke-width:1;"/><line style="stroke:#E7E7E7;stroke-width:1;stroke-dasharray:2,2;" x1="129.7012" x2="298.7793" y1="125.6953" y2="125.6953"/><text fill="#FFFFFF" font-family="sans-serif" font-size="13" lengthAdjust="spacing" textLength="79.6821" x="141.7012" y="120.6294">clientSocket</text></g><g class="message" data-entity-1="part1" data-entity-2="part3" id="msg4"><polygon fill="#E7E7E7" points="451.3252,150.8281,461.3252,154.8281,451.3252,158.8281,455.3252,154.8281" style="stroke:#E7E7E7;stroke-width:1;"/><line style="stroke:#E7E7E7;stroke-width:1;" x1="124.7012" x2="457.3252" y1="154.8281" y2="154.8281"/><text fill="#FFFFFF" font-family="sans-serif" font-size="13" lengthAdjust="spacing" textLength="213.4336" x="131.7012" y="149.7622">write("+OK Smart Home Hub\n")</text></g><g class="message" data-entity-1="part3" data-entity-2="part1" id="msg5"><polygon fill="#E7E7E7" points="135.7012,164.8281,125.7012,168.8281,135.7012,172.8281,131.7012,168.8281" style="stroke:#E7E7E7;stroke-width:1;"/><line style="stroke:#E7E7E7;stroke-width:1;stroke-dasharray:2,2;" x1="129.7012" x2="467.3252" y1="168.8281" y2="168.8281"/></g><path d="M10,183.8281 L86.624,183.8281 L86.624,190.9609 L76.624,200.9609 L10,200.9609 L10,183.8281" fill="#222222" style="stroke:#888888;stroke-width:1.5;"/><rect fill="none" height="207.6016" style="stroke:#888888;stroke-width:1.5;" width="556.4941" x="10" y="183.8281"/><text fill="#FFFFFF" font-family="sans-serif" font-size="13" font-weight="bold" lengthAdjust="spacing" textLength="31.624" x="25" y="196.895">loop</text><text fill="#888888" font-family="sans-serif" font-size="11" font-weight="bold" lengthAdjust="spacing" textLength="112.4707" x="101.624" y="196.0386">[befehl != "QUIT"]</text><g class="message" data-entity-1="part1" data-entity-2="part3" id="msg6"><polygon fill="#E7E7E7" points="451.3252,218.0938,461.3252,222.0938,451.3252,226.0938,455.3252,222.0938" style="stroke:#E7E7E7;stroke-width:1;"/><line style="stroke:#E7E7E7;stroke-width:1;" x1="124.7012" x2="457.3252" y1="222.0938" y2="222.0938"/><text fill="#FFFFFF" font-family="sans-serif" font-size="13" lengthAdjust="spacing" textLength="66.7964" x="131.7012" y="217.0278">readLine()</text></g><g class="message" data-entity-1="part3" data-entity-2="part1" id="msg7"><polygon fill="#E7E7E7" points="135.7012,247.2266,125.7012,251.2266,135.7012,255.2266,131.7012,251.2266" style="stroke:#E7E7E7;stroke-width:1;"/><line style="stroke:#E7E7E7;stroke-width:1;stroke-dasharray:2,2;" x1="129.7012" x2="467.3252" y1="251.2266" y2="251.2266"/><text fill="#FFFFFF" font-family="sans-serif" font-size="13" lengthAdjust="spacing" textLength="40.6758" x="141.7012" y="246.1606">befehl</text></g><path d="M20,266.2266 L84.4429,266.2266 L84.4429,273.3594 L74.4429,283.3594 L20,283.3594 L20,266.2266" fill="#222222" style="stroke:#888888;stroke-width:1.5;"/><rect fill="none" height="118.2031" style="stroke:#888888;stroke-width:1.5;" width="536.4941" x="20" y="266.2266"/><text fill="#FFFFFF" font-family="sans-serif" font-size="13" font-weight="bold" lengthAdjust="spacing" textLength="19.4429" x="35" y="279.2935">alt</text><text fill="#888888" font-family="sans-serif" font-size="11" font-weight="bold" lengthAdjust="spacing" textLength="185.0664" x="99.4429" y="278.437">[befehl beginnt mit "HELLO:"]</text><g class="message" data-entity-1="part1" data-entity-2="part3" id="msg8"><polygon fill="#E7E7E7" points="451.3252,300.4922,461.3252,304.4922,451.3252,308.4922,455.3252,304.4922" style="stroke:#E7E7E7;stroke-width:1;"/><line style="stroke:#E7E7E7;stroke-width:1;" x1="124.7012" x2="457.3252" y1="304.4922" y2="304.4922"/><text fill="#FFFFFF" font-family="sans-serif" font-size="13" lengthAdjust="spacing" textLength="171.063" x="131.7012" y="299.4263">write("+ACK " + id + "\n")</text></g><g class="message" data-entity-1="part3" data-entity-2="part1" id="msg9"><polygon fill="#E7E7E7" points="135.7012,314.4922,125.7012,318.4922,135.7012,322.4922,131.7012,318.4922" style="stroke:#E7E7E7;stroke-width:1;"/><line style="stroke:#E7E7E7;stroke-width:1;stroke-dasharray:2,2;" x1="129.7012" x2="467.3252" y1="318.4922" y2="318.4922"/></g><line style="stroke:#888888;stroke-width:1;stroke-dasharray:2,2;" x1="20" x2="556.4941" y1="327.4922" y2="327.4922"/><text fill="#888888" font-family="sans-serif" font-size="11" font-weight="bold" lengthAdjust="spacing" textLength="112.4707" x="25" y="337.7026">[befehl != "QUIT"]</text><g class="message" data-entity-1="part1" data-entity-2="part3" id="msg10"><polygon fill="#E7E7E7" points="451.3252,358.4297,461.3252,362.4297,451.3252,366.4297,455.3252,362.4297" style="stroke:#E7E7E7;stroke-width:1;"/><line style="stroke:#E7E7E7;stroke-width:1;" x1="124.7012" x2="457.3252" y1="362.4297" y2="362.4297"/><text fill="#FFFFFF" font-family="sans-serif" font-size="13" lengthAdjust="spacing" textLength="178.5088" x="131.7012" y="357.3638">write("+ERR unbekannt\n")</text></g><g class="message" data-entity-1="part3" data-entity-2="part1" id="msg11"><polygon fill="#E7E7E7" points="135.7012,372.4297,125.7012,376.4297,135.7012,380.4297,131.7012,376.4297" style="stroke:#E7E7E7;stroke-width:1;"/><line style="stroke:#E7E7E7;stroke-width:1;stroke-dasharray:2,2;" x1="129.7012" x2="467.3252" y1="376.4297" y2="376.4297"/></g><g class="message" data-entity-1="part1" data-entity-2="part3" id="msg12"><polygon fill="#E7E7E7" points="451.3252,415.5625,461.3252,419.5625,451.3252,423.5625,455.3252,419.5625" style="stroke:#E7E7E7;stroke-width:1;"/><line style="stroke:#E7E7E7;stroke-width:1;" x1="124.7012" x2="457.3252" y1="419.5625" y2="419.5625"/><text fill="#FFFFFF" font-family="sans-serif" font-size="13" lengthAdjust="spacing" textLength="43.6274" x="131.7012" y="414.4966">close()</text></g><g class="message" data-entity-1="part3" data-entity-2="part1" id="msg13"><polygon fill="#E7E7E7" points="130.7012,429.5625,120.7012,433.5625,130.7012,437.5625,126.7012,433.5625" style="stroke:#E7E7E7;stroke-width:1;"/><line style="stroke:#E7E7E7;stroke-width:1;stroke-dasharray:2,2;" x1="124.7012" x2="467.3252" y1="433.5625" y2="433.5625"/></g><?plantuml-src dP5HIyCm4CVVyodE-Z8PWlWa0uLPfXiR31TzSYzfUjj2kwGcwHG_lPTsMzkXC0oqfNU_-__lBYvJkX1MR24HCbjRK-fKcjnOy5PeHodKdhaZ9NFXtD1xgvBIuqGQpTKtmaqBuVXHefRuJ6B5az4-hlGkxwhp5_XeR8hsFFJOwHw_hGxRg1HXPOnFp1UZEg-aAeJs46tAP01yIw6nsI97kqCRWN30kvohCeHMNsvaXhxcJa2PAzfB3H3UW35dxDrSFm270JXFDRLMxue9wTLEU2HJ3e48Y90I2z_9KfhoUucs4KknGmMHE42VLddiHVtvj1uImfGmBfFbKaSjQMektaktjIYS6rD0WYlSv71n3z7Bs-GrOW2DXqMHpfH6QXMWNGeGD-tM4XJhobD5xW_w2QwLfYLk5IroF9hDveDWrJOx33ICfn117rHAhwYU9f1TxQQ3wkVK6dE7lytsc-5eiO1I9vW9wl2_VZfbuMdKPMuSziwwYFOL_m00?></g></svg>