<svg xmlns="http://www.w3.org/2000/svg" xmlns:xlink="http://www.w3.org/1999/xlink" contentStyleType="text/css" data-diagram-type="CLASS" height="640px" preserveAspectRatio="none" style="width:931px;height:640px;" version="1.1" viewBox="0 0 931 640" width="931px" zoomAndPan="magnify"><?plantuml 1.2026.3beta4?><defs/><g><!--class SicherheitsServer--><g class="entity" data-qualified-name="SicherheitsServer" data-source-line="5" id="ent0002"><rect fill="#313139" height="96.8906" rx="2.5" ry="2.5" style="stroke:#E7E7E7;stroke-width:0.5;" width="386.1514" x="181.5" y="7"/><ellipse cx="308.4331" cy="23" fill="#2E5233" rx="11" ry="11" style="stroke:#E7E7E7;stroke-width:1;"/><path d="M311.4019,28.6406 Q310.8237,28.9375 310.1831,29.0781 Q309.5425,29.2344 308.8394,29.2344 Q306.3394,29.2344 305.0112,27.5938 Q303.6987,25.9375 303.6987,22.8125 Q303.6987,19.6875 305.0112,18.0313 Q306.3394,16.375 308.8394,16.375 Q309.5425,16.375 310.1831,16.5313 Q310.8394,16.6875 311.4019,16.9844 L311.4019,19.7031 Q310.7769,19.125 310.1831,18.8594 Q309.5894,18.5781 308.9644,18.5781 Q307.6206,18.5781 306.9331,19.6563 Q306.2456,20.7188 306.2456,22.8125 Q306.2456,24.9063 306.9331,25.9844 Q307.6206,27.0469 308.9644,27.0469 Q309.5894,27.0469 310.1831,26.7813 Q310.7769,26.5 311.4019,25.9219 L311.4019,28.6406 Z " fill="#FFFFFF"/><text fill="#FFFFFF" font-family="sans-serif" font-size="14" lengthAdjust="spacing" textLength="123.7852" x="328.9331" y="27.8467">SicherheitsServer</text><line style="stroke:#E7E7E7;stroke-width:0.5;" x1="182.5" x2="566.6514" y1="39" y2="39"/><text fill="#FFFFFF" font-family="sans-serif" font-size="14" lengthAdjust="spacing" textLength="65.6182" x="187.5" y="55.9951">-port : int</text><line style="stroke:#E7E7E7;stroke-width:0.5;" x1="182.5" x2="566.6514" y1="63.2969" y2="63.2969"/><text fill="#FFFFFF" font-family="sans-serif" font-size="14" lengthAdjust="spacing" textLength="374.1514" x="187.5" y="80.292">+SicherheitsServer(port : int, z : SicherheitsZentrale)</text><text fill="#FFFFFF" font-family="sans-serif" font-size="14" lengthAdjust="spacing" textLength="92.0664" x="187.5" y="96.5889">+runServer()</text></g><!--class SicherheitsThread--><g class="entity" data-qualified-name="SicherheitsThread" data-source-line="10" id="ent0003"><rect fill="#313139" height="96.8906" rx="2.5" ry="2.5" style="stroke:#E7E7E7;stroke-width:0.5;" width="443.9902" x="472.58" y="180.89"/><ellipse cx="626.7577" cy="196.89" fill="#2E5233" rx="11" ry="11" style="stroke:#E7E7E7;stroke-width:1;"/><path d="M629.7265,202.5306 Q629.1484,202.8275 628.5077,202.9681 Q627.8671,203.1244 627.164,203.1244 Q624.664,203.1244 623.3359,201.4837 Q622.0234,199.8275 622.0234,196.7025 Q622.0234,193.5775 623.3359,191.9212 Q624.664,190.265 627.164,190.265 Q627.8671,190.265 628.5077,190.4212 Q629.164,190.5775 629.7265,190.8744 L629.7265,193.5931 Q629.1015,193.015 628.5077,192.7494 Q627.914,192.4681 627.289,192.4681 Q625.9452,192.4681 625.2577,193.5462 Q624.5702,194.6087 624.5702,196.7025 Q624.5702,198.7962 625.2577,199.8744 Q625.9452,200.9369 627.289,200.9369 Q627.914,200.9369 628.5077,200.6712 Q629.1015,200.39 629.7265,199.8119 L629.7265,202.5306 Z " fill="#FFFFFF"/><text fill="#FFFFFF" font-family="sans-serif" font-size="14" lengthAdjust="spacing" textLength="127.1348" x="647.2577" y="201.7367">SicherheitsThread</text><line style="stroke:#E7E7E7;stroke-width:0.5;" x1="473.58" x2="915.5702" y1="212.89" y2="212.89"/><line style="stroke:#E7E7E7;stroke-width:0.5;" x1="473.58" x2="915.5702" y1="220.89" y2="220.89"/><text fill="#FFFFFF" font-family="sans-serif" font-size="14" lengthAdjust="spacing" textLength="392.9023" x="478.58" y="237.8851">+SicherheitsThread(cs : Socket, z : SicherheitsZentrale)</text><text fill="#FFFFFF" font-family="sans-serif" font-size="14" lengthAdjust="spacing" textLength="46.1563" x="478.58" y="254.182">+run()</text><text fill="#FFFFFF" font-family="sans-serif" font-size="14" lengthAdjust="spacing" textLength="431.9902" x="478.58" y="270.4789">-vergleicheZugangsdaten(user : String, pin : String) : boolean</text></g><!--class Thread--><g class="entity" data-qualified-name="Thread" data-source-line="15" id="ent0004"><rect fill="#313139" height="80.5938" rx="2.5" ry="2.5" style="stroke:#E7E7E7;stroke-width:0.5;" width="81.2598" x="653.95" y="15.15"/><ellipse cx="668.95" cy="31.15" fill="#2E5233" rx="11" ry="11" style="stroke:#E7E7E7;stroke-width:1;"/><path d="M671.9188,36.7906 Q671.3406,37.0875 670.7,37.2281 Q670.0594,37.3844 669.3563,37.3844 Q666.8563,37.3844 665.5281,35.7437 Q664.2156,34.0875 664.2156,30.9625 Q664.2156,27.8375 665.5281,26.1812 Q666.8563,24.525 669.3563,24.525 Q670.0594,24.525 670.7,24.6812 Q671.3563,24.8375 671.9188,25.1344 L671.9188,27.8531 Q671.2938,27.275 670.7,27.0094 Q670.1063,26.7281 669.4813,26.7281 Q668.1375,26.7281 667.45,27.8062 Q666.7625,28.8687 666.7625,30.9625 Q666.7625,33.0562 667.45,34.1344 Q668.1375,35.1969 669.4813,35.1969 Q670.1063,35.1969 670.7,34.9312 Q671.2938,34.65 671.9188,34.0719 L671.9188,36.7906 Z " fill="#FFFFFF"/><text fill="#FFFFFF" font-family="sans-serif" font-size="14" lengthAdjust="spacing" textLength="49.2598" x="682.95" y="35.9967">Thread</text><line style="stroke:#E7E7E7;stroke-width:0.5;" x1="654.95" x2="734.2098" y1="47.15" y2="47.15"/><line style="stroke:#E7E7E7;stroke-width:0.5;" x1="654.95" x2="734.2098" y1="55.15" y2="55.15"/><text fill="#FFFFFF" font-family="sans-serif" font-size="14" lengthAdjust="spacing" textLength="55.2617" x="659.95" y="72.1451">+start()</text><text fill="#FFFFFF" font-family="sans-serif" font-size="14" lengthAdjust="spacing" textLength="46.1563" x="659.95" y="88.442">+run()</text></g><!--class SicherheitsZentrale--><g class="entity" data-qualified-name="SicherheitsZentrale" data-source-line="19" id="ent0005"><rect fill="#313139" height="64.2969" rx="2.5" ry="2.5" style="stroke:#E7E7E7;stroke-width:0.5;" width="171.9336" x="191.61" y="379.22"/><ellipse cx="207.8044" cy="395.22" fill="#2E5233" rx="11" ry="11" style="stroke:#E7E7E7;stroke-width:1;"/><path d="M210.7732,400.8606 Q210.1951,401.1575 209.5544,401.2981 Q208.9138,401.4544 208.2107,401.4544 Q205.7107,401.4544 204.3826,399.8137 Q203.0701,398.1575 203.0701,395.0325 Q203.0701,391.9075 204.3826,390.2512 Q205.7107,388.595 208.2107,388.595 Q208.9138,388.595 209.5544,388.7512 Q210.2107,388.9075 210.7732,389.2044 L210.7732,391.9231 Q210.1482,391.345 209.5544,391.0794 Q208.9607,390.7981 208.3357,390.7981 Q206.9919,390.7981 206.3044,391.8762 Q205.6169,392.9387 205.6169,395.0325 Q205.6169,397.1262 206.3044,398.2044 Q206.9919,399.2669 208.3357,399.2669 Q208.9607,399.2669 209.5544,399.0012 Q210.1482,398.72 210.7732,398.1419 L210.7732,400.8606 Z " fill="#FFFFFF"/><text fill="#FFFFFF" font-family="sans-serif" font-size="14" lengthAdjust="spacing" textLength="137.2793" x="222.0699" y="400.0667">SicherheitsZentrale</text><line style="stroke:#E7E7E7;stroke-width:0.5;" x1="192.61" x2="362.5436" y1="411.22" y2="411.22"/><line style="stroke:#E7E7E7;stroke-width:0.5;" x1="192.61" x2="362.5436" y1="419.22" y2="419.22"/><text fill="#FFFFFF" font-family="sans-serif" font-size="14" lengthAdjust="spacing" textLength="159.9336" x="197.61" y="436.2151">+SicherheitsZentrale()</text></g><!--class BenutzerVerwaltung--><g class="entity" data-qualified-name="BenutzerVerwaltung" data-source-line="22" id="ent0006"><rect fill="#313139" height="80.5938" rx="2.5" ry="2.5" style="stroke:#E7E7E7;stroke-width:0.5;" width="175.1582" x="7" y="544.97"/><ellipse cx="22" cy="560.97" fill="#2E5233" rx="11" ry="11" style="stroke:#E7E7E7;stroke-width:1;"/><path d="M24.9688,566.6106 Q24.3906,566.9075 23.75,567.0481 Q23.1094,567.2044 22.4063,567.2044 Q19.9063,567.2044 18.5781,565.5637 Q17.2656,563.9075 17.2656,560.7825 Q17.2656,557.6575 18.5781,556.0012 Q19.9063,554.345 22.4063,554.345 Q23.1094,554.345 23.75,554.5012 Q24.4063,554.6575 24.9688,554.9544 L24.9688,557.6731 Q24.3438,557.095 23.75,556.8294 Q23.1563,556.5481 22.5313,556.5481 Q21.1875,556.5481 20.5,557.6262 Q19.8125,558.6887 19.8125,560.7825 Q19.8125,562.8762 20.5,563.9544 Q21.1875,565.0169 22.5313,565.0169 Q23.1563,565.0169 23.75,564.7512 Q24.3438,564.47 24.9688,563.8919 L24.9688,566.6106 Z " fill="#FFFFFF"/><text fill="#FFFFFF" font-family="sans-serif" font-size="14" lengthAdjust="spacing" textLength="143.1582" x="36" y="565.8167">BenutzerVerwaltung</text><line style="stroke:#E7E7E7;stroke-width:0.5;" x1="8" x2="181.1582" y1="576.97" y2="576.97"/><text fill="#FFFFFF" font-family="sans-serif" font-size="14" lengthAdjust="spacing" textLength="136.2266" x="13" y="593.9651">-adminUser : String</text><text fill="#FFFFFF" font-family="sans-serif" font-size="14" lengthAdjust="spacing" textLength="125.5215" x="13" y="610.262">-adminPin : String</text><line style="stroke:#E7E7E7;stroke-width:0.5;" x1="8" x2="181.1582" y1="617.5637" y2="617.5637"/></g><!--class Alarmanlage--><g class="entity" data-qualified-name="Alarmanlage" data-source-line="26" id="ent0007"><rect fill="#313139" height="64.2969" rx="2.5" ry="2.5" style="stroke:#E7E7E7;stroke-width:0.5;" width="120.9922" x="217.08" y="553.11"/><ellipse cx="232.1393" cy="569.11" fill="#2E5233" rx="11" ry="11" style="stroke:#E7E7E7;stroke-width:1;"/><path d="M235.1081,574.7506 Q234.53,575.0475 233.8893,575.1881 Q233.2487,575.3444 232.5456,575.3444 Q230.0456,575.3444 228.7175,573.7037 Q227.405,572.0475 227.405,568.9225 Q227.405,565.7975 228.7175,564.1412 Q230.0456,562.485 232.5456,562.485 Q233.2487,562.485 233.8893,562.6412 Q234.5456,562.7975 235.1081,563.0944 L235.1081,565.8131 Q234.4831,565.235 233.8893,564.9694 Q233.2956,564.6881 232.6706,564.6881 Q231.3268,564.6881 230.6393,565.7662 Q229.9518,566.8287 229.9518,568.9225 Q229.9518,571.0162 230.6393,572.0944 Q231.3268,573.1569 232.6706,573.1569 Q233.2956,573.1569 233.8893,572.8912 Q234.4831,572.61 235.1081,572.0319 L235.1081,574.7506 Z " fill="#FFFFFF"/><text fill="#FFFFFF" font-family="sans-serif" font-size="14" lengthAdjust="spacing" textLength="88.8604" x="246.1525" y="573.9567">Alarmanlage</text><line style="stroke:#E7E7E7;stroke-width:0.5;" x1="218.08" x2="337.0722" y1="585.11" y2="585.11"/><text fill="#FFFFFF" font-family="sans-serif" font-size="14" lengthAdjust="spacing" textLength="108.9922" x="223.08" y="602.1051">-aktiv : boolean</text><line style="stroke:#E7E7E7;stroke-width:0.5;" x1="218.08" x2="337.0722" y1="609.4069" y2="609.4069"/></g><!--class ProtokollLog--><g class="entity" data-qualified-name="ProtokollLog" data-source-line="29" id="ent0008"><rect fill="#313139" height="64.2969" rx="2.5" ry="2.5" style="stroke:#E7E7E7;stroke-width:0.5;" width="187.6973" x="372.73" y="553.11"/><ellipse cx="419.0674" cy="569.11" fill="#2E5233" rx="11" ry="11" style="stroke:#E7E7E7;stroke-width:1;"/><path d="M422.0362,574.7506 Q421.458,575.0475 420.8174,575.1881 Q420.1768,575.3444 419.4737,575.3444 Q416.9737,575.3444 415.6455,573.7037 Q414.333,572.0475 414.333,568.9225 Q414.333,565.7975 415.6455,564.1412 Q416.9737,562.485 419.4737,562.485 Q420.1768,562.485 420.8174,562.6412 Q421.4737,562.7975 422.0362,563.0944 L422.0362,565.8131 Q421.4112,565.235 420.8174,564.9694 Q420.2237,564.6881 419.5987,564.6881 Q418.2549,564.6881 417.5674,565.7662 Q416.8799,566.8287 416.8799,568.9225 Q416.8799,571.0162 417.5674,572.0944 Q418.2549,573.1569 419.5987,573.1569 Q420.2237,573.1569 420.8174,572.8912 Q421.4112,572.61 422.0362,572.0319 L422.0362,574.7506 Z " fill="#FFFFFF"/><text fill="#FFFFFF" font-family="sans-serif" font-size="14" lengthAdjust="spacing" textLength="86.5225" x="439.5674" y="573.9567">ProtokollLog</text><line style="stroke:#E7E7E7;stroke-width:0.5;" x1="373.73" x2="559.4273" y1="585.11" y2="585.11"/><text fill="#FFFFFF" font-family="sans-serif" font-size="14" lengthAdjust="spacing" textLength="175.6973" x="378.73" y="602.1051">-eintraege : List&lt;String&gt;</text><line style="stroke:#E7E7E7;stroke-width:0.5;" x1="373.73" x2="559.4273" y1="609.4069" y2="609.4069"/></g><!--class Socket--><g class="entity" data-qualified-name="Socket" data-source-line="32" id="ent0009"><rect fill="#313139" height="113.1875" rx="2.5" ry="2.5" style="stroke:#E7E7E7;stroke-width:0.5;" width="212.1357" x="588.51" y="354.78"/><ellipse cx="666.6482" cy="370.78" fill="#2E5233" rx="11" ry="11" style="stroke:#E7E7E7;stroke-width:1;"/><path d="M669.6169,376.4206 Q669.0388,376.7175 668.3982,376.8581 Q667.7576,377.0144 667.0544,377.0144 Q664.5544,377.0144 663.2263,375.3738 Q661.9138,373.7175 661.9138,370.5925 Q661.9138,367.4675 663.2263,365.8113 Q664.5544,364.155 667.0544,364.155 Q667.7576,364.155 668.3982,364.3113 Q669.0544,364.4675 669.6169,364.7644 L669.6169,367.4831 Q668.9919,366.905 668.3982,366.6394 Q667.8044,366.3581 667.1794,366.3581 Q665.8357,366.3581 665.1482,367.4363 Q664.4607,368.4988 664.4607,370.5925 Q664.4607,372.6863 665.1482,373.7644 Q665.8357,374.8269 667.1794,374.8269 Q667.8044,374.8269 668.3982,374.5613 Q668.9919,374.28 669.6169,373.7019 L669.6169,376.4206 Z " fill="#FFFFFF"/><text fill="#FFFFFF" font-family="sans-serif" font-size="14" lengthAdjust="spacing" textLength="47.3594" x="687.1482" y="375.6267">Socket</text><line style="stroke:#E7E7E7;stroke-width:0.5;" x1="589.51" x2="799.6457" y1="386.78" y2="386.78"/><text fill="#FFFFFF" font-family="sans-serif" font-size="14" lengthAdjust="spacing" textLength="155.5723" x="594.51" y="403.7751">-remoteHostIP : String</text><text fill="#FFFFFF" font-family="sans-serif" font-size="14" lengthAdjust="spacing" textLength="115.8486" x="594.51" y="420.072">-remotePort : int</text><line style="stroke:#E7E7E7;stroke-width:0.5;" x1="589.51" x2="799.6457" y1="427.3738" y2="427.3738"/><text fill="#FFFFFF" font-family="sans-serif" font-size="14" lengthAdjust="spacing" textLength="200.1357" x="594.51" y="444.3689">+getRemoteHostIP() : String</text><text fill="#FFFFFF" font-family="sans-serif" font-size="14" lengthAdjust="spacing" textLength="160.4121" x="594.51" y="460.6657">+getRemotePort() : int</text></g><!--entity Netzwerk--><g class="entity" data-qualified-name="Netzwerk" data-source-line="38" id="ent0010"><path d="M467.3078,396.5168 C471.1843,391.4558 476.3042,391.4315 479.7443,397.0261 C482.0674,390.2408 487.9786,388.2073 493.0389,394.1721 C497.2946,388.2312 502.9875,386.2821 507.4997,393.8986 C511.7331,389.591 516.6757,389.9309 519.1455,395.8977 C524.4882,389.2934 528.7683,389.0872 532.9088,397.0347 C537.0864,391.5063 542.7971,391.4118 546.2957,397.7976 C555.3113,398.9196 557.211,406.5854 552.2575,413.1367 C557.5556,420.359 554.4048,425.6297 546.0591,426.5442 C543.0749,433.1737 538.4274,435.2189 532.7531,429.4256 C529.2892,434.9478 525.7379,435.5741 520.8623,431.1059 C517.0486,438.2216 511.8381,439.7143 505.9587,433.3979 C501.7035,439.3201 497.275,438.4931 494.2996,432.1785 C488.467,438.2904 482.8121,438.3627 479.4037,429.7295 C475.2429,434.6155 469.9887,432.8879 467.7048,427.5763 C458.9285,426.1303 458.1058,419.3242 463.0483,413.3787 C457.1674,406.4061 458.8109,399.8575 467.3078,396.5168" fill="#313139" style="stroke:#E7E7E7;stroke-width:0.5;"/><text fill="#FFFFFF" font-family="sans-serif" font-size="14" lengthAdjust="spacing" textLength="65.8506" x="472.65" y="416.2151">Netzwerk</text></g><!--class ServerSocket--><g class="entity" data-qualified-name="ServerSocket" data-source-line="39" id="ent0011"><rect fill="#313139" height="48" rx="2.5" ry="2.5" style="stroke:#E7E7E7;stroke-width:0.5;" width="125.2695" x="311.94" y="205.33"/><ellipse cx="326.94" cy="221.33" fill="#2E5233" rx="11" ry="11" style="stroke:#E7E7E7;stroke-width:1;"/><path d="M329.9088,226.9706 Q329.3306,227.2675 328.69,227.4081 Q328.0494,227.5644 327.3463,227.5644 Q324.8463,227.5644 323.5181,225.9237 Q322.2056,224.2675 322.2056,221.1425 Q322.2056,218.0175 323.5181,216.3612 Q324.8463,214.705 327.3463,214.705 Q328.0494,214.705 328.69,214.8612 Q329.3463,215.0175 329.9088,215.3144 L329.9088,218.0331 Q329.2838,217.455 328.69,217.1894 Q328.0963,216.9081 327.4713,216.9081 Q326.1275,216.9081 325.44,217.9862 Q324.7525,219.0487 324.7525,221.1425 Q324.7525,223.2362 325.44,224.3144 Q326.1275,225.3769 327.4713,225.3769 Q328.0963,225.3769 328.69,225.1112 Q329.2838,224.83 329.9088,224.2519 L329.9088,226.9706 Z " fill="#FFFFFF"/><text fill="#FFFFFF" font-family="sans-serif" font-size="14" lengthAdjust="spacing" textLength="93.2695" x="340.94" y="226.1767">ServerSocket</text><line style="stroke:#E7E7E7;stroke-width:0.5;" x1="312.94" x2="436.2095" y1="237.33" y2="237.33"/><line style="stroke:#E7E7E7;stroke-width:0.5;" x1="312.94" x2="436.2095" y1="245.33" y2="245.33"/></g><!--link SicherheitsServer to ServerSocket--><g class="link" data-entity-1="ent0002" data-entity-2="ent0011" data-link-type="dependency" data-source-line="39" id="lnk12"><path codeLine="39" d="M374.58,112.32 C374.58,145.11 374.58,173.15 374.58,198.89" fill="none" id="SicherheitsServer-ServerSocket" style="stroke:#E7E7E7;stroke-width:1;"/><path d="M370.58,109.32 L378.58,117.32 M378.58,109.32 L370.58,117.32" fill="none" style="stroke:#E7E7E7;stroke-width:1;"/><polygon fill="#E7E7E7" points="374.58,204.89,378.58,195.89,374.58,199.89,370.58,195.89,374.58,204.89" style="stroke:#E7E7E7;stroke-width:1;"/><text fill="#FFFFFF" font-family="sans-serif" font-size="13" lengthAdjust="spacing" textLength="89.8193" x="375.58" y="146.9569">-serverSocket</text><text fill="#FFFFFF" font-family="sans-serif" font-size="13" lengthAdjust="spacing" textLength="8.271" x="365.6393" y="194.1877">1</text></g><!--link SicherheitsServer to SicherheitsZentrale--><g class="link" data-entity-1="ent0002" data-entity-2="ent0005" data-link-type="dependency" data-source-line="40" id="lnk13"><path codeLine="40" d="M292.9771,109.3474 C267.8871,129.6174 249.13,150.58 235.58,180.89 C205.91,247.26 235.8785,327.983 257.9985,373.523" fill="none" id="SicherheitsServer-SicherheitsZentrale" style="stroke:#E7E7E7;stroke-width:1;"/><path d="M292.7969,104.3507 L291.6015,115.6011 M297.8244,110.5736 L286.574,109.3781" fill="none" style="stroke:#E7E7E7;stroke-width:1;"/><polygon fill="#E7E7E7" points="260.62,378.92,260.2858,369.0768,258.4354,374.4225,253.0898,372.5721,260.62,378.92" style="stroke:#E7E7E7;stroke-width:1;"/><text fill="#FFFFFF" font-family="sans-serif" font-size="13" lengthAdjust="spacing" textLength="57.77" x="236.58" y="233.8969">-zentrale</text><text fill="#FFFFFF" font-family="sans-serif" font-size="13" lengthAdjust="spacing" textLength="8.271" x="248.5208" y="368.1351">1</text></g><!--link SicherheitsServer to SicherheitsThread--><g class="link" data-entity-1="ent0002" data-entity-2="ent0003" data-link-type="dependency" data-source-line="41" id="lnk14"><path codeLine="41" d="M463.72,104.32 C507.92,128.07 555.8747,153.82 600.0747,177.57" fill="none" id="SicherheitsServer-to-SicherheitsThread" style="stroke:#E7E7E7;stroke-width:1;stroke-dasharray:7,7;"/><polygon fill="#E7E7E7" points="605.36,180.41,599.3253,172.6265,600.9556,178.0434,595.5387,179.6736,605.36,180.41" style="stroke:#E7E7E7;stroke-width:1;"/><text fill="#FFFFFF" font-family="sans-serif" font-size="13" lengthAdjust="spacing" textLength="64.2319" x="545.58" y="146.9569">&#171;creates&#187;</text></g><!--reverse link Thread to SicherheitsThread--><g class="link" data-entity-1="ent0004" data-entity-2="ent0003" data-link-type="extension" data-source-line="42" id="lnk16"><path codeLine="42" d="M694.58,113.88 C694.58,139.05 694.58,153.85 694.58,180.51" fill="none" id="Thread-backto-SicherheitsThread" style="stroke:#E7E7E7;stroke-width:1;"/><polygon fill="none" points="694.58,95.88,688.58,113.88,700.58,113.88,694.58,95.88" style="stroke:#E7E7E7;stroke-width:1;"/></g><!--link SicherheitsThread to Socket--><g class="link" data-entity-1="ent0003" data-entity-2="ent0009" data-link-type="dependency" data-source-line="43" id="lnk17"><path codeLine="43" d="M694.58,286.11 C694.58,309.55 694.58,323.93 694.58,348.38" fill="none" id="SicherheitsThread-Socket" style="stroke:#E7E7E7;stroke-width:1;"/><path d="M690.58,283.11 L698.58,291.11 M698.58,283.11 L690.58,291.11" fill="none" style="stroke:#E7E7E7;stroke-width:1;"/><polygon fill="#E7E7E7" points="694.58,354.38,698.58,345.38,694.58,349.38,690.58,345.38,694.58,354.38" style="stroke:#E7E7E7;stroke-width:1;"/><text fill="#FFFFFF" font-family="sans-serif" font-size="13" lengthAdjust="spacing" textLength="84.373" x="695.58" y="320.8469">-clientSocket</text><text fill="#FFFFFF" font-family="sans-serif" font-size="13" lengthAdjust="spacing" textLength="8.271" x="686.1093" y="343.5948">1</text></g><!--link Netzwerk to Socket--><g class="link" data-entity-1="ent0010" data-entity-2="ent0009" data-link-type="association" data-source-line="44" id="lnk19"><path codeLine="44" d="M553.94,411.37 C565.38,411.37 576.83,411.37 588.27,411.37" fill="none" id="Netzwerk-Socket" style="stroke:#E7E7E7;stroke-width:1;"/></g><!--link SicherheitsThread to SicherheitsZentrale--><g class="link" data-entity-1="ent0003" data-entity-2="ent0005" data-link-type="dependency" data-source-line="45" id="lnk20"><path codeLine="45" d="M576.3052,281.4007 C502.5952,313.2207 420.7285,348.5616 356.3185,376.3716" fill="none" id="SicherheitsThread-SicherheitsZentrale" style="stroke:#E7E7E7;stroke-width:1;"/><path d="M577.4741,276.5393 L573.3,287.0548 M580.6448,283.8841 L570.1293,279.71" fill="none" style="stroke:#E7E7E7;stroke-width:1;"/><polygon fill="#E7E7E7" points="350.81,378.75,360.6583,378.8548,355.4004,376.768,357.4871,371.5101,350.81,378.75" style="stroke:#E7E7E7;stroke-width:1;"/><text fill="#FFFFFF" font-family="sans-serif" font-size="13" lengthAdjust="spacing" textLength="57.77" x="512.58" y="320.8469">-zentrale</text><text fill="#FFFFFF" font-family="sans-serif" font-size="13" lengthAdjust="spacing" textLength="8.271" x="356.0334" y="368.182">1</text></g><!--link SicherheitsZentrale to BenutzerVerwaltung--><g class="link" data-entity-1="ent0005" data-entity-2="ent0006" data-link-type="dependency" data-source-line="46" id="lnk21"><path codeLine="46" d="M238.1794,449.3776 C207.9494,477.7776 173.5827,510.0516 140.9927,540.6716" fill="none" id="SicherheitsZentrale-BenutzerVerwaltung" style="stroke:#E7E7E7;stroke-width:1;"/><path d="M237.6271,444.4082 L237.2741,455.7164 M243.1047,450.2388 L231.7965,449.8858" fill="none" style="stroke:#E7E7E7;stroke-width:1;"/><polygon fill="#E7E7E7" points="136.62,544.78,145.9181,541.5325,140.264,541.3563,140.4402,535.7022,136.62,544.78" style="stroke:#E7E7E7;stroke-width:1;"/><text fill="#FFFFFF" font-family="sans-serif" font-size="13" lengthAdjust="spacing" textLength="77.7651" x="187.58" y="511.0369">-verwaltung</text><text fill="#FFFFFF" font-family="sans-serif" font-size="13" lengthAdjust="spacing" textLength="8.271" x="134.943" y="533.9101">1</text></g><!--link SicherheitsZentrale to Alarmanlage--><g class="link" data-entity-1="ent0005" data-entity-2="ent0007" data-link-type="dependency" data-source-line="47" id="lnk22"><path codeLine="47" d="M277.58,451.9 C277.58,482.82 277.58,515.7 277.58,546.65" fill="none" id="SicherheitsZentrale-Alarmanlage" style="stroke:#E7E7E7;stroke-width:1;"/><path d="M273.58,448.9 L281.58,456.9 M281.58,448.9 L273.58,456.9" fill="none" style="stroke:#E7E7E7;stroke-width:1;"/><polygon fill="#E7E7E7" points="277.58,552.65,281.58,543.65,277.58,547.65,273.58,543.65,277.58,552.65" style="stroke:#E7E7E7;stroke-width:1;"/><text fill="#FFFFFF" font-family="sans-serif" font-size="13" lengthAdjust="spacing" textLength="86.2773" x="278.58" y="511.0369">-alarmanlage</text><text fill="#FFFFFF" font-family="sans-serif" font-size="13" lengthAdjust="spacing" textLength="8.271" x="268.8441" y="542.0839">1</text></g><!--link SicherheitsZentrale to ProtokollLog--><g class="link" data-entity-1="ent0005" data-entity-2="ent0008" data-link-type="dependency" data-source-line="48" id="lnk23"><path codeLine="48" d="M319.2735,449.2202 C337.4035,465.3102 353.76,479.94 373.58,497.97 C393.46,516.05 411.1232,532.3966 428.7632,548.8566" fill="none" id="SicherheitsZentrale-ProtokollLog" style="stroke:#E7E7E7;stroke-width:1;"/><path d="M314.3746,450.2206 L325.6682,449.5473 M319.6848,444.2371 L320.358,455.5308" fill="none" style="stroke:#E7E7E7;stroke-width:1;"/><polygon fill="#E7E7E7" points="433.15,552.95,429.2987,543.8854,429.4943,549.5389,423.8408,549.7345,433.15,552.95" style="stroke:#E7E7E7;stroke-width:1;"/><text fill="#FFFFFF" font-family="sans-serif" font-size="13" lengthAdjust="spacing" textLength="24.5083" x="392.58" y="511.0369">-log</text><text fill="#FFFFFF" font-family="sans-serif" font-size="13" lengthAdjust="spacing" textLength="8.271" x="417.4583" y="541.8201">1</text></g><?plantuml-src ZL9DRzim3BtxLn0zEMXThDSWCD2TLg0OWgNReJV5vXJ1iXHGT59uxN-V_AtKHj0RoST7lYTHQ6tFfNfJHaQHAvGv2X8bx4LMIBALoJEhBG6JCCv3Q3ZeohHmxf6PrBvYVCgisQaQuLlK0h1JsG7fW8hT3kc41FyYW0IEbXZMe0o3ps_dVV7KSGUr3uAELo-1XCPLnwNAz1nV-9WlVZaGYhnTV3klnvbhfjkimAziYjim0RzEQcmwNoifZ7IvO3HnvRn5FyA_Xv5tS5Hcp5O-sbkhKPX9veKsnu8uljoru6SGDNSq827nEvgAQwG_I6UXkJAo_mAHbyhy3lN2LDy6mgTPZrfGAOmM4eSX1QlJah4jMRQ5rVhP3WjHDUhGSzVmh1nlkl5fOBBzXRwTiBICFwpZf-qdYHsq_NH34lbNm8bN5wm0RuWjsbARvRRAuIToVKOgeldDlYL92ZSFDz3blSmr92x8h_8MVi_JwpvUeDxVfmitl8RD9lCHeqlJQ8udrJ5vJ_khMi0dGQE5J2klOh3GbHEDVpbPV97PeAyx6_6Hl72RddiQi-liy1ezJKpfTTx5QNgYjl8_?></g></svg>