<?plantuml 1.2026.2beta3?><svg xmlns="http://www.w3.org/2000/svg" xmlns:xlink="http://www.w3.org/1999/xlink" contentStyleType="text/css" data-diagram-type="CLASS" height="523px" preserveAspectRatio="none" style="width:277px;height:523px;" version="1.1" viewBox="0 0 277 523" width="277px" zoomAndPan="magnify"><defs/><g><!--class Schule--><g class="entity" data-qualified-name="Schule" data-source-line="3" id="ent0002"><rect fill="#313139" height="96.8906" rx="2.5" ry="2.5" style="stroke:#E7E7E7;stroke-width:0.5;" width="223.3809" x="26.94" y="7"/><ellipse cx="110.9639" cy="23" fill="#2E5233" rx="11" ry="11" style="stroke:#E7E7E7;stroke-width:1;"/><path d="M113.9327,28.6406 Q113.3546,28.9375 112.7139,29.0781 Q112.0733,29.2344 111.3702,29.2344 Q108.8702,29.2344 107.5421,27.5938 Q106.2296,25.9375 106.2296,22.8125 Q106.2296,19.6875 107.5421,18.0313 Q108.8702,16.375 111.3702,16.375 Q112.0733,16.375 112.7139,16.5313 Q113.3702,16.6875 113.9327,16.9844 L113.9327,19.7031 Q113.3077,19.125 112.7139,18.8594 Q112.1202,18.5781 111.4952,18.5781 Q110.1514,18.5781 109.4639,19.6563 Q108.7764,20.7188 108.7764,22.8125 Q108.7764,24.9063 109.4639,25.9844 Q110.1514,27.0469 111.4952,27.0469 Q112.1202,27.0469 112.7139,26.7813 Q113.3077,26.5 113.9327,25.9219 L113.9327,28.6406 Z " fill="#FFFFFF"/><text fill="#FFFFFF" font-family="sans-serif" font-size="14" lengthAdjust="spacing" textLength="46.833" x="131.4639" y="27.8467">Schule</text><line style="stroke:#E7E7E7;stroke-width:0.5;" x1="27.94" x2="249.3209" y1="39" y2="39"/><line style="stroke:#E7E7E7;stroke-width:0.5;" x1="27.94" x2="249.3209" y1="47" y2="47"/><text fill="#FFFFFF" font-family="sans-serif" font-size="14" lengthAdjust="spacing" textLength="69.4873" x="32.94" y="63.9951">+Schule()</text><text fill="#FFFFFF" font-family="sans-serif" font-size="14" lengthAdjust="spacing" textLength="160.4326" x="32.94" y="80.292">+addKlasse(k : Klasse)</text><text fill="#FFFFFF" font-family="sans-serif" font-size="14" lengthAdjust="spacing" textLength="211.3809" x="32.94" y="96.5889">+erstelleWarnungen() : String</text></g><!--class Klasse--><g class="entity" data-qualified-name="Klasse" data-source-line="8" id="ent0003"><rect fill="#313139" height="129.4844" rx="2.5" ry="2.5" style="stroke:#E7E7E7;stroke-width:0.5;" width="241.5986" x="17.83" y="180.89"/><ellipse cx="111.954" cy="196.89" fill="#2E5233" rx="11" ry="11" style="stroke:#E7E7E7;stroke-width:1;"/><path d="M114.9228,202.5306 Q114.3446,202.8275 113.704,202.9681 Q113.0634,203.1244 112.3603,203.1244 Q109.8603,203.1244 108.5321,201.4838 Q107.2196,199.8275 107.2196,196.7025 Q107.2196,193.5775 108.5321,191.9213 Q109.8603,190.265 112.3603,190.265 Q113.0634,190.265 113.704,190.4213 Q114.3603,190.5775 114.9228,190.8744 L114.9228,193.5931 Q114.2978,193.015 113.704,192.7494 Q113.1103,192.4681 112.4853,192.4681 Q111.1415,192.4681 110.454,193.5463 Q109.7665,194.6088 109.7665,196.7025 Q109.7665,198.7963 110.454,199.8744 Q111.1415,200.9369 112.4853,200.9369 Q113.1103,200.9369 113.704,200.6713 Q114.2978,200.39 114.9228,199.8119 L114.9228,202.5306 Z " fill="#FFFFFF"/><text fill="#FFFFFF" font-family="sans-serif" font-size="14" lengthAdjust="spacing" textLength="44.8506" x="132.454" y="201.7367">Klasse</text><line style="stroke:#E7E7E7;stroke-width:0.5;" x1="18.83" x2="258.4286" y1="212.89" y2="212.89"/><text fill="#FFFFFF" font-family="sans-serif" font-size="14" lengthAdjust="spacing" textLength="149.8779" x="23.83" y="229.8851">-bezeichnung : String</text><line style="stroke:#E7E7E7;stroke-width:0.5;" x1="18.83" x2="258.4286" y1="237.1869" y2="237.1869"/><text fill="#FFFFFF" font-family="sans-serif" font-size="14" lengthAdjust="spacing" textLength="147.752" x="23.83" y="254.182">+Klasse(bez : String)</text><text fill="#FFFFFF" font-family="sans-serif" font-size="14" lengthAdjust="spacing" textLength="192.3223" x="23.83" y="270.4789">+addSchueler(s : Schueler)</text><text fill="#FFFFFF" font-family="sans-serif" font-size="14" lengthAdjust="spacing" textLength="229.5986" x="23.83" y="286.7757">+getSchueler() : List&lt;Schueler&gt;</text><text fill="#FFFFFF" font-family="sans-serif" font-size="14" lengthAdjust="spacing" textLength="191.1875" x="23.83" y="303.0726">+getBezeichnung() : String</text></g><!--class Schueler--><g class="entity" data-qualified-name="Schueler" data-source-line="15" id="ent0004"><rect fill="#313139" height="129.4844" rx="2.5" ry="2.5" style="stroke:#E7E7E7;stroke-width:0.5;" width="263.2686" x="7" y="387.38"/><ellipse cx="103.7832" cy="403.38" fill="#2E5233" rx="11" ry="11" style="stroke:#E7E7E7;stroke-width:1;"/><path d="M106.752,409.0206 Q106.1738,409.3175 105.5332,409.4581 Q104.8926,409.6144 104.1895,409.6144 Q101.6895,409.6144 100.3613,407.9738 Q99.0488,406.3175 99.0488,403.1925 Q99.0488,400.0675 100.3613,398.4113 Q101.6895,396.755 104.1895,396.755 Q104.8926,396.755 105.5332,396.9113 Q106.1895,397.0675 106.752,397.3644 L106.752,400.0831 Q106.127,399.505 105.5332,399.2394 Q104.9395,398.9581 104.3145,398.9581 Q102.9707,398.9581 102.2832,400.0363 Q101.5957,401.0988 101.5957,403.1925 Q101.5957,405.2863 102.2832,406.3644 Q102.9707,407.4269 104.3145,407.4269 Q104.9395,407.4269 105.5332,407.1613 Q106.127,406.88 106.752,406.3019 L106.752,409.0206 Z " fill="#FFFFFF"/><text fill="#FFFFFF" font-family="sans-serif" font-size="14" lengthAdjust="spacing" textLength="61.2021" x="124.2832" y="408.2267">Schueler</text><line style="stroke:#E7E7E7;stroke-width:0.5;" x1="8" x2="269.2686" y1="419.38" y2="419.38"/><text fill="#FFFFFF" font-family="sans-serif" font-size="14" lengthAdjust="spacing" textLength="100.1533" x="13" y="436.3751">-name : String</text><text fill="#FFFFFF" font-family="sans-serif" font-size="14" lengthAdjust="spacing" textLength="68.4619" x="13" y="452.672">-note : int</text><line style="stroke:#E7E7E7;stroke-width:0.5;" x1="8" x2="269.2686" y1="459.9738" y2="459.9738"/><text fill="#FFFFFF" font-family="sans-serif" font-size="14" lengthAdjust="spacing" textLength="251.2686" x="13" y="476.9689">+Schueler(name : String, note : int)</text><text fill="#FFFFFF" font-family="sans-serif" font-size="14" lengthAdjust="spacing" textLength="110.6533" x="13" y="493.2657">+getNote() : int</text><text fill="#FFFFFF" font-family="sans-serif" font-size="14" lengthAdjust="spacing" textLength="142.3447" x="13" y="509.5626">+getName() : String</text></g><!--link Schule to Klasse--><g class="link" data-entity-1="ent0002" data-entity-2="ent0003" data-link-type="dependency" data-source-line="22" id="lnk5"><path codeLine="22" d="M138.63,111.93 C138.63,135.13 138.63,149.37 138.63,174.45" fill="none" id="Schule-Klasse" style="stroke:#E7E7E7;stroke-width:1;"/><path d="M134.63,108.93 L142.63,116.93 M142.63,108.93 L134.63,116.93" fill="none" style="stroke:#E7E7E7;stroke-width:1;"/><polygon fill="#E7E7E7" points="138.63,180.45,142.63,171.45,138.63,175.45,134.63,171.45,138.63,180.45" style="stroke:#E7E7E7;stroke-width:1;"/><text fill="#FFFFFF" font-family="sans-serif" font-size="13" lengthAdjust="spacing" textLength="53.5806" x="139.63" y="146.9569">-klassen</text><text fill="#FFFFFF" font-family="sans-serif" font-size="13" lengthAdjust="spacing" textLength="6.5" x="132.3465" y="170.0284">*</text></g><!--link Klasse to Schueler--><g class="link" data-entity-1="ent0003" data-entity-2="ent0004" data-link-type="dependency" data-source-line="23" id="lnk6"><path codeLine="23" d="M138.63,318.77 C138.63,343.13 138.63,356.87 138.63,381.21" fill="none" id="Klasse-Schueler" style="stroke:#E7E7E7;stroke-width:1;"/><path d="M134.63,315.77 L142.63,323.77 M142.63,315.77 L134.63,323.77" fill="none" style="stroke:#E7E7E7;stroke-width:1;"/><polygon fill="#E7E7E7" points="138.63,387.21,142.63,378.21,138.63,382.21,134.63,378.21,138.63,387.21" style="stroke:#E7E7E7;stroke-width:1;"/><text fill="#FFFFFF" font-family="sans-serif" font-size="13" lengthAdjust="spacing" textLength="60.0425" x="139.63" y="353.4469">-schueler</text><text fill="#FFFFFF" font-family="sans-serif" font-size="13" lengthAdjust="spacing" textLength="6.5" x="132.3288" y="376.3641">*</text></g><?plantuml-src RL5DIyGm4BtdLmnxgXy5pqKMz2QAbnuyf-dG3SrE99c2hFZVJRBJT5UypRoFUOyapfO-TT176BIPf-0N6ertFW07JJ5HIAnYLHcdOtnY3dPO65-CfzwU41vK8Q0tXyKXV2k0ErcQ6oYR7iVNhC5cXWxEer0O8gDp-A43BJGX9Ky7VGgX2TIFt3vRokqM1ZoXDOSilv3cOnAI19NO6kHAw30qCPEo23qXLphdlzd8ZokohvhdBVdVcgj3Yf8-ubN317dEa2M6-aubzKfxVw7R6hudhCHMTmQJxqyN-OYljjt3xdQtFbu7xLmcKe9KHUsTD57cNm00?></g></svg>