<?plantuml 1.2026.2beta3?><svg xmlns="http://www.w3.org/2000/svg" xmlns:xlink="http://www.w3.org/1999/xlink" contentStyleType="text/css" data-diagram-type="CLASS" height="458px" preserveAspectRatio="none" style="width:313px;height:458px;" version="1.1" viewBox="0 0 313 458" width="313px" zoomAndPan="magnify"><defs/><g><!--class Schule--><g class="entity" data-qualified-name="Schule" data-source-line="3" id="ent0002"><rect fill="#313139" height="96.8906" rx="2.5" ry="2.5" style="stroke:#E7E7E7;stroke-width:0.5;" width="299.3486" x="7" y="7"/><ellipse cx="129.0078" cy="23" fill="#2E5233" rx="11" ry="11" style="stroke:#E7E7E7;stroke-width:1;"/><path d="M131.9766,28.6406 Q131.3984,28.9375 130.7578,29.0781 Q130.1172,29.2344 129.4141,29.2344 Q126.9141,29.2344 125.5859,27.5938 Q124.2734,25.9375 124.2734,22.8125 Q124.2734,19.6875 125.5859,18.0313 Q126.9141,16.375 129.4141,16.375 Q130.1172,16.375 130.7578,16.5313 Q131.4141,16.6875 131.9766,16.9844 L131.9766,19.7031 Q131.3516,19.125 130.7578,18.8594 Q130.1641,18.5781 129.5391,18.5781 Q128.1953,18.5781 127.5078,19.6563 Q126.8203,20.7188 126.8203,22.8125 Q126.8203,24.9063 127.5078,25.9844 Q128.1953,27.0469 129.5391,27.0469 Q130.1641,27.0469 130.7578,26.7813 Q131.3516,26.5 131.9766,25.9219 L131.9766,28.6406 Z " fill="#FFFFFF"/><text fill="#FFFFFF" font-family="sans-serif" font-size="14" lengthAdjust="spacing" textLength="46.833" x="149.5078" y="27.8467">Schule</text><line style="stroke:#E7E7E7;stroke-width:0.5;" x1="8" x2="305.3486" y1="39" y2="39"/><line style="stroke:#E7E7E7;stroke-width:0.5;" x1="8" x2="305.3486" y1="47" y2="47"/><text fill="#FFFFFF" font-family="sans-serif" font-size="14" lengthAdjust="spacing" textLength="69.4873" x="13" y="63.9951">+Schule()</text><text fill="#FFFFFF" font-family="sans-serif" font-size="14" lengthAdjust="spacing" textLength="157.3359" x="13" y="80.292">+addLehrer(l : Lehrer)</text><text fill="#FFFFFF" font-family="sans-serif" font-size="14" lengthAdjust="spacing" textLength="287.3486" x="13" y="96.5889">+findeVielBeschaeftigte() : List&lt;Lehrer&gt;</text></g><!--class Lehrer--><g class="entity" data-qualified-name="Lehrer" data-source-line="8" id="ent0003"><rect fill="#313139" height="96.8906" rx="2.5" ry="2.5" style="stroke:#E7E7E7;stroke-width:0.5;" width="217.7686" x="47.79" y="180.89"/><ellipse cx="129.7187" cy="196.89" fill="#2E5233" rx="11" ry="11" style="stroke:#E7E7E7;stroke-width:1;"/><path d="M132.6875,202.5306 Q132.1093,202.8275 131.4687,202.9681 Q130.8281,203.1244 130.125,203.1244 Q127.625,203.1244 126.2968,201.4838 Q124.9843,199.8275 124.9843,196.7025 Q124.9843,193.5775 126.2968,191.9213 Q127.625,190.265 130.125,190.265 Q130.8281,190.265 131.4687,190.4213 Q132.125,190.5775 132.6875,190.8744 L132.6875,193.5931 Q132.0625,193.015 131.4687,192.7494 Q130.875,192.4681 130.25,192.4681 Q128.9062,192.4681 128.2187,193.5463 Q127.5312,194.6088 127.5312,196.7025 Q127.5312,198.7963 128.2187,199.8744 Q128.9062,200.9369 130.25,200.9369 Q130.875,200.9369 131.4687,200.6713 Q132.0625,200.39 132.6875,199.8119 L132.6875,202.5306 Z " fill="#FFFFFF"/><text fill="#FFFFFF" font-family="sans-serif" font-size="14" lengthAdjust="spacing" textLength="45.4111" x="150.2187" y="201.7367">Lehrer</text><line style="stroke:#E7E7E7;stroke-width:0.5;" x1="48.79" x2="264.5586" y1="212.89" y2="212.89"/><line style="stroke:#E7E7E7;stroke-width:0.5;" x1="48.79" x2="264.5586" y1="220.89" y2="220.89"/><text fill="#FFFFFF" font-family="sans-serif" font-size="14" lengthAdjust="spacing" textLength="68.0654" x="53.79" y="237.8851">+Lehrer()</text><text fill="#FFFFFF" font-family="sans-serif" font-size="14" lengthAdjust="spacing" textLength="160.4326" x="53.79" y="254.182">+addKlasse(k : Klasse)</text><text fill="#FFFFFF" font-family="sans-serif" font-size="14" lengthAdjust="spacing" textLength="205.7686" x="53.79" y="270.4789">+getKlassen() : List&lt;Klasse&gt;</text></g><!--class Klasse--><g class="entity" data-qualified-name="Klasse" data-source-line="13" id="ent0004"><rect fill="#313139" height="96.8906" rx="2.5" ry="2.5" style="stroke:#E7E7E7;stroke-width:0.5;" width="197.8555" x="57.75" y="354.78"/><ellipse cx="130.0024" cy="370.78" fill="#2E5233" rx="11" ry="11" style="stroke:#E7E7E7;stroke-width:1;"/><path d="M132.9712,376.4206 Q132.3931,376.7175 131.7524,376.8581 Q131.1118,377.0144 130.4087,377.0144 Q127.9087,377.0144 126.5806,375.3738 Q125.2681,373.7175 125.2681,370.5925 Q125.2681,367.4675 126.5806,365.8113 Q127.9087,364.155 130.4087,364.155 Q131.1118,364.155 131.7524,364.3113 Q132.4087,364.4675 132.9712,364.7644 L132.9712,367.4831 Q132.3462,366.905 131.7524,366.6394 Q131.1587,366.3581 130.5337,366.3581 Q129.1899,366.3581 128.5024,367.4363 Q127.8149,368.4988 127.8149,370.5925 Q127.8149,372.6863 128.5024,373.7644 Q129.1899,374.8269 130.5337,374.8269 Q131.1587,374.8269 131.7524,374.5613 Q132.3462,374.28 132.9712,373.7019 L132.9712,376.4206 Z " fill="#FFFFFF"/><text fill="#FFFFFF" font-family="sans-serif" font-size="14" lengthAdjust="spacing" textLength="44.8506" x="150.5024" y="375.6267">Klasse</text><line style="stroke:#E7E7E7;stroke-width:0.5;" x1="58.75" x2="254.6055" y1="386.78" y2="386.78"/><text fill="#FFFFFF" font-family="sans-serif" font-size="14" lengthAdjust="spacing" textLength="144.2656" x="63.75" y="403.7751">-anzahlSchueler : int</text><line style="stroke:#E7E7E7;stroke-width:0.5;" x1="58.75" x2="254.6055" y1="411.0769" y2="411.0769"/><text fill="#FFFFFF" font-family="sans-serif" font-size="14" lengthAdjust="spacing" textLength="145.5166" x="63.75" y="428.072">+Klasse(anzahl : int)</text><text fill="#FFFFFF" font-family="sans-serif" font-size="14" lengthAdjust="spacing" textLength="185.8555" x="63.75" y="444.3689">+getAnzahlSchueler() : int</text></g><!--link Schule to Lehrer--><g class="link" data-entity-1="ent0002" data-entity-2="ent0003" data-link-type="dependency" data-source-line="18" id="lnk5"><path codeLine="18" d="M156.67,112.32 C156.67,136.07 156.67,150.66 156.67,174.41" fill="none" id="Schule-Lehrer" style="stroke:#E7E7E7;stroke-width:1;"/><path d="M152.67,109.32 L160.67,117.32 M160.67,109.32 L152.67,117.32" fill="none" style="stroke:#E7E7E7;stroke-width:1;"/><polygon fill="#E7E7E7" points="156.67,180.41,160.67,171.41,156.67,175.41,152.67,171.41,156.67,180.41" style="stroke:#E7E7E7;stroke-width:1;"/><text fill="#FFFFFF" font-family="sans-serif" font-size="13" lengthAdjust="spacing" textLength="73.9502" x="157.67" y="146.9569">-lehrerListe</text><text fill="#FFFFFF" font-family="sans-serif" font-size="13" lengthAdjust="spacing" textLength="6.5" x="150.2999" y="169.9037">*</text></g><!--link Lehrer to Klasse--><g class="link" data-entity-1="ent0003" data-entity-2="ent0004" data-link-type="dependency" data-source-line="19" id="lnk6"><path codeLine="19" d="M156.67,286.22 C156.67,309.96 156.67,324.56 156.67,348.3" fill="none" id="Lehrer-Klasse" style="stroke:#E7E7E7;stroke-width:1;"/><path d="M152.67,283.22 L160.67,291.22 M160.67,283.22 L152.67,291.22" fill="none" style="stroke:#E7E7E7;stroke-width:1;"/><polygon fill="#E7E7E7" points="156.67,354.3,160.67,345.3,156.67,349.3,152.67,345.3,156.67,354.3" style="stroke:#E7E7E7;stroke-width:1;"/><text fill="#FFFFFF" font-family="sans-serif" font-size="13" lengthAdjust="spacing" textLength="53.5806" x="157.67" y="320.8469">-klassen</text><text fill="#FFFFFF" font-family="sans-serif" font-size="13" lengthAdjust="spacing" textLength="6.5" x="150.2994" y="343.7937">*</text></g><?plantuml-src LL3DJiCm3BxdAQoT2gWIvmfD6ZS4jqdSlTHhemON9Qw4XlRkfB5PuMP_lqxo5FWJ4tx02Vqqf7dXtiznJY09EHUAM5o-gNp4d0yYAPmMeHS_yp5S21vT9U3enoKIV3k01rkQEwWRzlqRZObI4w437Oqw1-xfFL1yfkn7fBE4GLPZqOKiJohUWxjQZG9MOwbRpUkgeMOgTXsD6aXqvorQWJ_H2jJe5f0lECRr7HHBNmU1HREiGmLAR2s7VxPQLerNP__prRPxsDtlVX_IGHlhjDv4pj2Rocuggadl_m40?></g></svg>